<?xml version="1.0" encoding="utf-8"?>
<!-- Generator: Adobe Illustrator 19.0.0, SVG Export Plug-In . SVG Version: 6.00 Build 0)  -->
<svg version="1.1" id="Layer_1" xmlns="http://www.w3.org/2000/svg" xmlns:xlink="http://www.w3.org/1999/xlink" x="0px" y="0px"
	 viewBox="0 0 198.4 198.4" style="enable-background:new 0 0 198.4 198.4;" xml:space="preserve">
<path id="XMLID_247_" d="M103,97.5c0.4,0.1,0.8,0.2,1.2,0.3c1.7,0.6,3,1.6,3.5,3.4c0.6,2.3-0.4,4.6-2.5,5.8
	c-1.2,0.7-2.5,1.1-3.8,1.1c-3,0.1-6,0.1-9.1,0.2c-0.6,0-0.8-0.2-0.8-0.7c0-0.5,0.2-0.8,0.8-0.8c0.2,0,0.4,0,0.6-0.1
	c0.4-0.1,0.7-0.3,0.7-0.8c0-2.4,0.1-4.8,0.1-7.1c0-2.4-0.1-4.8-0.1-7.1c0-0.5-0.1-0.9-0.1-1.4c0-0.5-0.4-0.7-0.8-0.7
	c-0.2,0-0.4,0-0.6,0c-0.4,0-0.6-0.3-0.6-0.6c0-0.4,0.1-0.7,0.5-0.8c0.2,0,0.3-0.1,0.5-0.1c2.1,0,4.2,0,6.3,0c1.5,0,3.1,0.1,4.6,0.7
	c1.7,0.7,2.9,1.7,3.2,3.6c0.4,2.3-1,4.4-3.3,4.9c-0.1,0-0.2,0-0.2,0.1C103,97.4,103,97.4,103,97.5z M97.7,102.2c0,0.1,0,0.3,0,0.4
	c0,1,0,1.9,0,2.9c0,0.6,0.3,1.1,1,1c0.3,0,0.6,0,0.8,0c2.3-0.2,3.6-1.2,4-3.4c0.1-0.4,0-0.7,0-1.1c0-1.6-0.9-2.8-2.4-3.3
	c-0.9-0.3-1.9-0.3-2.9-0.3c-0.5,0-0.6,0.2-0.6,0.6C97.7,100.2,97.7,101.2,97.7,102.2z M97.7,93.4C97.7,93.4,97.7,93.4,97.7,93.4
	c0,0.7,0,1.5,0,2.2c0,1.3,0,1.4,1.3,1.2c1.8-0.2,2.9-0.9,3.3-2.5c0.1-0.6,0.1-1.3,0.1-1.9c-0.1-1.3-0.8-2.3-2.1-2.6
	c-0.5-0.2-1.1-0.2-1.7-0.2c-0.8,0-0.9,0-0.9,0.8C97.6,91.4,97.7,92.4,97.7,93.4z"/>
<path id="XMLID_244_" d="M86,108.3c-1.2,0-2.4,0-3.5,0c-0.6,0-0.8-0.4-0.7-0.9c0.1-0.3,0.2-0.5,0.6-0.5c0.1,0,0.3,0,0.4,0
	c0.9,0,1.2-0.4,0.9-1.2c-0.4-1.2-0.8-2.3-1.2-3.5c-0.1-0.3-0.3-0.4-0.6-0.4c-1.8,0-3.7,0-5.5,0c-0.5,0-0.7,0.2-0.8,0.6
	c-0.4,1-0.7,2.1-1.1,3.1c-0.3,1.1-0.1,1.3,1,1.4c0.7,0,1,0.3,0.9,0.9c-0.1,0.4-0.2,0.6-0.6,0.6c-1.7,0-3.5,0-5.2,0
	c-0.4,0-0.6-0.3-0.6-0.7c0-0.5,0.2-0.8,0.6-0.8c1.2,0.1,1.7-0.7,2-1.7c1-2.7,2-5.5,3-8.2c1-2.7,1.9-5.5,2.9-8.2
	c0.2-0.6,0.3-0.7,1-0.7c1.6,0,1.5-0.2,2.1,1.2c2.1,5.4,4.2,10.9,6.3,16.3c0.3,0.8,0.8,1.3,1.7,1.3c0.5,0,0.7,0.3,0.7,0.7
	c0,0.5-0.2,0.7-0.8,0.7C88.3,108.3,87.2,108.3,86,108.3C86,108.3,86,108.3,86,108.3z M79,92.9c0,0-0.1,0-0.1,0
	c-0.8,2.3-1.6,4.7-2.5,7.1c1.8,0,3.5,0,5.3,0C80.8,97.6,79.9,95.3,79,92.9z"/>
<path id="XMLID_243_" d="M125.6,89.6c0.1-0.2,0.1-0.5,0.2-0.8c0.1-0.4,0.5-0.5,0.8-0.5c0.4,0,0.7,0.2,0.7,0.6c0,0.2,0.1,0.4,0.1,0.7
	c0,1.4,0,2.9,0,4.3c0,0.7-0.2,1-0.6,1c-0.6,0.1-1-0.1-1.1-0.8c-0.3-1.1-0.8-2.1-1.5-2.9c-1.5-1.6-4.8-2.2-6.9-0.5
	c-1.6,1.2-2.4,2.8-2.8,4.7c-0.5,2.4-0.5,4.8,0.4,7.1c0.8,2,2.1,3.6,4.3,4.1c2.4,0.6,5.2-0.4,6.6-2.4c0.2-0.3,0.4-0.6,0.7-0.9
	c0.3-0.3,0.9-0.4,1.2-0.3c0.4,0.2,0.3,0.6,0.3,0.9c-0.1,1.2-0.6,2.2-1.6,2.9c-3.9,2.7-9.6,2.5-13.1-0.7c-2-1.8-3.1-4.2-3.3-6.9
	c-0.2-3.9,1.3-7.1,4.3-9.5c1-0.8,2.2-1.3,3.4-1.6c1.9-0.4,3.7-0.5,5.5,0.2C124,88.6,124.7,89.2,125.6,89.6z"/>
</svg>
