<?xml version="1.0" encoding="utf-8"?>
<!-- Generator: Adobe Illustrator 19.0.0, SVG Export Plug-In . SVG Version: 6.00 Build 0)  -->
<svg version="1.1" id="Layer_1" xmlns="http://www.w3.org/2000/svg" xmlns:xlink="http://www.w3.org/1999/xlink" x="0px" y="0px"
	 viewBox="110.9 50.6 32.6 38.7" style="enable-background:new 110.9 50.6 32.6 38.7;" xml:space="preserve">
<path d="M142.1,64.5c-1.4,0.1-2.7,0.2-4.1,0.4c0-0.2,0-0.3,0-0.5c-0.3-2.2-1.3-4-2.7-5.5c1-1.2,1.9-2.2,2.9-3.4
	c0.3-0.4,0.3-0.8,0-1.1c-0.3-0.2-0.6-0.2-1,0.2c-0.1,0.1-0.2,0.3-0.3,0.4c-0.3,0.3-0.5,0.6-0.8,0.9c-0.6,0.7-1.2,1.4-1.8,2.1
	c-0.5-0.4-1-0.7-1.5-1.1c-1.6-0.9-3.3-1.4-5-1.4c0-0.5,0-1.1,0-1.7c0.1-0.7,0.1-1.3,0.1-2c0-0.6-0.2-0.8-0.6-0.8
	c-0.4,0-0.6,0.3-0.6,0.8c0,0.6,0,1.3,0,2c0,0.6,0,1.1,0,1.7c-0.5,0-0.9,0.1-1.4,0.1c-1.7,0.3-3.5,1.1-5,2.4c-0.9-1-2-2.1-2.9-3.2
	c-0.1-0.1-0.3-0.2-0.5-0.3c-0.3,0.1-0.5,0.2-0.4,0.3c-0.1,0.1-0.1,0.4,0,0.6c0,0.1,0.1,0.2,0.2,0.3c0.4,0.5,0.9,1,1.3,1.5
	c0.5,0.6,1,1.1,1.4,1.6c-1.5,1.5-2.5,3.5-2.7,5.9c-0.3,0-0.6-0.1-0.8-0.1c-0.9,0-1.7-0.1-2.6-0.1c-0.4,0-0.7,0-1,0
	c-0.4,0.1-0.7,0.4-0.7,0.7c0,0.4,0.3,0.6,0.7,0.6c0.1,0,0.1,0,0.1,0c0.7,0,1.3,0,2,0c0.1,0.1,0.2,0.1,0.5-0.1c0.6,0,1.2,0,1.8,0
	c0,2,0.4,3.8,1.4,5.5c0.3,0.6,0.7,1.1,1,1.6c0,0,0,0,0,0c-0.3,0.1-0.6,0.4-0.9,0.6c-0.9,0.7-1.8,1.5-2.7,2.2
	c-0.3,0.3-0.3,0.5-0.1,0.8c0.2,0.3,0.5,0.4,0.8,0.2c0.2-0.1,0.4-0.2,0.5-0.3c0.4-0.3,0.8-0.6,1.2-1c0.5-0.5,1.1-0.9,1.6-1.4
	c0.1-0.1,0.2-0.1,0.3-0.2c0.1,0.1,0.2,0.2,0.2,0.3c0.8,1.1,1.2,2.3,1.4,3.6c0.1,1,0.1,2.1,0.8,2.9c-0.1,0.4-0.3,0.7-0.3,1
	s0.2,0.6,0.3,1c-0.4,0.5-0.4,1,0,1.6c0.1,0.2,0.1,0.4,0.1,0.5c-0.2,0.8,0.2,1.4,0.8,1.9c0.4,0.3,0.8,0.7,1.1,1.1
	c1,1.6,2.8,1.9,4.5,1.3c0.4-0.2,0.9-0.5,1.2-0.9c0.4-0.5,0.8-0.9,1.3-1.2c0.7-0.4,1.1-1.1,1-2c0-0.1,0-0.4,0.1-0.5
	c0.4-0.6,0.4-1.1,0-1.7c0.7-1,0.8-1.1,0-2.2c0.9-0.6,0.9-1.6,1-2.8c0.1-1.4,0.5-2.6,1.4-3.7c0.3-0.4,0.6-0.7,0.9-1.1
	c0,0,0.1-0.1,0.1-0.1c0,0,0.1,0.1,0.1,0.1c1.1,1,2.3,2,3.4,3c0.2,0.2,0.5,0.2,0.7,0c0.4-0.3,0.4-0.7,0-1c-1.1-0.9-2.3-1.9-3.4-2.8
	c0,0-0.1-0.1-0.2-0.1c1.2-1.7,1.8-3.7,1.8-5.8c0.4,0,0.9-0.1,1.3-0.1c1-0.1,1.9-0.1,2.8-0.2c0.5-0.1,0.7-0.3,0.7-0.7
	C142.8,64.7,142.6,64.5,142.1,64.5z M123.5,81.6c1.6-0.6,3.9-0.7,5.6-0.5C127.2,81.5,125.4,81.8,123.5,81.6z M126.5,70.7
	c0.6,0,1.1,0,1.7,0c-0.1,2.8-0.3,5.6-0.4,8.4c-0.4,0-0.7,0-1.1,0C126.6,76.3,126.6,73.6,126.5,70.7z M125.6,87.6
	c1.1-0.2,2.2-0.4,3.3-0.5C127.9,87.6,126.2,87.9,125.6,87.6z M123.8,84.8c2.3-0.8,4.5-0.9,6.8-0.6C128.4,84.7,126.1,84.9,123.8,84.8
	z M123.7,83c2.4-0.9,4.9-0.8,7.4-0.6C128.6,82.8,126.2,83.1,123.7,83z M134.9,71.1c-0.4,0.5-0.8,1.1-1.2,1.6
	c-1.1,1.4-1.8,2.9-1.9,4.7c0,0.2-0.1,0.3-0.1,0.4c-0.3,1.3-0.4,1.3-1.7,1.3c-0.4,0-0.9,0-1.4,0c0-1.2,0.1-2.3,0.2-3.6
	c0.1-1,0.1-1.9,0.2-2.9c0.1-0.5,0.1-1.1,0.2-1.7c0.1-0.3,0.2-0.6,0.6-0.7c1-0.4,1.8-1,2.1-2.1c0.3-0.7,0-1.4-0.6-1.7
	s-1.4-0.2-1.8,0.4c-0.4,0.6-0.6,1.2-0.9,1.8c-0.1,0.2-0.1,0.5-0.2,0.9c-0.6,0.1-1.3,0-2,0c-0.1-0.4-0.2-0.9-0.4-1.3
	c-0.3-0.5-0.5-1.1-0.9-1.5c-0.5-0.5-1-0.7-1.7-0.4c-0.7,0.3-1,0.8-1,1.5c-0.1,0.9,0.4,1.6,1.2,2c0.5,0.2,0.9,0.4,1.4,0.5
	c0.3,0.2,0.5,0.3,0.5,0.7c0.1,2.7,0.3,5.4,0.5,8.1c-0.4,0.2-2,0.3-2.3,0.2c-0.4-0.2-0.5-0.5-0.6-0.8c-0.1-0.5-0.1-0.9-0.2-1.4
	c-0.2-1.6-0.9-2.9-1.8-4.1c-0.5-0.7-1-1.4-1.5-2.1c-2.3-3.5-1.9-8.3,1.3-11.3c1.3-1.4,2.9-2.2,4.8-2.4c4.7-0.4,8.8,1.8,10.3,6.6
	C136.8,66.4,136.4,68.9,134.9,71.1z M129.5,69.4c0-0.8,0.2-1.5,0.6-2.1c0.2-0.3,0.5-0.3,0.8-0.2c0.3,0.2,0.4,0.6,0.2,0.9
	C130.8,68.7,130.2,69.1,129.5,69.4z M125.3,69.3c-0.1,0-0.1,0.1-0.2,0.1c-0.5-0.1-0.9-0.2-1.2-0.4c-0.6-0.3-0.8-0.9-0.6-1.4
	c0.3-0.6,0.9-0.8,1.3-0.3c0.1,0.1,0.2,0.2,0.2,0.3C125,68.2,125.1,68.7,125.3,69.3z"/>
</svg>
