<?xml version="1.0" encoding="utf-8"?>
<!-- Generator: Adobe Illustrator 19.0.0, SVG Export Plug-In . SVG Version: 6.00 Build 0)  -->
<svg version="1.1" id="Layer_1" xmlns="http://www.w3.org/2000/svg" xmlns:xlink="http://www.w3.org/1999/xlink" x="0px" y="0px"
	 viewBox="0 0 198.4 198.4" style="enable-background:new 0 0 198.4 198.4;" xml:space="preserve">
<path id="XMLID_296_" d="M104.3,110.1c0.8,1.1,0.7,1.2,0,2.2c0.4,0.6,0.4,1.1,0,1.7c-0.1,0.1-0.1,0.4-0.1,0.5c0.1,0.9-0.3,1.6-1,2
	c-0.5,0.3-0.9,0.7-1.3,1.2c-0.3,0.4-0.8,0.7-1.2,0.9c-1.7,0.6-3.5,0.3-4.5-1.3c-0.3-0.4-0.7-0.8-1.1-1.1c-0.6-0.5-1-1.1-0.8-1.9
	c0-0.1,0-0.3-0.1-0.5c-0.4-0.6-0.4-1.1,0-1.6c-0.1-0.4-0.3-0.7-0.3-1c0-0.3,0.2-0.6,0.3-1c-0.7-0.8-0.7-1.9-0.8-2.9
	c-0.2-1.3-0.6-2.5-1.4-3.6c-0.7-0.9-1.3-1.8-1.9-2.8c-1.2-1.9-1.6-4.1-1.4-6.4c0.4-5.1,4.6-8.5,8.6-9.2c2.6-0.4,5.2-0.1,7.5,1.3
	c2.8,1.7,4.7,4.2,5.2,7.5c0.4,3.1-0.3,6-2.4,8.4c-0.3,0.4-0.6,0.7-0.9,1.1c-0.9,1.1-1.3,2.3-1.4,3.7
	C105.2,108.5,105.2,109.5,104.3,110.1z M100.6,108.8c0.5,0,1,0,1.4,0c1.3,0,1.4,0,1.7-1.3c0-0.1,0.1-0.2,0.1-0.4
	c0.1-1.8,0.8-3.3,1.9-4.7c0.4-0.5,0.8-1.1,1.2-1.6c1.5-2.2,1.9-4.7,1.1-7.3c-1.5-4.8-5.6-7-10.3-6.6c-1.9,0.2-3.5,1-4.8,2.4
	c-3.2,3-3.6,7.8-1.3,11.3c0.5,0.7,1,1.4,1.5,2.1c0.9,1.2,1.6,2.5,1.8,4.1c0.1,0.5,0.1,0.9,0.2,1.4c0.1,0.3,0.2,0.6,0.6,0.8
	c0.3,0.1,1.9,0,2.3-0.2c-0.2-2.7-0.4-5.4-0.5-8.1c0-0.4-0.2-0.5-0.5-0.7c-0.5-0.1-0.9-0.3-1.4-0.5c-0.8-0.4-1.3-1.1-1.2-2
	c0-0.7,0.3-1.2,1-1.5c0.7-0.3,1.2-0.1,1.7,0.4c0.4,0.4,0.6,1,0.9,1.5c0.2,0.4,0.3,0.9,0.4,1.3c0.7,0,1.4,0.1,2,0
	c0.1-0.4,0.1-0.7,0.2-0.9c0.3-0.6,0.5-1.2,0.9-1.8c0.4-0.6,1.2-0.7,1.8-0.4c0.6,0.3,0.9,1,0.6,1.7c-0.3,1.1-1.1,1.7-2.1,2.1
	c-0.4,0.1-0.5,0.4-0.6,0.7c-0.1,0.6-0.1,1.2-0.2,1.7c-0.1,1-0.1,1.9-0.2,2.9C100.7,106.5,100.6,107.6,100.6,108.8z M98.5,100.4
	c0.1,2.9,0.1,5.6,0.2,8.4c0.4,0,0.7,0,1.1,0c0.1-2.8,0.3-5.6,0.4-8.4C99.6,100.4,99.1,100.4,98.5,100.4z M103.1,112.1
	c-2.5-0.2-5-0.3-7.4,0.6C98.2,112.8,100.6,112.5,103.1,112.1z M95.8,114.5c2.3,0.1,4.6-0.1,6.8-0.6
	C100.3,113.6,98.1,113.7,95.8,114.5z M97.1,99.1c0.1,0,0.1-0.1,0.2-0.1c-0.2-0.6-0.3-1.1-0.5-1.7c0-0.1-0.1-0.2-0.2-0.3
	c-0.4-0.5-1-0.3-1.3,0.3c-0.2,0.5,0,1.1,0.6,1.4C96.2,98.9,96.6,99,97.1,99.1z M101.5,99.1c0.7-0.3,1.3-0.7,1.6-1.4
	c0.2-0.3,0.1-0.7-0.2-0.9c-0.3-0.1-0.6-0.1-0.8,0.2C101.7,97.6,101.5,98.3,101.5,99.1z M95.5,111.3c1.9,0.2,3.7-0.1,5.6-0.5
	C99.4,110.6,97.1,110.7,95.5,111.3z M97.6,117.3c0.6,0.3,2.3,0,3.3-0.5C99.8,116.9,98.7,117.1,97.6,117.3z"/>
<path id="XMLID_287_" d="M108.4,87.2c-0.2-0.2-0.5-0.4-0.6-0.6c-0.2-0.2,0-0.4,0.2-0.6c0.7-0.8,1.4-1.6,2.1-2.4
	c0.3-0.3,0.5-0.6,0.8-0.9c0.1-0.1,0.2-0.3,0.3-0.4c0.4-0.4,0.7-0.4,1-0.2c0.3,0.3,0.3,0.7,0,1.1c-1,1.2-2,2.3-3,3.5
	C109,86.9,108.7,87,108.4,87.2z"/>
<path id="XMLID_286_" d="M86.9,82.2c0.2,0.1,0.4,0.2,0.5,0.3c1,1.1,2.1,2.3,3.1,3.4c0.1,0.1,0.1,0.2,0.2,0.2
	c0.2,0.3,0.1,0.6-0.1,0.8c-0.3,0.2-0.5,0.2-0.8,0c-0.6-0.7-1.2-1.3-1.8-2c-0.4-0.5-0.9-1-1.3-1.5c-0.1-0.1-0.2-0.2-0.2-0.3
	c-0.1-0.2-0.1-0.5,0-0.6C86.4,82.4,86.6,82.3,86.9,82.2z"/>
<path id="XMLID_285_" d="M117.1,94.2c0.5,0,0.7,0.2,0.8,0.6c0,0.4-0.2,0.6-0.7,0.7c-0.9,0.1-1.8,0.1-2.8,0.2c-0.5,0-1,0.1-1.5,0.1
	c-0.4,0-0.6-0.2-0.6-0.5c0-0.4,0.2-0.7,0.6-0.7C114.3,94.4,115.7,94.3,117.1,94.2z"/>
<path id="XMLID_284_" d="M98.7,80.5c0-0.7,0-1.4,0-2c0-0.5,0.2-0.8,0.6-0.8c0.4,0,0.6,0.2,0.6,0.8c0,0.7,0,1.3-0.1,2
	c0,0.7,0,1.4,0,2c0,0.1,0,0.3,0,0.4c-0.1,0.3-0.3,0.5-0.6,0.5c-0.3,0-0.5-0.2-0.5-0.6C98.7,82.1,98.7,81.3,98.7,80.5
	C98.7,80.5,98.7,80.5,98.7,80.5z"/>
<path id="XMLID_283_" d="M110.1,103.5c0.1,0.1,0.3,0.1,0.4,0.2c1.1,0.9,2.3,1.9,3.4,2.8c0.4,0.3,0.4,0.7,0,1c-0.2,0.2-0.5,0.2-0.7,0
	c-1.1-1-2.3-2-3.4-3c-0.1-0.1-0.2-0.2-0.3-0.4C109.4,103.8,109.7,103.4,110.1,103.5z"/>
<path id="XMLID_282_" d="M83.4,95.5c-0.7,0-1.3,0-2,0c0,0,0,0-0.1,0c-0.4,0-0.7-0.2-0.7-0.6c0-0.3,0.3-0.6,0.7-0.7c0.3,0,0.6,0,1,0
	c0.9,0,1.7,0.1,2.6,0.1c0.3,0,0.7,0.1,1,0.1c0.3,0,0.5,0.2,0.5,0.5c0,0.3-0.2,0.5-0.5,0.5c-0.7,0-1.3,0-2,0
	C83.6,95.6,83.5,95.6,83.4,95.5C83.4,95.6,83.4,95.5,83.4,95.5z"/>
<path id="XMLID_281_" d="M88.9,104.2c-0.1,0.1-0.2,0.3-0.4,0.4c-0.5,0.5-1.1,0.9-1.6,1.4c-0.4,0.4-0.8,0.7-1.2,1
	c-0.1,0.1-0.3,0.2-0.5,0.3c-0.3,0.2-0.6,0.1-0.8-0.2c-0.2-0.3-0.2-0.5,0.1-0.8c0.9-0.7,1.8-1.5,2.7-2.2c0.3-0.2,0.6-0.5,0.9-0.6
	C88.5,103.5,88.9,103.7,88.9,104.2z"/>
<path id="XMLID_262_" d="M91.6,94.1c-0.3-0.4-0.3-0.7-0.2-1c0.2-0.6,0.4-1.2,0.8-1.7c1-1.6,2.4-2.8,4.4-3.1c0.1,0,0.3,0,0.4-0.1
	c0.1,0,0.2,0,0.3,0c0,0.3-0.3,0.3-0.5,0.4c-1,0.4-1.9,0.8-2.6,1.5c-1,1-1.8,2.1-2.3,3.4C91.8,93.6,91.7,93.8,91.6,94.1z"/>
<path id="XMLID_261_" d="M107,96.9c0.2,2.2-1.3,5.1-3.1,5.9c0.6-1,1.3-1.9,1.8-2.9C106.2,99,106.5,97.9,107,96.9z"/>
</svg>
