<?xml version="1.0" encoding="utf-8"?>
<!-- Generator: Adobe Illustrator 19.0.0, SVG Export Plug-In . SVG Version: 6.00 Build 0)  -->
<svg version="1.1" id="Layer_1" xmlns="http://www.w3.org/2000/svg" xmlns:xlink="http://www.w3.org/1999/xlink" x="0px" y="0px"
	 viewBox="0 0 54.4 54.4" style="enable-background:new 0 0 54.4 54.4;" xml:space="preserve">
<path id="XMLID_4153_" d="M13.2,31.4c-2.2-3.7-3.9-7.6-4.7-11.8c-0.4-1.8-0.4-3.7-0.2-5.5c0.2-2.2,1.3-4,2.8-5.6
	c1.1-1.2,2.4-2.3,3.9-3.2c0.8-0.5,1.6-0.8,2.5-0.9c0.6-0.1,1.3,0,1.7,0.4c1,0.7,1.8,1.6,2.2,2.8c-0.1,0-0.3,0-0.4-0.1
	c-0.3-0.3-0.4-0.2-0.6,0.1c-0.1,0.1-0.2,0.1-0.3,0.2c0,0,0.1,0.1,0.1,0.1c0.1-0.1,0.1-0.2,0.2-0.3c0.5,0.6,0.6,0.6,1,0
	c0.3,0.6,0.7,1.1,1,1.7c1,1.9,1.8,4,2.2,6.1c0,0.2,0.1,0.4,0.1,0.7c0.1,1.1-0.3,1.9-1.2,2.5c-1,0.6-2.1,1.3-3.1,1.9
	c-1.3,0.7-1.7,1.8-1.5,3.2c0.2,1.2,0.4,2.4,1,3.4c0.8,1.5,1.7,3,2.6,4.4c0.2,0.3,0.3,0.6,0.5,0.8c-0.1,0-0.1,0.1-0.2,0.1
	c0,0,0.1,0,0.1,0c0,0,0.1-0.1,0.1-0.1c0.5,0.6,0.9,1.2,1.5,1.8c0.9,1,1.9,2,2.8,3.1c0,0,0,0,0,0.1c0,0,0,0.1,0,0.1l0,0l-0.1,0
	c0-0.1,0-0.1,0-0.2c0.2,0,0.3,0.1,0.5,0.1c0.8,0.3,1.4,0.2,2.1-0.4c1.2-0.9,2.4-1.8,3.7-2.4c0.3-0.2,0.7-0.4,1.1-0.5
	c0.7-0.2,1.5-0.2,2.1,0.3c1,0.7,1.9,1.4,2.6,2.5l0,0l0,0c0.6,0.6,1.2,1.1,1.8,1.8c0.8,0.9,1.4,1.8,2.1,2.7c-0.1,0.1-0.1,0.1-0.2,0.2
	c0,0,0.1,0,0.1,0.1c0-0.1,0.1-0.2,0.1-0.3c0,0,0.1,0.1,0.1,0.1c1.7,2.1,1.6,3.6-0.4,5.4c-1.3,1.2-3,2.1-4.7,2.7
	c-1.3,0.5-2.7,0.9-4.1,0.8c-1.5,0-3-0.3-4.4-0.9c-1.7-0.7-3.2-1.7-4.6-2.9c-4.7-4-8.2-8.8-11.4-14C13.5,32.1,13.4,31.8,13.2,31.4
	L13.2,31.4L13.2,31.4z M13.8,28.9L13.8,28.9L13.8,28.9L13.8,28.9L13.8,28.9z M19.5,28.9C19.4,28.9,19.4,28.9,19.5,28.9
	C19.4,28.9,19.4,28.9,19.5,28.9L19.5,28.9L19.5,28.9z M16,10.8L16,10.8C15.9,10.7,16,10.8,16,10.8c0.1,0,0.1,0,0.2,0
	c0.1,0,0.1-0.1,0.2-0.1c0,0-0.1,0.1-0.1,0.1C16.1,10.8,16,10.8,16,10.8z M20.4,10.8L20.4,10.8L20.4,10.8L20.4,10.8L20.4,10.8z
	 M18.9,6.5L18.9,6.5L18.9,6.5L18.9,6.5L18.9,6.5z M21.4,9.4L21.4,9.4L21.4,9.4L21.4,9.4L21.4,9.4z M15.4,18
	c-0.1-0.1-0.1-0.1-0.2-0.2c-0.1,0-0.2-0.1-0.2-0.1c0,0,0,0.1,0,0.1c0.1,0,0.2,0,0.3,0C15.2,17.9,15.3,17.9,15.4,18L15.4,18L15.4,18z
	 M12.6,12.6L12.6,12.6L12.6,12.6L12.6,12.6L12.6,12.6z M18.7,16.4L18.7,16.4L18.7,16.4L18.7,16.4L18.7,16.4z M34.6,47.9
	C34.6,47.9,34.6,47.9,34.6,47.9C34.6,47.9,34.6,47.9,34.6,47.9L34.6,47.9L34.6,47.9z M36,47.3L36,47.3L36,47.3L36,47.3L36,47.3z
	 M34.4,48.7L34.4,48.7L34.4,48.7C34.4,48.7,34.5,48.7,34.4,48.7c0-0.1,0-0.2,0-0.2c-0.1-0.1-0.2-0.2-0.3-0.2c0,0.1-0.1,0.2-0.1,0.2
	c-0.1,0-0.1,0.1-0.2,0.1c0,0,0.1,0,0.1,0c0,0,0.1-0.1,0.1-0.1c0.1,0,0.3,0,0.4,0C34.4,48.6,34.4,48.6,34.4,48.7z M34.8,48.9
	L34.8,48.9L34.8,48.9L34.8,48.9L34.8,48.9z M26.8,39.8L26.8,39.8L26.8,39.8L26.8,39.8L26.8,39.8z M17.7,34.9
	c-0.1,0.1-0.1,0.1-0.2,0.2c-0.1,0-0.1,0.1-0.2,0.1c0,0,0.1-0.1,0.1-0.1C17.6,35,17.6,35,17.7,34.9L17.7,34.9L17.7,34.9z M23,35.3
	L23,35.3L23,35.3L23,35.3L23,35.3z M34.8,43.7L34.8,43.7L34.8,43.7c0,0.1,0,0.1,0,0.2c-0.1,0-0.1,0-0.2,0c-0.1,0-0.1,0.1-0.2,0.1
	c0.1,0,0.2,0.1,0.2,0.1c0.1,0,0.1-0.1,0.1-0.2c0,0,0,0,0-0.1C34.8,43.7,34.8,43.7,34.8,43.7z M32.9,46L32.9,46L32.9,46L32.9,46
	L32.9,46z M22.8,42.1L22.8,42.1L22.8,42.1L22.8,42.1L22.8,42.1z M40.5,41.5C40.5,41.5,40.5,41.5,40.5,41.5
	C40.5,41.5,40.5,41.5,40.5,41.5L40.5,41.5L40.5,41.5z M12.9,28.3L12.9,28.3C12.9,28.3,12.8,28.3,12.9,28.3c-0.1,0-0.1,0-0.2-0.1
	C12.7,28.3,12.8,28.3,12.9,28.3z M17.7,5.3L17.7,5.3L17.7,5.3c0-0.1-0.1-0.1-0.1-0.2c0,0,0,0.1,0,0.1C17.6,5.3,17.7,5.3,17.7,5.3z
	 M14.6,5.9c0.1,0,0.1-0.1,0.2-0.1c0,0-0.1,0-0.1,0C14.7,5.9,14.6,5.9,14.6,5.9C14.5,6,14.5,6,14.4,6c0,0,0.1,0,0.1,0
	C14.5,6,14.6,6,14.6,5.9z M26.8,45.8L26.8,45.8L26.8,45.8c0.1,0,0.1,0,0.2,0C27,45.8,26.9,45.8,26.8,45.8z M43.4,45.4L43.4,45.4
	L43.4,45.4c0,0.1,0.1,0.1,0.1,0.2c0,0,0-0.1,0-0.1C43.4,45.5,43.4,45.4,43.4,45.4z M18.3,23.4L18.3,23.4L18.3,23.4
	c0.1,0,0.1,0.1,0.1,0.1c0,0,0,0,0.1,0C18.4,23.5,18.4,23.5,18.3,23.4z M19.3,9c0.1,0,0.1,0,0.2,0.1C19.4,9.1,19.3,9.1,19.3,9
	c0,0-0.1-0.1-0.1-0.1C19.2,8.9,19.2,9,19.3,9z M23.3,17.2c0.1,0,0.1-0.1,0.2-0.1c0,0-0.1,0-0.1,0C23.4,17.1,23.4,17.2,23.3,17.2
	L23.3,17.2C23.3,17.3,23.3,17.2,23.3,17.2z M22.4,33.9L22.4,33.9C22.4,34,22.4,33.9,22.4,33.9c0-0.1-0.1-0.1-0.1-0.2
	c0,0,0,0.1,0,0.1C22.3,33.9,22.3,33.9,22.4,33.9z M16.9,29.3c0,0-0.1,0.1-0.1,0.1c0,0,0,0,0,0.1C16.9,29.4,16.9,29.3,16.9,29.3
	L16.9,29.3L16.9,29.3z M18.3,19.4c-0.1,0-0.1,0.1-0.2,0.1C18.2,19.4,18.2,19.4,18.3,19.4L18.3,19.4L18.3,19.4z M20.8,19.6
	c-0.1,0-0.1,0.1-0.2,0.1C20.7,19.6,20.8,19.6,20.8,19.6L20.8,19.6C20.9,19.5,20.8,19.6,20.8,19.6z M14.8,20.7L14.8,20.7L14.8,20.7
	c0-0.1-0.1-0.1-0.1-0.2c0,0,0,0.1,0,0.1C14.7,20.6,14.8,20.7,14.8,20.7z M14.2,20.5c0-0.1,0-0.3,0-0.4c0-0.2,0-0.4,0-0.6
	c0-0.1,0-0.1,0.1-0.2c0,0.1,0,0.1,0,0.2c-0.2,0.2-0.2,0.4,0,0.6C14.2,20.3,14.2,20.4,14.2,20.5L14.2,20.5
	C14.2,20.6,14.2,20.5,14.2,20.5z M20.4,30.6L20.4,30.6L20.4,30.6c0.1,0,0.1,0,0.2,0C20.5,30.7,20.5,30.7,20.4,30.6z M16.2,22.7
	c-0.1,0-0.1,0-0.2-0.1C16,22.6,16.1,22.6,16.2,22.7c0,0.1,0.1,0.2,0.1,0.3c0,0,0.1,0,0.1-0.1C16.3,22.8,16.2,22.7,16.2,22.7z
	 M17.7,22.5c-0.1,0-0.1,0-0.2,0.1c0,0,0,0.1-0.1,0.2c0.1,0,0.1,0,0.2-0.1C17.7,22.6,17.7,22.5,17.7,22.5c0,0,0.1,0,0.2-0.1
	c0,0,0.1-0.1,0.1-0.2c-0.1,0-0.1,0-0.1,0.1C17.8,22.4,17.7,22.4,17.7,22.5z M10.3,11.2L10.3,11.2L10.3,11.2c0,0.1,0.1,0.1,0.1,0.2
	c0,0,0.1-0.1,0.1-0.1C10.5,11.3,10.4,11.2,10.3,11.2z M21.8,10.8C21.8,10.8,21.8,10.8,21.8,10.8C21.8,10.8,21.8,10.8,21.8,10.8
	c0,0,0-0.1,0-0.2c0-0.1-0.1-0.1-0.2-0.1c0,0.1,0,0.1,0.1,0.2C21.7,10.7,21.7,10.8,21.8,10.8z M17.1,18.2c-0.1,0.1-0.2,0.1-0.3,0.2
	c0.1,0,0.2,0,0.3,0c0.1,0.1,0.3,0.1,0.4,0.2c0.1,0,0.1-0.1,0.2-0.1c-0.1-0.1-0.2-0.1-0.3-0.2c0,0-0.1,0-0.2,0c0-0.1,0-0.2,0-0.3
	C17.2,18,17.2,18.1,17.1,18.2z M11.5,17.2c0-0.1-0.1-0.1-0.1-0.2c0,0,0,0.1,0,0.1C11.4,17.1,11.5,17.2,11.5,17.2
	c0,0,0.1,0.1,0.1,0.1c0,0,0.1,0.1,0.1,0.1c0-0.1,0-0.1-0.1-0.2C11.6,17.2,11.5,17.2,11.5,17.2z M15,19c0,0.1,0,0.1,0,0.2
	c0,0,0.1,0.1,0.2,0.1c0,0,0-0.1-0.1-0.1C15.1,19,15,19,15,19c-0.1,0-0.1-0.1-0.2-0.1c-0.1,0-0.1,0-0.2,0c0.1,0,0.1,0.1,0.2,0.1
	C14.9,19,14.9,19,15,19z M35.6,36.1L35.6,36.1L35.6,36.1c0.1,0.1,0.2,0.1,0.2,0.2c0,0,0,0,0-0.1C35.8,36.2,35.7,36.1,35.6,36.1z
	 M24.1,35.3c0.1,0,0.2,0,0.3,0c0,0,0-0.1,0-0.1C24.3,35.2,24.2,35.3,24.1,35.3L24.1,35.3C24.1,35.3,24.1,35.3,24.1,35.3z M25.5,40.5
	c0.1,0,0.3,0,0.4,0l0,0l0,0c-0.1-0.1-0.2-0.2-0.3-0.2C25.6,40.4,25.5,40.5,25.5,40.5c0,0-0.1,0.1-0.1,0.1c0,0.1,0,0.1,0,0.2
	c0.1,0,0.1-0.1,0.2-0.1C25.5,40.7,25.5,40.6,25.5,40.5z M30.5,43.1c0.1,0,0.2,0,0.3,0c0,0,0-0.1,0-0.1C30.7,43,30.6,43,30.5,43.1
	c-0.1,0-0.1,0.1-0.2,0.1c0,0,0.1,0,0.1,0C30.5,43.1,30.5,43.1,30.5,43.1z M36.6,42.9c-0.1,0-0.2,0-0.3,0c0,0,0,0.1,0,0.1
	C36.4,42.9,36.5,42.9,36.6,42.9c0-0.1,0.1-0.1,0.1-0.1c0,0,0,0,0-0.1C36.6,42.7,36.6,42.8,36.6,42.9z M42.8,43.3
	c0-0.1,0.1-0.2,0.1-0.2c0,0-0.1,0-0.1,0C42.8,43.1,42.8,43.2,42.8,43.3c0,0-0.1,0.1-0.1,0.1C42.7,43.3,42.7,43.3,42.8,43.3z
	 M25.5,39c0,0.1,0,0.2,0,0.3c0,0,0.1,0,0.1,0C25.5,39.2,25.5,39.1,25.5,39c0,0-0.1-0.1-0.1-0.1c0,0-0.1-0.1-0.1-0.1
	c0,0.1,0,0.1,0.1,0.2C25.4,39,25.4,39,25.5,39z M32.5,44.6c0-0.1,0.1-0.2,0.1-0.2c0,0-0.1,0-0.1,0C32.5,44.5,32.5,44.5,32.5,44.6
	c-0.1,0-0.1,0.1-0.2,0.1c0,0,0.1,0.1,0.1,0.1C32.4,44.8,32.4,44.7,32.5,44.6z M14.4,30.8c0.1,0,0.1,0,0.2-0.1
	c0.1-0.1,0.1-0.1,0.1-0.2c-0.1,0-0.2,0-0.2,0.1C14.4,30.7,14.4,30.8,14.4,30.8c0,0-0.1,0.1-0.1,0.1c0,0,0,0,0,0.1
	C14.3,30.9,14.4,30.9,14.4,30.8z M11.9,11.8c0.1-0.1,0.2-0.1,0.3-0.2c0,0-0.1-0.1-0.1-0.1C12,11.6,11.9,11.7,11.9,11.8L11.9,11.8
	L11.9,11.8z M15.4,5.7c0.1-0.1,0.2-0.1,0.3-0.2c0,0,0,0-0.1-0.1C15.5,5.6,15.4,5.7,15.4,5.7L15.4,5.7L15.4,5.7z M17.9,36.6
	c0,0.1,0.1,0.1,0.1,0.2c0,0,0.1,0.1,0.1,0.1c0-0.1,0-0.1-0.1-0.2C18,36.7,18,36.7,17.9,36.6c-0.2-0.1-0.3-0.2-0.4-0.3
	c0,0,0,0.1-0.1,0.1C17.6,36.6,17.7,36.6,17.9,36.6z M19.5,38.8c0.1,0,0.2,0,0.3,0c0-0.1-0.1-0.3-0.1-0.4c0.1,0,0.2,0,0.4,0.1
	c0.1,0.2,0.2,0.4,0.3,0.6c0.2-0.1,0.3-0.2,0.5-0.4c-0.3-0.1-0.5-0.2-0.7-0.3c-0.1-0.1-0.2-0.2-0.3-0.3c0,0.1-0.1,0.2-0.1,0.3
	C19.6,38.5,19.5,38.7,19.5,38.8c0,0-0.1,0.1-0.1,0.1c0,0-0.1,0.1-0.1,0.2c0.1,0,0.1,0,0.2-0.1C19.4,38.9,19.4,38.8,19.5,38.8z
	 M13.8,15.5c0,0.1-0.1,0.1-0.1,0.2c0,0.1,0,0.2,0.1,0.2c0,0,0.1,0,0.1,0c0-0.1,0-0.2,0-0.2C13.9,15.6,13.8,15.5,13.8,15.5
	c0-0.1,0.1-0.1,0.1-0.2c0-0.1,0-0.1,0-0.2c0,0-0.1,0.1-0.1,0.2C13.8,15.3,13.8,15.4,13.8,15.5z M19.5,19.2c-0.1,0-0.2,0-0.3,0
	c-0.1,0-0.1,0.1-0.2,0.2c0.1,0,0.2,0.1,0.3,0.1C19.4,19.4,19.4,19.3,19.5,19.2c0-0.1,0-0.2,0.1-0.3c0,0-0.1,0-0.1,0
	C19.4,19,19.5,19.1,19.5,19.2z M26.3,43.3c-0.2,0-0.4-0.1-0.7-0.1C25.8,43.5,26,43.5,26.3,43.3L26.3,43.3L26.3,43.3z M24.9,44.8
	c-0.1,0-0.2,0.1-0.2,0.1c0,0.1,0,0.2,0,0.3c0.1-0.1,0.1-0.1,0.2-0.2C24.9,45,24.9,44.9,24.9,44.8L24.9,44.8
	C24.9,44.8,24.9,44.8,24.9,44.8z M23,40.9c-0.2,0.1-0.4,0.3-0.2,0.5c0,0,0.1,0,0.2,0.1C23,41.4,23,41.2,23,40.9C23,41,23,41,23,40.9
	c0.1,0,0.2,0,0.3,0c0.1,0,0.1-0.1,0.2-0.2c-0.1,0-0.2,0-0.3,0C23,40.8,23,40.9,23,40.9z M36,37.2c-0.3-0.2-0.5-0.4-0.8-0.6
	c-0.4-0.2-0.8-0.5-1.2-0.6c-0.3-0.1-0.8,0.2-0.9,0.4c0,0.2,0.1,0.5,0.3,0.6c0.4,0.4,0.8,0.7,1.1,1.1c1.3,1.6,2.7,3.2,4,4.9
	c0.6,0.8,1.2,1.6,1.8,2.3c0.1,0.2,0.4,0.3,0.6,0.3c0.6-0.1,0.9-0.7,0.6-1.3c-0.1-0.2-0.2-0.4-0.3-0.6c-0.5-0.8-1-1.6-1.6-2.3l0.1,0
	l0,0.1c-0.3-0.5-0.7-0.9-1-1.4l0,0l0,0c-0.8-0.8-1.6-1.7-2.3-2.5l0,0l0,0C36.2,37.5,36.1,37.4,36,37.2L36,37.2
	C36,37.2,36,37.2,36,37.2z M21.6,16.9c0-0.2-0.1-0.3-0.1-0.4c-0.6-3.2-2-6.1-3.7-8.8c-0.2-0.3-0.5-0.6-0.8-0.9c-0.4-0.4-0.7-0.3-1,0
	C15.8,7,16,7.3,16.2,7.6c1.6,2.1,2.6,4.5,3.4,7c0.3,0.9,0.5,1.8,0.8,2.7c0.1,0.2,0.3,0.4,0.4,0.4c0.2,0,0.5-0.2,0.6-0.4
	C21.6,17.2,21.6,17,21.6,16.9z M18.6,16c0.6,0.2,0.6-0.2,0.8-0.4c0,0,0.1-0.2,0-0.2c-0.1,0-0.3-0.1-0.3-0.1
	C18.9,15.5,18.8,15.7,18.6,16z M20.5,7c-0.5,0-0.5,0-0.8,0.3C20,7.1,20.2,7.1,20.5,7z M22.5,11.6c-0.2-0.1-0.2-0.2-0.3-0.2
	c-0.1,0-0.2,0.1-0.2,0.1c0,0.1,0.1,0.2,0.1,0.2C22.2,11.7,22.3,11.7,22.5,11.6z M22.3,40.3c0.1,0,0.2,0,0.2,0
	c0.1-0.1,0.2-0.2,0.3-0.3c0,0-0.1-0.1-0.1-0.1c-0.1,0.1-0.2,0.2-0.4,0.3C22.3,40.1,22.3,40.2,22.3,40.3z M20.6,36.8
	c-0.1,0.1-0.2,0.1-0.2,0.2c0,0.1,0.1,0.2,0.1,0.2c0.1,0,0.2-0.1,0.2-0.1C20.7,37,20.6,36.9,20.6,36.8z M36.8,36.4
	c0-0.1-0.1-0.1-0.1-0.1c-0.1,0-0.2,0.1-0.2,0.1c0,0.1,0.1,0.2,0.1,0.2C36.7,36.5,36.8,36.5,36.8,36.4z M15.1,19.8
	c0-0.1-0.1-0.2-0.1-0.1c-0.1,0-0.2,0-0.2,0.1c0,0,0.1,0.1,0.1,0.1C14.9,19.8,15,19.8,15.1,19.8z M18.4,13.7
	c-0.1-0.1-0.2-0.1-0.3-0.2c0,0-0.1,0.1-0.1,0.1c0.1,0.1,0.1,0.1,0.2,0.2C18.2,13.8,18.3,13.7,18.4,13.7z M21.4,39.2
	c-0.2-0.1-0.3-0.2-0.3-0.1c-0.1,0-0.1,0.1-0.1,0.2c0,0,0.1,0.1,0.1,0.1C21.2,39.3,21.3,39.3,21.4,39.2z M9.5,14.7c0-0.1,0-0.2,0-0.2
	c-0.1,0-0.2,0-0.3,0c0,0,0,0.1-0.1,0.1C9.2,14.7,9.3,14.7,9.5,14.7z M29.3,45.1C29.2,45,29.2,45,29.2,45c-0.1,0.1-0.1,0.1-0.2,0.2
	c0,0,0,0.1,0.1,0.1C29.1,45.2,29.2,45.2,29.3,45.1z M31.2,46.4c0,0-0.1,0.1-0.1,0.1c0,0,0.1,0.1,0.1,0.1c0-0.1,0.1-0.1,0.1-0.2
	C31.3,46.5,31.3,46.4,31.2,46.4z M14.5,15.5c-0.1,0-0.1-0.1-0.2-0.1c0,0.1-0.1,0.1-0.1,0.2c0,0.1,0.1,0.1,0.2,0.2
	C14.4,15.7,14.4,15.6,14.5,15.5z M13.5,20.6c0-0.1,0-0.1,0-0.2c0,0-0.1,0-0.1,0c0,0.1,0,0.1,0,0.2C13.3,20.6,13.4,20.6,13.5,20.6z
	 M15.1,10.5c-0.1,0-0.1,0-0.1,0.1c0,0,0,0.1,0.1,0.1c0,0,0.1,0,0.1-0.1C15.1,10.6,15.1,10.5,15.1,10.5z M16.3,14.6
	c-0.1,0-0.1-0.1-0.2-0.1c0,0-0.1,0.1-0.1,0.1c0,0,0.1,0.1,0.1,0.1C16.2,14.7,16.2,14.6,16.3,14.6z M19.5,27.3c0,0-0.1-0.1-0.1-0.1
	c0,0-0.1,0.1-0.1,0.1c0,0,0.1,0.1,0.1,0.1C19.4,27.4,19.4,27.4,19.5,27.3z M19.1,19.9c-0.1-0.1-0.1-0.1-0.1-0.1
	c-0.1,0-0.1,0.1-0.1,0.1c0,0,0,0.1,0.1,0.1C19,20,19,20,19.1,19.9z M12.4,28.7c-0.1-0.1-0.2-0.2-0.2-0.2c-0.1,0.1-0.1,0.1-0.1,0.2
	c0,0,0.1,0.1,0.1,0.1C12.2,28.8,12.3,28.7,12.4,28.7z M13.6,29.7c0,0-0.1,0.1-0.1,0.1c0,0,0,0,0.1,0C13.7,29.9,13.7,29.9,13.6,29.7
	C13.7,29.8,13.7,29.8,13.6,29.7z M34.1,41.2c0,0,0-0.1-0.1-0.1c0,0-0.1,0.1-0.1,0.1c0,0,0,0.1,0,0.1C34,41.3,34.1,41.3,34.1,41.2z
	 M40,41.1c0-0.1,0-0.1,0-0.2c-0.1,0-0.1,0-0.2,0.1c0,0,0,0.1,0,0.1C39.8,41.1,39.9,41.1,40,41.1z M41.5,42.9c0,0-0.1-0.1-0.1-0.1
	c0,0-0.1,0,0,0.1c0,0,0.1,0.1,0.1,0.1C41.5,42.9,41.5,42.9,41.5,42.9z M32,47.4C32,47.4,32,47.3,32,47.4c-0.1-0.1-0.1-0.1-0.1-0.1
	c0,0,0,0.1,0,0.1C31.9,47.4,31.9,47.4,32,47.4z M29.9,46.9c-0.1-0.1-0.1-0.1-0.2-0.2c0,0-0.1,0.1-0.1,0.1c0,0,0.1,0.1,0.1,0.1
	C29.8,47,29.8,46.9,29.9,46.9z M20.3,39.5c0,0-0.1-0.1-0.1-0.1c0,0-0.1,0-0.1,0.1c0,0,0.1,0.1,0.1,0.1
	C20.3,39.6,20.3,39.6,20.3,39.5z M13.8,13.4c0,0,0-0.1,0-0.1c-0.1,0-0.1,0-0.2,0.1c0,0,0,0.1,0,0.1C13.7,13.4,13.8,13.4,13.8,13.4z
	 M33.5,43.9c0,0,0.1,0,0.1,0.1c0,0,0.1,0,0-0.1c0,0-0.1-0.1-0.1-0.1C33.6,43.8,33.6,43.8,33.5,43.9z M15.7,30.9
	C15.7,30.8,15.7,30.8,15.7,30.9c-0.1-0.1-0.1-0.1-0.1-0.1C15.6,30.8,15.6,30.9,15.7,30.9C15.6,30.9,15.7,30.9,15.7,30.9z M30.4,49.1
	C30.4,49.1,30.3,49.1,30.4,49.1c-0.1,0-0.1,0-0.1,0.1C30.3,49.2,30.3,49.2,30.4,49.1C30.4,49.2,30.4,49.1,30.4,49.1z M14.3,26
	C14.2,26,14.2,26,14.3,26C14.2,26,14.1,26,14.1,26c0,0,0,0.1,0,0.1C14.2,26.1,14.2,26,14.3,26z M18.4,27.3
	C18.4,27.3,18.4,27.3,18.4,27.3c0.1,0.1,0.1,0.1,0.1,0C18.5,27.3,18.5,27.3,18.4,27.3C18.4,27.3,18.4,27.3,18.4,27.3z M39.6,39.5
	C39.6,39.5,39.6,39.6,39.6,39.5C39.6,39.6,39.6,39.6,39.6,39.5C39.7,39.6,39.7,39.5,39.6,39.5C39.6,39.5,39.6,39.5,39.6,39.5z
	 M40.5,40.3C40.6,40.3,40.6,40.3,40.5,40.3c0.1-0.1,0-0.1,0-0.2c0,0-0.1,0-0.1,0C40.5,40.2,40.5,40.3,40.5,40.3z M21.7,39.5
	c0,0-0.1,0.1-0.1,0.1c0,0,0,0,0,0.1C21.6,39.7,21.7,39.6,21.7,39.5C21.7,39.6,21.7,39.5,21.7,39.5z M27,42.2c0,0,0-0.1-0.1-0.1
	c0,0,0,0,0,0.1C26.9,42.2,26.9,42.2,27,42.2C27,42.3,27,42.2,27,42.2z M33,42.1C33,42.1,33,42.2,33,42.1c0,0.1,0.1,0.1,0.1,0.1
	C33.1,42.1,33.1,42.1,33,42.1C33.1,42.1,33.1,42.1,33,42.1z M31.6,42.6c0,0-0.1-0.1-0.1-0.1c0,0-0.1,0-0.1,0c0,0,0,0.1,0,0.1
	C31.5,42.6,31.5,42.6,31.6,42.6z M41.4,40.7C41.4,40.7,41.4,40.7,41.4,40.7c0.1,0.1,0.1,0.1,0.1,0C41.5,40.7,41.5,40.6,41.4,40.7
	C41.4,40.6,41.4,40.6,41.4,40.7z M19.2,34.1C19.2,34.1,19.2,34.1,19.2,34.1c0-0.1,0-0.1-0.1-0.1c0,0,0,0-0.1,0
	C19.1,34,19.1,34.1,19.2,34.1z M36.1,34.3C36.1,34.3,36,34.2,36.1,34.3c-0.1,0-0.1,0-0.1,0.1C36,34.3,36,34.4,36.1,34.3
	C36.1,34.4,36.1,34.3,36.1,34.3z M22.4,34.6C22.4,34.6,22.4,34.5,22.4,34.6c0-0.1-0.1-0.1-0.1,0C22.3,34.6,22.3,34.6,22.4,34.6
	C22.3,34.6,22.4,34.6,22.4,34.6z M29.1,46C29.1,46,29.1,46,29.1,46C29,45.9,29,46,29,46C29,46,29,46.1,29.1,46
	C29.1,46.1,29.1,46.1,29.1,46z M28.2,46.7C28.2,46.7,28.2,46.7,28.2,46.7c0,0.1,0.1,0.1,0.1,0C28.3,46.7,28.3,46.7,28.2,46.7
	C28.2,46.7,28.2,46.7,28.2,46.7z M27.1,45.4C27.1,45.4,27.1,45.4,27.1,45.4c0.1,0.1,0.1,0.1,0.1,0C27.3,45.4,27.2,45.4,27.1,45.4
	C27.2,45.4,27.2,45.4,27.1,45.4z M22.3,35.6C22.4,35.6,22.4,35.6,22.3,35.6c0.1-0.1,0.1-0.1,0.1-0.1C22.3,35.5,22.3,35.5,22.3,35.6
	C22.3,35.5,22.3,35.6,22.3,35.6z M15.9,15.2C15.9,15.2,15.9,15.2,15.9,15.2c0.1,0.1,0.1,0.1,0.1,0C16,15.2,16,15.2,15.9,15.2
	C16,15.2,15.9,15.2,15.9,15.2z M21.7,15.4C21.7,15.4,21.7,15.4,21.7,15.4c0-0.1,0-0.1-0.1-0.1C21.7,15.4,21.6,15.4,21.7,15.4
	C21.7,15.4,21.7,15.4,21.7,15.4z M20,16.6c0,0-0.1-0.1-0.1-0.1c0,0,0,0.1,0,0.1C19.8,16.6,19.9,16.7,20,16.6
	C19.9,16.7,20,16.6,20,16.6z M23.4,13.8C23.4,13.7,23.4,13.7,23.4,13.8c-0.1-0.1-0.1-0.1-0.1-0.1C23.3,13.7,23.4,13.8,23.4,13.8
	C23.4,13.8,23.4,13.8,23.4,13.8z M9.7,17.1C9.7,17.1,9.7,17.2,9.7,17.1c0,0.1,0,0.1,0.1,0.1C9.8,17.2,9.8,17.2,9.7,17.1
	C9.8,17.1,9.7,17.1,9.7,17.1z M12.7,17.5C12.7,17.4,12.7,17.4,12.7,17.5C12.7,17.4,12.7,17.4,12.7,17.5
	C12.7,17.4,12.7,17.5,12.7,17.5C12.7,17.5,12.7,17.5,12.7,17.5z M20.9,18.7C20.9,18.6,20.9,18.6,20.9,18.7c0-0.1-0.1-0.1-0.1-0.1
	c0,0,0,0,0,0.1C20.8,18.7,20.9,18.7,20.9,18.7z M20.6,9.3c0,0-0.1,0.1-0.1,0.1c0,0,0.1,0.1,0.1,0C20.6,9.4,20.6,9.4,20.6,9.3
	C20.6,9.3,20.6,9.3,20.6,9.3z M20.4,10C20.4,10,20.4,10.1,20.4,10c0,0.1,0.1,0,0.1,0C20.5,10,20.5,10,20.4,10
	C20.5,10,20.4,10,20.4,10z M23.2,12.2c0,0,0.1,0.1,0.1,0.1c0,0,0-0.1,0-0.1C23.4,12.2,23.3,12.2,23.2,12.2
	C23.3,12.1,23.3,12.2,23.2,12.2z M20.9,12.5c0,0-0.1,0-0.1-0.1c0,0-0.1,0.1,0,0.1c0,0,0.1,0.1,0.1,0.1
	C20.8,12.6,20.8,12.5,20.9,12.5z M12.6,11.2C12.5,11.1,12.5,11.1,12.6,11.2c-0.1,0-0.1,0-0.1,0C12.5,11.2,12.5,11.2,12.6,11.2
	C12.5,11.2,12.5,11.2,12.6,11.2z M13.6,22.9C13.6,22.9,13.6,22.9,13.6,22.9c0,0.1,0.1,0,0.1,0C13.7,22.9,13.7,22.8,13.6,22.9
	C13.7,22.8,13.6,22.8,13.6,22.9z M10.1,21.3C10.1,21.3,10.2,21.3,10.1,21.3c0-0.1,0-0.1,0-0.1C10.1,21.2,10.1,21.3,10.1,21.3
	C10.1,21.3,10.1,21.3,10.1,21.3z M25.2,41.3L25.2,41.3L25.2,41.3L25.2,41.3z M20.7,41.2L20.7,41.2L20.7,41.2L20.7,41.2z M35.7,41.9
	L35.7,41.9L35.7,41.9L35.7,41.9z M32,41.9L32,41.9L32,41.9L32,41.9z M22.4,41.6C22.4,41.6,22.4,41.6,22.4,41.6
	C22.3,41.6,22.3,41.6,22.4,41.6C22.3,41.6,22.4,41.7,22.4,41.6C22.4,41.7,22.4,41.6,22.4,41.6z M9.7,12.4L9.7,12.4L9.7,12.4
	L9.7,12.4z M24.3,40.7C24.3,40.7,24.2,40.7,24.3,40.7C24.2,40.7,24.2,40.7,24.3,40.7C24.2,40.7,24.2,40.8,24.3,40.7
	C24.2,40.8,24.3,40.8,24.3,40.7z M16.3,12.9L16.3,12.9L16.3,12.9L16.3,12.9z M40.9,40.6L40.9,40.6L40.9,40.6L40.9,40.6z M23.1,43.2
	L23.1,43.2L23.1,43.2L23.1,43.2z M25.4,43.8L25.4,43.8L25.4,43.8L25.4,43.8z M14.4,11.5L14.4,11.5L14.4,11.5L14.4,11.5z M42.7,42.5
	C42.7,42.5,42.7,42.5,42.7,42.5C42.7,42.4,42.7,42.5,42.7,42.5C42.7,42.5,42.7,42.5,42.7,42.5C42.7,42.5,42.7,42.5,42.7,42.5z
	 M41.5,42.4L41.5,42.4L41.5,42.4L41.5,42.4z M27.5,42.5L27.5,42.5L27.5,42.5L27.5,42.5z M25.5,42.8L25.5,42.8L25.5,42.8L25.5,42.8z
	 M13.3,16.4L13.3,16.4L13.3,16.4L13.3,16.4z M23.2,33.1L23.2,33.1L23.2,33.1L23.2,33.1z M12.8,16.5L12.8,16.5L12.8,16.5L12.8,16.5z
	 M14.2,16.5L14.2,16.5L14.2,16.5L14.2,16.5z M36.2,35.7L36.2,35.7L36.2,35.7L36.2,35.7z M25.9,36.1L25.9,36.1L25.9,36.1L25.9,36.1z
	 M25.4,36L25.4,36L25.4,36L25.4,36z M17.5,35.9L17.5,35.9L17.5,35.9L17.5,35.9z M16.6,33.7L16.6,33.7L16.6,33.7L16.6,33.7z
	 M36.4,34.7L36.4,34.7L36.4,34.7L36.4,34.7z M16.9,17.1L16.9,17.1L16.9,17.1L16.9,17.1z M16.7,17.9L16.7,17.9L16.7,17.9L16.7,17.9z
	 M11.9,16.8L11.9,16.8L11.9,16.8L11.9,16.8z M22.6,16.8L22.6,16.8L22.6,16.8L22.6,16.8z M24,38.6L24,38.6L24,38.6L24,38.6z
	 M15.8,31.6L15.8,31.6L15.8,31.6L15.8,31.6z M17.6,14C17.6,14,17.6,14,17.6,14c-0.1-0.1-0.1-0.1-0.1-0.1C17.5,14,17.5,14,17.6,14
	C17.5,14,17.6,14,17.6,14z M13.8,31.7L13.8,31.7L13.8,31.7L13.8,31.7z M27.7,38.2L27.7,38.2L27.7,38.2L27.7,38.2z M28.9,38L28.9,38
	L28.9,38L28.9,38z M38.7,39.3L38.7,39.3L38.7,39.3L38.7,39.3z M26.9,39L26.9,39L26.9,39L26.9,39z M21.7,31.4L21.7,31.4L21.7,31.4
	L21.7,31.4z M39.7,38.5L39.7,38.5L39.7,38.5L39.7,38.5z M10.6,15.9L10.6,15.9L10.6,15.9L10.6,15.9z M38.1,36.8
	C38.1,36.8,38,36.8,38.1,36.8C38,36.8,38,36.8,38.1,36.8C38,36.9,38,36.9,38.1,36.8C38,36.9,38.1,36.9,38.1,36.8z M21.8,32.5
	L21.8,32.5L21.8,32.5L21.8,32.5z M21.3,19.1L21.3,19.1L21.3,19.1L21.3,19.1z M20.5,19L20.5,19L20.5,19L20.5,19z M38.5,48L38.5,48
	L38.5,48L38.5,48z M12.3,26.8L12.3,26.8L12.3,26.8L12.3,26.8z M18,27.1L18,27.1L18,27.1L18,27.1z M13.2,9.5L13.2,9.5L13.2,9.5
	L13.2,9.5z M17.2,27.7L17.2,27.7L17.2,27.7L17.2,27.7z M14.2,9.9L14.2,9.9L14.2,9.9L14.2,9.9z M21,9.9L21,9.9L21,9.9L21,9.9z
	 M11.7,24.4L11.7,24.4L11.7,24.4L11.7,24.4z M35.9,48.8L35.9,48.8L35.9,48.8L35.9,48.8z M14,7.4L14,7.4L14,7.4L14,7.4z M18.6,24.2
	L18.6,24.2L18.6,24.2L18.6,24.2z M33.1,44.4L33.1,44.4L33.1,44.4L33.1,44.4z M17.8,10.8L17.8,10.8L17.8,10.8L17.8,10.8z M13.4,22.2
	L13.4,22.2L13.4,22.2L13.4,22.2z M34.1,44.9c0,0-0.1,0-0.1,0C34,44.9,34,45,34.1,44.9C34.1,45,34.1,44.9,34.1,44.9z M21.1,10.4
	L21.1,10.4L21.1,10.4L21.1,10.4z M18.4,28L18.4,28L18.4,28L18.4,28z"/>
<path id="XMLID_3691_" d="M17.1,18.4c0-0.1,0-0.1,0-0.2c0.1,0,0.1,0,0.2,0C17.3,18.2,17.2,18.3,17.1,18.4z"/>
</svg>
