<?xml version="1.0" encoding="iso-8859-1"?>
<!-- Generator: Adobe Illustrator 19.0.0, SVG Export Plug-In . SVG Version: 6.00 Build 0)  -->
<svg version="1.1" id="Layer_1" xmlns="http://www.w3.org/2000/svg" xmlns:xlink="http://www.w3.org/1999/xlink" x="0px" y="0px"
	 viewBox="-66.4 79.408 50.216 33.489" style="enable-background:new -66.4 79.408 50.216 33.489;" xml:space="preserve">
<path id="XMLID_4057_" d="M-31,112.897c-2.9,0-5.9,0-8.8,0c-1.6,0-3.2,0.1-4.7,0.1c-2.3,0-4.7-0.1-7-0.1c-2.5,0-5,0.1-7.5,0.1
	c-1.5,0-3-0.1-4.5-0.1c-1.3,0-2.7-1.2-2.7-2.8c-0.1-1.6-0.1-3.2-0.1-4.7c0.1-4.4,0-8.9,0-13.3c0-1.4,0-2.7,0-4.1
	c0-0.7-0.1-1.4-0.1-2c0-1.3,0-2.5,0.1-3.8c0.1-1.3,1-2.3,2.2-2.5c1.2-0.2,2.5-0.2,3.8-0.2c1.1,0,2.1,0.1,3.2,0.1
	c2.5,0,5-0.1,7.6-0.1c3.2,0,6.5,0,9.7,0c3.5,0,7.1,0.1,10.6,0.1c2.4,0,4.7,0,7.1-0.1c1.1,0,2.1-0.2,3.2,0c1.3,0.2,2.3,1.1,2.5,2.3
	c0.3,1.3,0.2,2.6,0.2,3.9c0,0.7-0.1,1.4-0.1,2.1c0,6.5,0,13.1,0,19.6c0,0.7,0,1.5,0,2.2c-0.1,1.8-1.1,3-2.9,3.2
	c-0.6,0.1-1.3,0.1-1.9,0c-1,0-2.1-0.1-3.1-0.1C-26.5,112.897-28.8,112.897-31,112.897L-31,112.897z M-52.7,94.097L-52.7,94.097
	L-52.7,94.097L-52.7,94.097L-52.7,94.097z M-25.7,89.397L-25.7,89.397L-25.7,89.397L-25.7,89.397L-25.7,89.397z M-17.5,89.797
	L-17.5,89.797L-17.5,89.797L-17.5,89.797L-17.5,89.797z M-50,96.197C-50,96.297-50,96.297-50,96.197c0,0.1,0,0.1,0,0.2l0,0l0,0
	C-50,96.397-50,96.297-50,96.197L-50,96.197L-50,96.197z M-24.1,86.097c-0.1,0.1-0.1,0.1-0.2,0.2c-0.1,0.1-0.1,0.1-0.2,0.2
	c-0.1,0.1-0.1,0.1-0.2,0.2l0,0l0,0c0.1-0.1,0.1-0.1,0.2-0.2c0.1-0.1,0.1-0.1,0.2-0.2C-24.2,86.297-24.2,86.197-24.1,86.097
	L-24.1,86.097L-24.1,86.097z M-25.1,105.997L-25.1,105.997L-25.1,105.997L-25.1,105.997L-25.1,105.997z M-56.8,104.797
	L-56.8,104.797L-56.8,104.797L-56.8,104.797L-56.8,104.797z M-31.3,99.897c0.1,0,0.1-0.1,0.2-0.1h-0.1
	C-31.2,99.897-31.3,99.897-31.3,99.897L-31.3,99.897C-31.3,99.997-31.3,99.897-31.3,99.897z M-23.1,106.897
	C-23.1,106.897-23.1,106.997-23.1,106.897C-23.1,106.997-23.1,106.897-23.1,106.897l-0.1-0.1
	C-23.2,106.797-23.2,106.897-23.1,106.897z M-32.1,98.797c0.1,0,0.2,0,0.3,0v-0.1C-31.9,98.697-32,98.697-32.1,98.797
	c0,0.1,0,0.1,0,0.2C-32.1,98.897-32.1,98.797-32.1,98.797z M-18.9,83.997c0.1,0,0.1,0,0.2,0c0,0,0.1-0.1,0.1-0.2c0,0-0.1,0-0.1,0.1
	C-18.8,83.897-18.8,83.897-18.9,83.997c-0.3,0.3,0,0.3,0.2,0.4c-0.1,0.1-0.1,0.2-0.2,0.3c-0.8,0.6-1.5,1.2-2.3,1.9
	c-0.4,0.3-0.8,0.6-1.2,0.9h-0.1v0.1c-0.3,0.3-0.6,0.5-1,0.8l0,0l0,0c-0.4,0.4-0.7,0.8-1.1,1.1c-0.8,0.7-1.6,1.4-2.4,2l0,0l0,0
	c-0.1,0.2-0.2,0.3-0.3,0.5c-1.5,1.4-3,2.8-4.5,4.2v-0.1h0.1c-0.2,0.3-0.4,0.4,0,0.8c2.1,2,4.2,3.9,6.3,5.9c1.6,1.6,3.2,3.2,4.8,4.7
	c-0.3,0.1-0.5,0.2-0.6,0.6h-0.1v-0.1c0.4,0,0.6-0.2,0.6-0.6c0.5,0.4,0.9,0.8,1.4,1.2c0.2,0.1,0.4,0.2,0.7,0.3
	c0.1-0.2,0.2-0.5,0.3-0.7c0-0.1,0-0.3,0-0.4c0-0.6,0-1.2,0-1.7c0-7,0-13.9,0-20.9c0-0.2,0-0.5,0-0.7c0-0.1-0.3-0.2-0.4-0.3
	C-18.7,84.297-18.8,84.097-18.9,83.997z M-59.7,80.697l0.1,0.1c0,0,0,0,0.1,0C-59.6,80.797-59.6,80.697-59.7,80.697
	c-0.1-0.1-0.2-0.1-0.2-0.2c0,0.1-0.1,0.1-0.1,0.2C-59.9,80.697-59.8,80.697-59.7,80.697z M-52.3,98.397L-52.3,98.397L-52.3,98.397
	c0.4-0.4,0.8-0.8,1.2-1.2c0.5-0.5,0.5-0.6,0-1.1c-0.1-0.1-0.1-0.1-0.2-0.2c-3.7-3.3-7.4-6.7-11.1-10c-0.5-0.5-1-1-1.8-1.3
	c-0.1,0.6-0.1,1-0.1,1.5c0,3.3-0.1,6.7-0.1,10c0,3.7,0.1,7.4,0.2,11c0,0.6,0,1.2,0,1.8c0,0.4,0.2,0.4,0.5,0.2
	c0.1-0.1,0.2-0.2,0.4-0.3c1.8-1.7,3.6-3.5,5.4-5.2c0.3-0.3,0.6-0.5,1-0.8l0,0l0,0c0.2-0.2,0.4-0.5,0.6-0.7c0.8-0.8,1.6-1.6,2.5-2.3
	C-53.4,99.297-52.8,98.797-52.3,98.397z M-26.6,104.797c-0.7-0.7-1.4-1.3-2.2-2c-1.4-1.3-2.8-2.6-4.3-4c-0.1-0.1-0.2-0.2-0.4-0.3
	c-0.3-0.2-0.5-0.2-0.8,0c-0.1,0.1-0.3,0.3-0.4,0.4c-1.1,1-2.2,2-3.3,3c-1.1,0.9-2.4,1.3-3.8,1.2c-1.3-0.1-2.4-0.6-3.4-1.4
	c-1.1-0.9-2.1-1.9-3.2-2.8c-0.5-0.5-0.6-0.5-1,0c-1.5,1.3-2.9,2.7-4.4,4c-2.4,2.3-4.8,4.5-7.2,6.8c-0.4,0.4-0.7,0.9-1.2,1.4
	c0.4,0.1,0.7,0.1,0.9,0.1c3.4,0,6.8-0.1,10.1-0.1c2.6,0,5.3,0,7.9,0c0.9,0,1.7,0,2.6,0c1.5,0,3,0,4.5,0c1.7,0,3.4,0,5.1,0
	c1.4,0,2.9,0,4.3,0c1.3,0,2.6,0,4-0.1c0.7,0,1.3,0.1,2.1-0.2c-0.3-0.3-0.5-0.6-0.8-0.8C-23.1,108.297-24.9,106.597-26.6,104.797
	c0.1-0.1,0.3-0.3,0.4-0.4c-0.1,0-0.1-0.1-0.2-0.1C-26.5,104.497-26.5,104.597-26.6,104.797z M-29.4,90.997L-29.4,90.997
	C-29.3,90.997-29.4,90.997-29.4,90.997c0.3-0.3,0.5-0.6,0.8-0.9c0.3-0.3,0.6-0.5,0.9-0.8c2.4-2.4,4.8-4.8,7.2-7.2
	c0.1-0.1,0.3-0.3,0.5-0.6c-0.4,0-0.7-0.1-1-0.1c-7.2,0-14.5,0-21.7,0c-6.1,0-12.2,0-18.3,0c-0.3,0-0.6,0-0.9,0
	c-0.2,0-0.5,0.1-0.7,0.2c0.1,0.2,0.2,0.4,0.3,0.6c0.7,0.8,1.4,1.5,2.2,2.2c1.6,1.6,3.2,3.1,4.8,4.6l0,0l0,0c0.3,0.2,0.6,0.5,0.9,0.7
	c3.4,3.1,6.7,6.2,10.1,9.3c0.5,0.4,1,0.8,1.5,1.2c0.8,0.6,1.7,0.6,2.6,0.1c0.5-0.3,1-0.6,1.4-1c2.5-2.3,5-4.6,7.5-6.9
	C-30.6,91.897-30,91.497-29.4,90.997z M-26.5,102.497c0-0.1,0-0.2,0-0.2c-0.2,0-0.4,0-0.7-0.1c0,0.1,0,0.1,0,0.2
	C-26.9,102.397-26.7,102.397-26.5,102.497z M-37.1,99.397c-0.1-0.1-0.1-0.2-0.2-0.3c0,0.1-0.1,0.1-0.1,0.2s0.1,0.2,0.1,0.3
	C-37.2,99.497-37.2,99.497-37.1,99.397z M-45,100.397c0.1,0.1,0.2,0.1,0.3,0.1c0,0,0.1-0.1,0-0.1c-0.1-0.1-0.2-0.1-0.2-0.1
	L-45,100.397z M-26,103.497l-0.1,0.1c0,0,0,0.1,0.1,0.1s0.1-0.1,0.2-0.1C-26,103.597-26,103.497-26,103.497z M-43.1,102.397
	l-0.1,0.1l0.1,0.1l0.1-0.1C-43,102.397-43.1,102.397-43.1,102.397z M-18.3,83.097c0,0.1-0.1,0.1-0.1,0.1s0,0.1,0.1,0l0.1-0.1
	C-18.2,83.197-18.2,83.197-18.3,83.097z M-25.6,104.197l0.1,0.1c0,0,0.1-0.1,0-0.1C-25.4,104.197-25.5,104.197-25.6,104.197
	C-25.5,104.097-25.5,104.197-25.6,104.197z M-23.7,87.197l-0.1-0.1l-0.1,0.1l0.1,0.1C-23.8,87.297-23.8,87.297-23.7,87.197z
	 M-27,112.097L-27,112.097c0-0.1,0-0.1,0-0.2c0,0,0,0-0.1,0C-27.1,111.997-27,111.997-27,112.097z M-24.6,80.297c0,0-0.1,0-0.1-0.1
	v0.1l0.1,0.1C-24.6,80.297-24.6,80.297-24.6,80.297z M-30.1,100.797l-0.1,0.1c0,0,0,0.1,0.1,0c0,0,0.1,0,0.1-0.1
	C-30.1,100.897-30.1,100.897-30.1,100.797z M-22.3,107.997l0.1,0.1c0.1,0,0.1-0.1,0.1-0.1l-0.1-0.1
	C-22.3,107.897-22.3,107.897-22.3,107.997z M-21.3,107.497c0,0-0.1,0-0.1-0.1c0,0.1-0.1,0.1-0.1,0.2c0,0,0.1,0,0.1,0.1
	C-21.4,107.597-21.4,107.597-21.3,107.497z M-46.6,99.197L-46.6,99.197c0-0.1-0.1-0.1-0.1-0.1C-46.7,99.197-46.7,99.197-46.6,99.197
	L-46.6,99.197z M-17,94.997C-17,94.897-17,94.897-17,94.997c0-0.1,0-0.1,0-0.1C-17.1,94.897-17.1,94.897-17,94.997
	C-17.1,94.997-17.1,94.997-17,94.997z M-54.6,112.497L-54.6,112.497c-0.1,0-0.1,0.1,0,0.1C-54.6,112.597-54.5,112.597-54.6,112.497
	C-54.5,112.597-54.5,112.597-54.6,112.497z M-27.8,111.597C-27.8,111.497-27.8,111.497-27.8,111.597c-0.1,0-0.1,0-0.1,0
	C-27.9,111.597-27.8,111.597-27.8,111.597L-27.8,111.597z M-17.9,102.397L-17.9,102.397c-0.1,0.1-0.1,0.1,0,0.1
	C-17.9,102.497-17.9,102.497-17.9,102.397C-17.8,102.397-17.9,102.397-17.9,102.397z M-40.4,102.697L-40.4,102.697
	C-40.4,102.797-40.4,102.797-40.4,102.697C-40.3,102.797-40.3,102.697-40.4,102.697C-40.3,102.697-40.4,102.697-40.4,102.697z
	 M-56.2,103.297l-0.1,0.1h0.1C-56.2,103.497-56.1,103.397-56.2,103.297C-56.2,103.397-56.2,103.297-56.2,103.297z M-41.4,101.497
	l0.1-0.1h-0.1C-41.3,101.297-41.4,101.397-41.4,101.497C-41.4,101.397-41.4,101.397-41.4,101.497z M-40.4,102.397
	C-40.4,102.297-40.3,102.297-40.4,102.397c0-0.1,0-0.1,0-0.1S-40.4,102.297-40.4,102.397L-40.4,102.397z M-59.1,106.597
	L-59.1,106.597c0.1-0.1,0.1-0.1,0.1-0.1C-59.1,106.497-59.2,106.597-59.1,106.597C-59.2,106.597-59.2,106.597-59.1,106.597z
	 M-65.8,106.797C-65.8,106.697-65.8,106.697-65.8,106.797c-0.1-0.1-0.1-0.1-0.1,0C-65.9,106.697-65.9,106.797-65.8,106.797
	C-65.9,106.797-65.8,106.797-65.8,106.797z M-64.7,105.097l-0.1,0.1h0.1C-64.7,105.297-64.7,105.197-64.7,105.097
	C-64.6,105.197-64.7,105.197-64.7,105.097z M-63.9,83.997C-63.9,83.997-63.9,83.897-63.9,83.997c0-0.1-0.1-0.1-0.1-0.1s0,0,0,0.1
	C-64,83.997-64,83.997-63.9,83.997z M-22.3,85.297C-22.3,85.297-22.2,85.297-22.3,85.297C-22.2,85.297-22.2,85.197-22.3,85.297
	C-22.2,85.197-22.3,85.197-22.3,85.297L-22.3,85.297z M-58.2,81.097C-58.2,81.097-58.3,80.997-58.2,81.097c-0.1,0-0.1,0-0.1,0
	C-58.3,81.097-58.3,81.097-58.2,81.097C-58.3,81.097-58.2,81.097-58.2,81.097z M-33.6,80.997L-33.6,80.997c-0.1,0-0.1,0-0.1,0
	C-33.7,80.997-33.7,81.097-33.6,80.997C-33.6,81.097-33.6,81.097-33.6,80.997z M-30.3,80.997C-30.3,80.997-30.4,80.997-30.3,80.997
	c0,0.1,0,0.1,0,0.1V80.997L-30.3,80.997z M-62.4,83.197L-62.4,83.197c0-0.1-0.1-0.1-0.1,0C-62.5,83.197-62.5,83.197-62.4,83.197
	C-62.4,83.297-62.4,83.197-62.4,83.197z M-22.9,87.197C-22.9,87.197-22.9,87.097-22.9,87.197c-0.1-0.1-0.1-0.1-0.2-0.1
	C-23,87.197-23,87.197-22.9,87.197L-22.9,87.197z M-66,87.997C-66,87.897-66,87.897-66,87.997C-66,87.897-66,87.897-66,87.997
	L-66,87.997L-66,87.997z M-22.7,86.197C-22.6,86.197-22.6,86.197-22.7,86.197c0-0.1-0.1-0.1-0.1-0.1s0,0,0,0.1
	C-22.7,86.197-22.7,86.197-22.7,86.197z M-21.9,80.097C-22,80.097-22,80.097-21.9,80.097c0,0.1,0,0.1,0.1,0.1
	C-21.9,80.197-21.9,80.097-21.9,80.097L-21.9,80.097z M-27.9,80.797L-27.9,80.797c0-0.1-0.1-0.1-0.1,0
	C-28,80.797-27.9,80.897-27.9,80.797C-27.9,80.897-27.9,80.797-27.9,80.797z M-40.4,80.797C-40.4,80.797-40.5,80.797-40.4,80.797
	c0,0.1,0,0.1,0,0.1C-40.4,80.897-40.4,80.897-40.4,80.797L-40.4,80.797z M-50.7,79.897C-50.7,79.897-50.6,79.897-50.7,79.897
	C-50.6,79.797-50.6,79.797-50.7,79.897C-50.7,79.797-50.7,79.797-50.7,79.897C-50.7,79.797-50.7,79.797-50.7,79.897z M-46.9,79.897
	C-46.9,79.897-46.9,79.797-46.9,79.897C-46.9,79.797-46.9,79.797-46.9,79.897C-47,79.797-47,79.797-46.9,79.897
	C-47,79.897-47,79.897-46.9,79.897z M-27.5,90.697L-27.5,90.697c-0.1,0-0.1,0-0.2,0C-27.6,90.797-27.6,90.797-27.5,90.697
	C-27.5,90.797-27.5,90.797-27.5,90.697z M-65.6,89.897C-65.6,89.897-65.5,89.897-65.6,89.897c0.1,0.1,0.1,0,0.1,0s0,0,0-0.1
	C-65.5,89.797-65.5,89.797-65.6,89.897z M-18,90.197C-18,90.197-17.9,90.197-18,90.197C-17.9,90.097-17.9,90.097-18,90.197
	C-18,90.097-18,90.097-18,90.197C-18,90.097-18,90.197-18,90.197z M-28.1,92.197l-0.1-0.1c0,0,0,0.1-0.1,0.1h0.1
	C-28.2,92.297-28.2,92.197-28.1,92.197z M-63.1,109.697L-63.1,109.697L-63.1,109.697L-63.1,109.697z M-29.2,80.797L-29.2,80.797
	L-29.2,80.797L-29.2,80.797z M-19.4,81.697L-19.4,81.697L-19.4,81.697L-19.4,81.697z M-17.6,108.297L-17.6,108.297L-17.6,108.297
	L-17.6,108.297z M-17.9,81.897C-17.9,81.797-18,81.797-17.9,81.897C-18,81.797-18,81.797-17.9,81.897
	C-18,81.797-18,81.897-17.9,81.897C-18,81.897-18,81.897-17.9,81.897z M-17,109.097L-17,109.097L-17,109.097L-17,109.097z
	 M-39.8,111.997L-39.8,111.997L-39.8,111.997L-39.8,111.997z M-23.1,79.997L-23.1,79.997L-23.1,79.997L-23.1,79.997z M-46.3,79.797
	L-46.3,79.797L-46.3,79.797L-46.3,79.797z M-44.1,79.797L-44.1,79.797L-44.1,79.797L-44.1,79.797z M-43.5,79.797L-43.5,79.797
	L-43.5,79.797L-43.5,79.797z M-22,112.097L-22,112.097L-22,112.097L-22,112.097z M-49.9,80.697L-49.9,80.697L-49.9,80.697
	L-49.9,80.697z M-66,104.197L-66,104.197L-66,104.197L-66,104.197z M-20.3,85.197C-20.3,85.197-20.3,85.097-20.3,85.197
	C-20.3,85.097-20.3,85.097-20.3,85.197L-20.3,85.197L-20.3,85.197z M-41.6,100.997L-41.6,100.997L-41.6,100.997L-41.6,100.997z
	 M-28,100.997L-28,100.997L-28,100.997L-28,100.997z M-27.1,102.897L-27.1,102.897L-27.1,102.897L-27.1,102.897z M-64.8,103.797
	L-64.8,103.797L-64.8,103.797L-64.8,103.797z M-17.1,85.197L-17.1,85.197L-17.1,85.197L-17.1,85.197z M-65.1,85.497L-65.1,85.497
	L-65.1,85.497L-65.1,85.497z M-18,106.897L-18,106.897L-18,106.897L-18,106.897z M-62.2,83.897L-62.2,83.897L-62.2,83.897
	L-62.2,83.897z M-65.2,87.497L-65.2,87.497L-65.2,87.497L-65.2,87.497z M-58.1,105.297L-58.1,105.297L-58.1,105.297L-58.1,105.297z
	 M-63.3,83.097L-63.3,83.097L-63.3,83.097L-63.3,83.097z M-49.1,95.597v0.1C-49.1,95.697-49.1,95.697-49.1,95.597L-49.1,95.597z
	 M-54.8,91.797L-54.8,91.797L-54.8,91.797L-54.8,91.797z M-17.2,95.997L-17.2,95.997L-17.2,95.997L-17.2,95.997z M-17.5,93.597
	L-17.5,93.597L-17.5,93.597L-17.5,93.597z M-16.6,90.397L-16.6,90.397L-16.6,90.397L-16.6,90.397z M-32.7,97.197L-32.7,97.197
	C-32.8,97.197-32.8,97.197-32.7,97.197C-32.8,97.197-32.8,97.197-32.7,97.197C-32.7,97.297-32.7,97.197-32.7,97.197z M-55.2,90.097
	L-55.2,90.097L-55.2,90.097L-55.2,90.097z M-66,90.397L-66,90.397L-66,90.397L-66,90.397z M-49.8,112.597L-49.8,112.597
	L-49.8,112.597L-49.8,112.597z M-49.4,97.497L-49.4,97.497L-49.4,97.497L-49.4,97.497z"/>
</svg>
