<?xml version="1.0" encoding="iso-8859-1"?>
<!-- Generator: Adobe Illustrator 19.0.0, SVG Export Plug-In . SVG Version: 6.00 Build 0)  -->
<svg version="1.1" id="Layer_1" xmlns="http://www.w3.org/2000/svg" xmlns:xlink="http://www.w3.org/1999/xlink" x="0px" y="0px"
	 viewBox="0 0 104.042 198.43" style="enable-background:new 0 0 104.042 198.43;" xml:space="preserve">
<path id="XMLID_192_" d="M69.544,151.611c0.003,12.156,0.041,24.311-0.013,36.467c-0.028,6.383-2.019,8.279-8.427,8.286
	c-8.417,0.009-16.834,0.014-25.25-0.015c-5.293-0.018-6.968-1.211-7.075-6.408c-0.329-16.021-0.386-32.049-0.474-48.075
	c-0.047-8.547,0.147-17.096,0.065-25.643c-0.051-5.264-1.449-6.532-6.818-6.442c-4.666,0.078-9.328,0.501-13.993,0.543
	c-5.242,0.047-7.21-1.47-7.398-6.727c-0.296-8.251-0.137-16.528,0.106-24.785c0.108-3.667,2.987-5.378,7.569-5.288
	c5.33,0.105,10.663,0.078,15.994,0.144c3.648,0.045,5.323-1.58,5.261-5.355c-0.133-8.146-0.075-16.296-0.045-24.444
	C29.12,23.47,44.449,5.349,64.618,2.814c10.418-1.309,21.009-1.394,31.532-1.66c5.784-0.146,6.986,1.45,7.147,7.103
	c0.213,7.473,0.593,14.942,0.74,22.415c0.109,5.505-1.396,6.934-6.765,6.935c-4.409,0.001-8.817-0.05-13.225-0.021
	c-8.216,0.054-14.071,5.62-14.4,13.93c-0.206,5.202-0.093,10.419-0.038,15.628c0.049,4.624,1.232,5.851,6.009,5.981
	c5.474,0.149,10.963-0.09,16.429,0.178c12.576,0.615,11.903,1.855,10.915,13.302c-0.469,5.435-1.341,10.837-2.105,16.244
	c-0.795,5.622-2.509,7.23-8.128,7.128c-4.655-0.085-9.317-0.416-13.952-0.881c-7.477-0.749-9.26,0.83-9.241,8.453
	C69.563,128.904,69.542,140.257,69.544,151.611z M19.72,98.563c0.021-0.097,0.084-0.215,0.05-0.285
	c-0.038-0.077-0.166-0.11-0.255-0.162c-0.028,0.152-0.056,0.304-0.084,0.456C19.527,98.57,19.623,98.57,19.72,98.563z"/>
</svg>
