<?xml version="1.0" encoding="utf-8"?>
<!-- Generator: Adobe Illustrator 19.0.0, SVG Export Plug-In . SVG Version: 6.00 Build 0)  -->
<svg version="1.1" id="Layer_1" xmlns="http://www.w3.org/2000/svg" xmlns:xlink="http://www.w3.org/1999/xlink" x="0px" y="0px"
	 viewBox="0 0 198.4 198.4" style="enable-background:new 0 0 198.4 198.4;" xml:space="preserve">
<path id="XMLID_376_" d="M106.7,88.3c0-0.7,0-1.3,0-1.9c0-0.2,0-0.4,0-0.6c0.1-0.5,0.2-0.7,0.8-0.7c1,0,1.9,0,2.9,0
	c0.4,0,0.6,0.2,0.6,0.7c0,0.8,0,1.7,0,2.5c0,1.1,0,2.2,0,3.2c0,0.6,0.2,1,0.7,1.3c1.7,1.4,3.4,2.9,5.1,4.3c0.3,0.3,0.6,0.5,0.6,1
	c0,0.5-0.3,0.8-0.8,0.8c-0.7,0-1.4,0-2.1,0c-0.3,0-0.5,0-0.9,0c0,0.4,0,0.7,0,0.9c0,4.6,0,9.2,0,13.9c0,0.3,0,0.6-0.1,0.9
	c-0.3,1.2-0.9,1.8-2.1,1.8c-1.7,0-3.5,0.1-5.2,0.1c-3.3,0-6.7,0-10,0c-2.8,0-5.6,0-8.4,0c-0.5,0-0.9-0.1-1.4-0.1
	c-1.3-0.1-2.1-0.8-2.2-2.2c0-0.5,0-0.9,0-1.4c0-4.4,0-8.8,0-13.1c0-0.2,0-0.4,0-0.7c-0.2,0-0.4-0.1-0.7-0.1c-0.7,0-1.4,0-2.1,0
	c-0.4,0-0.7-0.1-0.9-0.5c-0.2-0.4,0-0.7,0.3-1c2.1-1.9,4.2-3.9,6.3-5.8c3.3-2.9,6.6-5.8,9.9-8.8c0.3-0.3,0.7-0.6,1-0.9
	c0.7-0.6,1.2-0.6,1.8,0c1.8,1.5,3.6,3.1,5.4,4.6C105.6,87.3,106.1,87.8,106.7,88.3z M95.3,115.4c0-0.3,0-0.5,0-0.7
	c0-2.7,0-5.5,0-8.2c0-0.5,0-1,0.1-1.5c0.3-1.1,1-2,2.1-2.1c0.8-0.1,1.7-0.1,2.5,0.1c1.4,0.2,2.1,1.2,2.1,2.6c0,0.1,0,0.3,0,0.4
	c0,2.9,0,5.7,0,8.6c0,0.3,0,0.5,0,0.8c0.3,0,0.6,0,0.8,0c0-0.2,0-0.2,0-0.3c0-3.3,0-6.6,0-9.9c0-0.2,0-0.4-0.1-0.6
	c-0.4-1.3-1.3-2.1-2.6-2.4c-0.7-0.2-1.5-0.1-2.3-0.1c-2.2,0-3.7,1.4-3.7,3.6c0,3.1,0,6.3,0,9.4c0,0.1,0,0.3,0.1,0.4
	C94.7,115.4,95,115.4,95.3,115.4z M98.7,84.9c0.2,0.1,0.2,0.2,0.3,0.2c3.8,3.3,7.6,6.5,11.4,9.8c1.2,1.1,2.5,2.1,3.8,3.1
	c0.1,0.1,0.2,0.1,0.3,0.2c0,0,0.1-0.1,0.1-0.1c-5.3-4.7-10.5-9.4-15.8-14.1c-4.3,3.8-8.6,7.5-12.9,11.2c-1,0.9-2,1.8-3,2.7
	c-0.1,0.1-0.2,0.2-0.3,0.3c0,0,0,0,0,0.1c0,0,0,0,0.1,0.1C88.3,94.1,93.4,89.4,98.7,84.9z M106.2,93.2c-1-1.3-6.6-5.9-7.4-6.3
	c-1.7,1.1-6.9,5.4-7.1,6.1c2.4-2,4.8-3.9,7.2-5.8C101.3,89.2,103.8,91.2,106.2,93.2z M105.2,115.2c2.1,0.4,5.7,0.4,6.5,0
	C109.4,115.2,107.3,115.2,105.2,115.2z M92.4,115c-2.1,0-4.2,0.1-6.3,0.1C87.3,115.4,91.8,115.4,92.4,115z M110.1,114.1
	c-0.6-0.3-3.1-0.4-4.7-0.2C106.9,114.1,108.4,114.1,110.1,114.1z M89.8,114.1c0-0.1,0-0.1,0-0.2c-1.2,0-2.5,0-3.7,0
	c0,0.1,0,0.1,0,0.2C87.4,114.1,88.6,114.1,89.8,114.1z M107.4,112.8C107.5,112.9,107.5,112.9,107.4,112.8c1.2,0.1,2.4,0.1,3.6,0.1
	c0,0,0-0.1,0-0.1C109.9,112.8,108.7,112.8,107.4,112.8z"/>
</svg>
