<?xml version="1.0" encoding="iso-8859-1"?>
<!-- Generator: Adobe Illustrator 19.0.0, SVG Export Plug-In . SVG Version: 6.00 Build 0)  -->
<svg version="1.1" id="Layer_1" xmlns="http://www.w3.org/2000/svg" xmlns:xlink="http://www.w3.org/1999/xlink" x="0px" y="0px"
	 viewBox="35.7 36.53 125.896 124.5" style="enable-background:new 35.7 36.53 125.896 124.5;" xml:space="preserve">
<path id="XMLID_3927_" d="M56.1,158.03c-2.7-0.9-5.1-2.7-7.5-4.2c-6.6-4.8-10.2-11.4-11.7-19.5c-1.2-7.5-1.2-15-1.2-22.5
	c0-11.1,0-21.9,0-33c0-6,0-12.3,1.8-18.3c1.2-3.9,2.4-8.1,5.7-11.1v0.3h-0.3c1.5-1.5,2.7-3.6,4.5-4.8c5.4-4.2,11.7-6.3,18.3-7.2
	c9-1.2,18.3-1.2,27.3-1.2c6.6,0,13.2,0,19.8,0c5.4,0,10.8,0.3,16.2,0.6c4.8,0.3,9.3,1.5,13.8,3c2.4,0.9,4.5,1.8,6.3,3.6
	c0,0.3-0.3,0.6-0.3,0.6h0.3c0-0.3,0-0.6,0-0.9c3.6,2.4,6.3,5.4,8.1,9.3c2.4,4.8,3.6,9.9,3.9,15.3c0.9,12,0.3,24.3,0.3,36.3
	c0,5.1,0.3,10.2,0,15.3c-0.3,6-0.6,12.3-2.1,18c-0.3,1.5-1.2,2.7-1.5,3.9c-0.3-0.6-0.6-0.9-0.6-1.5c-0.3,0.6-0.3,0.9-0.6,1.5
	c0.3,0,0.9,0,1.2-0.3c-1.2,4.5-4.5,8.1-8.1,10.8c-6.3,4.8-13.5,7.2-21.3,7.8c-9.6,0.9-19.2,1.2-28.8,1.2c-9,0-18-0.3-27-0.6
	c-5.4-0.3-11.1-0.6-16.2-2.7C56.7,158.33,56.4,158.33,56.1,158.03L56.1,158.03c0-0.3,0-0.6,0-0.6v-0.3h0.3
	C56.1,157.73,56.1,158.03,56.1,158.03z M38.7,96.13L38.7,96.13L38.7,96.13c0.3,0,0.3,0,0.6,0l0.3,0.3c0.3,0,0.6,0,0.6,0
	c-0.3,0-0.3-0.3-0.6-0.3s-0.3,0-0.6,0H38.7z M155.5,111.43c-0.3-0.3-0.3-0.3-0.6-0.6l0,0l0,0
	C154.9,110.83,155.2,111.13,155.5,111.43L155.5,111.43L155.5,111.43z M43.8,86.83L43.8,86.83L43.8,86.83L43.8,86.83L43.8,86.83z
	 M45,77.53L45,77.53L45,77.53L45,77.53L45,77.53z M93,159.23L93,159.23L93,159.23L93,159.23L93,159.23z M122.2,157.73L122.2,157.73
	L122.2,157.73L122.2,157.73L122.2,157.73z M91.2,156.83L91.2,156.83L91.2,156.83L91.2,156.83L91.2,156.83z M87.6,152.93L87.6,152.93
	L87.6,152.93L87.6,152.93L87.6,152.93z M153.7,128.33L153.7,128.33L153.7,128.33L153.7,128.33L153.7,128.33z M158.2,128.93
	L158.2,128.93L158.2,128.93L158.2,128.93L158.2,128.93z M43.2,147.53L43.2,147.53L43.2,147.53L43.2,147.53L43.2,147.53z
	 M46.2,137.63c-0.3-0.3-0.3-0.3-0.6-0.6c0-0.3-0.3-0.3-0.3-0.6c0,0.3,0.3,0.3,0.3,0.6C45.9,137.33,45.9,137.63,46.2,137.63
	L46.2,137.63L46.2,137.63z M106.2,40.33L106.2,40.33L106.2,40.33L106.2,40.33L106.2,40.33z M41.1,57.13L41.1,57.13L41.1,57.13
	L41.1,57.13L41.1,57.13z M44.4,79.93L44.4,79.93C44.4,79.63,44.4,79.93,44.4,79.93c0,0.3,0.3,0.3,0.3,0.6v-0.3
	C44.7,80.23,44.7,79.93,44.4,79.93z M75.3,152.33L75.3,152.33L75.3,152.33c-0.3,0-0.3,0-0.6,0C75,152.33,75.3,152.33,75.3,152.33z
	 M141.4,147.53c0.3,0,0.3-0.3,0.6-0.3C141.7,147.53,141.4,147.53,141.4,147.53L141.4,147.53L141.4,147.53z M156.4,114.43
	L156.4,114.43L156.4,114.43l-0.3-0.3c0,0,0,0-0.3,0C156.1,114.13,156.4,114.13,156.4,114.43z M40.2,98.53c0-0.3-0.3-0.3-0.3-0.6
	C40.2,98.23,40.2,98.53,40.2,98.53c0,0.3,0,0.3,0,0.6l-0.3,0.3c0,0,0,0,0,0.3c0-0.3,0.3-0.3,0.3-0.6c0.3,0,0.3,0,0.6-0.3
	C40.8,98.83,40.5,98.83,40.2,98.53z M82.8,39.73l-0.3,0.3c0,0,0,0,0,0.3C82.8,40.03,82.8,39.73,82.8,39.73
	C83.1,39.73,83.1,39.43,82.8,39.73C83.1,39.43,83.1,39.73,82.8,39.73z M139,46.63c0.3,0,0.3-0.3,0.6-0.3h-0.3
	C139.3,46.33,139.3,46.63,139,46.63L139,46.63L139,46.63z M133.3,157.13c-0.3,0-0.3,0.3-0.6,0.3C133,157.13,133,157.13,133.3,157.13
	L133.3,157.13L133.3,157.13z M107.4,155.33l-0.3-0.3c0,0,0,0-0.3,0C107.1,155.03,107.4,155.03,107.4,155.33
	c-0.3,0.6-0.3,1.2,0.6,1.2c0,0.3,0.3,0.6,0.3,0.6l0.3-0.3c-0.3,0-0.6-0.3-0.6-0.3C107.7,155.93,107.7,155.63,107.4,155.33z
	 M74.7,157.73L74.7,157.73C74.7,157.43,74.7,157.43,74.7,157.73c0,0.3,0.3,0.3,0.3,0.6l0.3-0.3C75.3,157.73,75,157.73,74.7,157.73z
	 M40.8,132.53c0-0.3-0.3-0.3-0.3-0.6v0.3C40.8,132.23,40.8,132.23,40.8,132.53c0.3,0.3,0.9,0.6,1.2,1.2c0,0,0,0,0.3,0c0,0,0,0-0.3,0
	C41.7,133.13,41.4,132.83,40.8,132.53z M42.6,79.93L42.6,79.93L42.6,79.93c0,0.3,0,0.6,0,0.9h0.3C42.9,80.53,42.9,80.23,42.6,79.93z
	 M91.2,39.13c-0.3,0-0.3,0-0.6,0c-0.3,0-0.3,0.3-0.6,0.3c0.3,0,0.6,0,0.6,0C90.9,39.43,90.9,39.13,91.2,39.13L91.2,39.13L91.2,39.13
	z M57.9,40.93c-0.3,0-0.3,0-0.6-0.3C57.6,40.63,57.6,40.63,57.9,40.93c0.3,0,0.6,0.3,0.6,0.3v-0.3C58.5,40.63,58.2,40.93,57.9,40.93
	z M80.7,39.73l-0.3-0.3c0,0,0,0-0.3,0C80.1,39.43,80.4,39.43,80.7,39.73c0,0.3,0.3,0.3,0.3,0.6l0.3-0.3
	C81,40.03,80.7,39.73,80.7,39.73z M71.4,42.43L71.4,42.43L71.4,42.43c0,0,0-0.3-0.3-0.6c0,0-0.3-0.3-0.6-0.3c0,0,0,0.3,0.3,0.3
	C71.1,42.43,71.1,42.43,71.4,42.43z M98.1,41.53c-0.3,0-0.6,0-0.9-0.3v0.3C97.5,41.53,97.8,41.53,98.1,41.53c0-0.3,0.3-0.3,0.3-0.3
	s0,0,0-0.3C98.4,40.93,98.1,41.23,98.1,41.53z M159.4,61.93c-0.3,0.3-0.9,0.9-1.2,1.2c-0.3-0.3-0.9-0.3-1.2-0.6h0.3v0.3
	c-0.6,0.6-0.3,1.2,0.3,1.2c0.3,0,0.6-0.6,0.9-0.9C158.5,62.53,159.1,62.23,159.4,61.93L159.4,61.93L159.4,61.93z M68.4,155.93
	c0,0.6,0.3,0.9,0.3,1.5c0,0,0.3,0,0.3-0.3C69,156.53,68.7,156.23,68.4,155.93c0-0.3,0-0.9,0-1.2h0.3l0,0c-0.3,0.3-0.6,0.6-0.9,0.6
	C67.8,155.63,68.1,155.63,68.4,155.93z M38.7,82.33L38.7,82.33L38.7,82.33c-0.3-0.3-0.3-0.6-0.6-0.6s-0.6,0-0.6,0
	c0,0.3,0.3,0.3,0.3,0.6C38.1,82.33,38.4,82.33,38.7,82.33z M158.8,109.03L158.8,109.03L158.8,109.03c0,0.3,0,0.6,0,0.9s0,0.3,0,0.6
	c0-0.3,0.3-0.3,0.3-0.6C159.1,109.63,159.1,109.33,158.8,109.03z M153.7,58.93C153.4,58.93,153.4,58.93,153.7,58.93
	C153.4,58.93,153.4,58.93,153.7,58.93c0.3,0.3,0.3,0.6,0.6,0.9c0,0,0,0,0.3-0.3C154,59.23,154,59.23,153.7,58.93z M157.6,111.43
	c-0.3,0-0.6-0.3-0.6-0.3C157.3,111.13,157.6,111.43,157.6,111.43s-0.3,0.3-0.3,0.6c0,0.3,0,0.6,0.3,0.9c0.3-0.3,0.3-0.3,0.3-0.6
	C158.2,111.73,157.9,111.73,157.6,111.43z M78.3,41.83c0,0.3,0.3,0.3,0.3,0.6v-0.3C78.6,42.13,78.3,42.13,78.3,41.83
	c0.3-0.3,0.9-0.3,1.2-0.6c0,0.3,0,0.6,0,1.2l0.3,0.3c0-0.3,0.3-0.6,0.3-0.6c-0.3-0.3-0.3-0.6-0.6-0.9c-0.3-0.3-0.6-0.9-0.9-0.9
	C78,40.63,77.7,41.23,78.3,41.83z M42,108.43c0.3,0,0.3,0,0.6,0c0.6,0,0.9,0,1.5,0c0-0.3,0-0.6-0.3-0.6c-0.6,0-0.9,0-1.5,0
	C42.3,108.13,42.3,108.43,42,108.43C42,108.43,42,108.73,42,108.43C42,108.73,42,108.43,42,108.43z M114,45.43l0.3,0.3
	c0.3,0,0.3,0,0.6,0c-0.3,0-0.3,0-0.6-0.3H114c-0.6-0.9-1.5-1.2-3-1.5C112.5,45.13,112.5,45.13,114,45.43z M67.8,44.23
	c0.3,0.3,0.3,0.3,0.6,0.6c0.3,0,0.6,0,0.9,0c0-0.3-0.3-0.6-0.3-0.9C68.7,43.93,68.1,44.23,67.8,44.23c-0.3,0.3-0.6,0.3-0.9,0.6
	c0,0,0,0,0.3,0.3C67.5,44.83,67.5,44.53,67.8,44.23z M99.3,37.33l-0.3-0.3c-0.3,0-0.3,0-0.6,0c0.3,0,0.3,0,0.6,0.3
	C99,37.33,99,37.33,99.3,37.33c0.9,1.2,0.9,1.2,2.1-0.3C100.5,37.03,99.9,37.33,99.3,37.33z M77.7,39.73l0.3-0.3
	c-0.3-0.6-0.3-1.2-0.6-1.5c0,0-0.3,0-0.6,0c0.3,0.6,0.3,0.9,0.6,1.5C77.4,39.43,77.7,39.43,77.7,39.73L77.7,39.73L77.7,39.73z
	 M103.8,40.33c0,0.3,0,0.3,0.3,0.6c0,0,0.3,0.3,0.6,0.3c0-0.3,0-0.3-0.3-0.6C104.4,40.33,104.1,40.33,103.8,40.33
	c-0.3-0.3-0.6-0.3-1.2-0.6c0-0.6,0-1.2,0.3-1.8c-0.3,0-0.3,0-0.6,0c-0.3,0.6-0.3,1.2-0.6,1.8c-0.3,0.3-0.3,0.6-0.6,0.9
	c0.3,0.3,0.6,0.6,0.6,0.3C102.6,40.63,103.2,40.33,103.8,40.33z M77.7,159.83c0,0.3,0.3,0.3,0.3,0.6v-0.3
	C78,160.13,77.7,160.13,77.7,159.83c-0.3-0.6-0.3-1.2-0.9-0.9c-0.3,0.3-0.3,0.9-0.6,1.5c0.3,0,0.3,0,0.6,0
	C77.1,160.13,77.4,160.13,77.7,159.83z M63.6,47.23L63.6,47.23C63.9,47.53,63.6,47.23,63.6,47.23S63.6,46.93,63.6,47.23
	c0-0.9,0.3-1.8-0.9-2.1c-0.3,0-0.6,0.3-0.6,0.3C62.4,46.33,62.4,47.23,63.6,47.23L63.6,47.23z M151.3,97.03L151.3,97.03
	c0-8.4,0-16.5,0-24.9c0-2.1-0.3-4.5-0.6-6.6c-1.8-8.7-6.6-14.4-15-17.1c-7.2-2.1-14.4-1.5-21.6-1.8c-4.5-0.3-9,0-13.2,0
	c-3,0-6-0.3-9-0.3c-5.4,0-10.8,0-16.2,0.3c-3.6,0.3-7.5,0.6-10.8,1.2c-9.3,2.1-15,8.1-17.1,17.4c-0.6,3-0.9,6-0.9,9
	c-0.3,4.8,0,9.6,0,14.4c0,1.2-0.3,2.4-0.3,3.6s0.3,2.4-0.9,3c0.9,0.9,1.2,1.8,1.2,3c0,6.9,0.3,13.8,0.3,20.7c0,3.9,0,7.8,0.6,11.7
	c1.2,8.4,5.4,14.4,13.5,17.4c5.4,2.1,11.1,2.4,16.8,2.7c1.8,0,3.9,0,5.7,0c3,0,6,0.3,9,0.3c4.2,0,8.7-0.3,12.9-0.3
	c8.7,0,17.7,0,26.4-1.2c9-1.2,15-6.3,17.7-15c1.5-4.5,1.8-9,1.8-13.8C151.6,113.23,151.3,105.13,151.3,97.03z M73.5,158.93
	c-0.3,0.3-0.3,0.6-0.6,0.9l0.3,0.3c0.3-0.3,0.3-0.3,0.3-0.6C73.8,159.23,73.5,159.23,73.5,158.93z M40.8,137.03
	c0.3-0.9,0.6-1.2,0.6-1.2c-0.3-0.3-0.6-0.3-0.9-0.6l-0.3,0.3C40.5,135.83,40.5,136.13,40.8,137.03z M147.1,52.63
	c-0.3,0.3-0.3,0.6-0.3,0.6c0,0.3,0.3,0.3,0.6,0.6c0-0.3,0.3-0.3,0.3-0.6C147.7,52.93,147.4,52.93,147.1,52.63z M154.6,147.23
	l-0.3-0.3l-0.3,0.3l0.3,0.3C154.3,147.53,154.3,147.53,154.6,147.23z M44.7,89.23c0,0.3,0,0.3,0.3,0.6h0.3c0-0.3,0-0.3-0.3-0.6H44.7
	z M89.7,37.33l-0.3,0.3c0,0,0,0.3,0.3,0.6c0.3-0.3,0.3-0.3,0.6-0.6C90,37.33,90,37.33,89.7,37.33z M79.8,160.43c0-0.3,0-0.3-0.3-0.6
	h-0.3c0,0.3,0,0.3,0.3,0.6C79.5,160.43,79.5,160.43,79.8,160.43z M43.8,126.83c0,0,0.3,0,0.3-0.3c0,0,0-0.3,0-0.6l-0.3,0.3
	C43.8,126.53,43.8,126.83,43.8,126.83z M134.5,41.83l-0.3-0.3l-0.3,0.3C133.9,41.83,134.2,42.13,134.5,41.83
	C134.5,42.13,134.5,41.83,134.5,41.83z M129.4,153.23c-0.3,0-0.3-0.3-0.6-0.3c0,0.3,0,0.3,0,0.6l0.3,0.3
	C129.4,153.53,129.4,153.23,129.4,153.23z M156.4,102.43L156.4,102.43c-0.3,0.3-0.3,0.3-0.3,0.6h0.3
	C156.7,102.73,156.4,102.73,156.4,102.43z M45,117.73C45,117.73,45,117.43,45,117.73c-0.3-0.3-0.3-0.3-0.3,0H45L45,117.73z
	 M140.8,40.63C140.8,40.33,140.8,40.33,140.8,40.63c-0.3-0.3-0.3-0.3-0.3,0C140.5,40.33,140.5,40.63,140.8,40.63L140.8,40.63z
	 M136.3,39.43L136.3,39.43c-0.3,0.3-0.3,0.3,0,0.3C136.3,39.73,136.3,39.73,136.3,39.43C136.3,39.73,136.3,39.73,136.3,39.43z
	 M72.9,38.23C72.9,38.23,72.9,37.93,72.9,38.23C72.6,37.93,72.6,38.23,72.9,38.23C72.6,38.23,72.6,38.23,72.9,38.23L72.9,38.23z
	 M139.6,43.33C139.3,43.63,139.3,43.63,139.6,43.33c0,0.3,0,0.3,0,0.3S139.6,43.63,139.6,43.33C139.6,43.63,139.6,43.33,139.6,43.33
	z M145.6,44.83C145.6,44.83,145.9,44.83,145.6,44.83c0-0.3-0.3-0.3-0.3-0.3v0.3C145.6,44.83,145.6,44.83,145.6,44.83z M83.1,38.23
	c0,0,0-0.3,0.3-0.3h-0.3C83.1,37.93,82.8,37.93,83.1,38.23C82.8,38.23,83.1,38.23,83.1,38.23z M156.4,59.53L156.4,59.53
	c0,0.3,0.3,0,0.3,0S156.7,59.23,156.4,59.53C156.7,59.23,156.4,59.53,156.4,59.53z M42.3,60.43C42.3,60.13,42.3,60.13,42.3,60.43
	c0-0.3,0-0.3-0.3-0.3C42,60.13,42,60.13,42.3,60.43C42,60.43,42,60.43,42.3,60.43z M37.8,64.33C37.8,64.33,37.5,64.33,37.8,64.33
	c-0.3,0.3-0.3,0.3-0.3,0.3C37.8,64.63,37.8,64.33,37.8,64.33L37.8,64.33z M155.5,58.03C155.5,57.73,155.5,57.73,155.5,58.03
	c0-0.3-0.3-0.3-0.3,0C155.2,58.03,155.2,58.03,155.5,58.03C155.2,58.03,155.5,58.03,155.5,58.03z M100.8,155.63L100.8,155.63
	c0-0.3,0-0.3-0.3-0.3C100.5,155.33,100.5,155.63,100.8,155.63C100.5,155.63,100.8,155.63,100.8,155.63z M51.6,153.83
	C51.6,153.53,51.6,153.53,51.6,153.83c-0.3-0.3-0.3-0.3-0.3,0C51.3,153.53,51.3,153.83,51.6,153.83
	C51.3,153.83,51.6,153.83,51.6,153.83z M153.4,141.23c0,0-0.3,0-0.3-0.3c0,0-0.3,0-0.3,0.3l0.3,0.3
	C153.1,141.53,153.4,141.53,153.4,141.23z M84.6,159.83C84.6,159.83,84.9,159.83,84.6,159.83c0-0.3-0.3-0.3-0.3-0.3v0.3H84.6z
	 M79.8,157.73C79.5,157.73,79.5,157.73,79.8,157.73c-0.3,0.3-0.3,0.3-0.3,0.6h0.3C79.8,158.03,79.8,158.03,79.8,157.73z
	 M90.6,160.73C90.3,160.73,90.3,160.73,90.6,160.73c-0.3,0-0.3,0-0.3,0.3C90.3,161.03,90.3,161.03,90.6,160.73
	C90.3,160.73,90.3,160.73,90.6,160.73z M126.7,160.13L126.7,160.13c0-0.3-0.3-0.3-0.3-0.3C126.4,160.13,126.4,160.13,126.7,160.13
	C126.4,160.43,126.7,160.13,126.7,160.13z M74.7,160.13L74.7,160.13c-0.3,0.3,0,0.3,0,0.6H75C75,160.43,75,160.13,74.7,160.13z
	 M93.6,160.73L93.6,160.73L93.6,160.73L93.6,160.73z M111.3,160.73L111.3,160.73L111.3,160.73L111.3,160.73z M69.6,159.53
	L69.6,159.53L69.6,159.53L69.6,159.53z M38.4,61.63L38.4,61.63L38.4,61.63L38.4,61.63z M69.9,155.93L69.9,155.93L69.9,155.93
	L69.9,155.93z M40.8,125.93L40.8,125.93L40.8,125.93L40.8,125.93z M106.5,153.53L106.5,153.53L106.5,153.53L106.5,153.53z
	 M90.6,154.73L90.6,154.73L90.6,154.73L90.6,154.73z M73.2,155.03L73.2,155.03L73.2,155.03L73.2,155.03z M132.4,155.63L132.4,155.63
	L132.4,155.63L132.4,155.63z M134.8,156.53C134.8,156.53,134.8,156.23,134.8,156.53L134.8,156.53L134.8,156.53z M133.6,44.83
	C133.9,44.83,133.9,44.53,133.6,44.83C133.9,44.53,133.9,44.53,133.6,44.83C133.6,44.53,133.6,44.53,133.6,44.83
	C133.6,44.53,133.6,44.83,133.6,44.83z M103.5,44.23L103.5,44.23L103.5,44.23L103.5,44.23z M143.8,43.63L143.8,43.63L143.8,43.63
	L143.8,43.63z M104.1,45.73h-0.3C103.8,45.73,103.8,45.73,104.1,45.73L104.1,45.73z M91.2,45.73L91.2,45.73L91.2,45.73
	C91.2,45.73,91.2,46.03,91.2,45.73C91.2,46.03,91.2,45.73,91.2,45.73z M87,45.73L87,45.73L87,45.73L87,45.73z M129.1,41.23
	L129.1,41.23L129.1,41.23L129.1,41.23z M126.4,41.23L126.4,41.23L126.4,41.23L126.4,41.23z M89.4,40.63L89.4,40.63L89.4,40.63
	L89.4,40.63z M121,39.73L121,39.73L121,39.73L121,39.73z M105.6,42.73L105.6,42.73L105.6,42.73L105.6,42.73z M62.4,43.03L62.4,43.03
	L62.4,43.03L62.4,43.03z M115.9,42.43h-0.3C115.5,42.13,115.5,42.43,115.9,42.43C115.5,42.43,115.9,42.43,115.9,42.43z M151.3,55.63
	L151.3,55.63L151.3,55.63L151.3,55.63z M39,135.83L39,135.83L39,135.83L39,135.83z M41.7,112.03L41.7,112.03L41.7,112.03
	L41.7,112.03z M155.2,138.83L155.2,138.83L155.2,138.83L155.2,138.83z M41.4,137.33L41.4,137.33L41.4,137.33L41.4,137.33z
	 M38.7,103.93L38.7,103.93L38.7,103.93L38.7,103.93z M42.6,128.03L42.6,128.03L42.6,128.03L42.6,128.03z M45.3,108.13L45.3,108.13
	L45.3,108.13L45.3,108.13z M154.3,107.23L154.3,107.23L154.3,107.23L154.3,107.23z M42.6,106.63L42.6,106.63
	C42.3,106.63,42.3,106.63,42.6,106.63C42.3,106.93,42.3,106.93,42.6,106.63C42.3,106.93,42.6,106.93,42.6,106.63z M43.8,100.63
	L43.8,100.63L43.8,100.63L43.8,100.63z M65.4,150.83L65.4,150.83L65.4,150.83L65.4,150.83z M69,151.43L69,151.43L69,151.43
	L69,151.43L69,151.43z M128.5,151.43L128.5,151.43L128.5,151.43L128.5,151.43z M131.2,151.43
	C130.9,151.43,130.9,151.43,131.2,151.43C130.9,151.43,130.9,151.43,131.2,151.43C130.9,151.43,130.9,151.43,131.2,151.43
	C130.9,151.43,130.9,151.43,131.2,151.43z M135.1,152.33L135.1,152.33L135.1,152.33L135.1,152.33z M144.1,152.33L144.1,152.33
	L144.1,152.33L144.1,152.33z M37.5,72.13L37.5,72.13L37.5,72.13L37.5,72.13z M51.9,149.03L51.9,149.03L51.9,149.03L51.9,149.03z
	 M40.5,141.83L40.5,141.83L40.5,141.83L40.5,141.83z M43.8,142.73L43.8,142.73L43.8,142.73L43.8,142.73z M45.3,85.63L45.3,85.63
	L45.3,85.63L45.3,85.63z M147.7,146.33L147.7,146.33L147.7,146.33L147.7,146.33z M94.5,38.83L94.5,38.83L94.5,38.83L94.5,38.83z
	 M106.2,37.63L106.2,37.63L106.2,37.63L106.2,37.63z M126.4,39.73L126.4,39.73L126.4,39.73L126.4,39.73z M98.1,38.53L98.1,38.53
	L98.1,38.53L98.1,38.53z"/>
<path id="XMLID_3635_" d="M124.6,77.53c5.4,6.3,8.1,13.8,7.8,21.9c-0.6,15.9-10.5,27.9-25.5,31.8c-11.7,2.7-22.2,0-30.9-8.4
	c-0.9-0.9-1.5-1.8-2.1-2.7c-3.6-3.9-5.7-8.4-6.9-13.5c-1.5-6.6-1.2-13.2,1.2-19.8c5.1-12.9,17.7-20.7,29.7-21
	C108.3,65.83,117.4,69.43,124.6,77.53c-0.6,0.6-1.5,1.2-2.4,1.8C124,79.33,124,79.33,124.6,77.53z M76.5,78.13L76.5,78.13
	L76.5,78.13L76.5,78.13L76.5,78.13z M86.4,121.43L86.4,121.43L86.4,121.43L86.4,121.43L86.4,121.43z M118,121.43L118,121.43
	L118,121.43L118,121.43L118,121.43z M124.3,88.63c0-0.3,0-0.3,0.3-0.6C124.6,88.33,124.6,88.33,124.3,88.63L124.3,88.63L124.3,88.63
	z M103.2,68.83c0-0.3,0-0.9,0-1.2l0,0l0,0C103.5,67.93,103.5,68.53,103.2,68.83L103.2,68.83L103.2,68.83z M72.9,88.63L72.9,88.63
	L72.9,88.63c0,0.3,0,0.3,0,0.6c0,0.3,0,0.3,0.3,0.6c0-0.3,0-0.3,0-0.6C73.2,88.93,73.2,88.93,72.9,88.63z M124.6,106.03
	C124.6,106.03,124.6,106.33,124.6,106.03C124.6,106.33,124.6,106.03,124.6,106.03c0-0.3-0.3-0.3-0.3-0.6l-0.3,0.3
	C124,106.03,124.3,106.03,124.6,106.03z M124.3,81.73L124.3,81.73L124.3,81.73c0-0.3-0.3-0.6-0.3-0.9c-0.3,0-0.3,0-0.6,0.3
	C124,81.13,124.3,81.43,124.3,81.73z M96.9,129.53L96.9,129.53L96.9,129.53c0.6,0.3,1.2,0.9,1.8,1.2h-0.3l0,0
	c0.9-0.9,1.5-1.5,2.4-2.4c0,0,0-0.3,0-0.6c0.3,0,0.3,0,0.6,0c0,0.6,0.3,1.2,1.2,0.9c0.9-0.6,1.5-1.2,2.4-1.8l0.3,0.3
	c0,0,0-0.3,0.3-0.3c-0.3,0-0.3,0-0.6,0c0-0.3-0.3-0.6-0.3-0.6c-1.2,0-2.4-0.3-3,1.2c-0.3,0.3-0.3,0.3-0.6,0.6
	C99.6,128.33,97.8,128.03,96.9,129.53z M99.3,76.63c-11.7-0.6-22.5,9.6-22.5,22.5c0.3,9.6,6.9,22.8,23.1,22.5
	c13.2-0.3,21-12,21-21.6C121.6,86.83,111,76.03,99.3,76.63z M79.8,122.93c0.9,0,1.2,0,1.2,0c0.6-0.3,0.9-0.6,1.5-0.9
	c-0.6,0-1.2,0-1.8,0C80.7,122.03,80.4,122.33,79.8,122.93z M84.3,123.83c-1.2,0-1.5-0.3-2.1-0.3c-0.3,0-0.6,0.3-1.2,0.6
	c0.3,0.3,0.9,0.6,1.2,0.6C82.8,124.73,83.1,124.43,84.3,123.83z M114.9,71.83c0.3,1.2,0.3,1.8,0.6,2.4
	C117.1,73.33,116.5,72.73,114.9,71.83z M79.2,111.73c0-0.3,0-0.6,0.3-0.9c-0.3,0-0.3,0-0.6,0c0,0-0.3,0.3-0.3,0.6
	C78.6,111.43,78.9,111.43,79.2,111.73z M120.7,76.33c-0.3-0.3-0.3-0.3-0.6-0.6l-0.3,0.3c0,0.3,0.3,0.6,0.3,0.6
	C120.4,76.63,120.4,76.33,120.7,76.33z M118,75.13c0-0.3,0-0.3-0.3-0.6c0,0-0.3,0-0.3,0.3c0,0,0,0.3,0.3,0.6
	C117.7,75.13,117.7,75.13,118,75.13z M76.2,83.23l-0.3,0.3c0,0.3,0.3,0.3,0.3,0.3l0.3-0.3C76.2,83.53,76.2,83.23,76.2,83.23z
	 M105.6,69.73c0,0.3-0.3,0.3-0.3,0.6c0,0,0.3,0.3,0.3,0l0.3-0.3C106.2,70.03,105.9,70.03,105.6,69.73z M109.2,124.73l0.3-0.3
	c0,0-0.3-0.3-0.3,0l-0.3,0.3C109.2,124.43,109.2,124.43,109.2,124.73z M121.9,120.73C121.9,120.43,121.9,120.43,121.9,120.73
	c0-0.3,0-0.3-0.3-0.3C121.6,120.43,121.6,120.43,121.9,120.73C121.6,120.73,121.9,120.73,121.9,120.73z M128.2,111.43
	C128.2,111.13,128.2,111.13,128.2,111.43c-0.3-0.3-0.3,0-0.6,0c0,0,0,0,0,0.3C127.9,111.43,127.9,111.43,128.2,111.43z M108.6,73.63
	L108.6,73.63c0-0.3,0-0.3-0.3-0.3C108.6,73.63,108.3,73.63,108.6,73.63L108.6,73.63z M106.8,73.33L106.8,73.33c0,0.3,0.3,0.3,0.3,0
	C107.1,73.33,107.1,73.33,106.8,73.33C106.8,73.03,106.8,73.33,106.8,73.33z M107.4,67.93L107.4,67.93
	C107.1,67.93,107.1,67.93,107.4,67.93C107.1,67.93,107.1,67.93,107.4,67.93C107.1,67.93,107.1,67.93,107.4,67.93z M130.3,93.73
	l-0.3-0.3c0,0,0,0,0,0.3v0.3C130.3,94.03,130.3,93.73,130.3,93.73z M124,91.63C124,91.63,124,91.33,124,91.63c0-0.3,0-0.3,0-0.3
	C123.7,91.33,123.7,91.63,124,91.63C123.7,91.63,123.7,91.63,124,91.63z M81.6,125.93L81.6,125.93c0.3,0.3,0.3,0.3,0.3,0
	C81.9,125.93,81.9,125.93,81.6,125.93C81.9,125.63,81.9,125.93,81.6,125.93z M116.2,116.83L116.2,116.83L116.2,116.83L116.2,116.83z
	 M97.5,124.73L97.5,124.73L97.5,124.73L97.5,124.73z M92.4,70.63L92.4,70.63L92.4,70.63L92.4,70.63z M87,69.13L87,69.13L87,69.13
	L87,69.13z M87.6,71.53L87.6,71.53L87.6,71.53L87.6,71.53z M106.8,125.63L106.8,125.63L106.8,125.63L106.8,125.63z M89.1,122.63
	L89.1,122.63L89.1,122.63L89.1,122.63z M79.2,122.03L79.2,122.03L79.2,122.03L79.2,122.03z M120.7,120.73L120.7,120.73L120.7,120.73
	L120.7,120.73z M113.7,127.73L113.7,127.73L113.7,127.73L113.7,127.73z M76.2,94.63L76.2,94.63L76.2,94.63L76.2,94.63z M124,104.23
	L124,104.23L124,104.23L124,104.23z M87.6,129.23L87.6,129.23L87.6,129.23L87.6,129.23z M110.4,129.23L110.4,129.23L110.4,129.23
	L110.4,129.23z M73.8,97.63L73.8,97.63L73.8,97.63L73.8,97.63z M68.1,100.33L68.1,100.33L68.1,100.33L68.1,100.33z M78.6,75.73
	L78.6,75.73L78.6,75.73L78.6,75.73z M97.8,74.83L97.8,74.83L97.8,74.83L97.8,74.83z M117.7,77.53L117.7,77.53L117.7,77.53
	L117.7,77.53z M104.1,76.03L104.1,76.03L104.1,76.03L104.1,76.03z M122.5,83.53L122.5,83.53L122.5,83.53L122.5,83.53z M73.2,82.33
	L73.2,82.33L73.2,82.33L73.2,82.33z M71.1,82.63L71.1,82.63L71.1,82.63L71.1,82.63z M94.5,126.83L94.5,126.83L94.5,126.83
	L94.5,126.83z M127,85.33C126.7,85.33,126.7,85.33,127,85.33C126.7,85.33,126.7,85.33,127,85.33C126.7,85.63,126.7,85.63,127,85.33
	C127,85.63,127,85.33,127,85.33z M81,80.23L81,80.23L81,80.23L81,80.23z M78,79.93C78,79.93,78,79.63,78,79.93
	C78,79.63,78,79.63,78,79.93C77.7,79.93,78,79.93,78,79.93L78,79.93z"/>
<path id="XMLID_3632_" d="M140.5,64.33c0,3.9-3.6,7.2-7.2,7.2c-4.2-0.3-6.9-3.3-6.9-7.2c0-3.9,3.6-6.9,7.2-6.9
	C137.2,57.43,140.5,61.03,140.5,64.33z M135.1,64.63c0,0.3,0.3,0.3,0.3,0.6C135.1,64.93,135.1,64.93,135.1,64.63
	c-0.3,0-0.6-0.3-0.9-0.3v0.3C134.5,64.93,134.8,64.63,135.1,64.63z"/>
<polygon id="XMLID_3631_" points="102.3,39.73 102.6,39.73 102.6,39.73 "/>
<path id="XMLID_3394_" d="M101.7,127.73c0-0.3,0-0.3,0-0.6c0.3,0,0.3,0.3,0.6,0.3C102,127.73,101.7,127.73,101.7,127.73z"/>
</svg>
