<?xml version="1.0" encoding="utf-8"?>
<!-- Generator: Adobe Illustrator 19.0.0, SVG Export Plug-In . SVG Version: 6.00 Build 0)  -->
<svg version="1.1" id="Layer_1" xmlns="http://www.w3.org/2000/svg" xmlns:xlink="http://www.w3.org/1999/xlink" x="0px" y="0px"
	 viewBox="0 0 198.4 198.4" style="enable-background:new 0 0 198.4 198.4;" xml:space="preserve">
<path id="XMLID_3756_" d="M116.2,82.3c0.9,1.3,1.8,2.7,2.7,4c0.4,0.7,0.3,1.2-0.3,1.8c-0.2,0.2-0.3,0.3-0.5,0.4
	c-2.6,1.8-4.1,4.3-4.7,7.3c-0.9,4.2,0,8.2,2.9,11.5c0.7,0.8,1.6,1.5,2.5,2.2c0.9,0.7,1.2,1.3,0.7,2.4c-0.8,1.9-1.5,3.7-2.3,5.6
	c-0.1,0.2-0.2,0.4-0.3,0.6c-0.4,0.6-0.8,0.9-1.5,0.7c-0.4-0.1-0.8-0.3-1.2-0.4c-1.5-0.7-3.1-1.1-4.8-1.2c-3.6-0.2-6.5,1.3-8.8,3.9
	c-0.2,0.3-0.5,0.5-0.7,0.8c-0.6,0.5-1,0.6-1.7,0.1c-0.3-0.2-0.5-0.5-0.8-0.7c-0.8-0.7-1.5-1.4-2.3-2.1c-1.4-1.1-3-1.6-4.7-1.8
	c-2-0.2-3.8,0-5.6,0.6c-0.6,0.2-1.1,0.5-1.7,0.7c-0.9,0.4-1.7,0.1-2.2-0.8c-0.2-0.3-0.3-0.7-0.5-1.1c-0.7-1.6-1.3-3.2-2-4.7
	c-0.1-0.2-0.2-0.5-0.3-0.7c-0.2-0.8-0.1-1.2,0.6-1.8c0.6-0.5,1.3-1,1.9-1.5c2-1.7,3.2-4,3.9-6.5c0.8-3.1,0.5-6-0.9-8.9
	c-0.8-1.6-2.1-2.9-3.4-4c-0.3-0.2-0.6-0.4-0.8-0.7c-0.6-0.6-0.8-1.3-0.3-2.1c1.1-1.7,2.2-3.4,3.4-5.1c0.5-0.8,1.1-0.9,2-0.6
	c1.4,0.5,2.9,0.8,4.5,0.6c2.3-0.2,4.1-1.8,4.6-4c0.3-1.1,0.5-1.3,1.6-1.3c2.6,0,5.2,0,7.8,0c1.1,0,1.5,0.2,1.6,1.3
	c0.4,2.5,2.5,3.7,4.8,3.9c1.4,0.1,2.7-0.1,4-0.6c1-0.4,1.5-0.2,2.2,0.7C115.7,81.5,115.9,81.9,116.2,82.3L116.2,82.3L116.2,82.3z
	 M103.4,77.9L103.4,77.9L103.4,77.9L103.4,77.9L103.4,77.9z M88,82.9L88,82.9L88,82.9L88,82.9L88,82.9z M114.1,81.4L114.1,81.4
	L114.1,81.4L114.1,81.4L114.1,81.4z M85.3,105.1L85.3,105.1L85.3,105.1L85.3,105.1L85.3,105.1z M106.5,115.6L106.5,115.6
	L106.5,115.6L106.5,115.6L106.5,115.6z M82.2,88.5L82.2,88.5L82.2,88.5L82.2,88.5L82.2,88.5z M113.9,117.9L113.9,117.9L113.9,117.9
	L113.9,117.9L113.9,117.9z M98.3,121c-0.1,0-0.1,0-0.2,0c0,0-0.1-0.1-0.1-0.1c0,0,0,0-0.1,0c0.1,0,0.1,0.1,0.2,0.1
	C98.2,121,98.2,121,98.3,121L98.3,121L98.3,121z M98.9,121.4C98.9,121.4,98.8,121.4,98.9,121.4C98.8,121.4,98.9,121.4,98.9,121.4
	L98.9,121.4C98.9,121.5,98.9,121.4,98.9,121.4z M115.2,116.4L115.2,116.4L115.2,116.4L115.2,116.4L115.2,116.4z M94.6,117.5
	L94.6,117.5L94.6,117.5C94.6,117.5,94.6,117.5,94.6,117.5C94.6,117.5,94.6,117.5,94.6,117.5z M81,117.1L81,117.1L81,117.1L81,117.1
	L81,117.1z M93.2,116.9L93.2,116.9L93.2,116.9L93.2,116.9L93.2,116.9z M114.3,116.9L114.3,116.9L114.3,116.9L114.3,116.9
	L114.3,116.9z M109.2,116.7c0-0.1,0-0.1,0.1-0.2C109.2,116.6,109.2,116.7,109.2,116.7L109.2,116.7
	C109.2,116.8,109.2,116.7,109.2,116.7z M110.5,82.5c0-0.1-0.1-0.1-0.1-0.2C110.5,82.4,110.5,82.5,110.5,82.5c0.1,0,0.1,0.1,0.1,0.1
	c0,0,0,0,0.1,0C110.7,82.6,110.6,82.6,110.5,82.5z M116.8,87.6c0.1,0,0.1-0.1,0.2-0.1c0,0-0.1,0-0.1,0
	C116.9,87.5,116.8,87.5,116.8,87.6L116.8,87.6L116.8,87.6z M103.8,77.5L103.8,77.5L103.8,77.5c-0.1,0-0.1,0-0.2-0.1
	C103.6,77.4,103.7,77.4,103.8,77.5z M84.7,94.8L84.7,94.8C84.6,94.7,84.7,94.8,84.7,94.8c0,0.1,0,0.2,0,0.2c0,0,0.1,0,0.1,0
	C84.8,94.9,84.7,94.8,84.7,94.8z M85.7,93.4c-0.2-0.1-0.5-0.3-0.6,0.1c0,0,0.1,0.2,0.1,0.2C85.3,93.6,85.5,93.5,85.7,93.4L85.7,93.4
	L85.7,93.4z M116.4,108.4c-0.2-0.1-0.4-0.1-0.7-0.2C116.1,108.7,116.1,108.7,116.4,108.4L116.4,108.4L116.4,108.4z M116,110.3
	c-0.9-1-1.8-1.9-2.6-2.9c-2-2.8-2.7-6-2.6-9.4c0.1-2.2,0.6-4.3,1.6-6.2c0.8-1.6,1.9-3,3.2-4.2c0.7-0.7,0.7-0.9,0.2-1.7
	c-0.5-0.8-1-1.6-1.6-2.3c-0.5-0.7-0.5-0.7-1.3-0.5c-1.6,0.5-3.2,0.6-4.9,0.2c-2.4-0.6-4.5-1.7-5.5-4.1c-0.3-0.6-0.7-1-1.4-1
	c-0.3,0-0.5,0-0.8,0c-1.1,0-2.1,0-3.2,0c-1,0-1.7,0.3-2.1,1.3c-0.8,1.8-2.3,2.9-4.2,3.6c-2,0.7-4,0.8-6.1,0.2
	c-0.9-0.3-1-0.2-1.5,0.5c-0.6,0.8-1.1,1.7-1.6,2.5c-0.4,0.7-0.4,0.8,0.2,1.3c2.4,1.9,3.8,4.5,4.7,7.4c0.6,2.1,0.6,4.2,0.2,6.4
	c-0.4,2.1-1,4.1-2.2,5.8c-0.9,1.4-2.1,2.7-3.4,3.7c-0.4,0.3-0.5,0.7-0.3,1.2c0.5,1.2,1,2.4,1.5,3.6c0.2,0.6,0.6,0.8,1.2,0.5
	c0.8-0.3,1.6-0.5,2.4-0.7c2-0.5,4.1-0.4,6.1,0c2.3,0.5,4.4,1.5,6,3.3c0.6,0.6,0.8,0.6,1.5,0.1c0.3-0.3,0.7-0.6,1-0.9
	c3.7-2.7,7.8-3.4,12.2-2.3c0.5,0.1,1,0.3,1.5,0.4c0.7,0.2,0.8,0.1,1.1-0.6c0.4-1,0.8-2,1.3-2.9c0.4-1,0.4-1-0.3-1.8
	c0.1,0,0.2,0,0.3,0c0.1,0,0.1,0,0.2,0c-0.1-0.1-0.1-0.2-0.2-0.2c-0.1,0-0.2,0.1-0.4,0.1C116.3,110.6,116.1,110.5,116,110.3
	L116,110.3C116.1,110.3,116,110.3,116,110.3z M119.1,110.3c-0.1,0-0.2,0-0.2-0.1c0,0.1,0,0.1,0,0.1c0,0,0.1,0.1,0.2,0.1
	C119.1,110.4,119.1,110.4,119.1,110.3z M88.6,116c-0.1-0.1-0.2-0.1-0.3-0.1c0,0-0.1,0.1-0.1,0.2c0.1,0,0.2,0.1,0.3,0.1
	C88.5,116.1,88.5,116.1,88.6,116z M80.3,110.7c0,0.1-0.1,0.2-0.1,0.2c0,0.1,0.1,0.1,0.1,0.1c0-0.1,0.1-0.2,0.1-0.2
	C80.5,110.8,80.4,110.7,80.3,110.7z M112.4,98.5c0-0.1,0-0.1-0.1-0.2c0,0-0.1,0-0.1,0.1c0,0.1,0.1,0.1,0.1,0.2
	C112.4,98.6,112.4,98.6,112.4,98.5z M82.2,90.3c0.1-0.1,0.2-0.2,0.2-0.3c0-0.1,0-0.1-0.1-0.2c0,0-0.1,0.1-0.1,0.1
	C82.2,90.1,82.2,90.2,82.2,90.3z M104.7,116.2c0.1,0,0.1-0.1,0.2-0.1c-0.1-0.1-0.1-0.1-0.2-0.2c-0.1,0-0.1,0.1-0.2,0.1
	C104.6,116.1,104.7,116.2,104.7,116.2z M115.6,82.4c-0.1,0-0.1,0-0.2,0.1c0,0.1,0.1,0.1,0.1,0.2c0,0,0.1-0.1,0.1-0.1
	C115.7,82.5,115.6,82.5,115.6,82.4z M82.8,82.4C82.8,82.4,82.8,82.4,82.8,82.4c0-0.1,0-0.1,0-0.2c0,0,0,0-0.1,0
	C82.7,82.3,82.7,82.4,82.8,82.4z M113.5,106.9c0,0-0.1,0.1-0.1,0.1c0,0,0.1,0.1,0.1,0.1c0-0.1,0.1-0.1,0.1-0.2
	C113.7,106.9,113.6,106.9,113.5,106.9z M117,114.1c0,0-0.1,0.1-0.1,0.1c0,0,0.1,0.1,0.1,0C117,114.3,117,114.2,117,114.1
	C117,114.2,117,114.1,117,114.1z M84,90.1c0-0.1,0-0.1-0.1-0.2c0,0-0.1,0-0.1,0c0,0.1,0,0.1,0.1,0.2C83.9,90.1,84,90.1,84,90.1z
	 M92.8,80.5c0,0-0.1,0-0.1-0.1c0,0.1-0.1,0.1-0.1,0.2c0,0,0.1,0,0.1,0.1C92.8,80.6,92.8,80.5,92.8,80.5z M118.3,111.6
	c0,0-0.1,0.1-0.1,0.1c0,0,0.1,0.1,0.1,0.1c0.1-0.1,0.1-0.1,0.2-0.2C118.4,111.7,118.3,111.7,118.3,111.6z M111.5,117
	c0,0-0.1,0.1-0.1,0.1c0,0,0.1,0,0.1,0C111.5,117.2,111.6,117.1,111.5,117C111.6,117.1,111.6,117.1,111.5,117z M84.3,92
	c0,0-0.1,0.1-0.1,0.1c0,0,0.1,0.1,0.1,0C84.3,92.1,84.4,92,84.3,92C84.4,92,84.4,92,84.3,92z M108.8,82.1c0,0-0.1-0.1-0.1-0.1
	c0,0-0.1,0.1-0.1,0.1c0,0,0.1,0.1,0.1,0.1C108.8,82.2,108.8,82.1,108.8,82.1z M83.7,92C83.7,91.9,83.7,91.9,83.7,92
	c-0.1-0.1-0.1,0-0.2,0c0,0,0,0.1,0,0.1C83.6,92,83.7,92,83.7,92z M114.9,91.5C114.9,91.4,114.9,91.4,114.9,91.5c0-0.1-0.1,0-0.1,0
	C114.7,91.5,114.8,91.5,114.9,91.5C114.8,91.5,114.8,91.5,114.9,91.5z M86.3,101.8C86.3,101.8,86.4,101.8,86.3,101.8
	c0-0.1-0.1-0.1-0.1-0.1C86.3,101.8,86.3,101.8,86.3,101.8C86.3,101.9,86.3,101.8,86.3,101.8z M84.4,106.1
	C84.4,106.1,84.4,106.1,84.4,106.1c0-0.1,0-0.1,0-0.1C84.3,106.1,84.3,106.1,84.4,106.1C84.3,106.1,84.3,106.1,84.4,106.1z
	 M111,98.9C111,98.9,111,98.9,111,98.9C111,99,111.1,99,111,98.9C111.1,98.9,111.1,98.9,111,98.9C111.1,98.9,111,98.9,111,98.9z
	 M112.6,105.3C112.6,105.3,112.6,105.3,112.6,105.3c-0.1,0.1-0.1,0.1-0.1,0.1C112.6,105.4,112.6,105.4,112.6,105.3
	C112.7,105.3,112.6,105.3,112.6,105.3z M116.2,88.4C116.3,88.4,116.3,88.4,116.2,88.4c0-0.1,0-0.1,0-0.2c0,0,0,0-0.1,0
	C116.2,88.3,116.2,88.3,116.2,88.4z M118,114.4C118,114.4,117.9,114.4,118,114.4c-0.1,0-0.1,0-0.1,0.1
	C117.9,114.5,117.9,114.5,118,114.4C118,114.5,118,114.5,118,114.4z M116.5,86.4C116.5,86.4,116.5,86.4,116.5,86.4
	c0.1,0,0.1-0.1,0.1-0.1C116.5,86.3,116.5,86.3,116.5,86.4C116.4,86.3,116.4,86.3,116.5,86.4z M96.9,120.4
	C96.9,120.4,96.9,120.4,96.9,120.4c0,0.1,0.1,0.1,0.1,0C97,120.4,97,120.3,96.9,120.4C97,120.3,96.9,120.3,96.9,120.4z M111.1,116.1
	C111.1,116.1,111.2,116,111.1,116.1c0.1-0.1,0.1-0.1,0.1-0.1C111.1,116,111.1,116,111.1,116.1C111.1,116,111.1,116,111.1,116.1z
	 M81.5,115.7C81.5,115.7,81.5,115.7,81.5,115.7c-0.1,0-0.1,0-0.1,0.1C81.4,115.8,81.4,115.8,81.5,115.7
	C81.5,115.8,81.5,115.7,81.5,115.7z M118.8,87.6c0,0-0.1-0.1-0.1-0.1c0,0-0.1,0,0,0.1c0,0,0,0.1,0.1,0.1
	C118.7,87.6,118.7,87.6,118.8,87.6z M86.4,99.2L86.4,99.2L86.4,99.2L86.4,99.2z M84,82.5L84,82.5L84,82.5L84,82.5z M88.4,82.6
	L88.4,82.6L88.4,82.6L88.4,82.6z M115.2,83.6L115.2,83.6L115.2,83.6L115.2,83.6z M81.3,84.2L81.3,84.2L81.3,84.2L81.3,84.2z
	 M86.5,100.4L86.5,100.4L86.5,100.4L86.5,100.4z M85.7,99.4L85.7,99.4L85.7,99.4L85.7,99.4z M86.8,81.5L86.8,81.5L86.8,81.5
	L86.8,81.5z M85.3,94.2L85.3,94.2L85.3,94.2L85.3,94.2z M81.8,89.1L81.8,89.1L81.8,89.1L81.8,89.1z M117.6,88.3L117.6,88.3
	L117.6,88.3L117.6,88.3z M84.8,92.4L84.8,92.4L84.8,92.4L84.8,92.4z M114.7,108.1L114.7,108.1L114.7,108.1L114.7,108.1z
	 M117.7,114.9L117.7,114.9L117.7,114.9L117.7,114.9z M89.8,116.6L89.8,116.6L89.8,116.6L89.8,116.6z M108.8,116.4L108.8,116.4
	L108.8,116.4L108.8,116.4z M112.9,104.2L112.9,104.2L112.9,104.2L112.9,104.2z M109.1,116L109.1,116L109.1,116L109.1,116z
	 M114.8,106.7L114.8,106.7L114.8,106.7L114.8,106.7z M117.8,112.6L117.8,112.6L117.8,112.6L117.8,112.6z M117.9,113.9L117.9,113.9
	L117.9,113.9L117.9,113.9z M95.1,117.7L95.1,117.7L95.1,117.7L95.1,117.7z M112.6,102.8L112.6,102.8L112.6,102.8L112.6,102.8z
	 M112.9,117.3L112.9,117.3L112.9,117.3L112.9,117.3z M83.3,117.6L83.3,117.6L83.3,117.6L83.3,117.6z M85.1,102L85.1,102L85.1,102
	L85.1,102z M111.7,101.9L111.7,101.9L111.7,101.9L111.7,101.9z M96.3,119.1L96.3,119.1L96.3,119.1L96.3,119.1z M117.7,111.2
	L117.7,111.2L117.7,111.2L117.7,111.2z"/>
<path id="XMLID_3395_" d="M104.3,83.1c1.2,0.6,2.4,1.2,3.7,1.4c1.6,0.3,3.2,0.2,4.7-0.1c0.4-0.1,0.7,0,0.9,0.4
	c0.3,0.6,0.7,1.2,1.1,1.7c-0.7,0.9-1.5,1.7-2.2,2.6c-1.5,2.1-2.4,4.4-2.8,6.9c-0.5,3.1-0.2,6.1,1,9c0.7,1.7,1.8,3.2,2.9,4.6
	c0.5,0.6,1.1,1.2,1.6,1.8c0.2,0.2,0.3,0.4,0.1,0.8c-0.3,0.6-0.6,1.2-0.8,1.9c-0.2,0.4-0.4,0.5-0.8,0.3c-2-0.7-4.1-0.8-6.1-0.6
	c-2.7,0.3-5.2,1.2-7.4,2.8c-0.4,0.3-0.9,0.8-1.3,0.8c-0.4,0-0.8-0.5-1.2-0.8c-2.4-1.8-5.1-2.7-8.1-2.8c-2.1-0.1-4.2,0.2-6.3,0.9
	c-0.3-0.8-0.7-1.7-1-2.4c-0.2-0.4-0.1-0.7,0.2-1c0.8-0.8,1.5-1.5,2.2-2.3c1.8-2.1,2.8-4.5,3.3-7.2c0.4-2.3,0.4-4.7-0.2-7
	c-0.4-1.9-1.2-3.6-2.3-5.2c-0.6-0.9-1.3-1.8-2.2-2.6c-0.3-0.3-0.3-0.5-0.1-0.8c0.3-0.4,0.6-0.9,0.8-1.3c0.2-0.4,0.5-0.5,0.9-0.4
	c1.7,0.4,3.4,0.4,5,0.1c2.5-0.6,4.7-1.8,6-4.1c0.5-0.8,1-1,1.9-1c0.9,0.1,1.9,0,2.8,0c0.3,0,0.5,0,0.7,0.3
	C102,81.1,103.1,82.2,104.3,83.1c0,0-0.1,0-0.2,0.1c0,0-0.1,0.1-0.1,0.2c0,0,0.1,0,0.1-0.1C104.3,83.2,104.3,83.1,104.3,83.1z
	 M101.2,82.3L101.2,82.3L101.2,82.3L101.2,82.3L101.2,82.3z M103.4,107.6c0.1,0,0.1,0,0.2,0l0.1,0l0,0.1
	C103.5,107.6,103.4,107.6,103.4,107.6L103.4,107.6C103.3,107.5,103.4,107.6,103.4,107.6z M104.9,107.4L104.9,107.4L104.9,107.4
	L104.9,107.4L104.9,107.4z M110,107.4L110,107.4L110,107.4L110,107.4L110,107.4z M106.3,100L106.3,100
	C106.3,100.1,106.3,100,106.3,100C106.3,100,106.2,100,106.3,100C106.2,100,106.3,100,106.3,100z M96.6,100.2L96.6,100.2L96.6,100.2
	L96.6,100.2L96.6,100.2z M91.5,100.2L91.5,100.2L91.5,100.2L91.5,100.2L91.5,100.2z M98.5,101.8L98.5,101.8L98.5,101.8L98.5,101.8
	L98.5,101.8z M99.9,101.6L99.9,101.6L99.9,101.6L99.9,101.6L99.9,101.6z M108.4,100.6L108.4,100.6L108.4,100.6L108.4,100.6
	L108.4,100.6z M104.9,102.4C104.9,102.4,104.9,102.4,104.9,102.4C104.9,102.4,104.9,102.4,104.9,102.4c0.1,0,0.1,0,0.2,0
	c0.1,0.1,0.3,0.2,0.4,0.3c0-0.1,0.1-0.2,0.1-0.2c-0.2,0-0.3,0-0.5,0C105,102.4,105,102.4,104.9,102.4z M99.3,106L99.3,106L99.3,106
	L99.3,106L99.3,106z M94.8,103.9L94.8,103.9L94.8,103.9L94.8,103.9L94.8,103.9z M110,104.3L110,104.3L110,104.3L110,104.3L110,104.3
	z M109,98.6L109,98.6L109,98.6L109,98.6L109,98.6z M106.3,87.6L106.3,87.6L106.3,87.6L106.3,87.6L106.3,87.6z M105.5,87.4
	L105.5,87.4C105.6,87.4,105.5,87.4,105.5,87.4C105.5,87.4,105.5,87.4,105.5,87.4C105.5,87.4,105.5,87.4,105.5,87.4z M114.4,113.2
	L114.4,113.2L114.4,113.2c-0.1-0.1-0.1-0.1-0.2-0.2c-0.1,0-0.3-0.1-0.4-0.1c0,0.1,0,0.2,0,0.3c0.1-0.1,0.3-0.1,0.4-0.2
	C114.3,113.1,114.4,113.2,114.4,113.2z M95,88.3L95,88.3L95,88.3L95,88.3L95,88.3z M88.2,85.4L88.2,85.4L88.2,85.4L88.2,85.4
	L88.2,85.4z M99.7,85C99.7,85,99.7,85,99.7,85c0-0.1,0-0.1,0-0.2l0-0.1l0.1,0C99.7,84.9,99.7,85,99.7,85L99.7,85L99.7,85z
	 M103.2,86.4L103.2,86.4L103.2,86.4L103.2,86.4L103.2,86.4z M85.3,112.1L85.3,112.1L85.3,112.1L85.3,112.1L85.3,112.1z M87.4,91.1
	L87.4,91.1L87.4,91.1L87.4,91.1L87.4,91.1z M110.7,91.5L110.7,91.5L110.7,91.5L110.7,91.5L110.7,91.5z M88.8,91.3L88.8,91.3
	L88.8,91.3L88.8,91.3L88.8,91.3z M110.6,112.5L110.6,112.5C110.6,112.5,110.5,112.5,110.6,112.5
	C110.5,112.4,110.5,112.4,110.6,112.5C110.5,112.4,110.5,112.4,110.6,112.5z M87,110.5L87,110.5L87,110.5L87,110.5L87,110.5z
	 M98.7,103.7L98.7,103.7C98.7,103.8,98.7,103.7,98.7,103.7c-0.1-0.1-0.3-0.1-0.4-0.2c0-0.1-0.1-0.1-0.1-0.2c0,0,0.1,0.1,0.1,0.1
	C98.4,103.6,98.6,103.6,98.7,103.7z M111.9,109.7C111.9,109.7,111.9,109.7,111.9,109.7C111.9,109.7,111.9,109.7,111.9,109.7
	c0,0.1,0.1,0.1,0.1,0.2c0,0,0-0.1,0-0.1C112,109.8,111.9,109.8,111.9,109.7z M102.2,103.5L102.2,103.5
	C102.2,103.6,102.2,103.5,102.2,103.5c0,0-0.1-0.1-0.1-0.1C102.1,103.4,102.2,103.5,102.2,103.5z M94.4,114L94.4,114L94.4,114
	c0.1,0,0.3,0,0.4,0c0.1,0,0.2,0,0.3,0c0,0,0-0.1,0-0.1c-0.1,0-0.2,0.1-0.2,0.1C94.7,114,94.5,114,94.4,114z M97.9,106
	c0.1,0,0.1-0.1,0.2-0.1c0,0-0.1,0-0.1,0C98,106,98,106,97.9,106L97.9,106C97.9,106.1,97.9,106,97.9,106z M107.8,107
	c0,0-0.1-0.1-0.1-0.1c0,0,0,0-0.1,0C107.7,107,107.8,107,107.8,107c0,0,0.1,0.1,0.1,0.1C107.9,107.1,107.9,107.1,107.8,107z
	 M93.6,104.3c0,0.1,0,0.1-0.1,0.2C93.6,104.4,93.6,104.3,93.6,104.3c0-0.1,0.1-0.1,0.1-0.1c0,0,0,0,0-0.1
	C93.7,104.2,93.7,104.2,93.6,104.3z M95.4,104.5c0,0.1,0.1,0.1,0.1,0.2c0,0,0-0.1,0-0.1C95.5,104.6,95.4,104.5,95.4,104.5
	c0,0-0.1-0.1-0.1-0.1c0,0,0,0.1,0,0.1C95.3,104.5,95.3,104.5,95.4,104.5z M106.7,105.8c0.1,0,0.1,0,0.2,0.1
	C106.8,105.9,106.7,105.9,106.7,105.8c-0.1,0-0.1-0.1-0.1-0.1c0,0,0,0-0.1,0C106.5,105.8,106.6,105.8,106.7,105.8z M99.7,87.6
	c0,0-0.1,0.1-0.1,0.1c0,0,0,0,0,0.1C99.6,87.7,99.6,87.6,99.7,87.6L99.7,87.6L99.7,87.6z M103.7,97.3c0,0,0.1-0.1,0.1-0.1
	c0,0,0,0,0-0.1C103.8,97.2,103.8,97.2,103.7,97.3c-0.1,0.1-0.1,0.3-0.2,0.4c-0.1,0-0.1,0.1-0.2,0.1c0,0,0.1,0,0.1,0
	c0,0,0.1-0.1,0.1-0.1C103.6,97.5,103.7,97.4,103.7,97.3z M103.4,96.9c0,0.1-0.1,0.1-0.1,0.2C103.3,97.1,103.3,97,103.4,96.9
	L103.4,96.9C103.4,96.9,103.4,96.9,103.4,96.9z M88,89.5L88,89.5C88,89.5,88,89.5,88,89.5c0.1,0,0.1,0,0.2,0
	C88.1,89.6,88.1,89.5,88,89.5z M93.3,89.5c-0.1,0-0.1,0.1-0.2,0.1C93.1,89.6,93.2,89.6,93.3,89.5L93.3,89.5
	C93.3,89.5,93.3,89.5,93.3,89.5z M99.5,94.2L99.5,94.2C99.4,94.1,99.5,94.2,99.5,94.2c0.1,0,0.1,0,0.2,0
	C99.6,94.2,99.5,94.2,99.5,94.2z M99.7,85.6L99.7,85.6C99.6,85.6,99.7,85.6,99.7,85.6c0.1,0.1,0.3,0.1,0.4,0.2
	c0,0.1,0.1,0.1,0.1,0.2c0,0,0.1,0.1,0.1,0.1c0-0.1,0-0.1-0.1-0.2c0,0-0.1,0-0.2,0C99.9,85.8,99.8,85.7,99.7,85.6z M98.3,98.3
	c0,0-0.1-0.1-0.1-0.1c0,0,0,0-0.1,0C98.2,98.2,98.2,98.2,98.3,98.3c0,0,0.1,0.1,0.1,0.1C98.4,98.4,98.3,98.3,98.3,98.3z M90,90.7
	c0,0-0.1,0.1-0.1,0.1c0,0,0,0,0,0.1C89.9,90.8,89.9,90.7,90,90.7L90,90.7L90,90.7z M101.2,91.1c0-0.1,0.1-0.2,0.1-0.2
	c0,0-0.1,0-0.1,0C101.2,90.9,101.2,91,101.2,91.1L101.2,91.1C101.2,91.1,101.2,91.1,101.2,91.1z M90.1,86.2L90.1,86.2L90.1,86.2
	c0.1,0.1,0.1,0.1,0.2,0.2c0,0,0-0.1,0.1-0.1C90.3,86.3,90.2,86.3,90.1,86.2z M106.7,112.6c0.1,0,0.1,0,0.2-0.1
	c0-0.1,0.1-0.1,0.1-0.2c-0.1,0-0.1,0.1-0.2,0.1C106.7,112.5,106.7,112.6,106.7,112.6c0,0.1-0.1,0.2-0.1,0.2c0,0,0.1,0,0.1,0
	C106.7,112.8,106.7,112.7,106.7,112.6z M104.9,96.1c0-0.1,0-0.1-0.1-0.2c0,0.1-0.1,0.1-0.1,0.2c-0.1,0-0.3,0-0.4-0.1
	c0.1,0.1,0.1,0.2,0.2,0.3c0.1-0.1,0.1-0.2,0.2-0.2C104.8,96.1,104.9,96.1,104.9,96.1c0,0,0,0.1,0.1,0.2c0,0,0.1,0.1,0.2,0.1
	c0-0.1,0-0.1-0.1-0.2C105,96.2,105,96.2,104.9,96.1z M105.3,98.3c0.1,0,0.3,0,0.4,0l0,0.1l-0.1,0c-0.1-0.1-0.2-0.2-0.3-0.2
	C105.4,98.1,105.4,98.2,105.3,98.3L105.3,98.3C105.3,98.3,105.3,98.3,105.3,98.3z M103.9,91.8L103.9,91.8L103.9,91.8
	c0-0.1,0-0.2,0.1-0.3c-0.1,0-0.1,0-0.2,0C103.9,91.7,103.9,91.8,103.9,91.8z M99.5,91.3c0.1,0,0.1,0,0.2,0c0.1,0,0.1-0.1,0.2-0.1
	c-0.1,0-0.2,0-0.2,0C99.6,91.2,99.5,91.2,99.5,91.3L99.5,91.3L99.5,91.3z M103.2,114.2c-0.1,0.1-0.2,0.1-0.3,0.2c0,0,0,0,0.1,0.1
	C103,114.4,103.1,114.3,103.2,114.2c0.1,0,0.1-0.1,0.2-0.1c0,0-0.1,0-0.1,0C103.3,114.1,103.2,114.2,103.2,114.2z M108.4,105.7
	c-0.1,0.1-0.2,0.1-0.3,0.2c0,0,0,0,0.1,0.1C108.3,105.8,108.3,105.7,108.4,105.7c0.1,0,0.1-0.1,0.2-0.1c0,0-0.1,0-0.1,0
	C108.5,105.6,108.5,105.6,108.4,105.7z M110.8,109.9c-0.1,0-0.3,0-0.4,0c0-0.1-0.1-0.2-0.1-0.3c0-0.1-0.1-0.1-0.2-0.1
	c0,0.1-0.1,0.1-0.1,0.2c0,0.1,0.1,0.2,0.1,0.2c0.1,0,0.2,0,0.3,0c0,0.1,0.1,0.3,0.1,0.4C110.6,110.2,110.6,110.1,110.8,109.9
	C110.7,110,110.7,110,110.8,109.9c0.1,0,0.1-0.1,0.2-0.1c0,0-0.1,0-0.1,0C110.8,109.8,110.8,109.9,110.8,109.9z M103.4,106.8
	c0.2-0.1,0.5-0.3,0.2-0.6c0-0.1,0-0.2,0-0.4c0-0.1-0.1-0.2-0.1-0.2c-0.1,0.1-0.2,0.1-0.2,0.2c0,0,0,0.1,0,0.2l-0.1,0c0,0,0,0,0,0
	c0.1,0.1,0.3,0.1,0.4,0.2C103.5,106.4,103.4,106.6,103.4,106.8c0,0-0.1,0-0.2,0.1c0,0-0.1,0.1-0.1,0.2c0,0,0.1-0.1,0.1-0.1
	C103.3,106.9,103.3,106.9,103.4,106.8z M113.9,113.8L113.9,113.8L113.9,113.8c0.1,0.1,0.1,0.2,0.1,0.2c0,0.1,0.1,0.1,0.2,0.1
	c0-0.1,0.1-0.1,0.1-0.1c0-0.1-0.1-0.2-0.2-0.2C114,113.8,113.9,113.8,113.9,113.8z M102.2,88.9c-0.1,0.2-0.2,0.4-0.3,0.6
	c0.1,0,0.1,0,0.2,0.1C102.1,89.4,102.2,89.2,102.2,88.9c0,0,0.1-0.1,0.1-0.1c0,0,0,0,0-0.1C102.3,88.8,102.2,88.9,102.2,88.9z
	 M104.1,105.1L104.1,105.1L104.1,105.1c0-0.1,0.1-0.1,0.1-0.2c0-0.1,0-0.2,0.1-0.2c-0.1,0-0.3,0.1-0.3,0.1
	C104,104.8,104.1,105,104.1,105.1z M105.5,109.7c-0.1,0.1-0.2,0.1-0.3,0.2c0,0.1,0,0.2,0.1,0.3c0.1-0.1,0.1-0.1,0.2-0.2
	C105.5,109.9,105.5,109.8,105.5,109.7L105.5,109.7C105.5,109.7,105.5,109.7,105.5,109.7z M94,89.3c-0.1,0.1-0.1,0.2-0.2,0.3
	c0.1,0,0.3-0.1,0.4-0.1c0.2,0,0.4-0.1,0.3-0.3c0-0.1-0.1-0.2-0.1-0.2C94.3,89.1,94.1,89.2,94,89.3z M103.6,84.6
	c0.3-0.3,0.2-0.5-0.1-0.8C103.3,84.2,103.5,84.4,103.6,84.6c-0.1,0-0.2,0.1-0.2,0.1c0,0,0.1,0.1,0.1,0.1
	C103.5,84.8,103.5,84.7,103.6,84.6z M106.5,101.2c0.2,0,0.3,0,0.5,0c0-0.1,0-0.3-0.1-0.4c-0.2-0.2-0.3,0-0.4,0.2c0,0,0,0,0,0.1
	C106.4,101.1,106.5,101.1,106.5,101.2z M106.7,103.3L106.7,103.3L106.7,103.3c-0.1-0.3-0.1-0.6-0.2-1l0,0c-0.1,0-0.3-0.1-0.3,0
	c-0.1,0.4-0.3,0.8-0.4,1.3C106.1,103.5,106.4,103.4,106.7,103.3z M108.8,88.3c0.5-0.3,1.3-0.3,1.3-1.2c-0.1,0-0.1-0.1-0.2-0.1
	c-0.8-0.3-0.9-0.2-0.9,0.7C109,88,108.9,88.2,108.8,88.3c0,0.1,0,0.1,0,0.2C108.8,88.5,108.8,88.4,108.8,88.3z M108.1,109.6
	c0.5,0.3,0.9,0.5,1.2,0.8c0.3-0.5,0.3-1,0.1-1.1c-0.2-0.1-0.5-0.1-0.7-0.1C108.5,109.2,108.3,109.4,108.1,109.6z M99.2,109
	c0.2,0.5,0.3,0.9,0.4,1.2C99.9,109.6,99.9,109.6,99.2,109z M93.6,106.7c0,0.1,0.1,0.1,0.1,0.2c0.2,0,0.3,0,0.5-0.1
	c0.1,0,0.2-0.1,0.3-0.2c-0.1-0.1-0.2-0.2-0.3-0.2C94,106.4,93.8,106.6,93.6,106.7z M104.8,91.8c0.5-0.3,0.5-0.3,0.3-0.9
	C105,91.3,104.9,91.5,104.8,91.8z M91.6,87.4c0-0.1,0.1-0.1,0.1-0.2c-0.1,0-0.2-0.1-0.3-0.1c-0.2,0-0.3,0.1-0.5,0.2
	c0.1,0.1,0.1,0.2,0.2,0.2C91.3,87.4,91.4,87.4,91.6,87.4z M102.5,94.5c-0.1-0.1-0.2-0.2-0.3-0.2c-0.1,0-0.3,0.1-0.4,0.2
	c0.1,0.1,0.1,0.2,0.2,0.2C102.2,94.6,102.3,94.5,102.5,94.5z M101.9,90c-0.1,0-0.2,0-0.2,0c-0.1,0.1-0.2,0.2-0.3,0.3
	c0,0,0.1,0.1,0.1,0.1c0.1-0.1,0.3-0.2,0.4-0.2C101.8,90.1,101.8,90.1,101.9,90z M102.2,101.6c0,0,0.1,0,0.1-0.1
	c-0.1-0.1-0.1-0.3-0.2-0.4c0,0-0.1-0.1-0.2-0.1c0,0.1,0,0.2,0,0.2C102.1,101.4,102.2,101.5,102.2,101.6z M111.8,86.1
	c-0.2-0.1-0.3-0.2-0.3-0.2c-0.1,0-0.2,0.1-0.3,0.1c0.1,0.1,0.1,0.1,0.2,0.2C111.4,86.2,111.5,86.2,111.8,86.1z M104.7,113.7
	c0-0.1-0.1-0.2-0.1-0.2c-0.1,0.1-0.2,0.2-0.2,0.3c0,0,0,0.1,0.1,0.2C104.6,113.8,104.6,113.8,104.7,113.7z M106.2,96.1
	c-0.1-0.1-0.1-0.2-0.2-0.3c0,0-0.1,0-0.1,0c0.1,0.1,0.1,0.2,0.2,0.3C106,96.2,106.1,96.2,106.2,96.1z M101.1,109.5
	c0,0-0.1-0.1-0.1-0.1c-0.1,0-0.1,0.1-0.2,0.1c0.1,0.1,0.1,0.1,0.2,0.2C101,109.6,101,109.5,101.1,109.5z M100.2,115.3
	c0.1,0,0.1,0,0.1-0.1c0,0,0-0.1-0.1-0.1c-0.1,0-0.1,0.1-0.2,0.1C100.1,115.2,100.1,115.3,100.2,115.3z M111.6,110.6
	c-0.1,0.1-0.2,0.2-0.2,0.3c0,0.1,0.1,0.1,0.1,0.2c0.1-0.1,0.1-0.1,0.2-0.2C111.8,110.8,111.7,110.7,111.6,110.6z M109.4,105
	c-0.2-0.1-0.3-0.2-0.3-0.2c-0.1,0-0.1,0.1-0.2,0.2c0.1,0,0.1,0.1,0.2,0.1C109.2,105.1,109.2,105,109.4,105z M112.2,88.1
	c0,0.1,0,0.1,0.1,0.2c0,0,0.1,0,0.2-0.1c0-0.1-0.1-0.1-0.1-0.2C112.3,88,112.2,88,112.2,88.1z M95.7,88.1c-0.1,0-0.1,0.1-0.1,0.1
	c0,0.1,0,0.2,0,0.3c0.1,0,0.2-0.1,0.2-0.1C95.7,88.2,95.7,88.2,95.7,88.1z M88.8,96.5c0,0-0.1-0.1-0.1-0.1c-0.1,0-0.1,0-0.2,0.1
	c0.1,0,0.1,0.1,0.2,0.1C88.7,96.6,88.8,96.5,88.8,96.5z M90.1,98.6c-0.1,0.1-0.1,0.1-0.2,0.2c0,0,0.1,0.1,0.1,0.1
	c0.1,0,0.2-0.1,0.2-0.1C90.3,98.8,90.2,98.7,90.1,98.6z M100.2,83c-0.1,0-0.1-0.1-0.2-0.1c0,0-0.1,0.1-0.1,0.1
	c0,0.1,0.1,0.1,0.2,0.2C100.1,83.1,100.1,83.1,100.2,83z M95.8,104.1c0-0.2,0-0.3,0.1-0.4c-0.1,0-0.1,0-0.1,0c0,0.1-0.1,0.2-0.1,0.3
	C95.6,104,95.7,104,95.8,104.1z M102,85c-0.1-0.1-0.1-0.1-0.2-0.2c0,0.1-0.1,0.1-0.1,0.2c0,0.1,0.1,0.1,0.2,0.2
	C102,85.1,102,85,102,85z M99.7,82.6c-0.1,0-0.1-0.1-0.2-0.1c0,0-0.1,0.1-0.1,0.1c0,0.1,0.1,0.1,0.2,0.2
	C99.6,82.7,99.6,82.6,99.7,82.6z M100,92.6c0.1,0,0.1,0.1,0.1,0.1c0,0,0.1,0,0-0.1c0,0-0.1-0.1-0.1-0.1C100,92.6,100,92.6,100,92.6z
	 M108.3,99.2c0,0-0.1-0.1-0.1-0.1c0,0-0.1,0-0.1,0c0,0,0,0.1,0.1,0.1C108.2,99.3,108.3,99.3,108.3,99.2z M85.1,113.4
	c0,0,0.1-0.1,0.1-0.1c0,0-0.1-0.1-0.1-0.1c0,0-0.1,0.1-0.1,0.1C85,113.4,85,113.4,85.1,113.4z M100.1,109c0,0-0.1-0.1-0.1-0.1
	c0,0-0.1,0.1-0.1,0.1c0,0,0.1,0.1,0.1,0.1C100,109.1,100,109,100.1,109z M107.9,113c0,0,0.1,0.1,0.1,0.1c0,0,0-0.1,0-0.1
	C108.1,113,108,113,107.9,113C108,113,108,113,107.9,113z M104.2,84.5c0,0,0-0.1-0.1-0.1c0,0-0.1,0-0.1,0c0,0,0,0.1,0,0.2
	C104.1,84.5,104.2,84.5,104.2,84.5z M94.7,84.7c0,0-0.1-0.1-0.1-0.1c-0.1,0-0.1,0.1-0.1,0.1c0,0,0.1,0.1,0.1,0.1
	C94.6,84.8,94.6,84.7,94.7,84.7z M102.9,84.2c0,0-0.1-0.1-0.1-0.1c-0.1,0-0.1,0-0.2,0c0,0,0.1,0.1,0.1,0.1
	C102.8,84.2,102.9,84.2,102.9,84.2z M89.7,110.2c0,0,0-0.1,0-0.1c-0.1,0-0.1,0-0.2,0.1c0,0,0,0.1,0,0.1
	C89.6,110.2,89.7,110.2,89.7,110.2z M102.3,85.9C102.3,85.8,102.3,85.8,102.3,85.9c0-0.1-0.1-0.1-0.1-0.1c0,0,0,0.1,0,0.1
	C102.2,85.9,102.2,85.9,102.3,85.9z M106.5,108.5c0,0-0.1-0.1-0.1-0.1c0,0-0.1,0-0.1,0.1c0,0.1,0.1,0.1,0.1,0.2
	C106.5,108.6,106.5,108.5,106.5,108.5z M91.9,112.6C91.9,112.6,91.8,112.6,91.9,112.6c-0.1,0.1-0.1,0.1-0.1,0.2c0,0,0.1,0,0.1,0
	C91.9,112.7,91.9,112.6,91.9,112.6z M101.1,91.7c-0.1,0-0.1,0-0.2,0c0,0,0.1,0.1,0.1,0.1c0.1,0,0.1,0,0.2,0
	C101.1,91.8,101.1,91.7,101.1,91.7z M95.4,108c0,0-0.1,0-0.1-0.1c0,0,0,0.1,0,0.1C95.3,108,95.4,108.1,95.4,108
	C95.4,108.1,95.4,108,95.4,108z M94.5,110C94.5,110,94.5,109.9,94.5,110c-0.1-0.1-0.1-0.1-0.2-0.1c0,0,0,0.1,0,0.1
	C94.4,110,94.4,110,94.5,110z M92.9,109.7C92.8,109.6,92.8,109.6,92.9,109.7c-0.1-0.1-0.1-0.1-0.1-0.1
	C92.7,109.6,92.8,109.7,92.9,109.7C92.8,109.7,92.8,109.7,92.9,109.7z M101.3,101.8C101.2,101.8,101.2,101.8,101.3,101.8
	c-0.1,0-0.1,0-0.1,0.1C101.2,101.9,101.2,101.9,101.3,101.8C101.2,101.9,101.2,101.8,101.3,101.8z M107.7,109.6
	C107.7,109.6,107.7,109.5,107.7,109.6c-0.1-0.1-0.1,0-0.1,0c0,0,0,0,0,0.1C107.7,109.6,107.7,109.6,107.7,109.6z M97.9,109.6
	C97.9,109.6,98,109.6,97.9,109.6c0-0.1,0-0.1-0.1-0.1C97.9,109.5,97.9,109.6,97.9,109.6C97.9,109.6,97.9,109.6,97.9,109.6z
	 M102.9,104.1C103,104.1,103,104.1,102.9,104.1c0-0.1,0-0.1,0-0.1C102.9,104,102.9,104.1,102.9,104.1
	C102.9,104.1,102.9,104.1,102.9,104.1z M106.6,97.5C106.6,97.5,106.6,97.5,106.6,97.5c-0.1-0.1-0.1,0-0.2,0c0,0,0,0,0,0.1
	C106.5,97.6,106.5,97.5,106.6,97.5z M98.1,104.2C98.1,104.2,98.1,104.1,98.1,104.2c-0.1-0.1-0.1-0.1-0.2,0c0,0,0,0.1,0,0.1
	C98,104.2,98,104.2,98.1,104.2z M105.2,97c0,0,0-0.1-0.1-0.1c0,0-0.1,0-0.1,0c0,0,0,0.1,0,0.1C105.1,97,105.1,97,105.2,97z
	 M108.7,97C108.7,97,108.7,97,108.7,97C108.7,97,108.7,97,108.7,97C108.7,96.9,108.6,97,108.7,97C108.6,97,108.7,97,108.7,97z
	 M98.5,105C98.5,105,98.5,104.9,98.5,105c0-0.1-0.1-0.1-0.1-0.1C98.4,105,98.4,105,98.5,105C98.4,105,98.4,105,98.5,105z M93.7,98.2
	C93.6,98.3,93.6,98.3,93.7,98.2c0,0.1,0,0.1,0.1,0.1C93.7,98.3,93.7,98.3,93.7,98.2C93.7,98.2,93.7,98.2,93.7,98.2z M100.2,97.7
	C100.2,97.7,100.1,97.7,100.2,97.7c-0.1,0-0.1,0-0.2,0c0,0,0,0,0,0.1C100.1,97.8,100.1,97.7,100.2,97.7z M104.2,97.9
	C104.2,97.9,104.2,97.8,104.2,97.9c-0.1-0.1-0.1,0-0.1,0C104.1,97.9,104.2,97.9,104.2,97.9C104.2,97.9,104.2,97.9,104.2,97.9z
	 M102.9,100.4C102.9,100.4,102.9,100.4,102.9,100.4c-0.1-0.1-0.1-0.1-0.1,0C102.8,100.4,102.8,100.4,102.9,100.4
	C102.8,100.4,102.9,100.4,102.9,100.4z M104.3,107.1c0,0,0.1,0.1,0.1,0.1c0,0,0-0.1,0-0.1C104.4,107.2,104.4,107.1,104.3,107.1
	C104.3,107.1,104.3,107.1,104.3,107.1z M92.3,94.7c0,0.1-0.1,0.1-0.1,0.1c0,0,0.1,0.1,0.1,0c0,0,0.1-0.1,0.1-0.1
	C92.4,94.8,92.3,94.7,92.3,94.7z M103.1,94.7C103.1,94.7,103.1,94.6,103.1,94.7c0-0.1-0.1-0.1-0.1-0.1C103,94.7,103,94.7,103.1,94.7
	C103.1,94.7,103.1,94.7,103.1,94.7z M95,106.5c0,0,0-0.1,0.1-0.1c0,0-0.1,0-0.1,0C95,106.4,94.9,106.4,95,106.5
	C94.9,106.5,95,106.5,95,106.5z M91.7,95.8C91.7,95.8,91.7,95.8,91.7,95.8c0-0.1,0-0.1-0.1-0.1C91.6,95.7,91.6,95.8,91.7,95.8
	C91.7,95.8,91.7,95.8,91.7,95.8z M91.1,96c0,0-0.1,0-0.1,0c0,0,0,0,0,0.1C91,96.1,91,96.1,91.1,96C91.1,96.1,91.1,96,91.1,96z
	 M106.8,106.6c0,0-0.1,0-0.1-0.1c0,0,0,0.1,0,0.1C106.6,106.6,106.7,106.6,106.8,106.6C106.7,106.6,106.7,106.6,106.8,106.6z
	 M112.7,113.8C112.7,113.7,112.7,113.7,112.7,113.8c-0.1,0-0.1,0-0.1,0C112.6,113.8,112.7,113.8,112.7,113.8
	C112.7,113.8,112.7,113.8,112.7,113.8z M104,112.1c0,0-0.1-0.1-0.1-0.1c0,0,0,0-0.1,0C103.9,112.1,103.9,112.1,104,112.1
	C103.9,112.2,104,112.2,104,112.1z M113.1,113.3c0,0-0.1-0.1-0.1-0.1c0,0,0,0.1,0,0.1C113,113.3,113,113.3,113.1,113.3
	C113.1,113.3,113.1,113.3,113.1,113.3z M97.2,113C97.2,113,97.2,113,97.2,113c0-0.1-0.1-0.1-0.1-0.1C97.1,113,97.1,113,97.2,113
	C97.1,113.1,97.1,113.1,97.2,113z M95.9,81.9C95.9,81.9,95.8,82,95.9,81.9c-0.1,0.1,0,0.1,0,0.2c0,0,0.1,0,0.1,0
	C95.9,82,95.9,82,95.9,81.9z M101.1,84.3C101.1,84.3,101.1,84.2,101.1,84.3c-0.1,0-0.1,0-0.1,0C101,84.3,101.1,84.3,101.1,84.3
	C101.1,84.3,101.1,84.3,101.1,84.3z M92.5,84C92.5,84,92.4,84,92.5,84c0,0.1,0,0.1,0,0.1C92.5,84.1,92.5,84,92.5,84
	C92.5,84,92.5,84,92.5,84z M103,83.7C102.9,83.7,102.9,83.7,103,83.7c0,0.1,0.1,0,0.1,0C103.1,83.7,103,83.7,103,83.7
	C103,83.6,103,83.7,103,83.7z M108.2,86.9C108.2,87,108.1,87,108.2,86.9c0,0.1,0,0.1,0,0.1C108.2,87,108.2,87,108.2,86.9
	C108.2,87,108.2,87,108.2,86.9z M110,86.7C110,86.7,110,86.7,110,86.7c0-0.1,0-0.1,0-0.1C109.9,86.6,109.9,86.6,110,86.7
	C109.9,86.7,110,86.7,110,86.7z M93,86.7c0,0-0.1,0.1-0.1,0.1c0,0,0.1,0,0.1,0c0,0,0-0.1,0-0.1C93.1,86.7,93,86.7,93,86.7z
	 M103.6,86.7c0,0-0.1,0.1-0.1,0.1c0,0,0,0,0,0.1C103.5,86.8,103.6,86.8,103.6,86.7C103.6,86.7,103.6,86.7,103.6,86.7z M98.5,91
	C98.5,90.9,98.6,90.9,98.5,91c0-0.1-0.1-0.1-0.1-0.1c0,0,0,0.1,0,0.1C98.4,91,98.5,91,98.5,91z M101.9,90.9
	C101.9,90.9,101.9,90.9,101.9,90.9c0.1,0.1,0.1,0.1,0.1,0C102,90.9,102,90.8,101.9,90.9C102,90.8,101.9,90.8,101.9,90.9z
	 M102.4,90.4c0,0,0-0.1-0.1-0.1c0,0-0.1,0-0.1,0c0,0,0,0.1,0,0.1C102.3,90.5,102.3,90.4,102.4,90.4z M84.7,110.9
	C84.7,111,84.7,111,84.7,110.9c0.1,0.1,0.1,0,0.2,0c0,0,0,0,0-0.1C84.7,110.9,84.7,110.9,84.7,110.9z M105.6,90.6
	C105.6,90.6,105.6,90.6,105.6,90.6c-0.1,0-0.1,0-0.1,0.1C105.5,90.7,105.5,90.7,105.6,90.6C105.6,90.7,105.6,90.7,105.6,90.6z
	 M106.7,110.6C106.7,110.6,106.8,110.5,106.7,110.6c0-0.1,0-0.1,0-0.1C106.7,110.5,106.7,110.6,106.7,110.6
	C106.7,110.6,106.7,110.6,106.7,110.6z M111,110.5C111,110.5,111,110.5,111,110.5c-0.1-0.1-0.1-0.1-0.1-0.1c0,0,0,0,0,0.1
	C110.9,110.5,110.9,110.5,111,110.5z M94.5,90.8L94.5,90.8L94.5,90.8L94.5,90.8z M98.8,87.2L98.8,87.2L98.8,87.2L98.8,87.2z
	 M102.7,91.8L102.7,91.8L102.7,91.8L102.7,91.8z M99.1,90.8L99.1,90.8L99.1,90.8L99.1,90.8z M105.9,97.7L105.9,97.7L105.9,97.7
	L105.9,97.7z M99.4,98L99.4,98L99.4,98L99.4,98z M102.6,98.4L102.6,98.4L102.6,98.4L102.6,98.4z M95.1,87.6L95.1,87.6L95.1,87.6
	L95.1,87.6z M95.5,87.4L95.5,87.4L95.5,87.4L95.5,87.4z M101.8,91.4L101.8,91.4L101.8,91.4L101.8,91.4z M100.4,101.1L100.4,101.1
	L100.4,101.1L100.4,101.1z M87.1,85.4L87.1,85.4L87.1,85.4L87.1,85.4z M96.4,84.6L96.4,84.6L96.4,84.6L96.4,84.6z M97,84.2L97,84.2
	L97,84.2L97,84.2z M104,85L104,85L104,85L104,85z M100.7,83.4C100.7,83.4,100.6,83.4,100.7,83.4C100.6,83.4,100.6,83.4,100.7,83.4
	C100.7,83.4,100.7,83.4,100.7,83.4C100.7,83.4,100.7,83.4,100.7,83.4z M97.4,81L97.4,81L97.4,81L97.4,81z M97,100.2L97,100.2
	L97,100.2L97,100.2z M109,90.9L109,90.9L109,90.9L109,90.9z M109.5,86.4L109.5,86.4L109.5,86.4L109.5,86.4z M100.4,79.7L100.4,79.7
	L100.4,79.7L100.4,79.7z M95.6,99.9L95.6,99.9L95.6,99.9L95.6,99.9z M106,85.9L106,85.9L106,85.9L106,85.9z M103.8,86L103.8,86
	L103.8,86L103.8,86z M105.9,100.3L105.9,100.3L105.9,100.3L105.9,100.3z M109.4,85.7L109.4,85.7L109.4,85.7L109.4,85.7z M101,94.8
	L101,94.8L101,94.8L101,94.8z M93.1,94.3L93.1,94.3L93.1,94.3L93.1,94.3z M110.4,89L110.4,89L110.4,89L110.4,89z M98.4,89
	C98.3,89,98.3,89,98.4,89C98.3,89,98.3,89,98.4,89C98.3,89.1,98.4,89.1,98.4,89C98.4,89,98.4,89,98.4,89z M92.3,95.3L92.3,95.3
	L92.3,95.3L92.3,95.3z M92.7,95.3L92.7,95.3L92.7,95.3L92.7,95.3z M103.2,90.5L103.2,90.5L103.2,90.5L103.2,90.5z M92.3,92.6
	L92.3,92.6L92.3,92.6L92.3,92.6z M89.2,93.4L89.2,93.4L89.2,93.4L89.2,93.4z M102.7,89.9L102.7,89.9L102.7,89.9L102.7,89.9z
	 M102.1,93L102.1,93L102.1,93L102.1,93z M100.2,90.3L100.2,90.3L100.2,90.3L100.2,90.3z M107,93.7L107,93.7L107,93.7L107,93.7z
	 M99.8,92.1L99.8,92.1L99.8,92.1L99.8,92.1z M89.2,88.1L89.2,88.1L89.2,88.1L89.2,88.1z M90.6,96.7L90.6,96.7L90.6,96.7L90.6,96.7z
	 M89.7,97.5L89.7,97.5L89.7,97.5L89.7,97.5z M91.2,90.6C91.1,90.6,91.1,90.6,91.2,90.6C91.1,90.6,91.1,90.6,91.2,90.6
	C91.1,90.6,91.1,90.6,91.2,90.6z M97.7,97.2L97.7,97.2L97.7,97.2L97.7,97.2z M101.1,97.3L101.1,97.3L101.1,97.3L101.1,97.3z
	 M90.7,95.6L90.7,95.6L90.7,95.6L90.7,95.6z M92.7,95.9L92.7,95.9L92.7,95.9L92.7,95.9z M89,95.5L89,95.5L89,95.5L89,95.5z
	 M107.8,90.4L107.8,90.4L107.8,90.4L107.8,90.4z M96.7,96.2L96.7,96.2L96.7,96.2L96.7,96.2z M89.5,88.6L89.5,88.6L89.5,88.6
	L89.5,88.6z M97.9,96.4L97.9,96.4L97.9,96.4L97.9,96.4z M90.3,96.3L90.3,96.3L90.3,96.3L90.3,96.3z M94.7,96.3L94.7,96.3L94.7,96.3
	L94.7,96.3z M95.3,105.4L95.3,105.4L95.3,105.4L95.3,105.4z M98.8,105.4c0,0-0.1,0-0.1,0C98.7,105.4,98.7,105.4,98.8,105.4
	C98.7,105.4,98.7,105.4,98.8,105.4z M94.7,105.1L94.7,105.1L94.7,105.1L94.7,105.1z M100.1,105.2L100.1,105.2L100.1,105.2
	L100.1,105.2z M114.3,111.8L114.3,111.8L114.3,111.8L114.3,111.8z M109.3,105.5C109.2,105.5,109.2,105.5,109.3,105.5
	C109.2,105.5,109.2,105.6,109.3,105.5C109.2,105.6,109.2,105.6,109.3,105.5C109.3,105.6,109.3,105.6,109.3,105.5z M107,108.6
	L107,108.6L107,108.6L107,108.6z M104.9,111.4L104.9,111.4L104.9,111.4L104.9,111.4z M83.4,112.6L83.4,112.6L83.4,112.6L83.4,112.6z
	 M106.2,112.7L106.2,112.7L106.2,112.7L106.2,112.7z M102.8,106.5L102.8,106.5L102.8,106.5L102.8,106.5z M83.7,113.4L83.7,113.4
	L83.7,113.4L83.7,113.4z M102.4,107.3C102.4,107.3,102.4,107.3,102.4,107.3C102.3,107.3,102.3,107.3,102.4,107.3
	C102.4,107.3,102.4,107.3,102.4,107.3C102.4,107.3,102.4,107.3,102.4,107.3z M97.8,113.3L97.8,113.3L97.8,113.3L97.8,113.3z
	 M96.6,106.9L96.6,106.9L96.6,106.9L96.6,106.9z M105.8,107L105.8,107L105.8,107L105.8,107z M107.3,107.3
	C107.3,107.4,107.3,107.4,107.3,107.3C107.3,107.4,107.3,107.4,107.3,107.3C107.4,107.4,107.4,107.4,107.3,107.3
	C107.4,107.4,107.3,107.4,107.3,107.3z M102.5,114.6L102.5,114.6L102.5,114.6L102.5,114.6z M84.6,112.3L84.6,112.3L84.6,112.3
	L84.6,112.3z M102.5,106L102.5,106L102.5,106L102.5,106z M104.2,106.5L104.2,106.5L104.2,106.5L104.2,106.5z M97.3,112.4
	C97.3,112.4,97.3,112.4,97.3,112.4C97.2,112.4,97.2,112.4,97.3,112.4C97.2,112.5,97.2,112.5,97.3,112.4
	C97.2,112.5,97.3,112.5,97.3,112.4z M97.7,112.3C97.7,112.4,97.7,112.4,97.7,112.3C97.7,112.4,97.7,112.4,97.7,112.3
	C97.8,112.4,97.8,112.3,97.7,112.3C97.7,112.3,97.7,112.3,97.7,112.3z M94.9,109.5L94.9,109.5L94.9,109.5L94.9,109.5z M105.2,110.7
	L105.2,110.7L105.2,110.7L105.2,110.7z M111.2,109.3C111.2,109.2,111.1,109.2,111.2,109.3C111.1,109.2,111.1,109.3,111.2,109.3
	C111.1,109.3,111.2,109.3,111.2,109.3z M107.6,103.2C107.5,103.2,107.5,103.2,107.6,103.2c-0.1-0.1-0.1-0.1-0.1-0.1
	C107.4,103.2,107.5,103.2,107.6,103.2C107.5,103.3,107.5,103.2,107.6,103.2z M90.3,110.1C90.3,110.1,90.4,110.1,90.3,110.1
	c0-0.1,0-0.1,0-0.1C90.3,110,90.3,110,90.3,110.1C90.3,110.1,90.3,110.1,90.3,110.1z M105.6,111.2L105.6,111.2L105.6,111.2
	L105.6,111.2z M104.1,104L104.1,104L104.1,104L104.1,104z M111.5,108.7L111.5,108.7L111.5,108.7L111.5,108.7z M107.9,103.5
	L107.9,103.5L107.9,103.5L107.9,103.5z M110.8,111L110.8,111L110.8,111L110.8,111z M94.2,111C94.1,111,94.1,111,94.2,111
	C94.1,111,94.1,111.1,94.2,111C94.1,111.1,94.1,111.1,94.2,111C94.2,111,94.2,111,94.2,111z"/>
<polygon id="XMLID_3393_" points="109.2,109.7 109.1,109.7 109.2,109.7 "/>
<polygon id="XMLID_3392_" points="109.2,109.7 109.2,109.8 109.2,109.7 "/>
<polygon id="XMLID_3391_" points="106.5,102.3 106.4,102.4 106.5,102.4 "/>
<path id="XMLID_3390_" d="M106.5,101.2c0-0.1,0-0.1,0-0.2C106.5,101,106.5,101.1,106.5,101.2C106.5,101.1,106.5,101.2,106.5,101.2z"
	/>
<path id="XMLID_3389_" d="M94.2,89.5c-0.1-0.1-0.1-0.1-0.2-0.2C94.1,89.4,94.2,89.4,94.2,89.5z"/>
</svg>
