<?xml version="1.0" encoding="utf-8"?>
<!-- Generator: Adobe Illustrator 19.0.0, SVG Export Plug-In . SVG Version: 6.00 Build 0)  -->
<svg version="1.1" id="Layer_1" xmlns="http://www.w3.org/2000/svg" xmlns:xlink="http://www.w3.org/1999/xlink" x="0px" y="0px"
	 viewBox="0 0 198.4 198.4" style="enable-background:new 0 0 198.4 198.4;" xml:space="preserve">
<path id="XMLID_329_" d="M86.2,117.6c0.1-3.1,0.2-6.2,0.2-9.3c0-0.5,0.2-1,0.4-1.5c3-5.7,6-11.4,9-17c0.4-0.7,0.7-1.3,1.1-2
	c0.2-0.3,0.3-0.7,0.3-1c0-0.5,0.1-0.9,0.4-1.2c0.7-0.9,1.2-1.8,1.4-2.8c0.1-0.5,0.4-0.8,0.8-1c0.4-0.2,0.5-0.5,0.7-0.9
	c0.3-0.6,0.7-1.2,1.1-1.7c1.1-1.3,2.5-1.7,4.1-1.5c1.8,0.3,3.4,1,4.8,2.2c1.1,0.9,1.9,2.1,1.9,3.6c0,0.8-0.3,1.5-0.7,2.1
	c-0.1,0.3-0.3,0.5-0.4,0.8c-0.3,0.4-0.4,0.9-0.4,1.4c0.1,0.6-0.2,1.2-0.6,1.6c-0.3,0.3-0.5,0.7-0.6,1.1c-0.2,0.9-0.6,1.6-1.2,2.3
	c-0.4,0.4-0.8,0.9-1.1,1.5c-2.3,4.2-4.6,8.4-6.9,12.6c-0.9,1.6-1.8,3.2-2.7,4.9c-0.5,0.9-1.1,1.6-2,2.2c-2.8,1.7-5.6,3.5-8.3,5.3
	c-0.2,0.1-0.3,0.2-0.5,0.3c-0.6,0.3-0.9,0.1-1-0.5c0,0,0-0.1,0-0.1C86.2,118.4,86.2,118,86.2,117.6
	C86.2,117.6,86.2,117.6,86.2,117.6z M91.1,110L91.1,110c-0.4-0.4-0.8-0.9-1.5-0.9c0.1,0.6-0.9,3.6-1.6,4.4c0.4-1.5,0.9-2.9,1.3-4.4
	c-0.3,0-0.5,0-0.8,0c-0.1,0.1-0.1,0.3-0.1,0.4c-0.3,1.2-0.5,2.4-0.8,3.6c-0.1,0.4-0.2,0.7-0.3,1.1c0.1,0,0.3-0.1,0.4-0.2
	c0.5-0.4,1-0.2,1.5,0.1c0.2,0.1,0.3,0.3,0.4,0.4c0.4,0.4,0.8,0.9,1.3,1.2c1-1.1,2.3-1.8,3.2-3c-0.1-0.2-0.2-0.3-0.4-0.5
	c-0.4,0.4-0.7,0.7-1.1,1.1c-0.4,0.3-0.7,0.7-1.1,1c-0.4,0.3-0.6,0.7-1.3,0.8c1.2-1.2,2.3-2.3,3.5-3.4c-0.2-0.3-0.1-0.7-0.5-0.9
	C92.5,110.6,91.8,110.3,91.1,110z M105.3,89.9c0,0-0.1-0.1-0.1-0.1c-0.2,0.3-0.3,0.5-0.5,0.8c-3.3,6-6.7,12-10,17.9
	c-0.7,1.2-1.1,1.4-2.3,0.7c0,0,0,0-0.1,0c-0.8-0.4-0.9-0.9-0.5-1.7c0.8-1.5,1.6-3,2.5-4.6c0.1-0.1,0.1-0.2,0.1-0.3
	c0,0-0.1,0-0.1-0.1c-0.9,1.7-1.9,3.5-2.8,5.2c-0.3,0.6-0.2,0.9,0.4,1.4c1.3,1,2.2,1,3-0.4c3.1-5.5,6.2-11,9.3-16.6
	C104.5,91.4,104.8,90.6,105.3,89.9z M87.5,107.4C87.5,107.4,87.5,107.5,87.5,107.4c0,0.2,0.1,0.3,0.2,0.4c0.8,0.6,2.1,0.4,2.7-0.5
	c0.4-0.6,0.8-1.2,1.2-1.9c1.7-3.1,3.4-6.2,5.1-9.4c1.4-2.5,2.7-5,4-7.4c0.1-0.3,0.3-0.5,0.3-1c-0.2,0.3-0.3,0.4-0.4,0.6
	c-2,3.6-4,7.3-6,10.9c-1.4,2.5-2.8,5-4.2,7.5c-0.4,0.8-1,1.2-1.9,1C88.2,107.7,87.9,107.5,87.5,107.4z M98.8,86.2
	c3.9,0.1,6.7,2.3,9.6,4.7c-0.1-0.2-0.1-0.3-0.2-0.4c-2-2.5-4.6-4.1-7.8-4.5C99.9,85.9,99.3,85.9,98.8,86.2z M101.3,82.7
	c3.3,0.7,6.2,2.4,8.8,4.4C107.7,84.6,104.8,83,101.3,82.7z M108.1,88c-2.2-2.1-4.8-3.5-7.9-3.5C103.1,84.8,105.5,86.5,108.1,88z
	 M94.6,101c0.5-0.4,7-12,7-12.7C99.3,92.5,97,96.7,94.6,101z M98.2,98c0.5-0.4,0.6-1,0.7-1.5c0.2-0.8,0.5-1.4,1-2.1
	c0.2-0.3,0.4-0.6,0.6-0.9c0.1-0.1,0.1-0.3,0.2-0.4c-0.5,0.4-0.9,0.7-1.2,1.2c-0.3,0.4-0.5,0.9-0.7,1.4c-0.2,0.6-0.3,1.2-0.5,1.7
	C98.3,97.7,98.2,97.8,98.2,98z M94.1,106c0.3-0.8,0.6-1.6,1-2.3c0.4-0.8,1.1-1.3,2-1.7C95.4,102.1,93.9,104.2,94.1,106z M105.9,78.6
	c-0.9,0.8-1.5,1.8-1.6,3C105,80.7,105.5,79.7,105.9,78.6z M105.1,81.8c0.7-0.9,1.3-1.9,1.6-3.1C105.9,79.6,105.5,80.7,105.1,81.8z
	 M95.4,108.4c-0.2,0.7-0.4,1.3-0.6,2c-0.1,0.2,0,0.5,0.1,0.7c0.2,0.4,0.5,0.8,0.8,1.2c0,0.1,0.2,0,0.3,0.1c0-0.1,0-0.2,0-0.2
	c-0.8-0.7-1.2-1.4-0.6-2.4C95.5,109.4,95.6,108.9,95.4,108.4z M99.7,104.1c0,0-0.1-0.1-0.1-0.1c-0.6,1.3-1.4,2.5-1.8,3.9
	c0.1,0,0.1,0.1,0.2,0.1C98.5,106.6,99.1,105.4,99.7,104.1z M87.4,108.8c-0.1,0-0.1,0-0.2,0c-0.2,1.5-0.4,3-0.2,4.5
	C87.1,111.7,87.3,110.3,87.4,108.8z M105.4,95c-0.1,0-0.1-0.1-0.2-0.1c-0.7,1.2-1.5,2.4-2,3.7c0.1,0,0.1,0.1,0.2,0.1
	C104.1,97.4,104.7,96.2,105.4,95z M87,118.2c0.5-0.6,1-2.2,0.9-3.1C87.6,116.2,87.3,117.2,87,118.2z M92.6,98.2
	c0.6-0.7,1.7-2.9,1.8-3.4C93.6,96,92.7,97.7,92.6,98.2z M103.2,89c-0.7,0.6-1.3,1.3-1.3,2.4C102.4,90.6,102.8,89.8,103.2,89z
	 M108.7,79.9c-0.5,0.8-1.1,1.5-1.3,2.5C107.9,81.6,108.5,80.8,108.7,79.9z M103.3,79.7c-0.2,0.6-0.7,1-0.7,1.7
	C103.3,80.9,103.5,80.3,103.3,79.7z M108.2,79.5c-0.1,0-0.1-0.1-0.2-0.1c-0.4,0.8-0.9,1.6-1.3,2.5c0.1,0,0.1,0.1,0.2,0.1
	C107.3,81.1,107.7,80.3,108.2,79.5z M88,108.9c-0.1,0-0.1,0-0.2,0c-0.1,0.7-0.2,1.4-0.3,2.1c0,0.2,0,0.4,0,0.6c0,0,0,0.1,0.1,0.2
	C87.7,110.8,87.8,109.8,88,108.9z M98.6,99.3c-0.6,0.6-1.3,1.1-1.9,1.7C97.5,100.7,98.1,100.1,98.6,99.3z"/>
<path id="XMLID_273_" d="M91.1,110c0,0.1,0,0.3,0,0.4c-0.6,1.1-1.2,2.1-1.9,3.2c-0.1,0.1-0.1,0.2-0.2,0.3c-0.1-0.1-0.1-0.2-0.1-0.2
	c0.5-1.1,1-2.1,1.5-3.2C90.5,110.2,90.7,109.9,91.1,110L91.1,110z"/>
<path id="XMLID_272_" d="M92.9,111c-0.8,1.3-1.8,2.4-3,3.3c0.7-1.3,1.8-2.4,2.7-3.5C92.7,110.9,92.8,111,92.9,111z"/>
</svg>
