<?xml version="1.0" encoding="utf-8"?>
<!-- Generator: Adobe Illustrator 19.0.0, SVG Export Plug-In . SVG Version: 6.00 Build 0)  -->
<svg version="1.1" id="Layer_1" xmlns="http://www.w3.org/2000/svg" xmlns:xlink="http://www.w3.org/1999/xlink" x="0px" y="0px"
	 viewBox="36.7 0 124 198.4" style="enable-background:new 36.7 0 124 198.4;" xml:space="preserve">
<path id="XMLID_329_" d="M37.6,188.3c0.5-14.7,0.9-29.4,0.9-44.1c0-2.4,0.9-4.7,1.9-7.1c14.2-27,28.4-54,42.6-80.5
	c1.9-3.3,3.3-6.2,5.2-9.5c0.9-1.4,1.4-3.3,1.4-4.7c0-2.4,0.5-4.3,1.9-5.7c3.3-4.3,5.7-8.5,6.6-13.3c0.5-2.4,1.9-3.8,3.8-4.7
	c1.9-0.9,2.4-2.4,3.3-4.3c1.4-2.8,3.3-5.7,5.2-8.1c5.2-6.2,11.8-8.1,19.4-7.1c8.5,1.4,16.1,4.7,22.7,10.4c5.2,4.3,9,10,9,17.1
	c0,3.8-1.4,7.1-3.3,10c-0.5,1.4-1.4,2.4-1.9,3.8c-1.4,1.9-1.9,4.3-1.9,6.6c0.5,2.8-0.9,5.7-2.8,7.6c-1.4,1.4-2.4,3.3-2.8,5.2
	c-0.9,4.3-2.8,7.6-5.7,10.9c-1.9,1.9-3.8,4.3-5.2,7.1c-10.9,19.9-21.8,39.8-32.7,59.7c-4.3,7.6-8.5,15.2-12.8,23.2
	c-2.4,4.3-5.2,7.6-9.5,10.4c-13.3,8.1-26.5,16.6-39.3,25.1c-0.9,0.5-1.4,0.9-2.4,1.4c-2.8,1.4-4.3,0.5-4.7-2.4v-0.5
	C37.6,192.1,37.6,190.2,37.6,188.3L37.6,188.3z M60.8,152.3L60.8,152.3c-1.9-1.9-3.8-4.3-7.1-4.3c0.5,2.8-4.3,17.1-7.6,20.8
	c1.9-7.1,4.3-13.7,6.2-20.8c-1.4,0-2.4,0-3.8,0c-0.5,0.5-0.5,1.4-0.5,1.9c-1.4,5.7-2.4,11.4-3.8,17.1c-0.5,1.9-0.9,3.3-1.4,5.2
	c0.5,0,1.4-0.5,1.9-0.9c2.4-1.9,4.7-0.9,7.1,0.5c0.9,0.5,1.4,1.4,1.9,1.9c1.9,1.9,3.8,4.3,6.2,5.7c4.7-5.2,10.9-8.5,15.2-14.2
	c-0.5-0.9-0.9-1.4-1.9-2.4c-1.9,1.9-3.3,3.3-5.2,5.2c-1.9,1.4-3.3,3.3-5.2,4.7c-1.9,1.4-2.8,3.3-6.2,3.8
	c5.7-5.7,10.9-10.9,16.6-16.1c-0.9-1.4-0.5-3.3-2.4-4.3C67.5,155.1,64.1,153.7,60.8,152.3z M128.1,57.1l-0.5-0.5
	c-0.9,1.4-1.4,2.4-2.4,3.8c-15.6,28.4-31.7,56.9-47.4,84.8c-3.3,5.7-5.2,6.6-10.9,3.3c0,0,0,0-0.5,0c-3.8-1.9-4.3-4.3-2.4-8.1
	c3.8-7.1,7.6-14.2,11.8-21.8c0.5-0.5,0.5-0.9,0.5-1.4c0,0-0.5,0-0.5-0.5c-4.3,8.1-9,16.6-13.3,24.6c-1.4,2.8-0.9,4.3,1.9,6.6
	c6.2,4.7,10.4,4.7,14.2-1.9c14.7-26.1,29.4-52.1,44.1-78.7C124.3,64.2,125.7,60.4,128.1,57.1z M43.8,140
	C43.8,140,43.8,140.4,43.8,140c0,0.9,0.5,1.4,0.9,1.9c3.8,2.8,10,1.9,12.8-2.4c1.9-2.8,3.8-5.7,5.7-9c8.1-14.7,16.1-29.4,24.2-44.5
	c6.6-11.8,12.8-23.7,19-35.1c0.5-1.4,1.4-2.4,1.4-4.7c-0.9,1.4-1.4,1.9-1.9,2.8c-9.5,17.1-19,34.6-28.4,51.6
	c-6.6,11.8-13.3,23.7-19.9,35.5c-1.9,3.8-4.7,5.7-9,4.7C47.1,141.4,45.7,140.4,43.8,140z M97.3,39.5c18.5,0.5,31.7,10.9,45.5,22.3
	c-0.5-0.9-0.5-1.4-0.9-1.9c-9.5-11.8-21.8-19.4-37-21.3C102.5,38.1,99.7,38.1,97.3,39.5z M109.2,22.9c15.6,3.3,29.4,11.4,41.7,20.8
	C139.5,31.9,125.7,24.4,109.2,22.9z M141.4,48.1c-10.4-10-22.7-16.6-37.4-16.6C117.7,32.9,129.1,40.9,141.4,48.1z M77.4,109.6
	c2.4-1.9,33.2-56.9,33.2-60.2C99.7,69.4,88.8,89.3,77.4,109.6z M94.5,95.4c2.4-1.9,2.8-4.7,3.3-7.1c0.9-3.8,2.4-6.6,4.7-10
	c0.9-1.4,1.9-2.8,2.8-4.3c0.5-0.5,0.5-1.4,0.9-1.9c-2.4,1.9-4.3,3.3-5.7,5.7c-1.4,1.9-2.4,4.3-3.3,6.6c-0.9,2.8-1.4,5.7-2.4,8.1
	C94.9,94,94.5,94.5,94.5,95.4z M75,133.3c1.4-3.8,2.8-7.6,4.7-10.9c1.9-3.8,5.2-6.2,9.5-8.1C81.2,114.9,74.1,124.8,75,133.3z
	 M130.9,3.5c-4.3,3.8-7.1,8.5-7.6,14.2C126.7,13.5,129.1,8.7,130.9,3.5z M127.2,18.7c3.3-4.3,6.2-9,7.6-14.7
	C130.9,8.3,129.1,13.5,127.2,18.7z M81.2,144.7c-0.9,3.3-1.9,6.2-2.8,9.5c-0.5,0.9,0,2.4,0.5,3.3c0.9,1.9,2.4,3.8,3.8,5.7
	c0,0.5,0.9,0,1.4,0.5c0-0.5,0-0.9,0-0.9c-3.8-3.3-5.7-6.6-2.8-11.4C81.7,149.4,82.1,147.1,81.2,144.7z M101.6,124.3l-0.5-0.5
	c-2.8,6.2-6.6,11.8-8.5,18.5c0.5,0,0.5,0.5,0.9,0.5C95.9,136.2,98.7,130.5,101.6,124.3z M43.3,146.6c-0.5,0-0.5,0-0.9,0
	c-0.9,7.1-1.9,14.2-0.9,21.3C41.9,160.3,42.8,153.7,43.3,146.6z M128.6,81.2c-0.5,0-0.5-0.5-0.9-0.5c-3.3,5.7-7.1,11.4-9.5,17.5
	c0.5,0,0.5,0.5,0.9,0.5C122.4,92.6,125.3,86.9,128.6,81.2z M41.4,191.1c2.4-2.8,4.7-10.4,4.3-14.7C44.2,181.7,42.8,186.4,41.4,191.1
	z M67.9,96.4c2.8-3.3,8.1-13.7,8.5-16.1C72.7,86,68.4,94,67.9,96.4z M118.2,52.8c-3.3,2.8-6.2,6.2-6.2,11.4
	C114.4,60.4,116.3,56.6,118.2,52.8z M144.2,9.7c-2.4,3.8-5.2,7.1-6.2,11.8C140.4,17.7,143.3,13.9,144.2,9.7z M118.6,8.7
	c-0.9,2.8-3.3,4.7-3.3,8.1C118.6,14.4,119.6,11.6,118.6,8.7z M141.8,7.8c-0.5,0-0.5-0.5-0.9-0.5c-1.9,3.8-4.3,7.6-6.2,11.8
	c0.5,0,0.5,0.5,0.9,0.5C137.6,15.4,139.5,11.6,141.8,7.8z M46.1,147.1c-0.5,0-0.5,0-0.9,0c-0.5,3.3-0.9,6.6-1.4,10
	c0,0.9,0,1.9,0,2.8c0,0,0,0.5,0.5,0.9C44.7,156.1,45.2,151.3,46.1,147.1z M96.4,101.6c-2.8,2.8-6.2,5.2-9,8.1
	C91.1,108.2,94,105.4,96.4,101.6z"/>
<path id="XMLID_273_" d="M60.8,152.3c0,0.5,0,1.4,0,1.9c-2.8,5.2-5.7,10-9,15.2c-0.5,0.5-0.5,0.9-0.9,1.4c-0.5-0.5-0.5-0.9-0.5-0.9
	c2.4-5.2,4.7-10,7.1-15.2C58,153.2,58.9,151.8,60.8,152.3L60.8,152.3z"/>
<path id="XMLID_272_" d="M69.3,157c-3.8,6.2-8.5,11.4-14.2,15.6c3.3-6.2,8.5-11.4,12.8-16.6C68.4,156.6,68.9,157,69.3,157z"/>
</svg>
