<?xml version="1.0" encoding="utf-8"?>
<!-- Generator: Adobe Illustrator 19.0.0, SVG Export Plug-In . SVG Version: 6.00 Build 0)  -->
<svg version="1.1" id="Layer_1" xmlns="http://www.w3.org/2000/svg" xmlns:xlink="http://www.w3.org/1999/xlink" x="0px" y="0px"
	 viewBox="83.4 82.1 30.2 34.2" style="enable-background:new 83.4 82.1 30.2 34.2;" xml:space="preserve">
<path id="XMLID_321_" d="M101.9,95c2.3,0,4.6,0,6.9,0c0.2,0,0.3,0,0.5,0c0.4,0.1,0.6,0.4,0.4,0.7c-0.3,0.7-0.6,1.4-0.9,2.1
	c-0.2,0.5-0.6,0.7-1.2,0.7c-2.3,0-4.6,0-7,0c-1.8,0-3.7,0-5.5,0c-0.1,0-0.1,0-0.2,0c-1.1,0-1.5,0.7-1.1,1.7c0.1,0.2,0.3,0.3,0.5,0.4
	s0.4,0,0.6,0c3.8,0,7.7,0,11.5,0c0,0,0,0,0.1,0c1.1,0,1.4,0.4,0.9,1.4c-0.2,0.4-0.4,0.9-0.5,1.3c-0.3,0.8-0.5,1-1.4,1
	c-3.3,0-6.6,0-9.9,0c-0.1,0-0.2,0-0.4,0c-0.6,0-0.8,0.2-0.7,0.8c0.4,1.9,1.1,3.6,2.4,5.1c3,3.4,7.8,3.9,11.5,1.1
	c1.1-0.8,1.9-1.9,2.7-3.1c0.1-0.2,0.3-0.4,0.4-0.6c0.5-0.8,1.3-0.7,1.9-0.1c0.2,0.2,0.2,0.5,0.1,0.8c-0.4,1.4-1.1,2.7-2,3.8
	c-1.9,2.3-4.4,3.7-7.4,4.1c-5.8,1-11.3-2.1-14.1-6.8c-0.8-1.3-1.4-2.7-1.8-4.1c0-0.2-0.1-0.3-0.2-0.5c-0.2-0.4-0.4-0.6-0.9-0.6
	c-0.9,0-1.9,0-2.8,0c-0.8,0-0.9-0.2-0.7-0.9c0.3-0.7,0.5-1.3,0.8-2c0.2-0.5,0.6-0.8,1.1-0.8s0.9,0,1.4,0s0.6-0.2,0.7-0.7
	c0-0.1,0-0.3,0-0.4c0-0.8-0.2-0.9-1-0.9c-0.7,0-1.4,0-2.1,0c-0.2,0-0.3,0-0.5,0c-0.5-0.1-0.7-0.4-0.6-0.9c0.1-0.3,0.2-0.6,0.4-0.9
	c0.1-0.3,0.2-0.5,0.3-0.8c0.3-0.8,0.5-0.9,1.4-0.9c0.5,0,1,0,1.5,0c0.9,0,1-0.1,1.2-1c0.5-2.3,1.5-4.3,2.9-6.2
	c2.1-2.9,4.9-4.6,8.4-5.4c4.3-0.9,8.3-0.2,12,2.4c0.5,0.4,1,0.8,1.5,1.2c0.5,0.4,0.6,0.9,0.4,1.4c-0.4,1.1-0.8,2.1-1.2,3.2
	c-0.1,0.3-0.4,0.6-0.8,0.6s-0.7-0.3-0.8-0.6c-0.2-0.5-0.4-1-0.6-1.4c-1-2.4-2.8-3.8-5.3-4.3c-2.3-0.4-4.4,0.1-6.3,1.6
	c-1.7,1.3-2.8,3.1-3.5,5.1c-0.3,0.9-0.6,1.9-0.8,2.9c-0.1,0.4,0,0.6,0.5,0.6c0.1,0,0.2,0,0.4,0C97.3,95,99.6,95,101.9,95L101.9,95z
	 M90,98.9c-0.6,1.7,0,6.6,1.4,9c1.2,2.1,3.9,4.8,5,5.1c-0.6-0.5-1.2-1.1-1.8-1.6c-1-1-2-2.1-2.6-3.4c-1.1-2.3-1.8-4.6-1.9-7.1
	C90.1,100.2,90.1,99.6,90,98.9z M96.1,85.8c-2.7,1.3-5.5,5.2-5.9,9.2c0.5,0,0.5,0,0.6-0.4c0.5-1.3,0.9-2.7,1.5-4
	c0.8-1.8,1.9-3.3,3.4-4.5C95.8,86,95.9,85.9,96.1,85.8z M92.6,96.8c5,0.4,10,0.1,15.1,0C106.6,96.4,93.5,96.4,92.6,96.8z
	 M105.2,102.4c-0.4,0-0.8-0.1-1.1-0.1c-2.7,0-5.3,0-8,0c-0.6,0-1.2,0.1-1.8,0.1c-0.1,0-0.2,0.1-0.4,0.2
	C97.7,102.8,101.5,102.6,105.2,102.4z M85.6,96.8c1.3,0,2.7,0,4,0C88.5,96.5,86.8,96.5,85.6,96.8z M85.8,102.4
	c0.8,0.2,2.5,0.2,3.3-0.1C88,102.4,86.9,102,85.8,102.4z"/>
</svg>
