<?xml version="1.0" encoding="utf-8"?>
<!-- Generator: Adobe Illustrator 19.0.0, SVG Export Plug-In . SVG Version: 6.00 Build 0)  -->
<svg version="1.1" id="Layer_1" xmlns="http://www.w3.org/2000/svg" xmlns:xlink="http://www.w3.org/1999/xlink" x="0px" y="0px"
	 viewBox="0 0 50.5 66.9" style="enable-background:new 0 0 50.5 66.9;" xml:space="preserve">
<path id="XMLID_3838_" d="M35.3,12.6c0.5,0.5,1,0.9,1.6,1.4c-0.1,0-0.1,0.1-0.2,0.1c0,0,0.1,0,0.1,0c0,0,0.1-0.1,0.1-0.1
	c1.6,1.5,2.5,3.4,2.9,5.6c0.2,1.4,0.3,2.8,0.1,4.1c-0.4,2.1-1.4,3.9-2.8,5.6c-1.2,1.4-2.6,2.4-4,3.5c-2.5,1.9-4.3,4.3-4.8,7.5
	c-0.1,0.6-0.3,1.2-0.9,1.6l0,0l0,0c-0.2,0.4-0.6,0.4-0.9,0.4c-1.4,0-2.8,0-4.3,0c-0.8,0-1.3-0.5-1.4-1.3c-0.3-4.2,1.2-7.7,4.5-10.4
	c0.5-0.4,1-0.8,1.5-1.2c0,0.1,0.1,0.1,0.1,0.2c0.1,0.1,0.1,0.1,0.2,0.1c0,0,0-0.1,0.1-0.1c-0.1,0-0.1-0.1-0.2-0.1
	c-0.1,0-0.1,0-0.2,0c0.7-0.7,1.3-1.5,2-2.2c1.3-1.4,1.9-3.1,2.1-4.9c0.3-3.3-2.2-5.4-5-5.6c-1.6-0.1-2.9,0.4-4.2,1.2
	c0.1-0.1,0.1-0.3,0.2-0.4l0,0l0,0.1c-0.2,0.1-0.5,0.1-0.2,0.4c-1.2,1.2-1.9,2.6-2,4.3c0,0.2-0.1,0.3-0.1,0.5
	c-0.5,2.2-1.3,2.2-3.1,1.9c-0.9-0.1-1.8-0.5-2.7-0.7c-0.7-0.2-1.3-0.3-2-0.4c-0.4-0.1-0.7-0.2-0.8-0.6c-0.1-0.5-0.2-1-0.2-1.5
	c0.3-2.5,1.3-4.7,3-6.5l0,0.1l-0.1,0c0.8-1.2,2-2,3.3-2.7c2.3-1.2,4.7-1.8,7.2-2c2.4-0.2,4.7-0.1,7,0.6C32.8,11,34.2,11.6,35.3,12.6
	c-0.1,0-0.1,0.1-0.2,0.1c0,0,0.1,0,0.1,0C35.2,12.7,35.2,12.6,35.3,12.6z M29.5,34.6L29.5,34.6L29.5,34.6L29.5,34.6L29.5,34.6z
	 M34.1,19.6L34.1,19.6L34.1,19.6L34.1,19.6L34.1,19.6z M23.6,41L23.6,41L23.6,41L23.6,41L23.6,41z M26.1,12.4
	C26.1,12.4,26.1,12.5,26.1,12.4C26.1,12.5,26.1,12.4,26.1,12.4C26.2,12.4,26.2,12.4,26.1,12.4C26.2,12.4,26.2,12.3,26.1,12.4
	C26.2,12.4,26.1,12.4,26.1,12.4z M28.5,12.8L28.5,12.8L28.5,12.8L28.5,12.8L28.5,12.8z M20.9,18L20.9,18L20.9,18L20.9,18L20.9,18z
	 M30.2,18.4L30.2,18.4L30.2,18.4L30.2,18.4L30.2,18.4z M37.4,16.5L37.4,16.5L37.4,16.5L37.4,16.5L37.4,16.5z M20.5,16.1L20.5,16.1
	L20.5,16.1L20.5,16.1L20.5,16.1z M24,36.7c0.1-0.1,0.1-0.3,0.2-0.4c0.1-0.1,0.2-0.1,0.3-0.2c-0.1,0-0.2,0-0.3,0
	c-0.1-0.2-0.2-0.5-0.3-0.7c-0.2,0.4-0.1,0.7,0.3,0.7c0,0.1,0,0.1,0,0.2C24.1,36.4,24.1,36.6,24,36.7L24,36.7L24,36.7z M36.5,24.7
	c0,0.1,0,0.1-0.1,0.2C36.4,24.8,36.4,24.7,36.5,24.7L36.5,24.7L36.5,24.7z M36.1,28.5L36.1,28.5L36.1,28.5c0,0.1,0.1,0.1,0.1,0.2
	c0,0,0-0.1,0-0.1C36.1,28.6,36.1,28.6,36.1,28.5z M33.9,30.3L33.9,30.3C34,30.3,33.9,30.3,33.9,30.3c0,0-0.1-0.1-0.1-0.1
	c0,0,0,0-0.1,0C33.8,30.2,33.9,30.2,33.9,30.3z M21.3,38.8L21.3,38.8L21.3,38.8c0,0.1,0,0.2,0.1,0.2c0,0,0.1,0,0.1-0.1
	C21.4,38.9,21.3,38.9,21.3,38.8z M16,18.8L16,18.8C16,18.8,16,18.8,16,18.8c0,0,0.1,0.1,0.1,0.1c0,0,0,0,0.1,0
	C16.2,18.9,16.1,18.9,16,18.8z M36.1,21c0,0.1-0.1,0.2-0.1,0.3c0.1,0,0.1,0,0.2,0C36.1,21.2,36.1,21.1,36.1,21
	c0.1-0.1,0.1-0.1,0.2-0.1C36.2,20.9,36.1,20.9,36.1,21z M32.2,23.7c-0.1,0-0.2,0.1-0.3,0.1c0,0,0,0.1,0.1,0.1
	C32,23.8,32.1,23.7,32.2,23.7c0.1,0,0.1,0,0.2,0c0,0,0-0.1-0.1-0.1C32.3,23.6,32.2,23.6,32.2,23.7z M33.3,23.1L33.3,23.1
	C33.3,23,33.3,23.1,33.3,23.1c0.1,0.1,0.1,0.3,0.2,0.4l-0.1,0l0-0.1c0-0.1,0.1-0.3,0.1-0.4C33.6,23.1,33.5,23.1,33.3,23.1z
	 M36.4,16.7c0.1,0,0.1,0,0.2-0.1c0.1-0.1,0.1-0.1,0.1-0.2c-0.1,0-0.2,0-0.2,0.1C36.5,16.5,36.5,16.6,36.4,16.7L36.4,16.7L36.4,16.7z
	 M34.9,29.1c0,0.1,0,0.2,0,0.3c0.1,0,0.3-0.1,0.3-0.1c0-0.1,0-0.2-0.1-0.3c-0.1-0.1-0.2-0.1-0.3-0.2C34.8,28.9,34.9,29,34.9,29.1z
	 M12.6,20.6c0,0.1,0.1,0.4,0.3,0.4c0.2,0,0.5-0.1,0.7-0.3c0.2-0.2,0.2-0.5,0.3-0.7c0.6-2,1.7-3.6,3.3-4.9c1.5-1.2,3.3-1.9,5.2-2.3
	c0.4-0.1,0.8-0.2,1.2-0.3c0.1-0.1,0.3-0.3,0.3-0.4c0-0.1-0.3-0.3-0.4-0.3c-0.6,0-1.2,0-1.7,0.2c-3,0.7-5.7,2-7.5,4.7
	C13.4,17.8,12.8,19,12.6,20.6z M28.3,38.8c0-0.1,0-0.1,0-0.1c-0.2,0-0.4,0-0.6,0.1c-0.1,0-0.2,0.2-0.2,0.4c0,0,0.1,0.2,0.2,0.1
	c0.2-0.1,0.4-0.1,0.6-0.3C28.3,39,28.3,38.8,28.3,38.8z M27.7,30.7c0,0.1-0.1,0.1-0.1,0.2c0.1,0.2,0.3,0.3,0.4,0.4c0,0,0.2,0,0.2,0
	c0-0.1,0.1-0.3,0-0.3C28.1,30.8,27.9,30.8,27.7,30.7z M35.3,15.7c0,0-0.1-0.1-0.1-0.1c-0.1,0.1-0.3,0.1-0.4,0.2
	c-0.1,0.1-0.1,0.3-0.1,0.4c0.1,0,0.3,0,0.4-0.1C35.3,16,35.3,15.8,35.3,15.7z M27.6,36.4c0,0.3,0,0.5,0,0.7
	C28.1,36.9,28,36.7,27.6,36.4z M22.3,34.2c0,0.1,0.1,0.2,0.1,0.2c0.1-0.1,0.2-0.1,0.3-0.2c0,0,0-0.1-0.1-0.2
	C22.5,34.1,22.4,34.2,22.3,34.2z M25.8,39.5c-0.1,0.1-0.1,0.2-0.1,0.2c0.1,0.1,0.1,0.1,0.2,0.2c0,0,0.1-0.1,0.1-0.1
	C25.9,39.7,25.8,39.6,25.8,39.5z M29.9,27.6c0.1,0,0.2-0.1,0.2-0.1c0-0.1,0-0.2-0.1-0.2c-0.1,0-0.1,0-0.2,0.1
	C29.9,27.4,29.9,27.5,29.9,27.6z M36,16.4c0-0.1-0.1-0.2-0.1-0.2c-0.1,0-0.1,0-0.2,0.1c0,0.1,0,0.1,0.1,0.1
	C35.8,16.4,35.9,16.4,36,16.4z M29.5,34C29.5,33.9,29.5,33.9,29.5,34c-0.1-0.1-0.1,0-0.2,0C29.4,34,29.4,34,29.5,34
	C29.5,34,29.5,34,29.5,34z M25.1,10.7c0,0-0.1-0.1-0.1-0.1c0,0,0,0,0,0.1c0,0,0,0.1,0,0.1C25,10.7,25,10.7,25.1,10.7z M23.3,38.7
	c0,0-0.1-0.1-0.1-0.1c0,0,0,0.1,0,0.1C23.2,38.7,23.2,38.7,23.3,38.7C23.3,38.7,23.3,38.7,23.3,38.7z M36.2,23.4
	c-0.1-0.1-0.1-0.1-0.2-0.1c0,0-0.1,0.1-0.1,0.1c0,0,0.1,0.1,0.1,0.1C36.1,23.5,36.2,23.4,36.2,23.4z M31,32.9c0,0,0.1-0.1,0-0.1
	c0,0-0.1-0.1-0.2-0.1c0,0-0.1,0.1,0,0.1C30.8,32.9,30.9,32.9,31,32.9z M31,33.8C31,33.8,31,33.8,31,33.8c0-0.1,0-0.1,0-0.1
	C30.9,33.7,30.9,33.7,31,33.8C30.9,33.8,30.9,33.8,31,33.8z M26.6,31.7C26.6,31.6,26.6,31.6,26.6,31.7c0-0.1-0.1,0-0.1,0
	C26.4,31.7,26.5,31.7,26.6,31.7C26.5,31.7,26.5,31.7,26.6,31.7z M25.9,11.9c0,0-0.1,0.1-0.1,0.1c0,0,0,0.1,0,0.2
	c0.1,0,0.1-0.1,0.2-0.1C26,11.9,26,11.9,25.9,11.9z M21.6,37.4C21.6,37.4,21.6,37.4,21.6,37.4c0.1,0.1,0.1,0.1,0.1,0
	C21.7,37.4,21.7,37.4,21.6,37.4C21.7,37.4,21.7,37.4,21.6,37.4z M27.8,35.7c0,0-0.1,0-0.1-0.1c0,0-0.1,0.1,0,0.1
	c0,0,0.1,0.1,0.1,0.1C27.7,35.7,27.7,35.7,27.8,35.7z M24.9,35.2C24.9,35.2,24.9,35.2,24.9,35.2c0-0.1-0.1-0.1-0.1-0.1
	c0,0,0,0,0,0.1C24.8,35.2,24.8,35.2,24.9,35.2z M25.2,13.7C25.2,13.7,25.2,13.7,25.2,13.7c-0.1,0-0.1,0.1,0,0.1
	C25.2,13.8,25.3,13.8,25.2,13.7C25.3,13.8,25.3,13.8,25.2,13.7z M25.4,34.5C25.4,34.5,25.4,34.5,25.4,34.5c-0.1,0-0.1,0.1-0.1,0.1
	c0,0,0,0,0.1,0C25.4,34.6,25.4,34.5,25.4,34.5z M34.8,23.3C34.8,23.3,34.8,23.2,34.8,23.3c-0.1-0.1-0.1-0.1-0.1,0
	C34.7,23.3,34.7,23.3,34.8,23.3C34.7,23.3,34.8,23.3,34.8,23.3z M17.8,23.3C17.8,23.3,17.8,23.3,17.8,23.3c0,0.1,0.1,0,0.1,0
	C17.9,23.3,17.9,23.3,17.8,23.3C17.8,23.2,17.8,23.3,17.8,23.3z M37.5,23.1c0,0-0.1-0.1-0.1-0.1c0,0-0.1,0.1,0,0.1
	C37.4,23.2,37.5,23.2,37.5,23.1C37.5,23.2,37.5,23.2,37.5,23.1z M32.1,19.2C32.1,19.2,32.1,19.2,32.1,19.2c-0.1,0-0.1,0-0.2,0
	c0,0,0,0,0,0.1C32,19.3,32.1,19.3,32.1,19.2z M19.1,22.4C19.1,22.5,19.1,22.5,19.1,22.4C19.1,22.5,19.1,22.5,19.1,22.4
	C19.1,22.5,19.1,22.5,19.1,22.4C19.1,22.4,19.1,22.4,19.1,22.4z M39.4,20.3C39.5,20.3,39.5,20.3,39.4,20.3c0.1-0.1,0-0.1,0-0.2
	c0,0-0.1,0-0.1,0C39.4,20.2,39.4,20.3,39.4,20.3z M33.6,22C33.6,21.9,33.6,21.9,33.6,22c-0.1,0-0.1,0-0.1,0c0,0,0,0,0,0.1
	C33.6,22,33.6,22,33.6,22z M19.4,16.5C19.4,16.5,19.5,16.5,19.4,16.5c0.1,0.1,0.1,0.1,0.1,0C19.6,16.5,19.5,16.5,19.4,16.5
	C19.5,16.4,19.5,16.5,19.4,16.5z M34.3,29.6C34.3,29.7,34.3,29.7,34.3,29.6c0.1,0.1,0.1,0.1,0.1,0C34.4,29.6,34.4,29.6,34.3,29.6
	C34.3,29.6,34.3,29.6,34.3,29.6z M38,16.8C38,16.9,38,16.9,38,16.8c0,0.1,0,0.1,0.1,0.1C38.1,16.9,38.1,16.9,38,16.8
	C38.1,16.9,38,16.8,38,16.8z M29.9,17.3C29.9,17.3,29.9,17.2,29.9,17.3c0-0.1,0-0.1-0.1-0.1C29.9,17.2,29.8,17.2,29.9,17.3
	C29.9,17.3,29.9,17.3,29.9,17.3z M28,39.7C28,39.7,28,39.6,28,39.7C28,39.6,27.9,39.6,28,39.7C27.9,39.6,27.9,39.7,28,39.7
	C27.9,39.7,28,39.7,28,39.7z M21.2,37.9L21.2,37.9L21.2,37.9L21.2,37.9z M19.2,18.9L19.2,18.9L19.2,18.9L19.2,18.9z M19,19.7
	L19,19.7L19,19.7L19,19.7z M38.8,22.2L38.8,22.2L38.8,22.2L38.8,22.2z M15.3,22.3L15.3,22.3L15.3,22.3L15.3,22.3z M31.9,22.7
	C31.9,22.7,31.9,22.7,31.9,22.7c-0.1,0-0.1,0-0.1,0C31.9,22.7,31.9,22.8,31.9,22.7C31.9,22.8,31.9,22.7,31.9,22.7z M33.3,22.4
	L33.3,22.4L33.3,22.4L33.3,22.4z M32.8,21.8L32.8,21.8L32.8,21.8L32.8,21.8z M25.9,13.5L25.9,13.5L25.9,13.5L25.9,13.5z M19.5,14.5
	L19.5,14.5L19.5,14.5L19.5,14.5z M14.7,14.4L14.7,14.4L14.7,14.4L14.7,14.4z M15.3,13.9C15.3,13.9,15.3,13.9,15.3,13.9
	C15.3,14,15.4,14,15.3,13.9C15.4,13.9,15.4,13.9,15.3,13.9C15.4,13.9,15.3,13.9,15.3,13.9z M33.1,12.8L33.1,12.8L33.1,12.8
	L33.1,12.8z M30.7,18.6L30.7,18.6L30.7,18.6L30.7,18.6z M20.3,17.3L20.3,17.3L20.3,17.3L20.3,17.3z M18.2,15.6L18.2,15.6L18.2,15.6
	L18.2,15.6z M25.3,39.8L25.3,39.8L25.3,39.8L25.3,39.8z M20.1,15C20.1,15,20.1,15.1,20.1,15C20.2,15.1,20.2,15,20.1,15
	C20.2,15,20.1,15,20.1,15C20.1,15,20.1,15,20.1,15z M20.6,14.7L20.6,14.7L20.6,14.7L20.6,14.7z M21.7,16.4L21.7,16.4L21.7,16.4
	L21.7,16.4z M16.6,16.2L16.6,16.2L16.6,16.2L16.6,16.2z M22.3,41.2C22.3,41.2,22.3,41.2,22.3,41.2C22.2,41.3,22.2,41.3,22.3,41.2
	C22.3,41.3,22.3,41.3,22.3,41.2C22.3,41.3,22.3,41.3,22.3,41.2z M34.3,28.8L34.3,28.8L34.3,28.8L34.3,28.8z M29.5,35.2L29.5,35.2
	L29.5,35.2L29.5,35.2z M28.6,34.1L28.6,34.1L28.6,34.1L28.6,34.1z M28.8,35.4L28.8,35.4L28.8,35.4L28.8,35.4z M24.8,33.5L24.8,33.5
	L24.8,33.5L24.8,33.5z M25.3,41.6L25.3,41.6L25.3,41.6L25.3,41.6z M29.4,31.3L29.4,31.3L29.4,31.3L29.4,31.3z M38.6,23.4L38.6,23.4
	L38.6,23.4L38.6,23.4z M36.4,25.4L36.4,25.4L36.4,25.4L36.4,25.4z M37.7,25.1L37.7,25.1L37.7,25.1L37.7,25.1z M32.2,11.1L32.2,11.1
	L32.2,11.1L32.2,11.1z"/>
<path id="XMLID_3713_" d="M21.9,47.6c2.6-2.3,6.6-0.7,7.4,2.5c0.4,1.9-0.2,3.4-1.6,4.6c-1.3,1.1-2.9,1.3-4.6,0.7
	c-0.1,0-0.3-0.2-0.4-0.3c0.1,0,0.1-0.1,0.2-0.1c-0.1,0-0.1,0-0.2-0.1l0-0.1l0.1,0c0,0.1,0,0.1,0,0.2c-1.7-0.7-2.5-2.1-2.6-3.9
	C20,49.8,20.5,48.5,21.9,47.6L21.9,47.6L21.9,47.6z M27.5,51.9L27.5,51.9L27.5,51.9L27.5,51.9L27.5,51.9z M27.5,48.7
	c0.1,0,0.1-0.1,0.2-0.1C27.6,48.7,27.6,48.7,27.5,48.7L27.5,48.7C27.5,48.8,27.5,48.7,27.5,48.7z M23.6,48.4
	C23.6,48.4,23.6,48.3,23.6,48.4C23.6,48.3,23.6,48.4,23.6,48.4c-0.4,0.5-1,0.8-1.1,1.5c-0.1,0.2,0,0.5,0,0.7c0.2,0,0.5-0.1,0.7-0.1
	l0,0l0,0c0.2-0.4,0.5-0.9,0.7-1.3C24.2,48.8,24,48.5,23.6,48.4z M21.2,49C21.2,48.9,21.2,48.9,21.2,49c0-0.1-0.1-0.1-0.1,0
	C21.1,48.9,21.1,49,21.2,49C21.1,49,21.2,49,21.2,49z M24.4,48.3C24.4,48.3,24.4,48.3,24.4,48.3c0,0.1,0,0.1,0,0.1
	C24.4,48.4,24.5,48.3,24.4,48.3C24.5,48.3,24.4,48.3,24.4,48.3z M26.6,52.2c0,0,0.1-0.1,0.1-0.1c0,0,0-0.1-0.1-0.1
	c-0.1,0-0.1,0-0.2,0C26.6,52.2,26.6,52.2,26.6,52.2z M26.5,51.2C26.5,51.2,26.5,51.3,26.5,51.2c0.1,0.1,0.1,0.1,0.1,0
	C26.6,51.2,26.6,51.2,26.5,51.2C26.6,51.2,26.5,51.2,26.5,51.2z M22.8,54.3C22.8,54.4,22.7,54.4,22.8,54.3c0,0.1,0,0.1,0,0.1
	C22.8,54.5,22.8,54.4,22.8,54.3C22.8,54.4,22.8,54.4,22.8,54.3z M21.5,53.9C21.6,53.9,21.6,53.9,21.5,53.9
	C21.6,53.9,21.6,53.9,21.5,53.9C21.6,53.9,21.5,53.9,21.5,53.9C21.5,53.9,21.5,53.9,21.5,53.9z M28.4,53C28.4,53,28.4,53,28.4,53
	c-0.1,0-0.1,0-0.1,0C28.3,53,28.3,53.1,28.4,53C28.3,53.1,28.4,53,28.4,53z M22.2,54.5L22.2,54.5L22.2,54.5L22.2,54.5z M26.9,54.7
	L26.9,54.7L26.9,54.7L26.9,54.7z M28,50.3L28,50.3L28,50.3L28,50.3z M23.8,50.4L23.8,50.4L23.8,50.4L23.8,50.4z M20.7,51.4
	L20.7,51.4L20.7,51.4L20.7,51.4z M25.5,49.9L25.5,49.9L25.5,49.9L25.5,49.9z"/>
<path id="XMLID_3630_" d="M34.9,29.1c0.1-0.1,0.1-0.1,0.2-0.2C35,29,35,29.1,34.9,29.1z"/>
</svg>
