<?xml version="1.0" encoding="utf-8"?>
<!-- Generator: Adobe Illustrator 19.0.0, SVG Export Plug-In . SVG Version: 6.00 Build 0)  -->
<svg version="1.1" id="Layer_1" xmlns="http://www.w3.org/2000/svg" xmlns:xlink="http://www.w3.org/1999/xlink" x="0px" y="0px"
	 viewBox="-63.2 76.9 29.2 45.3" style="enable-background:new -63.2 76.9 29.2 45.3;" xml:space="preserve">
<path id="XMLID_3838_" d="M-38.7,79.1c0.5,0.5,1,0.9,1.6,1.4c-0.1,0-0.1,0.1-0.2,0.1h0.1l0.1-0.1c1.6,1.5,2.5,3.4,2.9,5.6
	c0.2,1.4,0.3,2.8,0.1,4.1c-0.4,2.1-1.4,3.9-2.8,5.6c-1.2,1.4-2.6,2.4-4,3.5c-2.5,1.9-4.3,4.3-4.8,7.5c-0.1,0.6-0.3,1.2-0.9,1.6l0,0
	l0,0c-0.2,0.4-0.6,0.4-0.9,0.4c-1.4,0-2.8,0-4.3,0c-0.8,0-1.3-0.5-1.4-1.3c-0.3-4.2,1.2-7.7,4.5-10.4c0.5-0.4,1-0.8,1.5-1.2
	c0,0.1,0.1,0.1,0.1,0.2c0.1,0.1,0.1,0.1,0.2,0.1c0,0,0-0.1,0.1-0.1c-0.1,0-0.1-0.1-0.2-0.1c-0.1,0-0.1,0-0.2,0
	c0.7-0.7,1.3-1.5,2-2.2c1.3-1.4,1.9-3.1,2.1-4.9c0.3-3.3-2.2-5.4-5-5.6c-1.6-0.1-2.9,0.4-4.2,1.2c0.1-0.1,0.1-0.3,0.2-0.4l0,0v0.1
	c-0.2,0.1-0.5,0.1-0.2,0.4c-1.2,1.2-1.9,2.6-2,4.3c0,0.2-0.1,0.3-0.1,0.5c-0.5,2.2-1.3,2.2-3.1,1.9c-0.9-0.1-1.8-0.5-2.7-0.7
	c-0.7-0.2-1.3-0.3-2-0.4c-0.4-0.1-0.7-0.2-0.8-0.6c-0.1-0.5-0.2-1-0.2-1.5c0.3-2.5,1.3-4.7,3-6.5v0.1h-0.1c0.8-1.2,2-2,3.3-2.7
	c2.3-1.2,4.7-1.8,7.2-2c2.4-0.2,4.7-0.1,7,0.6C-41.2,77.5-39.8,78.1-38.7,79.1c-0.1,0-0.1,0.1-0.2,0.1h0.1
	C-38.8,79.2-38.8,79.1-38.7,79.1z M-44.5,101.1L-44.5,101.1L-44.5,101.1L-44.5,101.1L-44.5,101.1z M-39.9,86.1L-39.9,86.1
	L-39.9,86.1L-39.9,86.1L-39.9,86.1z M-50.4,107.5L-50.4,107.5L-50.4,107.5L-50.4,107.5L-50.4,107.5z M-47.9,78.9
	C-47.9,78.9-47.9,79-47.9,78.9C-47.9,79-47.9,78.9-47.9,78.9C-47.8,78.9-47.8,78.9-47.9,78.9C-47.8,78.9-47.8,78.8-47.9,78.9
	C-47.8,78.9-47.9,78.9-47.9,78.9z M-45.5,79.3L-45.5,79.3L-45.5,79.3L-45.5,79.3L-45.5,79.3z M-53.1,84.5L-53.1,84.5L-53.1,84.5
	L-53.1,84.5L-53.1,84.5z M-43.8,84.9L-43.8,84.9L-43.8,84.9L-43.8,84.9L-43.8,84.9z M-36.6,83L-36.6,83L-36.6,83L-36.6,83L-36.6,83z
	 M-53.5,82.6L-53.5,82.6L-53.5,82.6L-53.5,82.6L-53.5,82.6z M-50,103.2c0.1-0.1,0.1-0.3,0.2-0.4c0.1-0.1,0.2-0.1,0.3-0.2
	c-0.1,0-0.2,0-0.3,0c-0.1-0.2-0.2-0.5-0.3-0.7c-0.2,0.4-0.1,0.7,0.3,0.7c0,0.1,0,0.1,0,0.2C-49.9,102.9-49.9,103.1-50,103.2
	L-50,103.2L-50,103.2z M-37.5,91.2c0,0.1,0,0.1-0.1,0.2C-37.6,91.3-37.6,91.2-37.5,91.2L-37.5,91.2L-37.5,91.2z M-37.9,95L-37.9,95
	L-37.9,95c0,0.1,0.1,0.1,0.1,0.2L-37.9,95C-37.9,95.1-37.9,95.1-37.9,95z M-40.1,96.8L-40.1,96.8C-40,96.8-40.1,96.8-40.1,96.8
	l-0.1-0.1c0,0,0,0-0.1,0C-40.2,96.7-40.1,96.7-40.1,96.8z M-52.7,105.3L-52.7,105.3L-52.7,105.3c0,0.1,0,0.2,0.1,0.2
	c0,0,0.1,0,0.1-0.1C-52.6,105.4-52.7,105.4-52.7,105.3z M-58,85.3L-58,85.3L-58,85.3L-58,85.3c0.1,0.1,0.1,0.1,0.2,0.1
	C-57.8,85.4-57.9,85.4-58,85.3z M-37.9,87.5c0,0.1-0.1,0.2-0.1,0.3c0.1,0,0.1,0,0.2,0C-37.9,87.7-37.9,87.6-37.9,87.5
	c0.1-0.1,0.1-0.1,0.2-0.1C-37.8,87.4-37.9,87.4-37.9,87.5z M-41.8,90.2c-0.1,0-0.2,0.1-0.3,0.1c0,0,0,0.1,0.1,0.1
	C-42,90.3-41.9,90.2-41.8,90.2c0.1,0,0.1,0,0.2,0c0,0,0-0.1-0.1-0.1C-41.7,90.1-41.8,90.1-41.8,90.2z M-40.7,89.6L-40.7,89.6
	C-40.7,89.5-40.7,89.6-40.7,89.6c0.1,0.1,0.1,0.3,0.2,0.4h-0.1v-0.1c0-0.1,0.1-0.3,0.1-0.4C-40.4,89.6-40.5,89.6-40.7,89.6z
	 M-37.6,83.2c0.1,0,0.1,0,0.2-0.1c0.1-0.1,0.1-0.1,0.1-0.2c-0.1,0-0.2,0-0.2,0.1C-37.5,83-37.5,83.1-37.6,83.2L-37.6,83.2
	L-37.6,83.2z M-39.1,95.6c0,0.1,0,0.2,0,0.3c0.1,0,0.3-0.1,0.3-0.1c0-0.1,0-0.2-0.1-0.3s-0.2-0.1-0.3-0.2
	C-39.2,95.4-39.1,95.5-39.1,95.6z M-61.4,87.1c0,0.1,0.1,0.4,0.3,0.4c0.2,0,0.5-0.1,0.7-0.3c0.2-0.2,0.2-0.5,0.3-0.7
	c0.6-2,1.7-3.6,3.3-4.9c1.5-1.2,3.3-1.9,5.2-2.3c0.4-0.1,0.8-0.2,1.2-0.3c0.1-0.1,0.3-0.3,0.3-0.4c0-0.1-0.3-0.3-0.4-0.3
	c-0.6,0-1.2,0-1.7,0.2c-3,0.7-5.7,2-7.5,4.7C-60.6,84.3-61.2,85.5-61.4,87.1z M-45.7,105.3C-45.7,105.2-45.7,105.2-45.7,105.3
	c-0.2-0.1-0.4-0.1-0.6,0c-0.1,0-0.2,0.2-0.2,0.4c0,0,0.1,0.2,0.2,0.1c0.2-0.1,0.4-0.1,0.6-0.3V105.3z M-46.3,97.2
	c0,0.1-0.1,0.1-0.1,0.2c0.1,0.2,0.3,0.3,0.4,0.4h0.2c0-0.1,0.1-0.3,0-0.3C-45.9,97.3-46.1,97.3-46.3,97.2z M-38.7,82.2l-0.1-0.1
	c-0.1,0.1-0.3,0.1-0.4,0.2c-0.1,0.1-0.1,0.3-0.1,0.4c0.1,0,0.3,0,0.4-0.1C-38.7,82.5-38.7,82.3-38.7,82.2z M-46.4,102.9
	c0,0.3,0,0.5,0,0.7C-45.9,103.4-46,103.2-46.4,102.9z M-51.7,100.7c0,0.1,0.1,0.2,0.1,0.2c0.1-0.1,0.2-0.1,0.3-0.2
	c0,0,0-0.1-0.1-0.2C-51.5,100.6-51.6,100.7-51.7,100.7z M-48.2,106c-0.1,0.1-0.1,0.2-0.1,0.2c0.1,0.1,0.1,0.1,0.2,0.2l0.1-0.1
	C-48.1,106.2-48.2,106.1-48.2,106z M-44.1,94.1c0.1,0,0.2-0.1,0.2-0.1c0-0.1,0-0.2-0.1-0.2c-0.1,0-0.1,0-0.2,0.1
	C-44.1,93.9-44.1,94-44.1,94.1z M-38,82.9c0-0.1-0.1-0.2-0.1-0.2c-0.1,0-0.1,0-0.2,0.1c0,0.1,0,0.1,0.1,0.1
	C-38.2,82.9-38.1,82.9-38,82.9z M-44.5,100.5C-44.5,100.4-44.5,100.4-44.5,100.5c-0.1-0.1-0.1,0-0.2,0
	C-44.6,100.5-44.6,100.5-44.5,100.5L-44.5,100.5z M-48.9,77.2l-0.1-0.1C-49,77.1-49,77.1-48.9,77.2L-48.9,77.2
	C-49,77.2-49,77.2-48.9,77.2z M-50.7,105.2l-0.1-0.1v0.1C-50.8,105.2-50.8,105.2-50.7,105.2L-50.7,105.2z M-37.8,89.9
	c-0.1-0.1-0.1-0.1-0.2-0.1l-0.1,0.1L-38,90C-37.9,90-37.8,89.9-37.8,89.9z M-43,99.4C-43,99.4-42.9,99.3-43,99.4
	c0-0.1-0.1-0.2-0.2-0.2c0,0-0.1,0.1,0,0.1C-43.2,99.4-43.1,99.4-43,99.4z M-43,100.3L-43,100.3C-43,100.2-43,100.2-43,100.3
	C-43.1,100.2-43.1,100.2-43,100.3C-43.1,100.3-43.1,100.3-43,100.3z M-47.4,98.2C-47.4,98.1-47.4,98.1-47.4,98.2
	C-47.4,98.1-47.5,98.2-47.4,98.2C-47.6,98.2-47.5,98.2-47.4,98.2C-47.5,98.2-47.5,98.2-47.4,98.2z M-48.1,78.4L-48.1,78.4
	c-0.1,0.1-0.1,0.2-0.1,0.3c0.1,0,0.1-0.1,0.2-0.1C-48,78.4-48,78.4-48.1,78.4z M-52.4,103.9L-52.4,103.9c0.1,0.1,0.1,0.1,0.1,0
	C-52.3,103.9-52.3,103.9-52.4,103.9C-52.3,103.9-52.3,103.9-52.4,103.9z M-46.2,102.2c0,0-0.1,0-0.1-0.1c0,0-0.1,0.1,0,0.1H-46.2
	C-46.3,102.2-46.3,102.2-46.2,102.2z M-49.1,101.7L-49.1,101.7C-49.1,101.6-49.2,101.6-49.1,101.7
	C-49.2,101.6-49.2,101.6-49.1,101.7C-49.2,101.7-49.2,101.7-49.1,101.7z M-48.8,80.2L-48.8,80.2C-48.9,80.2-48.9,80.3-48.8,80.2
	C-48.8,80.3-48.7,80.3-48.8,80.2C-48.7,80.3-48.7,80.3-48.8,80.2z M-48.6,101L-48.6,101C-48.7,101-48.7,101.1-48.6,101
	C-48.7,101.1-48.7,101.1-48.6,101L-48.6,101z M-39.2,89.8C-39.2,89.8-39.2,89.7-39.2,89.8C-39.3,89.7-39.3,89.7-39.2,89.8
	C-39.3,89.8-39.3,89.8-39.2,89.8C-39.3,89.8-39.2,89.8-39.2,89.8z M-56.2,89.8L-56.2,89.8C-56.2,89.9-56.1,89.8-56.2,89.8
	C-56.1,89.8-56.1,89.8-56.2,89.8C-56.2,89.7-56.2,89.8-56.2,89.8z M-36.5,89.6L-36.5,89.6C-36.6,89.5-36.7,89.6-36.5,89.6
	C-36.6,89.7-36.5,89.7-36.5,89.6C-36.5,89.7-36.5,89.7-36.5,89.6z M-41.9,85.7L-41.9,85.7c-0.1,0-0.1,0-0.2,0c0,0,0,0,0,0.1
	C-42,85.8-41.9,85.8-41.9,85.7z M-54.9,88.9C-54.9,89-54.9,89-54.9,88.9C-54.9,89-54.9,89-54.9,88.9C-54.9,89-54.9,89-54.9,88.9
	L-54.9,88.9z M-34.6,86.8C-34.5,86.8-34.5,86.8-34.6,86.8c0.1-0.1,0-0.1,0-0.2h-0.1C-34.6,86.7-34.6,86.8-34.6,86.8z M-40.4,88.5
	C-40.4,88.4-40.4,88.4-40.4,88.5C-40.5,88.5-40.5,88.5-40.4,88.5C-40.5,88.5-40.5,88.5-40.4,88.5C-40.4,88.5-40.4,88.5-40.4,88.5z
	 M-54.6,83C-54.6,83-54.5,83-54.6,83c0.1,0.1,0.1,0.1,0.1,0C-54.4,83-54.5,83-54.6,83C-54.5,82.9-54.5,83-54.6,83z M-39.7,96.1
	C-39.7,96.2-39.7,96.2-39.7,96.1C-39.6,96.2-39.6,96.2-39.7,96.1C-39.6,96.1-39.6,96.1-39.7,96.1L-39.7,96.1z M-36,83.3
	C-36,83.4-36,83.4-36,83.3C-36,83.4-36,83.4-36,83.3C-35.9,83.4-35.9,83.4-36,83.3C-35.9,83.4-36,83.3-36,83.3z M-44.1,83.8
	C-44.1,83.8-44.1,83.7-44.1,83.8c0-0.1,0-0.1-0.1-0.1C-44.1,83.7-44.2,83.7-44.1,83.8L-44.1,83.8z M-46,106.2
	C-46,106.2-46,106.1-46,106.2C-46,106.1-46.1,106.1-46,106.2C-46.1,106.1-46.1,106.2-46,106.2C-46.1,106.2-46,106.2-46,106.2z
	 M-52.8,104.4L-52.8,104.4L-52.8,104.4L-52.8,104.4z M-54.8,85.4L-54.8,85.4L-54.8,85.4L-54.8,85.4z M-55,86.2L-55,86.2L-55,86.2
	L-55,86.2z M-35.2,88.7L-35.2,88.7L-35.2,88.7L-35.2,88.7z M-58.7,88.8L-58.7,88.8L-58.7,88.8L-58.7,88.8z M-42.1,89.2L-42.1,89.2
	C-42.2,89.2-42.2,89.2-42.1,89.2C-42.1,89.2-42.1,89.3-42.1,89.2C-42.1,89.3-42.1,89.2-42.1,89.2z M-40.7,88.9L-40.7,88.9
	L-40.7,88.9L-40.7,88.9z M-41.2,88.3L-41.2,88.3L-41.2,88.3L-41.2,88.3z M-48.1,80L-48.1,80L-48.1,80L-48.1,80z M-54.5,81L-54.5,81
	L-54.5,81L-54.5,81z M-59.3,80.9L-59.3,80.9L-59.3,80.9L-59.3,80.9z M-58.7,80.4L-58.7,80.4C-58.7,80.5-58.6,80.5-58.7,80.4
	C-58.6,80.4-58.6,80.4-58.7,80.4C-58.6,80.4-58.7,80.4-58.7,80.4z M-40.9,79.3L-40.9,79.3L-40.9,79.3L-40.9,79.3z M-43.3,85.1
	L-43.3,85.1L-43.3,85.1L-43.3,85.1z M-53.7,83.8L-53.7,83.8L-53.7,83.8L-53.7,83.8z M-55.8,82.1L-55.8,82.1L-55.8,82.1L-55.8,82.1z
	 M-48.7,106.3L-48.7,106.3L-48.7,106.3L-48.7,106.3z M-53.9,81.5C-53.9,81.5-53.9,81.6-53.9,81.5C-53.8,81.6-53.8,81.5-53.9,81.5
	C-53.8,81.5-53.9,81.5-53.9,81.5L-53.9,81.5z M-53.4,81.2L-53.4,81.2L-53.4,81.2L-53.4,81.2z M-52.3,82.9L-52.3,82.9L-52.3,82.9
	L-52.3,82.9z M-57.4,82.7L-57.4,82.7L-57.4,82.7L-57.4,82.7z M-51.7,107.7L-51.7,107.7C-51.8,107.8-51.8,107.8-51.7,107.7
	C-51.7,107.8-51.7,107.8-51.7,107.7C-51.7,107.8-51.7,107.8-51.7,107.7z M-39.7,95.3L-39.7,95.3L-39.7,95.3L-39.7,95.3z
	 M-44.5,101.7L-44.5,101.7L-44.5,101.7L-44.5,101.7z M-45.4,100.6L-45.4,100.6L-45.4,100.6L-45.4,100.6z M-45.2,101.9L-45.2,101.9
	L-45.2,101.9L-45.2,101.9z M-49.2,100L-49.2,100L-49.2,100L-49.2,100z M-48.7,108.1L-48.7,108.1L-48.7,108.1L-48.7,108.1z
	 M-44.6,97.8L-44.6,97.8L-44.6,97.8L-44.6,97.8z M-35.4,89.9L-35.4,89.9L-35.4,89.9L-35.4,89.9z M-37.6,91.9L-37.6,91.9L-37.6,91.9
	L-37.6,91.9z M-36.3,91.6L-36.3,91.6L-36.3,91.6L-36.3,91.6z M-41.8,77.6L-41.8,77.6L-41.8,77.6L-41.8,77.6z"/>
<path id="XMLID_3713_" d="M-52.1,114.1c2.6-2.3,6.6-0.7,7.4,2.5c0.4,1.9-0.2,3.4-1.6,4.6c-1.3,1.1-2.9,1.3-4.6,0.7
	c-0.1,0-0.3-0.2-0.4-0.3c0.1,0,0.1-0.1,0.2-0.1c-0.1,0-0.1,0-0.2-0.1v-0.1h0.1c0,0.1,0,0.1,0,0.2c-1.7-0.7-2.5-2.1-2.6-3.9
	C-54,116.3-53.5,115-52.1,114.1L-52.1,114.1L-52.1,114.1z M-46.5,118.4L-46.5,118.4L-46.5,118.4L-46.5,118.4L-46.5,118.4z
	 M-46.5,115.2c0.1,0,0.1-0.1,0.2-0.1C-46.4,115.2-46.4,115.2-46.5,115.2L-46.5,115.2C-46.5,115.3-46.5,115.2-46.5,115.2z
	 M-50.4,114.9C-50.4,114.9-50.4,114.8-50.4,114.9C-50.4,114.8-50.4,114.9-50.4,114.9c-0.4,0.5-1,0.8-1.1,1.5c-0.1,0.2,0,0.5,0,0.7
	c0.2,0,0.5-0.1,0.7-0.1l0,0l0,0c0.2-0.4,0.5-0.9,0.7-1.3C-49.8,115.3-50,115-50.4,114.9z M-52.8,115.5
	C-52.8,115.4-52.8,115.4-52.8,115.5c0-0.1-0.1-0.1-0.1,0C-52.9,115.4-52.9,115.5-52.8,115.5C-52.9,115.5-52.8,115.5-52.8,115.5z
	 M-49.6,114.8L-49.6,114.8C-49.6,114.9-49.6,114.9-49.6,114.8C-49.6,114.9-49.5,114.8-49.6,114.8C-49.5,114.8-49.6,114.8-49.6,114.8
	z M-47.4,118.7l0.1-0.1c0,0,0-0.1-0.1-0.1c-0.1,0-0.1,0-0.2,0C-47.4,118.7-47.4,118.7-47.4,118.7z M-47.5,117.7
	C-47.5,117.7-47.5,117.8-47.5,117.7C-47.4,117.8-47.4,117.8-47.5,117.7C-47.4,117.7-47.4,117.7-47.5,117.7
	C-47.4,117.7-47.5,117.7-47.5,117.7z M-51.2,120.8C-51.2,120.9-51.3,120.9-51.2,120.8C-51.2,120.9-51.2,120.9-51.2,120.8
	C-51.2,121-51.2,120.9-51.2,120.8C-51.2,120.9-51.2,120.9-51.2,120.8z M-52.5,120.4C-52.4,120.4-52.4,120.4-52.5,120.4
	C-52.4,120.4-52.4,120.4-52.5,120.4C-52.4,120.4-52.5,120.4-52.5,120.4L-52.5,120.4z M-45.6,119.5L-45.6,119.5
	C-45.7,119.5-45.7,119.5-45.6,119.5C-45.7,119.5-45.7,119.6-45.6,119.5C-45.7,119.6-45.6,119.5-45.6,119.5z M-51.8,121L-51.8,121
	L-51.8,121L-51.8,121z M-47.1,121.2L-47.1,121.2L-47.1,121.2L-47.1,121.2z M-46,116.8L-46,116.8L-46,116.8L-46,116.8z M-50.2,116.9
	L-50.2,116.9L-50.2,116.9L-50.2,116.9z M-53.3,117.9L-53.3,117.9L-53.3,117.9L-53.3,117.9z M-48.5,116.4L-48.5,116.4L-48.5,116.4
	L-48.5,116.4z"/>
<path id="XMLID_3630_" d="M-39.1,95.6c0.1-0.1,0.1-0.1,0.2-0.2C-39,95.5-39,95.6-39.1,95.6z"/>
</svg>
