<?xml version="1.0" encoding="utf-8"?>
<!-- Generator: Adobe Illustrator 19.0.0, SVG Export Plug-In . SVG Version: 6.00 Build 0)  -->
<svg version="1.1" id="Layer_1" xmlns="http://www.w3.org/2000/svg" xmlns:xlink="http://www.w3.org/1999/xlink" x="0px" y="0px"
	 viewBox="0 0 198.4 198.4" style="enable-background:new 0 0 198.4 198.4;" xml:space="preserve">
<path id="XMLID_313_" d="M110.1,86c-0.1,2.2-0.7,4.1-2.4,5.7c-0.7,0.7-1.6,1.2-2.6,1.5c-1,0.3-1.8,1-2.2,1.9
	c-0.4,0.9-0.9,1.8-1.1,2.7c-1,3.4-2,6.9-3,10.3c-0.5,1.6-0.5,3.2-0.3,4.8c0.1,1.3,0.1,2.6-0.4,3.9c-0.5,1.4-1.5,2.2-2.8,2.7
	c-1.3,0.5-2.6,0.5-4,0.2c-1.8-0.5-3-1.8-3.4-3.7c-0.4-2,0.1-3.8,1.6-5.2c1.4-1.4,2.5-3,3-4.8c0.9-2.9,1.7-5.8,2.6-8.7
	c0.4-1.3,0.6-2.6,0.6-3.9c0-1.1-0.3-2.2-0.8-3.1c-0.5-1-1.1-1.9-1.3-3c-0.5-2.9,0.3-5.2,2.5-7.2c1.5-1.4,3.4-1.9,5.4-2
	c0.1,0,0.2,0,0.4,0c0.7,0.1,1.2,0.5,0.6,1.3c-0.5,0.6-1,1.3-1.4,1.9c-0.5,0.7-0.9,1.5-1.1,2.4c-0.4,1.3,0.9,3.6,2.7,3.6
	c0.3,0,0.5,0,0.8,0c0.6,0,1.1-0.2,1.4-0.8c0.9-1.4,1.8-2.8,2.7-4.1c0.1-0.1,0.2-0.3,0.3-0.4c0.4-0.4,0.8-0.4,1.1,0.1
	c0.3,0.5,0.6,1,0.7,1.6C109.9,84.3,110,85.2,110.1,86z M98.3,94.5c-0.1,0-0.2,0.1-0.3,0.1c-0.1,0.1-0.3,0.2-0.4,0.3c0-1,0-2-0.4-2.9
	c-0.1,0.2-0.1,0.4-0.1,0.6c0,1.6-0.2,3.2-0.6,4.7c-0.8,2.7-1.6,5.4-2.5,8.2c-0.5,1.5-1,2.9-2,4.1c-0.5,0.6-1.1,1.1-1.6,1.7
	c-1.1,1.2-1.4,2.7-1.2,4.3c0.1,0.5,0.3,0.9,0.7,1.2c-0.1-0.2-0.1-0.3-0.2-0.4c-0.5-0.9-0.6-1.9-0.3-2.9c0.3-1,0.9-1.8,1.7-2.4
	c0.9-0.8,1.7-1.7,2.3-2.9c0,0.4,0,0.7,0,1c0,0.9,0.4,1.4,1.3,1.6c0.8,0.2,1.4-0.2,1.8-0.9c0.1-0.3,0.2-0.5,0.4-0.8
	c0,1.1-0.3,2.3,0.2,3.3c0.1-0.5,0-1,0.1-1.5c0.1-0.9,0.1-1.9,0.3-2.8c1.3-4.7,2.6-9.4,4.4-13.9c0-0.1,0-0.2,0.1-0.5
	c-0.3,0.5-0.5,0.8-0.8,1.1c-0.5-0.2-0.8-0.5-1.2-0.6C99.3,93.7,98.6,93.9,98.3,94.5z M91.7,114.7c0,0.2,0,0.4,0,0.6
	c0.2,0.8,0.7,1.3,1.4,1.4c0.8,0.1,1.3-0.2,1.7-0.9c0.4-0.8,0.4-1.7-0.1-2.3c-0.5-0.6-1.3-0.7-2.1-0.4
	C92,113.3,91.6,113.8,91.7,114.7z M101.1,91.1c-1-0.4-2-0.8-2.8-1.4c-1-0.8-1.8-1.7-2.2-2.9c-0.6-1.9-0.1-3.5,1-5
	c1-1.3,2.3-2.1,3.9-2.6c0.2-0.1,0.3-0.1,0.5-0.2c-1.8,0-4.8,1.8-5.6,3.9c-0.2,0.5-0.4,1.1-0.4,1.6C95,88.5,98.2,90.8,101.1,91.1z
	 M90.5,114.4c0,0-0.1,0-0.1,0c0,0.3,0,0.7,0,1c0.1,0.8,0.4,1.6,1.2,2c1.1,0.6,2.3,0.6,3.4,0c1.1-0.7,1.5-1.7,1.4-2.9
	c-0.2-2.7-2.9-3.3-4.5-2.2c0.8-0.3,1.7-0.4,2.5,0c0.9,0.4,1.5,1,1.7,2c0.3,1.6-0.7,3-2.4,3.3c-0.8,0.1-1.6,0-2.2-0.5
	C90.7,116.4,90.5,115.4,90.5,114.4z M105.1,92.2c0-0.1,0-0.1,0-0.2c-1.5,0.3-2.9,0.5-4.4,0.2c-1.5-0.3-2.7-1.1-3.9-2
	c0.6,1.1,1.5,1.9,2.7,2.2c1.4,0.3,2.8,0.3,4.3,0.1C104.2,92.5,104.6,92.3,105.1,92.2z M106.4,90.2c1.7-0.8,2.7-4.9,2-7
	C108.5,85.7,108.3,88.1,106.4,90.2z"/>
<path id="XMLID_274_" d="M98,94.6c0.1,0,0.2-0.1,0.3-0.1c0.4-0.2,0.8-0.3,1.3-0.2c1.1,0.1,1.5,0.8,1.2,1.8c-0.9,2.8-1.7,5.6-2.6,8.5
	c-0.6,1.7-1.2,3.4-1.8,5.1c-0.2,0.6-0.7,0.8-1.5,0.7c-0.6-0.1-1.1-0.6-1.1-1.2c-0.1-0.7,0-1.5,0.2-2.2c0.8-2.5,1.6-5,2.4-7.5
	C96.9,97.9,97.4,96.2,98,94.6z M97.1,100.2C97.1,100.2,97.1,100.1,97.1,100.2c-0.1,0-0.2,0-0.2,0c0,0.1-0.1,0.1-0.1,0.2
	c-0.6,1.1-0.4,2.3-0.2,3.4c0.1,0.6,0.1,1.1-0.3,1.5c-0.4,0.5-0.8,0.9-1.2,1.3c0.1,0,0.3,0,0.4,0c0.7-0.4,1.2-0.9,1.3-1.7
	c0-0.6,0-1.3-0.1-1.9c-0.1-0.8-0.1-1.6,0.2-2.3C97,100.6,97.1,100.4,97.1,100.2z M98,98.4c0-0.3,0-0.6,0-0.8c0-0.6,0.1-1.1,0.3-1.6
	c0.4-0.9,0.9-1.1,1.8-0.5c0,0,0.1,0,0.1,0c-0.6-0.7-1.2-0.8-1.7-0.3C97.8,95.8,97.3,97.3,98,98.4z M98.4,100.3
	c-0.3,0.1-0.5,0.1-0.6,0.2c-0.4,0.4-0.5,1-0.1,1.6C97.9,101.5,98.1,101,98.4,100.3z M98.8,96.6c0.4,0,0.4-0.5,0.7-0.2
	c0.1-0.2,0.3-0.3,0.4-0.5c0-0.1-0.2-0.3-0.2-0.3c-0.2,0-0.4,0.1-0.5,0.2C99,96,98.9,96.3,98.8,96.6z M94.9,108.4
	c0.1,0.6,0.1,0.6,0.8,0.9C95.8,108.5,95.7,108.3,94.9,108.4z"/>
</svg>
