<?xml version="1.0" encoding="utf-8"?>
<!-- Generator: Adobe Illustrator 19.0.0, SVG Export Plug-In . SVG Version: 6.00 Build 0)  -->
<svg version="1.1" id="Layer_1" xmlns="http://www.w3.org/2000/svg" xmlns:xlink="http://www.w3.org/1999/xlink" x="0px" y="0px"
	 viewBox="88.6 34 33.3 36" style="enable-background:new 88.6 34 33.3 36;" xml:space="preserve">
<path id="XMLID_313_" d="M121.3,45.5c-1,2-2.3,3.5-4.5,4.2c-0.9,0.4-2,0.4-3,0.3c-1-0.1-2.1,0.2-2.8,0.8c-0.7,0.7-1.6,1.3-2.1,2
	c-2.3,2.7-4.6,5.5-6.9,8.2c-1.1,1.3-1.8,2.7-2.2,4.3c-0.4,1.2-1,2.4-2,3.4c-1,1.1-2.3,1.4-3.7,1.3s-2.6-0.6-3.7-1.5
	c-1.4-1.2-2-2.9-1.6-4.8c0.5-2,1.6-3.4,3.6-4.1c1.8-0.7,3.5-1.7,4.7-3.2c2-2.3,3.9-4.6,5.9-6.9c0.9-1,1.6-2.1,2.1-3.3
	c0.4-1,0.6-2.1,0.5-3.2c0-1.1-0.2-2.2,0-3.3c0.7-2.9,2.4-4.6,5.2-5.6c1.9-0.7,3.9-0.3,5.7,0.4c0.1,0,0.2,0.1,0.4,0.2
	c0.6,0.4,0.9,0.9,0,1.4c-0.7,0.3-1.4,0.8-2.1,1.2c-0.7,0.4-1.4,1-2,1.7c-0.9,1-0.6,3.7,1,4.4c0.3,0.1,0.5,0.2,0.7,0.3
	c0.5,0.2,1.1,0.3,1.6-0.2c1.4-0.9,2.8-1.8,4.1-2.6c0.1-0.1,0.3-0.2,0.4-0.2c0.5-0.2,0.9,0,1,0.5c0.1,0.6,0.1,1.2,0,1.7
	C121.8,43.9,121.5,44.7,121.3,45.5z M107,48.4c-0.1,0-0.2,0-0.3,0c-0.1,0.1-0.4,0.1-0.5,0.1c0.4-0.9,0.8-1.8,0.8-2.8
	c-0.2,0.1-0.3,0.3-0.3,0.5c-0.7,1.5-1.5,2.8-2.5,4c-1.8,2.1-3.7,4.3-5.6,6.5c-1.1,1.2-2.1,2.2-3.5,2.9c-0.7,0.3-1.5,0.6-2.2,0.9
	c-1.5,0.6-2.4,1.9-2.9,3.4c-0.1,0.5-0.1,0.9,0.1,1.4c0-0.2,0-0.3,0-0.4c-0.1-1,0.2-2,0.9-2.8c0.7-0.8,1.6-1.3,2.5-1.5
	c1.1-0.4,2.2-0.9,3.3-1.7c-0.2,0.4-0.3,0.6-0.4,0.9c-0.4,0.8-0.2,1.4,0.5,2c0.6,0.5,1.4,0.4,2-0.1c0.2-0.2,0.4-0.4,0.7-0.6
	c-0.4,1-1.2,2-1.2,3.1c0.3-0.4,0.4-0.9,0.7-1.3c0.5-0.8,0.9-1.7,1.4-2.4c3.1-3.8,6.2-7.5,9.7-10.9c0-0.1,0.1-0.2,0.3-0.4
	c-0.5,0.3-0.8,0.5-1.2,0.7c-0.4-0.4-0.5-0.8-0.9-1C108.3,48.1,107.5,48,107,48.4z M92.8,64.2c-0.1,0.2-0.2,0.4-0.2,0.5
	c-0.1,0.8,0.1,1.5,0.7,1.8c0.7,0.4,1.3,0.3,1.9-0.1c0.7-0.6,1.1-1.4,0.8-2.1c-0.2-0.8-0.9-1.2-1.8-1.2C93.6,63,93,63.3,92.8,64.2z
	 M111,46.5c-0.7-0.8-1.5-1.5-2-2.4c-0.6-1.1-0.9-2.3-0.8-3.5c0.2-2,1.3-3.2,3-4.2c1.4-0.8,3-1,4.6-0.8c0.2,0,0.3,0,0.5,0
	c-1.6-0.7-5.1-0.3-6.7,1.3c-0.4,0.4-0.8,0.8-1,1.3C106.5,41.6,108.4,45,111,46.5z M91.8,63.4L91.8,63.4c-0.2,0.2-0.4,0.6-0.5,0.9
	c-0.2,0.8-0.3,1.6,0.3,2.3c0.8,1,1.9,1.5,3.1,1.4c1.3-0.2,2.1-0.9,2.5-2.1c0.9-2.5-1.3-4.2-3.2-3.8c0.9,0.1,1.7,0.3,2.3,1
	c0.7,0.7,1,1.5,0.7,2.5c-0.4,1.6-1.9,2.5-3.5,2c-0.8-0.2-1.5-0.7-1.8-1.4C91.1,65.3,91.4,64.3,91.8,63.4z M114.2,49.1
	c0-0.1,0-0.1,0.1-0.2c-1.5-0.3-2.9-0.7-4.1-1.6c-1.2-0.9-2-2.1-2.7-3.4c0.1,1.2,0.6,2.3,1.6,3.1c1.2,0.8,2.4,1.4,3.9,1.8
	C113.2,49,113.7,49,114.2,49.1z M116.2,47.8c1.9,0,4.5-3.4,4.7-5.6C119.9,44.6,118.8,46.7,116.2,47.8z"/>
<path id="XMLID_274_" d="M106.7,48.4c0.1,0,0.2,0,0.3,0c0.4,0,0.9,0.1,1.3,0.3c1,0.5,1,1.3,0.4,2.1c-2,2.2-3.8,4.4-5.8,6.7
	c-1.2,1.3-2.5,2.6-3.7,3.9c-0.4,0.5-1,0.4-1.7,0c-0.5-0.3-0.8-1-0.5-1.5c0.2-0.7,0.6-1.4,1.1-1.9c1.8-2,3.5-3.9,5.3-5.9
	C104.4,51,105.5,49.6,106.7,48.4z M103.6,53.2C103.6,53.2,103.6,53.1,103.6,53.2c-0.1,0-0.2-0.1-0.2-0.1c0,0.1-0.1,0.1-0.2,0.1
	c-1,0.8-1.3,1.9-1.6,3c-0.2,0.6-0.4,1-0.9,1.2c-0.6,0.3-1.1,0.5-1.6,0.7c0.1,0,0.3,0.1,0.4,0.2c0.8-0.1,1.5-0.3,1.9-1
	c0.2-0.5,0.5-1.2,0.7-1.8c0.2-0.8,0.6-1.5,1.1-2C103.3,53.5,103.5,53.3,103.6,53.2z M105.2,51.9c0.1-0.3,0.2-0.5,0.3-0.7
	c0.2-0.5,0.5-1,0.9-1.3c0.7-0.7,1.3-0.6,1.8,0.3l0.1,0c-0.3-0.9-0.8-1.2-1.4-1C106,49.4,105,50.6,105.2,51.9z M104.8,53.8
	c-0.3,0-0.5-0.1-0.6-0.1c-0.5,0.2-0.9,0.7-0.7,1.4C103.8,54.7,104.2,54.3,104.8,53.8z M106.6,50.6c0.4,0.2,0.6-0.3,0.7,0.1
	c0.2-0.1,0.4-0.2,0.6-0.3c0-0.1-0.1-0.4-0.1-0.4c-0.2-0.1-0.4-0.1-0.5,0C107.1,50.1,106.8,50.3,106.6,50.6z M98.2,59.7
	c-0.2,0.6-0.2,0.6,0.4,1.1C99,60.2,99,60,98.2,59.7z"/>
</svg>
