<?xml version="1.0" encoding="utf-8"?>
<!-- Generator: Adobe Illustrator 19.0.0, SVG Export Plug-In . SVG Version: 6.00 Build 0)  -->
<svg version="1.1" id="Layer_1" xmlns="http://www.w3.org/2000/svg" xmlns:xlink="http://www.w3.org/1999/xlink" x="0px" y="0px"
	 viewBox="-53.3 81.8 51.3 36.9" style="enable-background:new -53.3 81.8 51.3 36.9;" xml:space="preserve">
<path id="XMLID_4633_" d="M-15,108.1c-0.1,0.1-0.1,0.2-0.2,0.2c-1.6,0.9-2.4,2.4-3.1,4c0-1.6,0-3.1,0-4.7c0-0.7-0.1-1.5-0.1-2.2
	c0-1.6,0.1-3.2,0.1-4.9c0-3-0.1-6-0.1-9c0-0.2,0-0.4,0-0.6c0-0.4-0.2-0.6-0.6-0.6c-0.4,0-0.6,0.1-0.6,0.6c0,0.3,0,0.6,0,0.9
	c0,6.6,0,13.2,0,19.7c0,1.5-0.2,1.8-1.8,1.8c-4,0-8,0-12,0c-0.2,0-0.5,0-0.7,0c-0.6,0-0.7-0.1-0.9-0.7c-0.2-0.5-0.2-0.9-0.4-1.4
	c-0.9-2.2-2.6-3.5-4.9-3.8c-1.9-0.2-3.6,0.4-5,1.6c-1,0.9-1.7,2-2,3.3c-0.3,0.9-0.3,1-1.3,1s-2,0-3,0s-1.4-0.5-1.6-1.5
	c-0.2-1.8-0.1-3.6-0.1-5.4c0-0.9,0.4-1.3,1.3-1.3c0.2,0,0.4,0,0.6,0c9.5,0,19,0,28.5,0c0.3,0,0.6,0,0.9-0.1c0.3-0.1,0.5-0.3,0.5-0.6
	c0-0.3-0.2-0.5-0.5-0.6c-0.2,0-0.3-0.1-0.5-0.1c-6.2,0-12.4,0.1-18.6,0.1c-3.3,0-6.6,0-9.9,0c-0.4,0-0.9-0.1-1.3-0.2
	c-0.5-0.1-0.8-0.5-0.8-1c0-0.6,0-1.2,0-1.7c0-4.4,0-8.7,0-13.1c0-1.1,0-2.3,0-3.4c0-1.7,0.7-2.4,2.4-2.4c3.2,0,6.5,0,9.7,0
	c6.2,0,12.5-0.1,18.7-0.2c0.4,0,0.8,0,1.2,0.1c0.7,0.2,1.2,0.7,1.2,1.6c0.1,1.2,0.1,2.4,0.2,3.6c0,0.2,0,0.3,0,0.5
	c0,0.4,0.2,0.5,0.6,0.5c2.3,0,4.7,0.1,7,0.1c0.1,0,0.3,0,0.4,0c1.5-0.1,2.7,0.5,3.5,1.8c0.6,1,1.2,2,1.8,3c1.2,2.1,2.4,4.2,3.6,6.3
	c0.5,0.8,0.7,1.6,0.7,2.5c0,1.3,0,2.6,0,3.9c0,1.9,0.1,3.8,0.1,5.6c0.1,1.3-0.6,1.9-1.7,2c-0.5,0-1,0-1.4-0.1
	c-0.2,0-0.4-0.3-0.5-0.5c-0.2-0.3-0.2-0.7-0.3-1c-0.8-2-2-3.5-4.2-4c-1.3-0.3-2.6-0.3-3.9,0.2C-14.4,107.9-14.7,108-15,108.1
	c0,0,0-0.1-0.1-0.2c0,0-0.1-0.1-0.2-0.1l0.1,0.1C-15.1,108-15.1,108.1-15,108.1z M-33.1,83.8L-33.1,83.8L-33.1,83.8L-33.1,83.8
	L-33.1,83.8z M-32.2,83.8c-0.1,0-0.1,0-0.2,0c-0.1,0-0.1,0-0.2-0.1c0.1,0,0.1,0,0.2,0c0,0.1,0,0.1,0,0.2c-0.3,0-0.5,0-0.5,0.5
	c0.2-0.2,0.4-0.3,0.5-0.5C-32.3,83.9-32.2,83.8-32.2,83.8c0.1,0,0.1,0,0.2,0v0.1h-0.1C-32,83.8-32.1,83.8-32.2,83.8z M-48.7,82.8
	L-48.7,82.8L-48.7,82.8L-48.7,82.8L-48.7,82.8z M-49.8,108.1L-49.8,108.1L-49.8,108.1L-49.8,108.1L-49.8,108.1z M-43,95.8L-43,95.8
	L-43,95.8L-43,95.8L-43,95.8z M-5.9,108.5L-5.9,108.5L-5.9,108.5L-5.9,108.5L-5.9,108.5z M-34.9,93.3L-34.9,93.3L-34.9,93.3
	L-34.9,93.3L-34.9,93.3z M-16,100.9L-16,100.9L-16,100.9L-16,100.9C-16.1,100.9-16,100.9-16,100.9z M-48.5,103.2L-48.5,103.2
	L-48.5,103.2L-48.5,103.2L-48.5,103.2z M-24.4,97.6L-24.4,97.6L-24.4,97.6L-24.4,97.6L-24.4,97.6z M-30,97.4L-30,97.4L-30,97.4
	L-30,97.4L-30,97.4z M-44.8,106.7L-44.8,106.7C-44.7,106.7-44.8,106.7-44.8,106.7S-44.8,106.8-44.8,106.7c0,0.1,0,0.2,0,0.2l0.1,0.1
	c0,0,0,0,0.1,0c-0.1,0-0.1-0.1-0.2-0.1C-44.8,106.9-44.8,106.8-44.8,106.7z M-25.9,105.6L-25.9,105.6L-25.9,105.6L-25.9,105.6
	L-25.9,105.6z M-46.7,99.1L-46.7,99.1L-46.7,99.1L-46.7,99.1L-46.7,99.1z M-14.1,105.2L-14.1,105.2L-14.1,105.2L-14.1,105.2
	L-14.1,105.2z M-2.8,105.4C-2.8,105.3-2.8,105.3-2.8,105.4C-2.8,105.3-2.8,105.3-2.8,105.4L-2.8,105.4L-2.8,105.4z M-38,85.7
	c0.1-0.1,0.1-0.1,0.2-0.2l0,0l0,0C-37.9,85.6-37.9,85.7-38,85.7L-38,85.7L-38,85.7z M-24.8,112.7L-24.8,112.7L-24.8,112.7
	L-24.8,112.7L-24.8,112.7z M-22.6,89.8L-22.6,89.8L-22.6,89.8L-22.6,89.8L-22.6,89.8z M-28.8,108.3c-0.1,0-0.1,0.1-0.2,0.1
	C-29,108.3-28.9,108.3-28.8,108.3L-28.8,108.3L-28.8,108.3z M-28.3,108.1L-28.3,108.1L-28.3,108.1L-28.3,108.1
	c0.1,0.1,0.1,0.1,0.2,0.1C-28.1,108.2-28.2,108.1-28.3,108.1z M-4.7,106c-0.1,0-0.1,0.1-0.2,0.1C-4.8,106-4.8,106-4.7,106
	C-4.7,105.9-4.6,105.9-4.7,106c0.1-0.1,0.1-0.1,0.1-0.2C-4.7,105.8-4.7,105.9-4.7,106z M-26.7,96.8L-26.7,96.8L-26.7,96.8
	L-26.7,96.8c0.1,0.1,0.1,0.1,0.2,0.1C-26.6,96.9-26.7,96.8-26.7,96.8z M-24.4,91.6c0-0.1,0-0.1,0.1-0.2
	C-24.3,91.4-24.4,91.5-24.4,91.6L-24.4,91.6L-24.4,91.6z M-39,92.9c0.1,0,0.1-0.1,0.2-0.1h-0.1C-38.9,92.8-38.9,92.9-39,92.9
	L-39,92.9L-39,92.9z M-28.7,88.8c0.1,0,0.1-0.1,0.2-0.1h-0.1C-28.6,88.8-28.6,88.8-28.7,88.8L-28.7,88.8L-28.7,88.8z M-33.7,91
	c0.1,0,0.1-0.1,0.2-0.1C-33.6,90.9-33.6,90.9-33.7,91L-33.7,91L-33.7,91z M-42.5,89.8c0,0.1,0,0.1-0.1,0.2
	C-42.5,89.9-42.5,89.9-42.5,89.8L-42.5,89.8L-42.5,89.8z M-46.7,82.2c0.1,0,0.3,0,0.4,0l0.1,0.1c0.1,0,0.1,0,0.2,0
	c-0.1,0-0.1-0.1-0.2-0.1c-0.1,0-0.1,0-0.2,0C-46.5,82.2-46.6,82.2-46.7,82.2L-46.7,82.2L-46.7,82.2z M-16.2,100.3
	c0.1-0.1,0.3-0.1,0.4-0.2c0.1,0,0.1-0.1,0.2-0.1h-0.1l-0.1,0.1C-15.9,100.2-16.1,100.2-16.2,100.3c0,0.1,0,0.1,0,0.2
	C-16.3,100.4-16.2,100.4-16.2,100.3z M-30.6,86.5L-30.6,86.5L-30.6,86.5c0-0.1-0.1-0.1-0.1-0.2L-30.6,86.5
	C-30.7,86.4-30.6,86.5-30.6,86.5z M-40.1,99c-0.1,0-0.2,0.1-0.2,0.1C-40.3,99-40.2,99-40.1,99L-40.1,99L-40.1,99z M-31.4,98.6
	L-31.4,98.6L-31.4,98.6l0.1,0.1C-31.3,98.7-31.3,98.6-31.4,98.6z M-42.5,99.7l0.1,0.1c0,0,0,0,0.1,0C-42.3,99.8-42.4,99.8-42.5,99.7
	c-0.1,0-0.1,0-0.2-0.1C-42.6,99.7-42.5,99.7-42.5,99.7z M-30,87.5c0.1,0,0.2,0.1,0.2,0.1v-0.1C-29.8,87.4-29.9,87.5-30,87.5
	L-30,87.5c-0.1-0.1-0.2-0.2-0.3-0.2c0,0.1,0,0.1,0.1,0.2C-30.2,87.5-30.1,87.5-30,87.5z M-39.4,85c0-0.1-0.1-0.2-0.1-0.2l-0.1,0.1
	C-39.5,84.9-39.4,84.9-39.4,85s0,0.2,0,0.3h0.1C-39.3,85.1-39.3,85-39.4,85z M-27.3,96.8c0,0.1,0.1,0.1,0.1,0.2
	C-27.2,96.9-27.3,96.9-27.3,96.8l-0.1-0.1c0,0-0.1-0.1-0.2-0.1c0,0.1,0,0.2,0.1,0.2S-27.4,96.8-27.3,96.8z M-25.4,97.2L-25.4,97.2
	L-25.4,97.2c0,0.1,0.1,0.1,0.1,0.2l0.1-0.1C-25.2,97.3-25.3,97.2-25.4,97.2z M-20.7,108.5c0-0.1-0.1-0.1-0.1-0.2
	C-20.8,108.4-20.7,108.4-20.7,108.5c-0.1,0.1-0.1,0.3-0.2,0.4L-21,109c0,0,0,0,0,0.1c0-0.1,0.1-0.1,0.1-0.2
	C-20.7,108.8-20.4,108.8-20.7,108.5z M-4.2,106.1c-0.1,0.1-0.2,0.1-0.2,0.2c0,0,0,0,0.1,0.1C-4.3,106.3-4.2,106.2-4.2,106.1
	L-4.2,106.1L-4.2,106.1z M-39,93.5c-0.1,0-0.2,0-0.3,0v0.1C-39.1,93.6-39,93.5-39,93.5L-39,93.5L-39,93.5z M-38.4,102.3
	C-38.4,102.2-38.4,102.2-38.4,102.3C-38.4,102.2-38.4,102.2-38.4,102.3c0.1,0.1,0.1,0.2,0.2,0.3c0,0,0,0,0.1-0.1
	C-38.2,102.4-38.3,102.3-38.4,102.3z M-29.6,99.3L-29.6,99.3L-29.6,99.3c0,0,0-0.1-0.1-0.2l-0.1-0.1c0,0.1,0,0.2,0,0.2
	C-29.8,99.3-29.7,99.3-29.6,99.3z M-13.3,101.3c-0.1,0.1-0.2,0.1-0.3,0.2c0,0,0,0,0.1,0.1C-13.4,101.5-13.4,101.4-13.3,101.3
	L-13.3,101.3C-13.3,101.2-13.3,101.3-13.3,101.3z M-36.6,83.6c0.1,0,0.1,0,0.2,0c0.1-0.1,0.2-0.1,0.3-0.2l-0.1-0.1
	C-36.3,83.4-36.4,83.4-36.6,83.6C-36.6,83.5-36.6,83.5-36.6,83.6L-36.6,83.6L-36.6,83.6z M-40.1,89.6c-0.1,0-0.2,0-0.3,0.1
	c-0.1,0-0.1,0.1-0.1,0.2c0.1,0,0.2,0,0.2,0C-40.2,89.8-40.2,89.7-40.1,89.6L-40.1,89.6L-40.1,89.6z M-21.7,112.2L-21.7,112.2
	L-21.7,112.2c0.1,0.2,0.1,0.4,0.2,0.6c0.1,0,0.1,0,0.2,0.1c-0.1,0-0.1,0-0.2,0C-21.4,112.5-21.2,112.2-21.7,112.2z M-23.2,96.6
	c-0.1,0-0.2,0-0.3,0s-0.1,0.1-0.2,0.2c0.1,0,0.2,0.1,0.3,0C-23.3,96.8-23.3,96.7-23.2,96.6c0,0,0.1,0,0.2-0.1c0,0,0.1-0.1,0.1-0.2
	c-0.1,0-0.1,0-0.2,0.1C-23.2,96.5-23.2,96.6-23.2,96.6z M-6.1,99.5c0.1-0.1,0.1-0.1,0.2-0.2c0-0.1,0-0.2,0-0.3
	c-0.1,0.1-0.2,0.1-0.3,0.2C-6.2,99.3-6.1,99.4-6.1,99.5L-6.1,99.5L-6.1,99.5z M-36.4,90.4L-36.4,90.4L-36.4,90.4
	c0,0.2,0.1,0.4,0.4,0.2c0.1,0,0.1-0.1,0.1-0.2C-36.1,90.4-36.2,90.4-36.4,90.4L-36.4,90.4z M-28.8,87.7L-28.8,87.7L-28.8,87.7
	c-0.1-0.1-0.1-0.2-0.2-0.2c-0.1,0-0.2-0.1-0.2,0c-0.1,0-0.1,0.2-0.1,0.2c0,0.1,0.1,0.1,0.2,0.1C-29,87.8-28.9,87.7-28.8,87.7z
	 M-41.7,82.6c-0.1,0-0.2,0-0.4,0.1c-0.1,0-0.2,0.1-0.3,0.1c0.1,0.1,0.1,0.2,0.2,0.3c0.1,0.1,0.2,0.1,0.2,0.1c0,0.1,0,0.2-0.1,0.3
	c0.1,0,0.1,0,0.2,0c0-0.1-0.1-0.2-0.1-0.2C-41.8,83-41.8,82.8-41.7,82.6L-41.7,82.6L-41.7,82.6z M-28.7,108.9L-28.7,108.9
	L-28.7,108.9c0.1,0.2,0.3,0.4,0.4,0.6c0.1,0,0.1,0,0.2,0.1c-0.1,0-0.1,0-0.2-0.1c0.2-0.2,0.3-0.5,0.6-0.9
	C-28.1,108.7-28.4,108.8-28.7,108.9z M-37.8,94.1l0.1,0.1v-0.1C-37.7,94.1-37.7,94.1-37.8,94.1c0-0.1,0.1-0.1,0.1-0.1
	c0.2-0.2,0.2-0.4-0.1-0.4c-0.1,0-0.2,0.1-0.3,0.3c-0.1,0.1-0.1,0.2-0.1,0.3C-38,94.1-37.9,94.1-37.8,94.1z M-8.4,102.1
	c0,0.1,0,0.1,0,0.2c0,0,0.1,0.1,0.2,0.1c0,0,0-0.1-0.1-0.1C-8.3,102.1-8.4,102.1-8.4,102.1c-0.3-0.2-0.5-0.4-0.8-0.5
	c0,0-0.2,0-0.2,0.1s0,0.2,0.1,0.2C-9.1,101.9-8.7,102-8.4,102.1z M-11.3,99.6L-11.3,99.6c1.2,0,2.4,0,3.6,0c1.3,0,1.5-0.3,0.8-1.4
	c-1.1-2-2.2-3.9-3.3-5.9c-0.3-0.5-0.7-0.7-1.2-0.7c-1.3,0-2.6,0-3.9,0c-1,0-1.2,0.2-1.2,1.2c0,1.8,0,3.6,0,5.3
	c0,1.2,0.3,1.5,1.5,1.5C-13.7,99.6-12.5,99.6-11.3,99.6z M-15.2,103.5L-15.2,103.5c0.3,0,0.6,0,0.9,0c0.3,0,0.5-0.2,0.5-0.5
	c0-0.3-0.1-0.6-0.4-0.7c-0.6-0.1-1.2,0-1.7,0c-0.3,0-0.5,0.3-0.5,0.6c0,0.3,0.2,0.5,0.6,0.6C-15.7,103.5-15.4,103.5-15.2,103.5z
	 M-42.7,94.4c0,0,0.7,0.2,0.8,0.2c0.2,0,0.3,0,0.5-0.1c-0.1-0.1-0.1-0.3-0.2-0.4C-42.3,93.7-42.3,93.7-42.7,94.4z M-44.4,102
	c-0.3-0.1-0.4-0.2-0.5-0.3c-0.1,0-0.3-0.1-0.4,0c-0.1,0.1-0.1,0.3-0.1,0.4c0.1,0.1,0.3,0.2,0.5,0.2C-44.8,102.3-44.7,102.2-44.4,102
	z M-38.4,83.5c0.2,0.1,0.3,0.2,0.5,0.2c0.1,0,0.1-0.2,0.2-0.3c-0.1-0.1-0.2-0.2-0.3-0.2C-38.1,83.2-38.2,83.4-38.4,83.5z
	 M-50.9,88.2c-0.3,0.2-0.5,0.4-0.3,0.7c0,0.1,0.2,0,0.3,0C-50.9,88.7-50.9,88.5-50.9,88.2z M-35,110.6c0.1,0,0.2,0,0.3,0
	c-0.1-0.3,0.1-0.6-0.3-0.9C-35,110.1-35,110.4-35,110.6z M-30.8,88.1c0.1,0,0.2-0.1,0.2-0.1c-0.1-0.2-0.1-0.4-0.2-0.6
	c0,0-0.2,0-0.3-0.1C-31,87.7-30.9,87.9-30.8,88.1z M-34.9,85.5c0-0.2,0-0.3,0-0.3c-0.1-0.1-0.3-0.2-0.4-0.3c0,0.2,0,0.3,0.1,0.5
	C-35.2,85.4-35.1,85.4-34.9,85.5z M-22.1,102.2c-0.4-0.1-0.5-0.1-0.6-0.1s-0.2,0.1-0.3,0.2c0.1,0,0.2,0.1,0.3,0.1
	S-22.5,102.3-22.1,102.2z M-27.4,107.6C-27.4,107.7-27.5,107.7-27.4,107.6c0.1,0.2,0.1,0.4,0.2,0.5c0,0,0.1,0,0.2-0.1l-0.1-0.2
	C-27.2,107.7-27.3,107.7-27.4,107.6z M-47.7,99.8c-0.1-0.1-0.2-0.2-0.2-0.2c-0.1,0-0.2,0.1-0.2,0.1c0.1,0.1,0.1,0.2,0.2,0.2
	C-47.9,99.9-47.8,99.8-47.7,99.8z M-52.3,110.5c0-0.1,0-0.2-0.1-0.2c-0.1,0-0.2,0.1-0.3,0.1v0.1C-52.6,110.6-52.4,110.5-52.3,110.5z
	 M-52.9,89.7c0,0,0-0.1-0.1-0.1l-0.1,0.1l0.1,0.1C-52.9,89.8-52.9,89.7-52.9,89.7z M-35.7,96.6c-0.1,0-0.2-0.1-0.2-0.1
	s-0.1,0.1,0,0.1H-35.7C-35.8,96.7-35.8,96.6-35.7,96.6z M-40.4,96.1c0-0.1-0.1-0.1-0.1-0.2c-0.1,0-0.1,0.1-0.2,0.1
	c0,0,0,0.1,0.1,0.1C-40.5,96.2-40.5,96.2-40.4,96.1z M-42.2,98.3c0.1,0,0.1-0.1,0.2-0.1c-0.1-0.1-0.1-0.1-0.2-0.2c0,0-0.1,0-0.2,0.1
	C-42.2,98.2-42.2,98.2-42.2,98.3z M-39.5,94.2c-0.1,0-0.1,0-0.2,0.1c0,0.1,0,0.1,0.1,0.1c0.1,0,0.1,0,0.2-0.1
	C-39.4,94.3-39.4,94.2-39.5,94.2z M-25.4,100.9c0,0.1-0.1,0.1-0.1,0.2s0.1,0.1,0.2,0.2c0,0,0.1,0,0.1-0.1
	C-25.2,101.1-25.3,101-25.4,100.9z M-5.7,104.6c-0.1,0.2-0.2,0.2-0.2,0.3c0.1,0.1,0.1,0.1,0.2,0.2l0.1-0.1
	C-5.6,104.8-5.6,104.7-5.7,104.6z M-33.4,85.8C-33.4,85.7-33.4,85.7-33.4,85.8c-0.1-0.1-0.1-0.1-0.2-0.1v0.1
	C-33.5,85.8-33.5,85.8-33.4,85.8z M-22.4,107L-22.4,107c-0.1-0.1-0.2-0.1-0.2,0H-22.4C-22.5,107-22.5,107-22.4,107z M-47,96
	C-47,96-47.1,95.9-47,96c-0.1,0-0.1,0.1-0.2,0.1C-47.2,96.1-47.1,96.2-47,96C-47,96.1-47,96-47,96z M-30.5,89.6
	c-0.1,0-0.1-0.1-0.2-0.1l-0.1,0.1l0.1,0.1C-30.6,89.7-30.5,89.6-30.5,89.6z M-28.7,96.8c-0.1,0-0.1-0.1-0.1-0.1s0,0.1-0.1,0.1
	C-28.8,96.8-28.8,96.9-28.7,96.8C-28.8,96.9-28.8,96.8-28.7,96.8z M-30.2,82C-30.3,81.9-30.3,81.9-30.2,82c-0.2-0.1-0.2-0.1-0.3-0.1
	V82C-30.4,82-30.3,82-30.2,82z M-4.7,107.1L-4.7,107.1c-0.1,0.2,0,0.2,0,0.2V107.1C-4.7,107.2-4.7,107.1-4.7,107.1z M-35.9,89.4
	l-0.1-0.1c0,0-0.1,0-0.1,0.1c0,0,0,0.1,0.1,0.1C-36,89.5-36,89.4-35.9,89.4z M-31.5,89.5c0,0,0-0.1,0.1-0.1L-31.5,89.5h-0.1
	C-31.6,89.5-31.6,89.5-31.5,89.5z M-47.9,107.6C-47.9,107.6-47.8,107.6-47.9,107.6c0.1-0.1,0.1-0.2,0.1-0.3c0,0-0.1,0-0.1,0.1
	S-47.9,107.5-47.9,107.6z M-22.2,99.4L-22.2,99.4C-22.3,99.5-22.2,99.6-22.2,99.4C-22.2,99.6-22.2,99.5-22.2,99.4
	C-22.2,99.5-22.2,99.5-22.2,99.4z M-29.1,98.6c0-0.1,0-0.1,0-0.2c-0.1,0-0.1,0-0.2,0c0,0,0,0.1-0.1,0.1
	C-29.2,98.6-29.1,98.6-29.1,98.6z M-28.6,111.4C-28.6,111.4-28.6,111.3-28.6,111.4c-0.1,0-0.1,0-0.2,0c0,0,0,0,0,0.1
	C-28.7,111.4-28.6,111.4-28.6,111.4z M-35.4,108.9c0.1,0,0.1,0.1,0.2,0.1c0,0,0.1-0.1,0-0.1H-35.4L-35.4,108.9z M-35,95.7
	C-35,95.7-35,95.6-35,95.7c-0.1-0.1-0.1-0.1-0.2-0.1v0.1C-35.1,95.7-35,95.7-35,95.7z M-39.6,88.9c0-0.1-0.1-0.1-0.1-0.1
	c-0.1,0-0.1,0.1-0.2,0.2c0.1,0.1,0.1,0.1,0.2,0.2C-39.7,89-39.6,89-39.6,88.9z M-17,92.8l-0.1-0.1c0,0-0.1,0-0.1,0.1H-17
	C-17.1,92.8-17,92.8-17,92.8z M-49.8,101.6C-49.9,101.6-49.9,101.6-49.8,101.6C-49.9,101.6-49.8,101.7-49.8,101.6
	C-49.8,101.8-49.8,101.7-49.8,101.6C-49.8,101.7-49.8,101.7-49.8,101.6z M-35.6,94.9C-35.6,94.9-35.7,94.9-35.6,94.9
	c-0.1,0-0.1,0-0.1,0.1C-35.7,95-35.7,95-35.6,94.9C-35.6,95-35.6,94.9-35.6,94.9z M-46.1,103.3C-46.1,103.3-46.1,103.2-46.1,103.3
	L-46.1,103.3C-46.1,103.2-46.2,103.3-46.1,103.3C-46.2,103.3-46.1,103.3-46.1,103.3z M-29.5,101.8
	C-29.5,101.8-29.6,101.8-29.5,101.8C-29.6,101.8-29.6,101.8-29.5,101.8C-29.6,101.9-29.6,101.9-29.5,101.8
	C-29.5,101.9-29.5,101.9-29.5,101.8z M-41.8,92.7L-41.8,92.7C-41.7,92.8-41.7,92.8-41.8,92.7C-41.7,92.7-41.7,92.7-41.8,92.7
	C-41.7,92.6-41.7,92.7-41.8,92.7z M-22,109.9C-22,109.9-22,109.8-22,109.9C-22,109.8-22.1,109.8-22,109.9L-22,109.9
	C-22.1,109.9-22.1,109.9-22,109.9z M-5.6,103C-5.7,103-5.7,103-5.6,103C-5.7,103.1-5.7,103.1-5.6,103C-5.7,103.1-5.6,103.1-5.6,103
	C-5.6,103.1-5.6,103-5.6,103z M-32.5,109.6C-32.5,109.6-32.5,109.5-32.5,109.6C-32.6,109.6-32.6,109.6-32.5,109.6
	C-32.6,109.6-32.6,109.6-32.5,109.6L-32.5,109.6z M-48.3,110.3C-48.3,110.3-48.3,110.2-48.3,110.3
	C-48.3,110.2-48.3,110.2-48.3,110.3C-48.3,110.2-48.4,110.3-48.3,110.3L-48.3,110.3z M-20.7,102.4
	C-20.7,102.3-20.7,102.3-20.7,102.4C-20.6,102.3-20.6,102.3-20.7,102.4C-20.7,102.3-20.7,102.3-20.7,102.4
	C-20.8,102.3-20.7,102.3-20.7,102.4z M-9.1,99.8L-9.1,99.8C-9.1,99.8-9.1,99.9-9.1,99.8C-9.1,99.9-9,99.8-9.1,99.8
	C-9,99.8-9.1,99.8-9.1,99.8z M-14.9,99.9C-14.9,99.8-14.9,99.8-14.9,99.9C-14.9,99.8-15,99.8-14.9,99.9C-15,99.8-15,99.8-14.9,99.9
	L-14.9,99.9z M-5.5,97.7C-5.5,97.7-5.6,97.7-5.5,97.7c-0.1,0.1-0.1,0.1,0,0.1C-5.5,97.8-5.5,97.8-5.5,97.7L-5.5,97.7z M-21.1,104.7
	L-21.1,104.7c-0.1,0.1-0.1,0.1-0.1,0.2C-21.1,104.8-21.1,104.8-21.1,104.7C-21,104.7-21.1,104.7-21.1,104.7z M-46.5,106.8
	c0,0,0-0.1,0.1-0.1L-46.5,106.8L-46.5,106.8C-46.6,106.7-46.5,106.7-46.5,106.8z M-24.6,105.9C-24.6,105.9-24.6,105.8-24.6,105.9
	C-24.7,105.8-24.7,105.8-24.6,105.9C-24.7,105.9-24.7,105.9-24.6,105.9C-24.7,105.9-24.6,105.9-24.6,105.9z M-33.4,99.8
	C-33.4,99.7-33.4,99.7-33.4,99.8c0-0.1-0.1-0.1-0.1-0.1v0.1C-33.5,99.7-33.5,99.7-33.4,99.8z M-25.2,99.6L-25.2,99.6
	c0.1,0.1,0.1,0,0.2,0c0,0,0,0,0-0.1C-25.1,99.5-25.2,99.5-25.2,99.6z M-47.7,96.2l0.1,0.1L-47.7,96.2
	C-47.6,96.2-47.7,96.1-47.7,96.2C-47.7,96.1-47.7,96.1-47.7,96.2z M-48.1,95L-48.1,95c-0.1-0.1-0.1-0.1-0.2-0.1V95
	C-48.2,95.1-48.1,95.1-48.1,95z M-23.4,101.3L-23.4,101.3C-23.4,101.4-23.4,101.4-23.4,101.3C-23.3,101.3-23.3,101.3-23.4,101.3
	C-23.3,101.3-23.4,101.3-23.4,101.3z M-44.3,100.6L-44.3,100.6C-44.3,100.5-44.3,100.6-44.3,100.6L-44.3,100.6L-44.3,100.6z
	 M-48.1,97.2C-48.1,97.2-48.1,97.3-48.1,97.2C-48.1,97.3-48.1,97.3-48.1,97.2L-48.1,97.2L-48.1,97.2z M-48.6,96.5
	C-48.6,96.4-48.6,96.4-48.6,96.5c-0.1-0.1-0.1-0.1-0.1-0.1C-48.7,96.4-48.7,96.5-48.6,96.5L-48.6,96.5z M-22.6,107.6L-22.6,107.6
	L-22.6,107.6C-22.6,107.7-22.6,107.7-22.6,107.6L-22.6,107.6z M-21.9,89L-21.9,89C-21.9,89.1-21.9,89.1-21.9,89L-21.9,89
	C-21.9,88.9-21.9,89-21.9,89z M-32.3,88.3C-32.4,88.4-32.4,88.4-32.3,88.3C-32.3,88.4-32.3,88.4-32.3,88.3
	C-32.3,88.4-32.3,88.4-32.3,88.3C-32.3,88.4-32.3,88.4-32.3,88.3z M-16.4,88.4C-16.4,88.4-16.4,88.3-16.4,88.4
	C-16.4,88.3-16.5,88.3-16.4,88.4C-16.5,88.3-16.5,88.4-16.4,88.4C-16.5,88.4-16.5,88.4-16.4,88.4z M-12.8,88.3
	C-12.9,88.3-12.9,88.3-12.8,88.3C-12.8,88.4-12.8,88.4-12.8,88.3C-12.8,88.4-12.8,88.4-12.8,88.3C-12.8,88.3-12.8,88.3-12.8,88.3z
	 M-24.1,112.8C-24.1,112.8-24.1,112.7-24.1,112.8C-24.2,112.7-24.2,112.7-24.1,112.8C-24.2,112.8-24.2,112.8-24.1,112.8L-24.1,112.8
	z M-45.1,90.8L-45.1,90.8c-0.1,0-0.1,0-0.1,0s0,0,0,0.1C-45.1,90.9-45.1,90.8-45.1,90.8z M-30.1,89.7
	C-30.1,89.8-30.1,89.8-30.1,89.7c0,0.1,0.1,0.1,0.1,0.1S-30,89.8-30.1,89.7L-30.1,89.7z M-26.6,90L-26.6,90
	C-26.7,89.9-26.8,90-26.6,90C-26.7,90-26.7,90-26.6,90L-26.6,90z M-38.7,86.4L-38.7,86.4L-38.7,86.4C-38.7,86.6-38.7,86.5-38.7,86.4
	C-38.7,86.5-38.7,86.5-38.7,86.4z M-29.1,86.5C-29.2,86.5-29.2,86.5-29.1,86.5c-0.1,0.1,0,0.1,0,0.2h0.1
	C-29.1,86.6-29.1,86.5-29.1,86.5z M-29.9,82.4C-29.9,82.4-29.9,82.3-29.9,82.4C-30,82.4-30,82.4-29.9,82.4
	C-30,82.4-30,82.5-29.9,82.4C-29.9,82.5-29.9,82.4-29.9,82.4z M-45.3,82.5L-45.3,82.5c-0.1-0.1-0.1-0.1-0.2-0.1
	C-45.5,82.5-45.4,82.5-45.3,82.5C-45.4,82.5-45.4,82.5-45.3,82.5z M-45,82.2L-45,82.2c0,0.1,0.1,0.1,0.1,0
	C-44.9,82.2-44.9,82.1-45,82.2C-45,82.1-45,82.2-45,82.2z M-37.2,84.6L-37.2,84.6C-37.3,84.5-37.3,84.5-37.2,84.6
	C-37.3,84.6-37.3,84.6-37.2,84.6C-37.2,84.7-37.2,84.6-37.2,84.6z M-45.1,86.4C-45.1,86.3-45.1,86.3-45.1,86.4
	C-45.1,86.3-45.1,86.3-45.1,86.4C-45.2,86.3-45.2,86.4-45.1,86.4L-45.1,86.4z M-24.4,112.1L-24.4,112.1
	C-24.3,112.2-24.3,112.2-24.4,112.1C-24.3,112.1-24.3,112.1-24.4,112.1L-24.4,112.1z M-43.2,91.1l0.1,0.1c0,0,0.1,0,0-0.1H-43.2
	C-43.1,91.1-43.1,91.1-43.2,91.1z M-32.2,91.6C-32.3,91.6-32.3,91.6-32.2,91.6c0,0.1,0,0.1,0,0.2h0.1
	C-32.2,91.7-32.2,91.6-32.2,91.6z M-30.5,99.5C-30.4,99.5-30.4,99.5-30.5,99.5C-30.4,99.5-30.4,99.5-30.5,99.5
	C-30.4,99.4-30.4,99.4-30.5,99.5C-30.5,99.4-30.5,99.4-30.5,99.5z M-24.1,99.6L-24.1,99.6L-24.1,99.6L-24.1,99.6z M-7.8,91.7
	L-7.8,91.7L-7.8,91.7L-7.8,91.7z M-32.5,99.6L-32.5,99.6C-32.6,99.6-32.6,99.6-32.5,99.6C-32.5,99.7-32.5,99.7-32.5,99.6
	C-32.5,99.7-32.5,99.6-32.5,99.6z M-38.9,98.8L-38.9,98.8L-38.9,98.8L-38.9,98.8z M-18.2,88.3L-18.2,88.3L-18.2,88.3L-18.2,88.3z
	 M-51.5,98.6L-51.5,98.6L-51.5,98.6L-51.5,98.6z M-46.7,98.5L-46.7,98.5L-46.7,98.5L-46.7,98.5z M-42.6,98.6L-42.6,98.6L-42.6,98.6
	L-42.6,98.6z M-41,92.7L-41,92.7L-41,92.7L-41,92.7z M-52.6,99.3L-52.6,99.3L-52.6,99.3L-52.6,99.3z M-21.8,91.5L-21.8,91.5
	L-21.8,91.5L-21.8,91.5z M-37.1,98.8L-37.1,98.8L-37.1,98.8L-37.1,98.8z M-42.3,99.2L-42.3,99.2C-42.3,99.1-42.4,99.1-42.3,99.2
	C-42.4,99.1-42.4,99.2-42.3,99.2C-42.4,99.2-42.4,99.2-42.3,99.2z M-49.4,83.4L-49.4,83.4L-49.4,83.4L-49.4,83.4z M-33,92L-33,92
	L-33,92L-33,92z M-34.3,101.9L-34.3,101.9L-34.3,101.9L-34.3,101.9z M-31,101.9L-31,101.9L-31,101.9L-31,101.9z M-23.8,102
	L-23.8,102L-23.8,102L-23.8,102z M-38.7,82.9L-38.7,82.9L-38.7,82.9L-38.7,82.9z M-20.4,101.9L-20.4,101.9L-20.4,101.9L-20.4,101.9z
	 M-33.3,102.3L-33.3,102.3L-33.3,102.3L-33.3,102.3z M-38.4,84.7L-38.4,84.7L-38.4,84.7L-38.4,84.7z M-25.1,84.8L-25.1,84.8
	C-25.2,84.8-25.2,84.9-25.1,84.8C-25.2,84.9-25.1,84.9-25.1,84.8C-25.1,84.9-25.1,84.9-25.1,84.8z M-29.4,83.5L-29.4,83.5
	L-29.4,83.5L-29.4,83.5z M-44.8,83.7L-44.8,83.7L-44.8,83.7L-44.8,83.7z M-48.2,85.7L-48.2,85.7L-48.2,85.7L-48.2,85.7z
	 M-13.2,102.2L-13.2,102.2L-13.2,102.2L-13.2,102.2z M-26.7,84.1L-26.7,84.1L-26.7,84.1L-26.7,84.1z M-22.9,100.8L-22.9,100.8
	L-22.9,100.8L-22.9,100.8z M-23.4,81.9L-23.4,81.9L-23.4,81.9L-23.4,81.9z M-28.4,87.1L-28.4,87.1L-28.4,87.1L-28.4,87.1z
	 M-48.4,82.3L-48.4,82.3L-48.4,82.3L-48.4,82.3z M-21.1,101.2L-21.1,101.2L-21.1,101.2L-21.1,101.2z M-14.3,101.2L-14.3,101.2
	L-14.3,101.2L-14.3,101.2z M-33.7,91.9L-33.7,91.9L-33.7,91.9L-33.7,91.9z M-30.9,95.3L-30.9,95.3L-30.9,95.3L-30.9,95.3z
	 M-49.2,95.5L-49.2,95.5L-49.2,95.5L-49.2,95.5z M-45,95.4L-45,95.4L-45,95.4L-45,95.4z M-25.7,91.2L-25.7,91.2L-25.7,91.2
	L-25.7,91.2z M-40.7,95L-40.7,95L-40.7,95L-40.7,95z M-13.7,90.1L-13.7,90.1L-13.7,90.1L-13.7,90.1z M-46.6,95.2L-46.6,95.2
	L-46.6,95.2L-46.6,95.2z M-40,95.8L-40,95.8L-40,95.8L-40,95.8z M-12.5,91.1L-12.5,91.1L-12.5,91.1L-12.5,91.1z M-7.8,93.2
	L-7.8,93.2L-7.8,93.2L-7.8,93.2z M-27.4,96.1L-27.4,96.1L-27.4,96.1L-27.4,96.1z M-25.1,96.2L-25.1,96.2L-25.1,96.2L-25.1,96.2z
	 M-48,95.6L-48,95.6L-48,95.6L-48,95.6z M-36.1,95.7L-36.1,95.7L-36.1,95.7L-36.1,95.7z M-23.2,91.1L-23.2,91.1L-23.2,91.1
	L-23.2,91.1z M-13.9,90.8L-13.9,90.8L-13.9,90.8L-13.9,90.8z M-22,93.8L-22,93.8L-22,93.8L-22,93.8z M-21.2,90.8L-21.2,90.8
	L-21.2,90.8L-21.2,90.8z M-43,90.6L-43,90.6L-43,90.6L-43,90.6z M-29.6,88.8L-29.6,88.8L-29.6,88.8L-29.6,88.8z M-20.2,97.4
	L-20.2,97.4L-20.2,97.4L-20.2,97.4z M-12.9,89L-12.9,89L-12.9,89L-12.9,89z M-31.9,88.6L-31.9,88.6C-31.9,88.7-31.8,88.7-31.9,88.6
	C-31.8,88.6-31.8,88.6-31.9,88.6z M-35,88.6L-35,88.6L-35,88.6L-35,88.6z M-37.6,96.7L-37.6,96.7L-37.6,96.7L-37.6,96.7z
	 M-41.6,89.8L-41.6,89.8L-41.6,89.8L-41.6,89.8z M-43.3,93.3L-43.3,93.3L-43.3,93.3L-43.3,93.3z M-36.7,89.3
	C-36.7,89.3-36.6,89.4-36.7,89.3C-36.6,89.3-36.6,89.3-36.7,89.3C-36.6,89.3-36.6,89.3-36.7,89.3L-36.7,89.3z M-26.1,97L-26.1,97
	L-26.1,97L-26.1,97z M-5.8,109L-5.8,109L-5.8,109L-5.8,109z M-24,109L-24,109L-24,109L-24,109z M-32.2,106.5L-32.2,106.5
	L-32.2,106.5L-32.2,106.5z M-47.3,106.4L-47.3,106.4C-47.3,106.4-47.4,106.4-47.3,106.4C-47.3,106.5-47.3,106.5-47.3,106.4
	C-47.3,106.5-47.3,106.4-47.3,106.4z M-33.2,106.4L-33.2,106.4L-33.2,106.4L-33.2,106.4z M-27.8,112.3L-27.8,112.3L-27.8,112.3
	L-27.8,112.3z M-45.2,105.4L-45.2,105.4L-45.2,105.4L-45.2,105.4z M-37.6,105.3C-37.6,105.3-37.6,105.2-37.6,105.3
	C-37.6,105.2-37.6,105.2-37.6,105.3C-37.7,105.2-37.7,105.3-37.6,105.3L-37.6,105.3z M-9.2,105.1L-9.2,105.1L-9.2,105.1L-9.2,105.1z
	 M-47.8,109.3L-47.8,109.3L-47.8,109.3L-47.8,109.3z M-9,105.6L-9,105.6L-9,105.6L-9,105.6z M-12.5,105.2L-12.5,105.2L-12.5,105.2
	L-12.5,105.2z M-11.3,105.3L-11.3,105.3L-11.3,105.3L-11.3,105.3z M-6.2,107.7L-6.2,107.7L-6.2,107.7L-6.2,107.7z M-17.7,107.3
	L-17.7,107.3L-17.7,107.3L-17.7,107.3z M-3,107.4L-3,107.4L-3,107.4L-3,107.4z M-33.7,108L-33.7,108L-33.7,108L-33.7,108z
	 M-25.3,107.9L-25.3,107.9L-25.3,107.9L-25.3,107.9z M-51.6,106.9L-51.6,106.9L-51.6,106.9L-51.6,106.9z M-23.4,112.9L-23.4,112.9
	L-23.4,112.9L-23.4,112.9z M-21.8,106.7L-21.8,106.7L-21.8,106.7L-21.8,106.7z M-16.2,106.6L-16.2,106.6L-16.2,106.6L-16.2,106.6z
	 M-17.1,107L-17.1,107C-17.2,107-17.2,107-17.1,107C-17.2,107-17.2,107-17.1,107z M-31.1,108.5L-31.1,108.5L-31.1,108.5L-31.1,108.5
	z M-26.1,110.2L-26.1,110.2L-26.1,110.2L-26.1,110.2z M-7.4,104L-7.4,104L-7.4,104L-7.4,104z M-13.3,102.7L-13.3,102.7L-13.3,102.7
	L-13.3,102.7z M-21.6,110.7L-21.6,110.7L-21.6,110.7L-21.6,110.7z M-33,111.4L-33,111.4L-33,111.4L-33,111.4z M-31.8,103.2
	L-31.8,103.2L-31.8,103.2L-31.8,103.2z M-25.8,111.2L-25.8,111.2L-25.8,111.2L-25.8,111.2z M-5.2,112L-5.2,112L-5.2,112L-5.2,112z
	 M-3.5,104.4L-3.5,104.4L-3.5,104.4L-3.5,104.4z M-2.5,104.8L-2.5,104.8L-2.5,104.8L-2.5,104.8z M-8,104.5
	C-8,104.5-8.1,104.5-8,104.5C-8.1,104.5-8.1,104.5-8,104.5L-8,104.5z M-8.8,104.5L-8.8,104.5L-8.8,104.5L-8.8,104.5z M-49.3,109.9
	C-49.3,109.9-49.3,109.8-49.3,109.9C-49.3,109.8-49.4,109.8-49.3,109.9C-49.4,109.9-49.4,109.9-49.3,109.9
	C-49.4,109.9-49.3,109.9-49.3,109.9z"/>
<path id="XMLID_3741_" d="M-44.2,117.6c-1.3-0.7-1.8-1.8-2-3.1c-0.3-2.2,0.5-3.9,2.4-5c1.7-1.1,3.6-1.1,5.3,0.1
	c1.8,1.2,2.4,3.1,2,5.2c-0.4,1.9-1.6,3.2-3.5,3.7C-41.6,118.9-43,118.6-44.2,117.6L-44.2,117.6c0-0.1,0-0.2,0-0.2l0,0l0,0
	C-44.2,117.5-44.2,117.6-44.2,117.6z M-43.6,115.1L-43.6,115.1C-43.6,115-43.6,115.1-43.6,115.1S-43.7,115.1-43.6,115.1
	C-43.7,115.1-43.6,115.1-43.6,115.1z M-38.8,117.6L-38.8,117.6L-38.8,117.6L-38.8,117.6L-38.8,117.6z M-43.8,111.8
	c-0.1,0.1-0.1,0.3-0.2,0.4l0,0l0,0C-43.7,112.1-43.7,112-43.8,111.8L-43.8,111.8L-43.8,111.8z M-41.3,111.8c-1,0-1.9,0.8-2,1.7
	c0,1,0.8,2,1.8,2c1.1,0,1.9-0.8,2-1.8C-39.5,112.7-40.3,111.8-41.3,111.8z M-38.6,110.7c-0.1-0.1-0.1-0.2-0.2-0.2
	c-0.1,0-0.1,0.1-0.2,0.1c0,0.1,0.1,0.2,0.1,0.2C-38.8,110.8-38.7,110.7-38.6,110.7z M-44.8,112.2c-0.1,0.1-0.1,0.1-0.2,0.2
	c0.1,0,0.2,0.1,0.2,0.1l0.1-0.1C-44.6,112.3-44.7,112.2-44.8,112.2z M-44.5,115.7l0.1,0.1c0,0,0.1,0,0-0.1H-44.5
	C-44.4,115.6-44.5,115.6-44.5,115.7z M-43.9,113C-43.9,113-43.9,112.9-43.9,113c0-0.1-0.1-0.1-0.1-0.1C-44,113-44,113-43.9,113
	C-44,113-43.9,113-43.9,113z M-38.4,116.2L-38.4,116.2L-38.4,116.2L-38.4,116.2z M-44.7,116.3L-44.7,116.3L-44.7,116.3L-44.7,116.3z
	 M-39.8,117.2L-39.8,117.2L-39.8,117.2L-39.8,117.2z M-40.4,118.2L-40.4,118.2L-40.4,118.2L-40.4,118.2z M-42.8,117.8L-42.8,117.8
	L-42.8,117.8L-42.8,117.8z"/>
<path id="XMLID_3731_" d="M-11.9,118.5c-2.3,0-5-1.8-5-5c0-2.5,2-4.8,5.2-4.8c2.1,0,4.8,1.9,4.8,4.9C-7,116.6-9.6,118.7-11.9,118.5z
	 M-10.8,116.3L-10.8,116.3L-10.8,116.3c0,0.1,0,0.1,0,0.2c0,0,0,0,0,0.1c0,0,0,0,0-0.1c0.1,0,0.1,0,0.2,0v0.1h-0.1
	C-10.6,116.4-10.7,116.3-10.8,116.3z M-10,111.6L-10,111.6c-0.1,0.1-0.1,0.1-0.1,0.2C-10.1,111.7-10,111.6-10,111.6L-10,111.6
	C-9.9,111.5-10,111.6-10,111.6z M-8.8,114.1L-8.8,114.1L-8.8,114.1c0-0.1,0-0.1,0-0.2s-0.1-0.1-0.1-0.2c0,0.1,0,0.2,0,0.2
	C-8.9,114-8.9,114.1-8.8,114.1z M-11.9,115.5c1.1,0,1.9-0.8,1.9-1.9c0-0.9-0.9-1.9-1.9-1.9s-1.9,0.9-1.9,1.9
	C-13.7,114.7-12.9,115.5-11.9,115.5z M-14.5,113.9L-14.5,113.9L-14.5,113.9L-14.5,113.9L-14.5,113.9z M-13.5,116.6L-13.5,116.6
	L-13.5,116.6L-13.5,116.6z M-14.9,115.2L-14.9,115.2L-14.9,115.2L-14.9,115.2z M-9.1,110.8L-9.1,110.8L-9.1,110.8L-9.1,110.8z"/>
</svg>
