<?xml version="1.0" encoding="utf-8"?>
<!-- Generator: Adobe Illustrator 19.0.0, SVG Export Plug-In . SVG Version: 6.00 Build 0)  -->
<svg version="1.1" id="Layer_1" xmlns="http://www.w3.org/2000/svg" xmlns:xlink="http://www.w3.org/1999/xlink" x="0px" y="0px"
	 viewBox="0 0 71.6 62.6" style="enable-background:new 0 0 71.6 62.6;" xml:space="preserve">
<path id="XMLID_4633_" d="M48,39.3c-0.1,0.1-0.1,0.2-0.2,0.2c-1.6,0.9-2.4,2.4-3.1,4c0-1.6,0-3.1,0-4.7c0-0.7-0.1-1.5-0.1-2.2
	c0-1.6,0.1-3.2,0.1-4.9c0-3-0.1-6-0.1-9c0-0.2,0-0.4,0-0.6c0-0.4-0.2-0.6-0.6-0.6c-0.4,0-0.6,0.1-0.6,0.6c0,0.3,0,0.6,0,0.9
	c0,6.6,0,13.2,0,19.7c0,1.5-0.2,1.8-1.8,1.8c-4,0-8,0-12,0c-0.2,0-0.5,0-0.7,0c-0.6,0-0.7-0.1-0.9-0.7c-0.2-0.5-0.2-0.9-0.4-1.4
	c-0.9-2.2-2.6-3.5-4.9-3.8c-1.9-0.2-3.6,0.4-5,1.6c-1,0.9-1.7,2-2,3.3c-0.3,0.9-0.3,1-1.3,1c-1,0-2,0-3,0c-1,0-1.4-0.5-1.6-1.5
	c-0.2-1.8-0.1-3.6-0.1-5.4c0-0.9,0.4-1.3,1.3-1.3c0.2,0,0.4,0,0.6,0c9.5,0,19,0,28.5,0c0.3,0,0.6,0,0.9-0.1c0.3-0.1,0.5-0.3,0.5-0.6
	c0-0.3-0.2-0.5-0.5-0.6c-0.2,0-0.3-0.1-0.5-0.1c-6.2,0-12.4,0.1-18.6,0.1c-3.3,0-6.6,0-9.9,0c-0.4,0-0.9-0.1-1.3-0.2
	c-0.5-0.1-0.8-0.5-0.8-1c0-0.6,0-1.2,0-1.7c0-4.4,0-8.7,0-13.1c0-1.1,0-2.3,0-3.4c0-1.7,0.7-2.4,2.4-2.4c3.2,0,6.5,0,9.7,0
	c6.2,0,12.5-0.1,18.7-0.2c0.4,0,0.8,0,1.2,0.1c0.7,0.2,1.2,0.7,1.2,1.6c0.1,1.2,0.1,2.4,0.2,3.6c0,0.2,0,0.3,0,0.5
	c0,0.4,0.2,0.5,0.6,0.5c2.3,0,4.7,0.1,7,0.1c0.1,0,0.3,0,0.4,0c1.5-0.1,2.7,0.5,3.5,1.8c0.6,1,1.2,2,1.8,3c1.2,2.1,2.4,4.2,3.6,6.3
	c0.5,0.8,0.7,1.6,0.7,2.5c0,1.3,0,2.6,0,3.9c0,1.9,0.1,3.8,0.1,5.6c0.1,1.3-0.6,1.9-1.7,2c-0.5,0-1,0-1.4-0.1
	c-0.2,0-0.4-0.3-0.5-0.5c-0.2-0.3-0.2-0.7-0.3-1c-0.8-2-2-3.5-4.2-4c-1.3-0.3-2.6-0.3-3.9,0.2C48.6,39.1,48.3,39.2,48,39.3
	c0,0,0-0.1-0.1-0.2c0,0-0.1-0.1-0.2-0.1c0,0,0.1,0.1,0.1,0.1C47.9,39.2,47.9,39.3,48,39.3z M29.9,15L29.9,15L29.9,15L29.9,15
	L29.9,15z M30.8,15c-0.1,0-0.1,0-0.2,0c-0.1,0-0.1,0-0.2-0.1c0.1,0,0.1,0,0.2,0c0,0.1,0,0.1,0,0.2c-0.3,0-0.5,0-0.5,0.5
	c0.2-0.2,0.4-0.3,0.5-0.5C30.7,15.1,30.8,15,30.8,15c0.1,0,0.1,0,0.2,0l0,0.1c0,0-0.1,0-0.1,0C31,15,30.9,15,30.8,15z M14.3,14
	L14.3,14L14.3,14L14.3,14L14.3,14z M13.2,39.3L13.2,39.3L13.2,39.3L13.2,39.3L13.2,39.3z M20,27L20,27L20,27L20,27L20,27z
	 M57.1,39.7L57.1,39.7L57.1,39.7L57.1,39.7L57.1,39.7z M28.1,24.5L28.1,24.5L28.1,24.5L28.1,24.5L28.1,24.5z M47,32.1
	C47,32.1,47,32.1,47,32.1C47,32.1,47,32.1,47,32.1L47,32.1C46.9,32.1,47,32.1,47,32.1z M14.5,34.4L14.5,34.4L14.5,34.4L14.5,34.4
	L14.5,34.4z M38.6,28.8L38.6,28.8L38.6,28.8C38.6,28.8,38.6,28.8,38.6,28.8C38.6,28.8,38.6,28.8,38.6,28.8z M33,28.6L33,28.6
	L33,28.6L33,28.6L33,28.6z M18.2,37.9L18.2,37.9C18.3,37.9,18.2,37.9,18.2,37.9C18.2,37.9,18.2,38,18.2,37.9c0,0.1,0,0.2,0,0.2
	c0,0,0.1,0.1,0.1,0.1c0,0,0,0,0.1,0c-0.1,0-0.1-0.1-0.2-0.1C18.2,38.1,18.2,38,18.2,37.9z M37.1,36.8L37.1,36.8L37.1,36.8L37.1,36.8
	L37.1,36.8z M16.3,30.3L16.3,30.3L16.3,30.3L16.3,30.3L16.3,30.3z M48.9,36.4L48.9,36.4L48.9,36.4L48.9,36.4L48.9,36.4z M60.2,36.6
	C60.2,36.5,60.2,36.5,60.2,36.6C60.2,36.5,60.2,36.5,60.2,36.6C60.2,36.6,60.2,36.6,60.2,36.6C60.2,36.6,60.2,36.6,60.2,36.6z
	 M25,16.9c0.1-0.1,0.1-0.1,0.2-0.2l0,0c0,0,0,0,0,0C25.1,16.8,25.1,16.9,25,16.9L25,16.9L25,16.9z M38.2,43.9L38.2,43.9L38.2,43.9
	L38.2,43.9L38.2,43.9z M40.4,21L40.4,21L40.4,21L40.4,21L40.4,21z M34.2,39.5c-0.1,0-0.1,0.1-0.2,0.1C34,39.5,34.1,39.5,34.2,39.5
	L34.2,39.5L34.2,39.5z M34.7,39.3L34.7,39.3L34.7,39.3c0,0,0.1,0.1,0.1,0.1c0,0,0,0,0.1,0C34.9,39.4,34.8,39.3,34.7,39.3z
	 M58.3,37.2c-0.1,0-0.1,0.1-0.2,0.1C58.2,37.2,58.2,37.2,58.3,37.2c0-0.1,0.1-0.1,0.1-0.1c0,0,0,0,0-0.1
	C58.3,37,58.3,37.1,58.3,37.2z M36.3,28L36.3,28L36.3,28c0,0,0.1,0.1,0.1,0.1c0,0,0,0,0.1,0C36.4,28.1,36.3,28,36.3,28z M38.6,22.8
	c0-0.1,0-0.1,0.1-0.2C38.7,22.6,38.6,22.7,38.6,22.8L38.6,22.8C38.6,22.8,38.6,22.8,38.6,22.8z M24,24.1c0.1,0,0.1-0.1,0.2-0.1
	c0,0-0.1,0-0.1,0C24.1,24,24.1,24.1,24,24.1L24,24.1L24,24.1z M34.3,20c0.1,0,0.1-0.1,0.2-0.1c0,0-0.1,0-0.1,0
	C34.4,20,34.4,20,34.3,20L34.3,20L34.3,20z M29.3,22.2c0.1,0,0.1-0.1,0.2-0.1C29.4,22.1,29.4,22.1,29.3,22.2L29.3,22.2L29.3,22.2z
	 M20.5,21c0,0.1,0,0.1-0.1,0.2C20.5,21.1,20.5,21.1,20.5,21L20.5,21L20.5,21z M16.3,13.4c0.1,0,0.3,0,0.4,0c0,0,0.1,0.1,0.1,0.1
	c0.1,0,0.1,0,0.2,0c-0.1,0-0.1-0.1-0.2-0.1c-0.1,0-0.1,0-0.2,0C16.5,13.4,16.4,13.4,16.3,13.4L16.3,13.4L16.3,13.4z M46.8,31.5
	c0.1-0.1,0.3-0.1,0.4-0.2c0.1,0,0.1-0.1,0.2-0.1c0,0-0.1,0-0.1,0c0,0-0.1,0.1-0.1,0.1C47.1,31.4,46.9,31.4,46.8,31.5
	c0,0.1,0,0.1,0,0.2C46.7,31.6,46.8,31.6,46.8,31.5z M32.4,17.7L32.4,17.7L32.4,17.7c0-0.1-0.1-0.1-0.1-0.2c0,0,0,0.1,0,0.1
	C32.3,17.6,32.4,17.7,32.4,17.7z M22.9,30.2c-0.1,0-0.2,0.1-0.2,0.1C22.7,30.2,22.8,30.2,22.9,30.2L22.9,30.2L22.9,30.2z M31.6,29.8
	L31.6,29.8L31.6,29.8c0,0,0.1,0.1,0.1,0.1C31.7,29.9,31.7,29.8,31.6,29.8z M20.5,30.9c0,0,0.1,0.1,0.1,0.1c0,0,0,0,0.1,0
	C20.7,31,20.6,31,20.5,30.9c-0.1,0-0.1,0-0.2-0.1C20.4,30.9,20.5,30.9,20.5,30.9z M33,18.7c0.1,0,0.2,0.1,0.2,0.1c0,0,0-0.1,0-0.1
	C33.2,18.6,33.1,18.7,33,18.7c0,0-0.1-0.1-0.1-0.1c0,0-0.1-0.1-0.2-0.1c0,0.1,0,0.1,0.1,0.2C32.8,18.7,32.9,18.7,33,18.7z
	 M23.6,16.2c0-0.1-0.1-0.2-0.1-0.2c0,0-0.1,0.1-0.1,0.1C23.5,16.1,23.6,16.1,23.6,16.2c0,0.1,0,0.2,0,0.3c0,0,0.1,0,0.1,0
	C23.7,16.3,23.7,16.2,23.6,16.2z M35.7,28c0,0.1,0.1,0.1,0.1,0.2C35.8,28.1,35.7,28.1,35.7,28c0,0-0.1-0.1-0.1-0.1
	c0,0-0.1-0.1-0.2-0.1c0,0.1,0,0.2,0.1,0.2C35.6,28,35.6,28,35.7,28z M37.6,28.4L37.6,28.4L37.6,28.4c0,0.1,0.1,0.1,0.1,0.2
	c0,0,0.1-0.1,0.1-0.1C37.8,28.5,37.7,28.4,37.6,28.4z M42.3,39.7c0-0.1-0.1-0.1-0.1-0.2C42.2,39.6,42.3,39.6,42.3,39.7
	c-0.1,0.1-0.1,0.3-0.2,0.4c0,0-0.1,0.1-0.1,0.1c0,0,0,0,0,0.1c0-0.1,0.1-0.1,0.1-0.2C42.3,40,42.6,40,42.3,39.7z M58.8,37.3
	c-0.1,0.1-0.2,0.1-0.2,0.2c0,0,0,0,0.1,0.1C58.7,37.5,58.8,37.4,58.8,37.3L58.8,37.3L58.8,37.3z M24,24.7c-0.1,0-0.2,0-0.3,0
	c0,0,0,0.1,0,0.1C23.9,24.8,24,24.7,24,24.7L24,24.7L24,24.7z M24.6,33.5C24.6,33.4,24.6,33.4,24.6,33.5
	C24.6,33.4,24.6,33.4,24.6,33.5c0.1,0.1,0.1,0.2,0.2,0.3c0,0,0,0,0.1-0.1C24.8,33.6,24.7,33.5,24.6,33.5z M33.4,30.5L33.4,30.5
	L33.4,30.5c0,0,0-0.1-0.1-0.2c0,0-0.1-0.1-0.1-0.1c0,0.1,0,0.2,0,0.2C33.2,30.5,33.3,30.5,33.4,30.5z M49.7,32.5
	c-0.1,0.1-0.2,0.1-0.3,0.2c0,0,0,0,0.1,0.1C49.6,32.7,49.6,32.6,49.7,32.5L49.7,32.5C49.7,32.4,49.7,32.5,49.7,32.5z M26.4,14.8
	c0.1,0,0.1,0,0.2,0c0.1-0.1,0.2-0.1,0.3-0.2c0,0-0.1-0.1-0.1-0.1c-0.1,0.1-0.2,0.1-0.3,0.2C26.4,14.7,26.4,14.7,26.4,14.8L26.4,14.8
	L26.4,14.8z M22.9,20.8c-0.1,0-0.2,0-0.3,0.1c-0.1,0-0.1,0.1-0.1,0.2c0.1,0,0.2,0,0.2,0C22.8,21,22.8,20.9,22.9,20.8L22.9,20.8
	L22.9,20.8z M41.3,43.4L41.3,43.4L41.3,43.4c0.1,0.2,0.1,0.4,0.2,0.6c0.1,0,0.1,0,0.2,0.1c-0.1,0-0.1,0-0.2,0
	C41.6,43.7,41.8,43.4,41.3,43.4z M39.8,27.8c-0.1,0-0.2,0-0.3,0c-0.1,0-0.1,0.1-0.2,0.2c0.1,0,0.2,0.1,0.3,0
	C39.7,28,39.7,27.9,39.8,27.8c0,0,0.1,0,0.2-0.1c0,0,0.1-0.1,0.1-0.2c-0.1,0-0.1,0-0.2,0.1C39.8,27.7,39.8,27.8,39.8,27.8z
	 M56.9,30.7c0.1-0.1,0.1-0.1,0.2-0.2c0-0.1,0-0.2,0-0.3c-0.1,0.1-0.2,0.1-0.3,0.2C56.8,30.5,56.9,30.6,56.9,30.7L56.9,30.7
	L56.9,30.7z M26.6,21.6L26.6,21.6L26.6,21.6c0,0.2,0.1,0.4,0.4,0.2c0.1,0,0.1-0.1,0.1-0.2C26.9,21.6,26.8,21.6,26.6,21.6
	C26.6,21.6,26.6,21.6,26.6,21.6z M34.2,18.9L34.2,18.9L34.2,18.9c-0.1-0.1-0.1-0.2-0.2-0.2c-0.1,0-0.2-0.1-0.2,0
	c-0.1,0-0.1,0.2-0.1,0.2c0,0.1,0.1,0.1,0.2,0.1C34,19,34.1,18.9,34.2,18.9z M21.3,13.8c-0.1,0-0.2,0-0.4,0.1c-0.1,0-0.2,0.1-0.3,0.1
	c0.1,0.1,0.1,0.2,0.2,0.3c0.1,0.1,0.2,0.1,0.2,0.1c0,0.1,0,0.2-0.1,0.3c0.1,0,0.1,0,0.2,0c0-0.1-0.1-0.2-0.1-0.2
	C21.2,14.2,21.2,14,21.3,13.8L21.3,13.8L21.3,13.8z M34.3,40.1L34.3,40.1L34.3,40.1c0.1,0.2,0.3,0.4,0.4,0.6c0.1,0,0.1,0,0.2,0.1
	c-0.1,0-0.1,0-0.2-0.1c0.2-0.2,0.3-0.5,0.6-0.9C34.9,39.9,34.6,40,34.3,40.1z M25.2,25.3c0,0,0.1,0.1,0.1,0.1c0,0,0-0.1,0-0.1
	C25.3,25.3,25.3,25.3,25.2,25.3c0-0.1,0.1-0.1,0.1-0.1c0.2-0.2,0.2-0.4-0.1-0.4c-0.1,0-0.2,0.1-0.3,0.3c-0.1,0.1-0.1,0.2-0.1,0.3
	C25,25.3,25.1,25.3,25.2,25.3z M54.6,33.3c0,0.1,0,0.1,0,0.2c0,0,0.1,0.1,0.2,0.1c0,0,0-0.1-0.1-0.1C54.7,33.3,54.6,33.3,54.6,33.3
	c-0.3-0.2-0.5-0.4-0.8-0.5c0,0-0.2,0-0.2,0.1c0,0.1,0,0.2,0.1,0.2C53.9,33.1,54.3,33.2,54.6,33.3z M51.7,30.8
	C51.7,30.8,51.7,30.8,51.7,30.8c1.2,0,2.4,0,3.6,0c1.3,0,1.5-0.3,0.8-1.4c-1.1-2-2.2-3.9-3.3-5.9c-0.3-0.5-0.7-0.7-1.2-0.7
	c-1.3,0-2.6,0-3.9,0c-1,0-1.2,0.2-1.2,1.2c0,1.8,0,3.6,0,5.3c0,1.2,0.3,1.5,1.5,1.5C49.3,30.8,50.5,30.8,51.7,30.8z M47.8,34.7
	C47.8,34.7,47.8,34.7,47.8,34.7c0.3,0,0.6,0,0.9,0c0.3,0,0.5-0.2,0.5-0.5c0-0.3-0.1-0.6-0.4-0.7c-0.6-0.1-1.2,0-1.7,0
	c-0.3,0-0.5,0.3-0.5,0.6c0,0.3,0.2,0.5,0.6,0.6C47.3,34.7,47.6,34.7,47.8,34.7z M20.3,25.6c0,0,0.7,0.2,0.8,0.2c0.2,0,0.3,0,0.5-0.1
	c-0.1-0.1-0.1-0.3-0.2-0.4C20.7,24.9,20.7,24.9,20.3,25.6z M18.6,33.2c-0.3-0.1-0.4-0.2-0.5-0.3c-0.1,0-0.3-0.1-0.4,0
	c-0.1,0.1-0.1,0.3-0.1,0.4c0.1,0.1,0.3,0.2,0.5,0.2C18.2,33.5,18.3,33.4,18.6,33.2z M24.6,14.7c0.2,0.1,0.3,0.2,0.5,0.2
	c0.1,0,0.1-0.2,0.2-0.3c-0.1-0.1-0.2-0.2-0.3-0.2C24.9,14.4,24.8,14.6,24.6,14.7z M12.1,19.4c-0.3,0.2-0.5,0.4-0.3,0.7
	c0,0.1,0.2,0,0.3,0C12.1,19.9,12.1,19.7,12.1,19.4z M28,41.8c0.1,0,0.2,0,0.3,0c-0.1-0.3,0.1-0.6-0.3-0.9C28,41.3,28,41.6,28,41.8z
	 M32.2,19.3c0.1,0,0.2-0.1,0.2-0.1c-0.1-0.2-0.1-0.4-0.2-0.6c0,0-0.2,0-0.3-0.1C32,18.9,32.1,19.1,32.2,19.3z M28.1,16.7
	c0-0.2,0-0.3,0-0.3c-0.1-0.1-0.3-0.2-0.4-0.3c0,0.2,0,0.3,0.1,0.5C27.8,16.6,27.9,16.6,28.1,16.7z M40.9,33.4
	c-0.4-0.1-0.5-0.1-0.6-0.1c-0.1,0-0.2,0.1-0.3,0.2c0.1,0,0.2,0.1,0.3,0.1C40.4,33.6,40.5,33.5,40.9,33.4z M35.6,38.8
	c0,0.1-0.1,0.1,0,0.1c0.1,0.1,0.1,0.3,0.2,0.4c0,0,0.1,0,0.2-0.1C36,39.2,35.9,39,35.9,39C35.8,38.9,35.7,38.9,35.6,38.8z M15.3,31
	c-0.1-0.1-0.2-0.2-0.2-0.2c-0.1,0-0.2,0.1-0.2,0.1c0.1,0.1,0.1,0.2,0.2,0.2C15.1,31.1,15.2,31,15.3,31z M10.7,41.7
	c0-0.1,0-0.2-0.1-0.2c-0.1,0-0.2,0.1-0.3,0.1c0,0,0,0.1,0,0.1C10.4,41.8,10.6,41.7,10.7,41.7z M10.1,20.9c0,0,0-0.1-0.1-0.1
	c0,0-0.1,0.1-0.1,0.1C9.9,20.9,10,21,10,21C10.1,21,10.1,20.9,10.1,20.9z M27.3,27.8c-0.1,0-0.2-0.1-0.2-0.1c0,0-0.1,0.1,0,0.1
	c0,0,0.1,0.1,0.1,0.1C27.2,27.9,27.2,27.8,27.3,27.8z M22.6,27.3c0-0.1-0.1-0.1-0.1-0.2c-0.1,0-0.1,0.1-0.2,0.1c0,0,0,0.1,0.1,0.1
	C22.5,27.4,22.5,27.4,22.6,27.3z M20.8,29.5c0.1,0,0.1-0.1,0.2-0.1c-0.1-0.1-0.1-0.1-0.2-0.2c0,0-0.1,0-0.2,0.1
	C20.8,29.4,20.8,29.4,20.8,29.5z M23.5,25.4c-0.1,0-0.1,0-0.2,0.1c0,0.1,0,0.1,0.1,0.1c0.1,0,0.1,0,0.2-0.1
	C23.6,25.5,23.6,25.4,23.5,25.4z M37.6,32.1c0,0.1-0.1,0.1-0.1,0.2c0,0.1,0.1,0.1,0.2,0.2c0,0,0.1,0,0.1-0.1
	C37.8,32.3,37.7,32.2,37.6,32.1z M57.3,35.8c-0.1,0.2-0.2,0.2-0.2,0.3c0.1,0.1,0.1,0.1,0.2,0.2c0,0,0.1-0.1,0.1-0.1
	C57.4,36,57.4,35.9,57.3,35.8z M29.6,17C29.6,16.9,29.6,16.9,29.6,17c-0.1-0.1-0.1-0.1-0.2-0.1c0,0,0,0.1,0,0.1
	C29.5,17,29.5,17,29.6,17z M40.6,38.2c0,0-0.1-0.1-0.1-0.1c0,0-0.1,0-0.1,0.1c0,0,0.1,0.1,0.1,0.1C40.5,38.2,40.5,38.2,40.6,38.2z
	 M16,27.2c0,0-0.1-0.1-0.1,0c0,0,0,0.1-0.1,0.1c0,0,0.1,0.1,0.1,0C16,27.3,16,27.2,16,27.2z M32.5,20.8c-0.1,0-0.1-0.1-0.2-0.1
	c0,0-0.1,0.1-0.1,0.1c0,0,0.1,0.1,0.1,0.1C32.4,20.9,32.5,20.8,32.5,20.8z M34.3,28c-0.1,0-0.1-0.1-0.1-0.1c0,0,0,0.1-0.1,0.1
	c0.1,0,0.1,0.1,0.2,0.1C34.2,28.1,34.2,28,34.3,28z M32.8,13.2c-0.1-0.1-0.1-0.1-0.1-0.1c-0.1,0-0.1,0-0.2,0c0,0,0,0.1,0,0.1
	C32.6,13.2,32.7,13.2,32.8,13.2z M58.3,38.3c0,0-0.1,0.1-0.1,0.1c0,0.1,0.1,0.1,0.1,0.1c0,0,0.1-0.1,0.1-0.1
	C58.3,38.4,58.3,38.3,58.3,38.3z M27.1,20.6c0,0-0.1-0.1-0.1-0.1c0,0-0.1,0-0.1,0.1c0,0,0,0.1,0.1,0.1C27,20.7,27,20.6,27.1,20.6z
	 M31.5,20.7c0,0,0-0.1,0.1-0.1c0,0-0.1,0-0.1,0c0,0-0.1,0.1-0.1,0.1C31.4,20.7,31.4,20.7,31.5,20.7z M15.1,38.8c0,0,0.1,0,0.1-0.1
	c0,0,0-0.1,0-0.2c0,0-0.1,0-0.1,0.1C15.1,38.7,15.1,38.7,15.1,38.8z M40.8,30.6c0,0-0.1,0.1-0.1,0.1c0,0,0.1,0.1,0.1,0
	C40.8,30.8,40.8,30.7,40.8,30.6C40.8,30.7,40.8,30.7,40.8,30.6z M33.9,29.8c0-0.1,0-0.1,0-0.2c-0.1,0-0.1,0-0.2,0c0,0,0,0.1-0.1,0.1
	C33.8,29.8,33.9,29.8,33.9,29.8z M34.4,42.6C34.4,42.6,34.4,42.5,34.4,42.6c-0.1,0-0.1,0-0.2,0c0,0,0,0,0,0.1
	C34.3,42.6,34.4,42.6,34.4,42.6z M27.6,40.1c0.1,0,0.1,0.1,0.2,0.1c0,0,0.1-0.1,0-0.1c0,0-0.1-0.1-0.1-0.1
	C27.7,40,27.6,40.1,27.6,40.1z M28,26.9C28,26.9,28,26.8,28,26.9c-0.1-0.1-0.1-0.1-0.2-0.1c0,0,0,0.1,0,0.1
	C27.9,26.9,28,26.9,28,26.9z M23.4,20.1C23.4,20,23.3,20,23.3,20c-0.1,0-0.1,0.1-0.2,0.2c0.1,0.1,0.1,0.1,0.2,0.2
	C23.3,20.2,23.4,20.2,23.4,20.1z M46,24c0,0-0.1-0.1-0.1-0.1c0,0-0.1,0-0.1,0.1c0,0,0.1,0.1,0.1,0.1C45.9,24,46,24,46,24z
	 M13.2,32.8C13.1,32.8,13.1,32.8,13.2,32.8c-0.1,0,0,0.1,0,0.1C13.2,33,13.2,32.9,13.2,32.8C13.2,32.9,13.2,32.9,13.2,32.8z
	 M27.4,26.1C27.4,26.1,27.3,26.1,27.4,26.1c-0.1,0-0.1,0-0.1,0.1C27.3,26.2,27.3,26.2,27.4,26.1C27.4,26.2,27.4,26.1,27.4,26.1z
	 M16.9,34.5c0,0,0-0.1,0.1-0.1c0,0-0.1,0-0.1,0C16.9,34.4,16.8,34.5,16.9,34.5C16.8,34.5,16.9,34.5,16.9,34.5z M33.5,33
	C33.5,33,33.4,33,33.5,33c-0.1,0-0.1,0-0.1,0.1C33.4,33.1,33.4,33.1,33.5,33C33.5,33.1,33.5,33.1,33.5,33z M21.2,23.9
	C21.2,23.9,21.2,23.9,21.2,23.9C21.3,24,21.3,24,21.2,23.9C21.3,23.9,21.3,23.9,21.2,23.9C21.3,23.8,21.3,23.9,21.2,23.9z M41,41.1
	C41,41.1,41,41,41,41.1c0-0.1-0.1-0.1-0.1-0.1c0,0,0,0.1,0,0.1C40.9,41.1,40.9,41.1,41,41.1z M57.4,34.2
	C57.3,34.2,57.3,34.2,57.4,34.2c-0.1,0.1-0.1,0.1,0,0.1C57.3,34.3,57.4,34.3,57.4,34.2C57.4,34.3,57.4,34.2,57.4,34.2z M30.5,40.8
	C30.5,40.8,30.5,40.7,30.5,40.8c-0.1,0-0.1,0-0.1,0C30.4,40.8,30.4,40.8,30.5,40.8C30.5,40.8,30.5,40.8,30.5,40.8z M14.7,41.5
	C14.7,41.5,14.7,41.4,14.7,41.5c0-0.1,0-0.1-0.1-0.1C14.7,41.4,14.6,41.5,14.7,41.5C14.7,41.5,14.7,41.5,14.7,41.5z M42.3,33.6
	C42.3,33.5,42.3,33.5,42.3,33.6c0.1-0.1,0.1-0.1,0.1-0.1C42.3,33.5,42.3,33.5,42.3,33.6C42.2,33.5,42.3,33.5,42.3,33.6z M53.9,31
	C53.9,31,53.9,31,53.9,31C53.9,31,53.9,31.1,53.9,31C53.9,31.1,54,31,53.9,31C54,31,53.9,31,53.9,31z M48.1,31.1
	C48.1,31,48.1,31,48.1,31.1C48.1,31,48,31,48.1,31.1C48,31,48,31,48.1,31.1C48.1,31.1,48.1,31.1,48.1,31.1z M57.5,28.9
	C57.5,28.9,57.4,28.9,57.5,28.9c-0.1,0.1-0.1,0.1,0,0.1C57.5,29,57.5,29,57.5,28.9C57.5,28.9,57.5,28.9,57.5,28.9z M41.9,35.9
	c0,0-0.1,0.1-0.1,0.1c0,0,0,0,0,0.1C41.9,36,41.9,36,41.9,35.9C42,35.9,41.9,35.9,41.9,35.9z M16.5,38c0,0,0-0.1,0.1-0.1
	c0,0-0.1,0-0.1,0c0,0-0.1,0.1-0.1,0.1C16.4,37.9,16.5,37.9,16.5,38z M38.4,37.1C38.4,37.1,38.4,37,38.4,37.1
	C38.3,37,38.3,37,38.4,37.1C38.3,37.1,38.3,37.1,38.4,37.1C38.3,37.1,38.4,37.1,38.4,37.1z M29.6,31C29.6,30.9,29.6,30.9,29.6,31
	c0-0.1-0.1-0.1-0.1-0.1c0,0,0,0.1,0,0.1C29.5,30.9,29.5,30.9,29.6,31z M37.8,30.8C37.8,30.8,37.8,30.8,37.8,30.8
	c0.1,0.1,0.1,0,0.2,0c0,0,0,0,0-0.1C37.9,30.7,37.8,30.7,37.8,30.8z M15.3,27.4c0,0,0.1,0.1,0.1,0.1c0,0,0-0.1,0-0.1
	C15.4,27.4,15.3,27.3,15.3,27.4C15.3,27.3,15.3,27.3,15.3,27.4z M14.9,26.2C14.9,26.2,14.9,26.2,14.9,26.2c-0.1-0.1-0.1-0.1-0.2-0.1
	c0,0,0,0.1,0,0.1C14.8,26.3,14.9,26.3,14.9,26.2z M39.6,32.5C39.6,32.5,39.6,32.5,39.6,32.5c0,0.1,0,0.1,0.1,0.1
	C39.7,32.5,39.7,32.5,39.6,32.5C39.7,32.5,39.6,32.5,39.6,32.5z M18.7,31.8C18.7,31.8,18.7,31.8,18.7,31.8
	C18.7,31.7,18.7,31.8,18.7,31.8C18.7,31.8,18.7,31.8,18.7,31.8C18.7,31.8,18.7,31.8,18.7,31.8z M14.9,28.4
	C14.9,28.4,14.9,28.5,14.9,28.4C14.9,28.5,14.9,28.5,14.9,28.4C14.9,28.4,14.9,28.4,14.9,28.4C14.9,28.4,14.9,28.4,14.9,28.4z
	 M14.4,27.7C14.4,27.6,14.4,27.6,14.4,27.7c-0.1-0.1-0.1-0.1-0.1-0.1C14.3,27.6,14.3,27.7,14.4,27.7C14.4,27.7,14.4,27.7,14.4,27.7z
	 M40.4,38.8c0,0-0.1,0.1-0.1,0.1c0,0,0.1,0,0.1,0C40.4,38.9,40.4,38.9,40.4,38.8C40.4,38.8,40.4,38.8,40.4,38.8z M41.1,20.2
	C41.1,20.2,41.1,20.2,41.1,20.2C41.1,20.3,41.1,20.3,41.1,20.2C41.1,20.2,41.1,20.2,41.1,20.2C41.1,20.1,41.1,20.2,41.1,20.2z
	 M30.7,19.5C30.6,19.6,30.6,19.6,30.7,19.5c0,0.1,0,0.1,0,0.1C30.7,19.6,30.7,19.6,30.7,19.5C30.7,19.6,30.7,19.6,30.7,19.5z
	 M46.6,19.6C46.6,19.6,46.6,19.5,46.6,19.6c0-0.1-0.1-0.1-0.1-0.1C46.5,19.5,46.5,19.6,46.6,19.6C46.5,19.6,46.5,19.6,46.6,19.6z
	 M50.2,19.5C50.1,19.5,50.1,19.5,50.2,19.5c0,0.1,0,0.1,0,0.1c0,0,0,0,0.1-0.1C50.2,19.5,50.2,19.5,50.2,19.5z M38.9,44
	C38.9,44,38.9,43.9,38.9,44c-0.1-0.1-0.1-0.1-0.1-0.1C38.8,44,38.8,44,38.9,44C38.9,44,38.9,44,38.9,44z M17.9,22
	C17.9,22,17.9,22,17.9,22c-0.1,0-0.1,0-0.1,0c0,0,0,0,0,0.1C17.9,22.1,17.9,22,17.9,22z M32.9,20.9C32.9,21,32.9,21,32.9,20.9
	c0,0.1,0.1,0.1,0.1,0.1C33,21,33,21,32.9,20.9C32.9,20.9,32.9,20.9,32.9,20.9z M36.4,21.2c0,0-0.1-0.1-0.1-0.1c0,0-0.1,0.1,0,0.1
	C36.3,21.2,36.3,21.2,36.4,21.2C36.4,21.2,36.4,21.2,36.4,21.2z M24.3,17.6c0,0-0.1,0.1-0.1,0.1c0,0,0.1,0,0.1,0
	C24.3,17.8,24.3,17.7,24.3,17.6C24.3,17.7,24.3,17.7,24.3,17.6z M33.9,17.7C33.8,17.7,33.8,17.7,33.9,17.7c-0.1,0.1,0,0.1,0,0.2
	c0,0,0.1,0,0.1,0C33.9,17.8,33.9,17.7,33.9,17.7z M33.1,13.6C33.1,13.6,33.1,13.5,33.1,13.6c-0.1,0-0.1,0-0.1,0
	C33,13.6,33,13.7,33.1,13.6C33.1,13.7,33.1,13.6,33.1,13.6z M17.7,13.7c0,0-0.1-0.1-0.1-0.1c0,0,0,0-0.1,0
	C17.5,13.7,17.6,13.7,17.7,13.7C17.6,13.7,17.6,13.7,17.7,13.7z M18,13.4C18,13.4,18,13.4,18,13.4c0,0.1,0.1,0.1,0.1,0
	C18.1,13.4,18.1,13.3,18,13.4C18,13.3,18,13.4,18,13.4z M25.8,15.8C25.8,15.8,25.8,15.8,25.8,15.8c-0.1-0.1-0.1-0.1-0.1,0
	C25.7,15.8,25.7,15.8,25.8,15.8C25.8,15.9,25.8,15.8,25.8,15.8z M17.9,17.6C17.9,17.5,17.9,17.5,17.9,17.6
	C17.9,17.5,17.9,17.5,17.9,17.6C17.8,17.5,17.8,17.6,17.9,17.6C17.9,17.6,17.9,17.6,17.9,17.6z M38.6,43.3
	C38.6,43.3,38.6,43.3,38.6,43.3c0.1,0.1,0.1,0.1,0.1,0C38.7,43.3,38.7,43.3,38.6,43.3C38.6,43.3,38.6,43.3,38.6,43.3z M19.8,22.3
	c0,0,0.1,0.1,0.1,0.1c0,0,0.1,0,0-0.1c0,0-0.1-0.1-0.1-0.1C19.9,22.3,19.9,22.3,19.8,22.3z M30.8,22.8
	C30.7,22.8,30.7,22.8,30.8,22.8c0,0.1,0,0.1,0,0.2c0,0,0.1,0,0.1,0C30.8,22.9,30.8,22.8,30.8,22.8z M32.5,30.7
	C32.6,30.7,32.6,30.7,32.5,30.7c0.1,0,0.1,0,0.1,0C32.6,30.6,32.6,30.6,32.5,30.7C32.5,30.6,32.5,30.6,32.5,30.7z M38.9,30.8
	L38.9,30.8L38.9,30.8L38.9,30.8z M55.2,22.9L55.2,22.9L55.2,22.9L55.2,22.9z M30.5,30.8C30.5,30.8,30.5,30.8,30.5,30.8
	C30.4,30.8,30.4,30.8,30.5,30.8C30.5,30.9,30.5,30.9,30.5,30.8C30.5,30.9,30.5,30.8,30.5,30.8z M24.1,30L24.1,30L24.1,30L24.1,30z
	 M44.8,19.5L44.8,19.5L44.8,19.5L44.8,19.5z M11.5,29.8L11.5,29.8L11.5,29.8L11.5,29.8z M16.3,29.7L16.3,29.7L16.3,29.7L16.3,29.7z
	 M20.4,29.8L20.4,29.8L20.4,29.8L20.4,29.8z M22,23.9L22,23.9L22,23.9L22,23.9z M10.4,30.5L10.4,30.5L10.4,30.5L10.4,30.5z
	 M41.2,22.7L41.2,22.7L41.2,22.7L41.2,22.7z M25.9,30L25.9,30L25.9,30L25.9,30z M20.7,30.4C20.7,30.4,20.7,30.4,20.7,30.4
	C20.7,30.3,20.6,30.3,20.7,30.4C20.6,30.3,20.6,30.4,20.7,30.4C20.6,30.4,20.6,30.4,20.7,30.4z M13.6,14.6L13.6,14.6L13.6,14.6
	L13.6,14.6z M30,23.2L30,23.2L30,23.2L30,23.2z M28.7,33.1L28.7,33.1L28.7,33.1L28.7,33.1z M32,33.1L32,33.1L32,33.1L32,33.1z
	 M39.2,33.2L39.2,33.2L39.2,33.2L39.2,33.2z M24.3,14.1L24.3,14.1L24.3,14.1L24.3,14.1z M42.6,33.1L42.6,33.1L42.6,33.1L42.6,33.1z
	 M29.7,33.5L29.7,33.5L29.7,33.5L29.7,33.5z M24.6,15.9L24.6,15.9L24.6,15.9L24.6,15.9z M37.9,16C37.9,16,37.9,16,37.9,16
	C37.8,16,37.8,16.1,37.9,16C37.8,16.1,37.9,16.1,37.9,16C37.9,16.1,37.9,16.1,37.9,16z M33.6,14.7L33.6,14.7L33.6,14.7L33.6,14.7z
	 M18.2,14.9L18.2,14.9L18.2,14.9L18.2,14.9z M14.8,16.9L14.8,16.9L14.8,16.9L14.8,16.9z M49.8,33.4L49.8,33.4L49.8,33.4L49.8,33.4z
	 M36.3,15.3L36.3,15.3L36.3,15.3L36.3,15.3z M40.1,32L40.1,32L40.1,32L40.1,32z M39.6,13.1L39.6,13.1L39.6,13.1L39.6,13.1z
	 M34.6,18.3L34.6,18.3L34.6,18.3L34.6,18.3z M14.6,13.5L14.6,13.5L14.6,13.5L14.6,13.5z M41.9,32.4L41.9,32.4L41.9,32.4L41.9,32.4z
	 M48.7,32.4L48.7,32.4L48.7,32.4L48.7,32.4z M29.3,23.1L29.3,23.1L29.3,23.1L29.3,23.1z M32.1,26.5L32.1,26.5L32.1,26.5L32.1,26.5z
	 M13.8,26.7L13.8,26.7L13.8,26.7L13.8,26.7z M18,26.6L18,26.6L18,26.6L18,26.6z M37.3,22.4L37.3,22.4L37.3,22.4L37.3,22.4z
	 M22.3,26.2L22.3,26.2L22.3,26.2L22.3,26.2z M49.3,21.3L49.3,21.3L49.3,21.3L49.3,21.3z M16.4,26.4L16.4,26.4L16.4,26.4L16.4,26.4z
	 M23,27L23,27L23,27L23,27z M50.5,22.3L50.5,22.3L50.5,22.3L50.5,22.3z M55.2,24.4L55.2,24.4L55.2,24.4L55.2,24.4z M35.6,27.3
	L35.6,27.3L35.6,27.3L35.6,27.3z M37.9,27.4L37.9,27.4L37.9,27.4L37.9,27.4z M15,26.8L15,26.8L15,26.8L15,26.8z M26.9,26.9
	L26.9,26.9L26.9,26.9L26.9,26.9z M39.8,22.3L39.8,22.3L39.8,22.3L39.8,22.3z M49.1,22L49.1,22L49.1,22L49.1,22z M41,25L41,25L41,25
	L41,25z M41.8,22L41.8,22L41.8,22L41.8,22z M20,21.8L20,21.8L20,21.8L20,21.8z M33.4,20L33.4,20L33.4,20L33.4,20z M42.8,28.6
	L42.8,28.6L42.8,28.6L42.8,28.6z M50.1,20.2L50.1,20.2L50.1,20.2L50.1,20.2z M31.1,19.8c0,0,0,0.1,0,0.1
	C31.1,19.9,31.2,19.9,31.1,19.8C31.2,19.8,31.2,19.8,31.1,19.8z M28,19.8L28,19.8L28,19.8L28,19.8z M25.4,27.9L25.4,27.9L25.4,27.9
	L25.4,27.9z M21.4,21L21.4,21L21.4,21L21.4,21z M19.7,24.5L19.7,24.5L19.7,24.5L19.7,24.5z M26.3,20.5
	C26.3,20.5,26.4,20.6,26.3,20.5C26.4,20.5,26.4,20.5,26.3,20.5C26.4,20.5,26.4,20.5,26.3,20.5C26.3,20.5,26.3,20.5,26.3,20.5z
	 M36.9,28.2L36.9,28.2L36.9,28.2L36.9,28.2z M57.2,40.2L57.2,40.2L57.2,40.2L57.2,40.2z M39,40.2L39,40.2L39,40.2L39,40.2z
	 M30.8,37.7L30.8,37.7L30.8,37.7L30.8,37.7z M15.7,37.6C15.7,37.6,15.7,37.6,15.7,37.6C15.7,37.6,15.6,37.6,15.7,37.6
	C15.7,37.7,15.7,37.7,15.7,37.6C15.7,37.7,15.7,37.6,15.7,37.6z M29.8,37.6L29.8,37.6L29.8,37.6L29.8,37.6z M35.2,43.5L35.2,43.5
	L35.2,43.5L35.2,43.5z M17.8,36.6L17.8,36.6L17.8,36.6L17.8,36.6z M25.4,36.5C25.4,36.5,25.4,36.4,25.4,36.5
	C25.4,36.4,25.4,36.4,25.4,36.5C25.3,36.4,25.3,36.5,25.4,36.5C25.4,36.5,25.4,36.5,25.4,36.5z M53.8,36.3L53.8,36.3L53.8,36.3
	L53.8,36.3z M15.2,40.5L15.2,40.5L15.2,40.5L15.2,40.5z M54,36.8L54,36.8L54,36.8L54,36.8z M50.5,36.4L50.5,36.4L50.5,36.4
	L50.5,36.4z M51.7,36.5L51.7,36.5L51.7,36.5L51.7,36.5z M56.8,38.9L56.8,38.9L56.8,38.9L56.8,38.9z M45.3,38.5L45.3,38.5L45.3,38.5
	L45.3,38.5z M60,38.6L60,38.6L60,38.6L60,38.6z M29.3,39.2L29.3,39.2L29.3,39.2L29.3,39.2z M37.7,39.1L37.7,39.1L37.7,39.1
	L37.7,39.1z M11.4,38.1L11.4,38.1L11.4,38.1L11.4,38.1z M39.6,44.1L39.6,44.1L39.6,44.1L39.6,44.1z M41.2,37.9L41.2,37.9L41.2,37.9
	L41.2,37.9z M46.8,37.8L46.8,37.8L46.8,37.8L46.8,37.8z M45.9,38.2c0,0-0.1,0-0.1,0C45.8,38.2,45.8,38.2,45.9,38.2
	C45.8,38.2,45.8,38.2,45.9,38.2z M31.9,39.7L31.9,39.7L31.9,39.7L31.9,39.7z M36.9,41.4L36.9,41.4L36.9,41.4L36.9,41.4z M55.6,35.2
	L55.6,35.2L55.6,35.2L55.6,35.2z M49.7,33.9L49.7,33.9L49.7,33.9L49.7,33.9z M41.4,41.9L41.4,41.9L41.4,41.9L41.4,41.9z M30,42.6
	L30,42.6L30,42.6L30,42.6z M31.2,34.4L31.2,34.4L31.2,34.4L31.2,34.4z M37.2,42.4L37.2,42.4L37.2,42.4L37.2,42.4z M57.8,43.2
	L57.8,43.2L57.8,43.2L57.8,43.2z M59.5,35.6L59.5,35.6L59.5,35.6L59.5,35.6z M60.5,36L60.5,36L60.5,36L60.5,36z M55,35.7
	C55,35.7,54.9,35.7,55,35.7C54.9,35.7,54.9,35.7,55,35.7C55,35.7,55,35.7,55,35.7z M54.2,35.7L54.2,35.7L54.2,35.7L54.2,35.7z
	 M13.7,41.1C13.7,41.1,13.7,41,13.7,41.1C13.7,41,13.6,41,13.7,41.1C13.6,41.1,13.6,41.1,13.7,41.1C13.6,41.1,13.7,41.1,13.7,41.1z"
	/>
<path id="XMLID_3741_" d="M18.8,48.8c-1.3-0.7-1.8-1.8-2-3.1c-0.3-2.2,0.5-3.9,2.4-5c1.7-1.1,3.6-1.1,5.3,0.1c1.8,1.2,2.4,3.1,2,5.2
	c-0.4,1.9-1.6,3.2-3.5,3.7C21.4,50.1,20,49.8,18.8,48.8C18.8,48.8,18.8,48.8,18.8,48.8c0-0.1,0-0.2,0-0.2l0,0l0,0
	C18.8,48.7,18.8,48.8,18.8,48.8z M19.4,46.3L19.4,46.3C19.4,46.2,19.4,46.3,19.4,46.3C19.4,46.3,19.3,46.3,19.4,46.3
	C19.3,46.3,19.4,46.3,19.4,46.3z M24.2,48.8L24.2,48.8L24.2,48.8L24.2,48.8L24.2,48.8z M19.2,43c-0.1,0.1-0.1,0.3-0.2,0.4l0,0l0,0
	C19.3,43.3,19.3,43.2,19.2,43L19.2,43L19.2,43z M21.7,43c-1,0-1.9,0.8-2,1.7c0,1,0.8,2,1.8,2c1.1,0,1.9-0.8,2-1.8
	C23.5,43.9,22.7,43,21.7,43z M24.4,41.9c-0.1-0.1-0.1-0.2-0.2-0.2c-0.1,0-0.1,0.1-0.2,0.1c0,0.1,0.1,0.2,0.1,0.2
	C24.2,42,24.3,41.9,24.4,41.9z M18.2,43.4c-0.1,0.1-0.1,0.1-0.2,0.2c0.1,0,0.2,0.1,0.2,0.1c0,0,0.1-0.1,0.1-0.1
	C18.4,43.5,18.3,43.4,18.2,43.4z M18.5,46.9c0,0,0.1,0.1,0.1,0.1c0,0,0.1,0,0-0.1c0,0-0.1-0.1-0.1-0.1
	C18.6,46.8,18.5,46.8,18.5,46.9z M19.1,44.2C19.1,44.2,19.1,44.1,19.1,44.2c0-0.1-0.1-0.1-0.1-0.1C19,44.2,19,44.2,19.1,44.2
	C19,44.2,19.1,44.2,19.1,44.2z M24.6,47.4L24.6,47.4L24.6,47.4L24.6,47.4z M18.3,47.5L18.3,47.5L18.3,47.5L18.3,47.5z M23.2,48.4
	L23.2,48.4L23.2,48.4L23.2,48.4z M22.6,49.4L22.6,49.4L22.6,49.4L22.6,49.4z M20.2,49L20.2,49L20.2,49L20.2,49z"/>
<path id="XMLID_3731_" d="M51.1,49.7c-2.3,0-5-1.8-5-5c0-2.5,2-4.8,5.2-4.8c2.1,0,4.8,1.9,4.8,4.9C56,47.8,53.4,49.9,51.1,49.7z
	 M52.2,47.5L52.2,47.5L52.2,47.5c0,0.1,0,0.1,0,0.2c0,0,0,0,0,0.1c0,0,0,0,0-0.1c0.1,0,0.1,0,0.2,0l0,0.1l-0.1,0
	C52.4,47.6,52.3,47.5,52.2,47.5z M53,42.8c0,0-0.1,0.1-0.1,0.1c0,0,0,0,0,0.1C52.9,42.9,53,42.8,53,42.8L53,42.8
	C53.1,42.7,53,42.8,53,42.8z M54.2,45.3C54.2,45.3,54.2,45.3,54.2,45.3C54.2,45.3,54.2,45.3,54.2,45.3c0-0.1,0-0.1,0-0.2
	c0-0.1-0.1-0.1-0.1-0.2c0,0.1,0,0.2,0,0.2C54.1,45.2,54.1,45.3,54.2,45.3z M51.1,46.7c1.1,0,1.9-0.8,1.9-1.9c0-0.9-0.9-1.9-1.9-1.9
	c-1,0-1.9,0.9-1.9,1.9C49.3,45.9,50.1,46.7,51.1,46.7z M48.5,45.1c0,0,0.1,0.1,0.1,0.1c0,0,0-0.1,0-0.1
	C48.6,45.1,48.5,45.1,48.5,45.1C48.5,45.1,48.5,45.1,48.5,45.1z M49.5,47.8L49.5,47.8L49.5,47.8L49.5,47.8z M48.1,46.4L48.1,46.4
	L48.1,46.4L48.1,46.4z M53.9,42L53.9,42L53.9,42L53.9,42z"/>
</svg>
