<?xml version="1.0" encoding="utf-8"?>
<!-- Generator: Adobe Illustrator 19.0.0, SVG Export Plug-In . SVG Version: 6.00 Build 0)  -->
<svg version="1.1" id="Layer_1" xmlns="http://www.w3.org/2000/svg" xmlns:xlink="http://www.w3.org/1999/xlink" x="0px" y="0px"
	 viewBox="0 0 198.4 198.4" style="enable-background:new 0 0 198.4 198.4;" xml:space="preserve">
<path id="XMLID_354_" d="M84.8,103.2c-0.8-0.6-1.5-1.2-2.2-1.7c-0.4-0.3-1-0.5-1.4-0.7c-0.1,0.1-0.2,0.1-0.2,0.1
	c-0.6,0.8-0.9,1-2,0.4c-0.8-0.4-1.6-0.9-2.3-1.3c-0.5-0.3-0.6-0.7-0.6-1.3c0.2-2.9,1.1-5.7,2.4-8.3c0.7-1.5,1.5-3,2.5-4.4
	c0.2-0.3,0.5-0.6,0.7-0.8c0.3-0.4,0.7-0.4,1.1-0.2c1.1,0.6,2.3,1.1,3.4,1.7c0.5,0.3,0.6,0.5,0.3,1.2c0.9,0.4,1.8,0.5,2.7,0.3
	c1.1-0.2,2.2-0.5,3.4-0.7c1.4-0.3,2.8-0.1,4.1,0.4c0.2,0.1,0.4,0.1,0.6,0.3c0.3,0.2,0.6,0.1,1-0.1c0.5-0.3,1.1-0.6,1.6-0.9
	c1.4-0.7,2.8-0.9,4.3-0.4c1.7,0.5,3.4,1,5.1,1.5c0.7,0.2,1.3,0.3,2,0c0.2-0.1,0.4-0.2,0.7-0.3c0-0.2,0-0.3,0-0.4
	c-0.1-0.4,0.1-0.7,0.4-0.8c1.2-0.6,2.3-1.2,3.5-1.8c0.3-0.2,0.7-0.1,0.9,0.2c0.3,0.3,0.6,0.6,0.8,0.9c1.8,3,3.4,6.1,4.2,9.6
	c0.2,1,0.3,2.1,0.5,3.2c0.1,0.7-0.2,1.1-0.8,1.4c-0.9,0.4-1.7,0.9-2.6,1.3c-0.9,0.4-1,0.4-1.7-0.4c-0.1-0.1-0.1-0.1-0.2-0.3
	c-0.9,0.2-1.8,0.2-2.5,0.9c-0.5,0.5-1.1,0.9-1.7,1.3c-0.3,0.2-0.4,0.5-0.5,0.9c-0.1,1.1-0.5,2-1.5,2.6c-0.4,0.2-0.9,0.2-1.4,0.3
	c-0.6,2-2,2.7-3.5,2.3c-0.2,0.7-0.6,1.4-1.3,1.7c-0.7,0.3-1.4,0.3-2.2,0c-0.5,0.8-1.1,1.4-2,1.5c-0.9,0.1-1.7-0.2-2.4-0.5
	c-1.4,1.2-3.1,1.2-4.3-0.5c-0.7,0.2-1.4,0.2-2-0.1c-0.7-0.3-1.1-0.9-1.3-1.6c-2.2,0.3-3.2-0.7-3.4-2.7c-0.9,0-1.6-0.4-2.1-1.2
	C84.4,104.9,84.6,104.1,84.8,103.2z M107.4,105c-0.7-0.6-1.3-1.1-1.9-1.6c-0.9-0.8-1.8-1.5-2.7-2.3c-0.2-0.2-0.4-0.4-0.5-0.6
	c0-0.1,0-0.3,0.1-0.4c0.1-0.1,0.3-0.1,0.4-0.1c0.2,0.1,0.4,0.3,0.7,0.5c1.3,1,2.7,2.1,4,3.2c0.3,0.2,0.6,0.3,0.9,0.2
	c0.9-0.2,1.4-0.7,1.9-1.5c-0.1-0.1-0.1-0.1-0.2-0.2c-2.9-2.3-5.9-4.6-8.8-7c-0.4-0.3-0.8-0.3-1.2-0.2c-0.6,0.1-1.2,0.2-1.7,0.3
	c-0.6,0-0.9,0.3-1.2,0.7c-0.5,0.7-1.1,1.5-1.7,2.1c-1.1,1-2.4,1.4-3.8,1.1c-1.3-0.3-1.9-1.1-1.7-2.2c0.1-0.4,0.2-0.7,0.4-1
	c0.8-1.4,1.6-2.8,2.3-4.2c0.4-0.7,0.9-1.2,1.5-1.6c0.4-0.2,0.7-0.5,1.1-0.8c-0.6-0.4-1.2-0.6-1.8-0.5c-1.1,0.2-2.2,0.4-3.4,0.7
	c-0.6,0.1-1.2,0.3-1.8,0.3c-0.6,0-0.9,0.3-1.2,0.8c-0.8,1.6-1.5,3.3-2.3,4.9c-0.6,1.4-1.2,2.9-1.8,4.3c0.4,0.4,0.8,0.8,1.2,1.1
	c0.4,0.4,0.8,0.7,1.2,1.1c0.6-0.9,1.3-1.8,2.4-1.8c1.1,0,1.8,0.8,2.4,1.7c0.8-0.5,1.5-0.6,2.3-0.3c0.8,0.3,1.3,1,1.4,1.9
	c0.8,0,1.5,0,2.1,0.6c0.5,0.5,0.9,1.1,0.8,1.9c0.8,0,1.6,0.2,2.1,0.8c0.5,0.6,1.2,1,1.8,1.4c0.5,0.3,1,0.3,1.5,0.1
	c0.7-0.3,1.1-0.8,1.3-1.5c-0.2-0.1-0.3-0.3-0.5-0.4c-1.1-0.8-2.2-1.7-3.3-2.5c-0.2-0.2-0.4-0.4-0.6-0.7c0.4-0.4,0.4-0.4,0.8-0.2
	c0.5,0.3,0.9,0.6,1.4,1c1,0.7,2,1.4,3,2.1c0.8,0.5,1.7,0.4,2.3-0.3C107,105.6,107.1,105.4,107.4,105z M92.9,97.9
	c1.4-0.2,2.5-1,3.1-2.3c0.3-0.6,0.5-1.1,0.8-1.6c0.1-0.3,0.3-0.4,0.6-0.4c1.6-0.1,3.2-0.3,4.6-1.3c0,0,0.1,0,0.2,0
	c-0.2,0.5-0.4,1-0.6,1.5c0.3,0.2,0.7,0.5,1,0.7c1.2,0.9,2.4,1.8,3.6,2.7c0.9,0.7,2,1.2,3.2,1.1c0.4,0,0.8,0.1,1.2,0.1
	c-0.5,0.5-1.1,0.3-1.7,0.7c1,0.9,2,1.7,3.1,2.6c1.1-0.6,1.9-1.4,2.5-2.4c0.2-0.3,0.2-0.8,0.1-1.1c0-0.4-0.1-0.7-0.3-1.1
	c-0.5-1.2-0.9-2.5-1.5-3.7c-0.4-0.9-0.9-1.8-1.4-2.7c-0.2-0.4-0.5-0.7-1-0.7c-0.3,0-0.7-0.1-1-0.2c-1.9-0.5-3.9-1-5.8-1.5
	c-1.2-0.3-2.4-0.2-3.5,0.4c-1,0.5-2,1-3,1.5c-0.7,0.4-1.4,0.7-2.1,1.2c-0.3,0.2-0.6,0.5-0.8,0.8c-0.5,0.9-1,1.7-1.5,2.6
	c-0.1,0.1-0.1,0.3-0.2,0.4c0.6,0.2,1.1,0.3,1.7,0.5C93.8,96.4,93.4,97.1,92.9,97.9z M111.9,89.4c1,1.6,1.8,3.2,2.6,4.9
	c0.8,1.7,1.4,3.4,1.7,5.2c0.3,0,0.6-0.1,0.8-0.1c-0.9-3.6-2.4-7-4.4-10.1C112.4,89.3,112.1,89.4,111.9,89.4z M89.7,104
	c-0.4,0.7-0.8,1.3-1.2,1.9c-0.1,0.2-0.1,0.4-0.2,0.6c-0.1,0.6,0.3,1.4,0.8,1.6c0.5,0.2,1.1,0,1.5-0.6c0.5-0.7,0.9-1.4,1.4-2.2
	C90.7,105.6,89.9,105.2,89.7,104z M92.8,106.4c-0.4,0.6-0.8,1.2-1.1,1.9c-0.1,0.2-0.2,0.5-0.1,0.8c0.2,0.5,0.5,0.8,1,0.9
	c0.5,0.1,0.9-0.1,1.2-0.5c0.5-0.8,1.1-1.6,1.6-2.4C94,107.5,93.4,107.4,92.8,106.4z M85.9,89.1c-1.2,1.7-4,8.3-4.4,10.3
	c0.5,0.1,0.5,0.1,0.7-0.4c1-2.9,2.2-5.7,3.6-8.5c0.2-0.4,0.4-0.8,0.7-1.2C86.3,89.3,86.1,89.2,85.9,89.1z M96.1,108.3
	c-0.4,0.6-0.7,1.2-1,1.7c-0.3,0.6-0.2,0.9,0.3,1.2c0.5,0.3,1,0.2,1.4-0.2c0.5-0.5,0.9-1.1,1.3-1.8C97.1,109.6,96.5,109.2,96.1,108.3
	z M88,101.5c-0.6,0-1.2,0.6-1.2,1.3c0,0.5,0.5,1,1.1,1c0.7,0,1.2-0.5,1.2-1.1C89.1,102.1,88.6,101.5,88,101.5z M86.3,102.7
	c-0.2,0.5-0.4,1-0.5,1.6c-0.1,0.5,0.1,0.9,0.6,1.1c0.5,0.2,0.9,0.2,1.2-0.3c0.3-0.4,0.5-0.8,0.9-1.2
	C87.1,104.2,86.5,103.9,86.3,102.7z M91.5,102.9c-0.5-0.1-0.7,0.4-1,0.7c-0.3,0.3-0.2,0.7-0.1,1c0.1,0.3,0.4,0.4,0.8,0.4
	c0.5,0,0.8-0.3,1.1-0.6c0.3-0.3,0.4-0.6,0.2-1C92.3,103,92,102.8,91.5,102.9z M94.3,107c0.7,0,1.2-0.4,1.3-1c0.1-0.3,0-0.7-0.3-0.9
	c-0.3-0.2-1-0.2-1.2,0c-0.3,0.3-0.5,0.7-0.6,1c-0.1,0.1,0,0.4,0.1,0.5C93.9,106.8,94.2,106.9,94.3,107z M91.3,97.4
	c0.1,0.1,0.1,0.1,0.2,0.1c0.7,0.1,1.8-0.8,1.9-1.4c0-0.3-0.2-0.6-0.5-0.7c-0.3-0.1-0.5,0-0.6,0.2C91.9,96.3,91.6,96.9,91.3,97.4z
	 M97.4,107.4c-0.3,0-0.8,0.5-0.8,0.8c0,0.3,0.4,0.6,0.7,0.6c0.4,0,0.9-0.5,0.9-0.9C98.2,107.6,97.8,107.4,97.4,107.4z M101.1,109.8
	c-0.5-0.3-1-0.5-1.4-0.8c-0.3,0.5-0.5,1-0.7,1.4C99.7,110.7,100.3,110.3,101.1,109.8z M102.3,109.3c0.2,0.3,0.5,0.3,0.8,0.1
	c0.6-0.3,1-0.7,1.3-1.2c0.1-0.1,0-0.2,0.1-0.4C103.7,108.3,103,108.8,102.3,109.3z M108.9,104.7c1.1,0.1,2.3-0.6,2.3-1.4
	C110.6,104,109.8,104.5,108.9,104.7z M106,107.3c1.2,0.3,2-0.2,2.3-1.2c-0.5,0.3-0.8,0.9-1.4,1c0-0.1,0-0.2,0.1-0.3
	c-0.2,0.1-0.3,0.2-0.5,0.3C106.3,107.2,106.2,107.2,106,107.3z M108.6,104.3c1.2-0.2,2.2-0.9,2.2-1.5
	C110.1,103.3,109.4,103.8,108.6,104.3z M109.3,105.2c0.8,0.3,1.6-0.1,1.5-0.8C110.4,104.7,109.9,104.9,109.3,105.2z M105.5,106.9
	c0.8,0,1.7-0.6,2.2-1.5C107.1,105.9,106.3,106.4,105.5,106.9z"/>
</svg>
