<?xml version="1.0" encoding="utf-8"?>
<!-- Generator: Adobe Illustrator 19.0.0, SVG Export Plug-In . SVG Version: 6.00 Build 0)  -->
<svg version="1.1" id="Layer_1" xmlns="http://www.w3.org/2000/svg" xmlns:xlink="http://www.w3.org/1999/xlink" x="0px" y="0px"
	 viewBox="87 68.8 24.4 60.5" style="enable-background:new 87 68.8 24.4 60.5;" xml:space="preserve">
<path id="XMLID_401_" d="M99.3,129.3c-2.7,0-5.4-0.1-8.1-0.8c-1.1-0.3-2.2-0.6-3.1-1.2c-0.7-0.5-1.1-1.1-1.1-2c0-1.1,0-2.2,0-3.2
	c0-0.9,0.3-1.4,1.1-1.6c1.3-0.4,2.6-0.6,3.8-0.9c0.3-0.1,0.6-0.1,0.9-0.3c1.4-0.9,1.7-2.9,0.8-4.3c-0.7-1.1-0.8-1.9-0.1-2.8
	c0.6-0.7,0.6-1.5,0.4-2.3c-0.2-1.5-0.9-2.9-2-4c-1.2-1.2-1.2-2.4-0.2-3.7c0.4-0.5,0.9-1.1,1.3-1.6c1.3-1.6,1.7-3.5,1.6-5.5
	c-0.1-1.8-0.7-3.4-1.5-5c-1-2-2-4-2.9-6.1c-1-2.3-1.3-4.8-1.1-7.3c0.2-2.3,1-4.5,3-6c1.3-1,2.8-1.5,4.4-1.7s3.2-0.3,4.7-0.1
	c2.3,0.2,4.3,0.9,5.9,2.6c1.2,1.3,1.8,3,2.1,4.7c0.5,3.4-0.5,6.6-2,9.6c-0.9,1.8-1.8,3.6-2.6,5.4c-0.7,1.8-1.1,3.6-0.8,5.6
	c0.2,1.6,1,3,2,4.3c0.3,0.4,0.6,0.8,0.8,1.2c0.8,1.3,0.7,2.6-0.4,3.8c-1.3,1.4-1.9,3-2,4.9c0,0.5,0.1,0.9,0.4,1.3
	c0.7,1,0.8,2.1,0,3.1c-0.7,1-0.3,2,0,2.9c0.2,0.8,0.7,1.2,1.5,1.3c1.2,0.2,2.4,0.5,3.6,0.9c1.6,0.5,1.8,1.2,1.7,2.3
	c-0.1,1-0.1,2.1,0,3.2c0,0.5-0.2,0.9-0.5,1.2c-1,0.9-2.2,1.3-3.5,1.6C104.8,129.2,102.1,129.3,99.3,129.3z M103.6,114.4
	c0-0.1,0.1-0.3,0-0.3c-0.2-0.2-0.5-0.2-0.5-0.5l-0.2-0.1c-0.5,0-1,0-1.5,0.1c-1.1,0.1-2.3,0.3-3.4,0.2c-0.6-0.1-1.2-0.1-1.8-0.2
	c-0.5-0.1-0.9-0.1-1.4-0.2c-0.3,0-0.4,0.1-0.3,0.3c0.1,0.6,0.5,0.9,1.1,0.9c0.2,0,0.4,0,0.6,0c0.6,0.1,1.2,0.3,1.7,0.3
	c1.2,0,2.4-0.1,3.7-0.2C102.2,114.8,103,114.9,103.6,114.4L103.6,114.4z M95.8,127.4c1.9,0,3.8,0,5.7,0v-0.1c-1.2,0-2.4,0-3.5,0
	c0-0.1,0-0.1,0-0.2c1.6,0,3.2,0,4.8,0V127c-2.3-0.1-4.7-0.2-7-0.3c0-0.1,0-0.1,0-0.2c0.4,0,0.7,0,1.1,0c1.8,0,3.5,0,5.3,0
	c0.3,0,0.6-0.1,1-0.2c-2.2-0.1-4.4-0.3-6.5-0.4c0-0.1,0-0.1,0-0.2c2,0.1,4,0.4,6-0.1c-0.7,0-1.3,0-2,0s-1.3,0.1-2,0.1v-0.1
	c1.3-0.1,2.7-0.2,4-0.3v-0.1c-2.3,0-4.5,0-6.8,0c0-0.1,0-0.1,0-0.2c2.2,0,4.4,0,6.7,0c0-0.1,0-0.1,0-0.2c-1.8,0-3.6,0-5.4,0
	c1.9-0.2,3.7,0.1,5.6-0.4c-1.9,0-3.7,0-5.6,0c0.3-0.1,0.6-0.1,1-0.1c3,0,6-0.2,9-0.8c0.7-0.1,1.3-0.2,2-0.4c0.1,0,0.2,0,0.2,0.1
	l-0.1,0.1c-0.1,0.1-0.1,0.1-0.2,0.2c0.1,0,0.2,0,0.3,0h0.1c0,0.1-0.1,0.2-0.1,0.2c-0.3,0.1-0.5,0.1-0.8,0.1c0.1,0.1,0.2,0.2,0.2,0.2
	c0.2,0,0.4,0,0.6,0c-0.2,0.1-0.4,0.1-0.6,0.2c0,0-0.1,0-0.1,0.1c0.3,0.1,0.6,0.2,0.9,0.3c-0.3,0.2-0.5,0.4-0.8,0.5
	c-0.1,0-0.1,0-0.2,0.1v0.1c0.2,0,0.4,0,0.7,0c-0.3,0.1-0.5,0.2-0.7,0.3v0.1c0.2,0,0.5-0.1,0.7-0.1v0.1c-0.3,0.1-0.5,0.3-0.8,0.4
	c0.4,0.2,0.8-0.4,1.2,0c0-0.1,0.1-0.1,0.1-0.2c0.1-1.1,0.1-2.2,0.1-3.3c0-0.3-0.2-0.5-0.5-0.3c-2.5,1-5.1,1.2-7.8,1.4
	c-2.7,0.2-5.4,0.2-8-0.1c-1.1-0.1-2.3-0.2-3.4-0.7c-0.3-0.1-0.6-0.2-0.9-0.2v0.1c0.7,0.3,1.3,0.6,2.1,1c-0.6,0-1.1,0.1-1.5,0
	c-0.3-0.1-0.3,0.1-0.3,0.2s0.1,0.2,0.2,0.3c0.4,0.1,0.9,0.2,1.3,0.2v0.1c-0.5,0-1,0-1.5,0v0.1c0.7,0.1,1.3,0.2,2,0.4
	c0,0.1,0,0.1,0,0.2c-0.7-0.1-1.4-0.2-2-0.3c0.7,0.6,1.7,0.2,2.4,0.7c-0.9-0.1-1.8-0.2-2.7-0.3c0,0.1,0,0.1,0,0.2c1,0.2,2,0.2,3,1
	c-1.1-0.2-2.1-0.3-3.1-0.5c0,0.1,0,0.2,0,0.2c4.7,1.6,9.5,1.7,14.4,1.3C100.8,127.6,98.3,127.9,95.8,127.4z M102.6,118.1
	L102.6,118.1c-0.2,0.1-0.3,0.2-0.3,0.2c0.1,0,0.2,0,0.3,0c0.1,0,0.1,0,0.2,0c-0.1,0-0.1,0.1-0.2,0.1c0,0.1-0.1,0.2-0.1,0.2
	c0.2,0.4,0.2,1,0.5,1.2c0.6,0.4,0.6,1.3,1.5,1.3l0.1,0.2c-0.1,0.4,0.1,0.4,0.4,0.4c0.2,0,0.4,0,0.7,0c-2,0.4-4.1,0.8-6.1,0.4
	c0.7,0,1.4,0,2.2,0c-0.8-0.1-1.6-0.1-2.5-0.1c-0.4,0-0.9,0-1.3-0.1c-0.1,0-0.1-0.2-0.2-0.3c0.1,0,0.2-0.1,0.2-0.1
	c0.6,0,1.2-0.1,1.8-0.1c-0.7-0.1-1.4-0.1-2.1-0.1c-0.2,0-0.4-0.1-0.6-0.1c0-0.1,0-0.1,0-0.2c1.6-0.1,3.2-0.2,4.9-0.3
	c-1.3-0.2-2.7,0.3-4-0.3c0.5,0,1.1,0,1.6,0v-0.1c-0.6,0-1.3,0-1.9,0v-0.1c0.3,0,0.7-0.1,1-0.1V120c-0.5,0-0.9,0-1.4,0
	c1.3-0.1,2.7,0,4-0.4c-1,0-2.1,0-3.3,0c0.9-0.1,1.7-0.2,2.5-0.2v-0.1c-1,0-2,0-2.9,0v-0.1c0.8,0,1.6-0.1,2.5-0.1V119
	c-0.3,0-0.6-0.1-0.9-0.1v-0.1c0.3,0,0.6,0,0.9-0.1c0,0,0,0,0-0.1c-0.7-0.1-1.4-0.1-2.2-0.2v-0.1c0.8,0,1.5,0,2.3,0l0,0
	c-0.4-0.1-0.9-0.2-1.3-0.2V118c0.5,0,1,0,1.5,0c0-0.1,0-0.1,0-0.2c-0.7,0-1.5,0-2.2,0c0,0,0,0,0-0.1c0.6-0.1,1.3-0.2,1.9-0.2
	c0-0.1,0-0.1,0-0.2c-0.7-0.2-1.5,0-2.1-0.3c0.6,0,1.3,0,1.9,0c0-0.1,0-0.1,0-0.2c-0.3,0-0.5-0.1-0.8-0.1c-0.1,0-0.4,0-0.4-0.1
	c-0.2-0.6-0.7-0.2-1-0.3c-0.5-0.3-0.8,0-1.1,0.4c0-0.2,0-0.4,0-0.6c-0.1,0-0.1,0-0.2,0c0,0.3,0,0.5-0.1,0.8c0,0.1-0.1,0.2-0.2,0.2
	s-0.3,0-0.3-0.1c-0.1-0.2-0.2-0.4-0.3-0.6c0,0.3,0,0.5,0,0.7c-0.1,1.8-1,3-2.7,3.5c-0.8,0.3-1.7,0.4-2.6,0.7
	c0.3,0.2,0.6,0.3,0.9,0.4c2.5,0.6,5.1,0.7,7.7,0.8c2.7,0,5.4-0.3,8.1-0.8c0.3,0,0.5-0.2,0.8-0.3c0-0.1,0-0.1,0-0.2
	c-0.3,0-0.7-0.1-1-0.1c-1-0.1-1.9-0.4-2.5-1.2c-0.3-0.5-0.6-1.1-0.8-1.6c-0.2-0.5-0.3-1.1-0.5-1.6c-0.1-0.1-0.3-0.3-0.5-0.3
	s-0.4,0.1-0.6,0.1c0.1,0.1,0.2,0.1,0.4,0.1c0.1,0,0.2,0,0.5,0c-0.3,0.1-0.4,0.2-0.6,0.3c0.3,0,0.4,0,0.6,0c-0.3,0.2-0.4,0.3-0.4,0.6
	C102.2,118.3,102.5,117.8,102.6,118.1z M97.9,83.3c-0.1-0.1-0.3-0.2-0.4-0.3c-2.6-2.1-2.3-7,0-8.9c1.1-0.9,2.6-0.8,3.4,0.3
	c0.7,0.9,0.9,1.9,0.5,3c-0.2,0.6-0.5,0.9-1.1,1.2c-0.5,0.2-1,0-1.1-0.6c0-0.2,0-0.4-0.1-0.7c-0.6,0.5-0.4,0.9-0.2,1.4
	c0.2,0.4,0.5,0.7,1,0.6c0.4-0.1,0.9-0.3,1.3-0.6c0.9-0.7,1.2-1.8,1.1-2.9c-0.1-1-0.5-2-1.4-2.6c-1.7-1-3.7-0.4-4.5,1.4
	c-0.4,0.9-0.6,1.8-0.9,2.7c-0.4,1.1-0.4,2.2,0,3.3C95.8,81.9,96.5,83,97.9,83.3z M97.4,86.4L97.4,86.4c-0.5-1-1-1.9-1.6-2.7
	c-1.7-2.4-2.4-5-2.2-7.9c0.1-1.1,0.3-2.2,0.8-3.2c0.1-0.1,0.1-0.3,0.2-0.4c-0.8,0.7-1.2,1.5-1.5,2.5c-0.3,1.2-0.2,2.5,0,3.7
	C93.6,81.6,95.4,84.1,97.4,86.4z M99.9,77c0.1,0,0.1,0,0.2,0c0-0.2,0.1-0.3,0.1-0.5c0.2-0.9-0.5-1.7-1.4-1.5
	c-0.7,0.1-1.3,0.6-1.6,1.3c-0.6,1.3-0.7,2.6-0.3,4c0.2,0.7,0.6,1.3,1.4,1.7c-0.1-0.2-0.1-0.3-0.2-0.3c-0.8-1-1.1-2.1-0.7-3.4
	c0.2-0.8,0.4-1.5,1-2.1c0.5-0.5,1-0.4,1.3,0.3C99.7,76.6,99.8,76.8,99.9,77z M95.7,101.7c1-1,1.6-2.3,1.7-3.7c0.2-1.7,0-3.5-0.5-5.2
	c-0.4-1.4-1-2.8-2.1-3.8c0.7,1.3,1.4,2.7,1.7,4.2c0.6,2.5,0.8,3.7,0.5,4.5c-0.1-0.5-0.1-0.8-0.2-1.2C97,98.4,96.5,100.1,95.7,101.7z
	 M94,86.1c1.2,0.6,2.3,1.2,2.9,2.2c0.7,1,1.2,2.1,1.8,3.1C99,88.9,96.2,86,94,86.1z M103.2,84.5c-2.2,0.6-3.9,5.2-3.6,7.8
	C100.3,89.6,100.8,86.7,103.2,84.5z M92.8,103.9c0.2,0.1,0.4,0.2,0.6,0.4c1.3,0.7,2.8,0.9,4.2,0.9c1.7,0,3.4-0.2,5.1-0.3
	c0.9-0.1,1.8-0.4,2.2-0.7C100.9,105.1,96.9,105.3,92.8,103.9z M103.6,77.2c-0.2,1.6-0.8,3-1.6,4.4c-0.4,0.8-0.9,1.5-1.3,2.3
	c-0.3,0.5-0.5,1.1-0.7,1.6c0.4-0.3,0.6-0.7,0.9-1.1c0.7-1.3,1.5-2.5,2.1-3.8C103.5,79.5,103.8,78.4,103.6,77.2z M94.7,75.9
	c0.4-1,0.7-2,1.5-2.9s1.7-1.4,2.9-1.5c1.1-0.1,2.1,0.3,3,0.8c-0.2-0.2-0.5-0.4-0.7-0.6c-1-0.8-2.1-0.9-3.3-0.4
	c-0.9,0.4-1.6,1-2.3,1.7C95.1,73.8,94.7,74.8,94.7,75.9z M97.8,99.8c1.3-1.4,1.3-6.5-0.2-8.4C98.7,94.3,98.7,97,97.8,99.8z
	 M104.1,71.2c1.9,2.4,1.8,5.2,1.7,8c0.1-0.6,0.2-1.2,0.3-1.8c0.1-1.7,0-3.3-0.7-4.8C105,72,104.7,71.5,104.1,71.2z M94,71.3
	c-0.7,0.4-1.1,1-1.5,1.6c-1,1.6-0.8,3.3-0.7,5.1c0,0.4,0.2,0.8,0.3,1.3C91.7,75.2,92.1,73.4,94,71.3z M101.6,70.7
	c1,0.8,1.8,1.6,2.3,2.7s0.5,2.2,0.5,3.4C105.4,74.5,103.7,71,101.6,70.7z M90.8,76.3c-0.2,3.5,0.8,6.6,2.3,9.7
	C91.9,82.8,91,79.6,90.8,76.3z M94.3,105.6c2.9,1,5.8,0.8,8.8,0.2C100.1,106.2,97.2,106.1,94.3,105.6z M100.2,82.5
	c-1.6,1-2.1,3.2-1.1,4.4C98.8,85.3,99.4,83.9,100.2,82.5z M95.9,112.7c1.5,0.5,5.4,0.5,6.6,0C100.4,112.7,98.1,112.7,95.9,112.7z
	 M93.9,101.8c1.3-1,2.1-2.4,2.1-4.1c-0.3,0.7-0.5,1.4-0.9,2.1C94.8,100.5,94.3,101.1,93.9,101.8z M95,103.4c1.5-0.2,2.8-1.4,2.9-2.6
	C97.2,102,96.1,102.7,95,103.4z M101.3,94.7c0.6-1.7,1.1-3.5,1.7-5.4C102.1,90.9,101.3,93.5,101.3,94.7z M100.5,99.2
	c0-1.1-0.1-2.2-0.1-3.3c0-1.1,0.2-2.2,0.4-3.3C100.1,94.8,100.1,97,100.5,99.2z M103,102.2c-0.6-1.4-1.2-2.7-1.7-4
	C101.4,99.7,102,101,103,102.2z M97.5,90.5c-0.3-1-0.7-1.9-1.9-2.3C96.2,89,96.8,89.7,97.5,90.5z M97,111.2c0.1,0,0.1,0,0.2-0.1
	c-0.1-1.2-0.4-2.3-1-3.3C96.5,108.9,96.7,110.1,97,111.2z M99.3,100.4c-0.5,0.9-1,1.8-1.5,2.8C98.8,102.5,99.1,101.5,99.3,100.4z
	 M98,110.6c0.2-1,0.1-2-0.2-2.9c-0.1,0-0.1,0-0.2,0C97.8,108.7,97.9,109.7,98,110.6z M107,81.3c0.4-1.1,0.7-2.2,0.6-3.5
	C107.4,79,107.2,80.2,107,81.3z M99.2,110.8c-0.1-0.9-0.1-1.7-0.2-2.6c-0.1,0-0.1,0-0.2,0C98.9,109.1,98.8,110,99.2,110.8z
	 M100.7,107.8c-0.1,0-0.1,0-0.2,0c-0.1,1-0.3,2-0.4,2.9c0.1,0,0.1,0,0.2,0C100.4,109.8,100.6,108.8,100.7,107.8z M95.4,107.8
	L95.4,107.8c0.1,1,0.3,1.9,0.4,2.9C96,109.7,95.6,108.7,95.4,107.8z M102.8,73.2c0.2,0.9,0.4,1.6,0.7,2.5
	C103.6,74.7,103.4,74,102.8,73.2z"/>
<path id="XMLID_242_" d="M103.6,114.4c-0.8,0-1.6,0.1-2.5,0.1c0-0.1,0-0.2,0-0.2C101.9,114.4,102.8,114.1,103.6,114.4L103.6,114.4z"
	/>
</svg>
