<?xml version="1.0" encoding="utf-8"?>
<!-- Generator: Adobe Illustrator 19.0.0, SVG Export Plug-In . SVG Version: 6.00 Build 0)  -->
<svg version="1.1" id="Layer_1" xmlns="http://www.w3.org/2000/svg" xmlns:xlink="http://www.w3.org/1999/xlink" x="0px" y="0px"
	 viewBox="0 0 198.4 198.4" style="enable-background:new 0 0 198.4 198.4;" xml:space="preserve">
<path id="XMLID_4488_" d="M98.9,116.8c-2.5,2.2-5.1,4-8.4,4.5c-2.2,0.4-4.4,0.2-6.5-0.4c-2.6-0.8-4.9-2.1-6.7-4.1
	c-2.4-2.5-3.7-5.4-4.2-8.8c-0.4-2.6,0-5.2,1-7.6c1-2.6,2.6-4.6,5.1-6.1c6.6-4,13.1-8.1,19.7-12.1c2.2-1.4,4.5-2.7,6.7-4.2
	c1.5-1,3.1-1.5,4.9-1.6c2.1-0.1,4.1,0.2,6,1.3c0.7,0.4,1.3,0.8,1.8,1.5c0.2,0.2,0.4,0.4,0.7,0.5c1.3,0.7,2.1,1.8,2.8,3
	c0.2,0.4,0.2,0.8-0.2,1.1c-0.6,0.5-1.2,1-1.8,1.5c-0.2,0.2-0.6,0.3-0.6,0.9c0.4-0.2,0.6-0.4,0.9-0.6c0.5-0.3,0.9-0.7,1.3-1
	c0.7-0.5,1.1-0.4,1.6,0.4c0.8,1.4,1.2,2.9,1.3,4.5c0.1,0.9,0.2,1.7,0.1,2.6c0,2.4-0.5,4.7-2.2,6.5c0-0.1-0.1-0.1-0.1-0.2
	c0,0,0,0.1,0,0.1c0,0,0.1,0.1,0.1,0.1c-0.9,0.8-1.7,1.6-2.6,2.3c-4.1,3.2-8.1,6.3-12.2,9.4c-2.6,2-5.3,4-8,6
	C99.2,116.7,99,116.7,98.9,116.8L98.9,116.8L98.9,116.8z M121.3,83.7L121.3,83.7L121.3,83.7L121.3,83.7L121.3,83.7z M103.4,108.4
	C103.4,108.4,103.4,108.4,103.4,108.4C103.4,108.4,103.4,108.4,103.4,108.4L103.4,108.4L103.4,108.4z M79.1,95.4L79.1,95.4
	L79.1,95.4L79.1,95.4L79.1,95.4z M83.2,94.4L83.2,94.4L83.2,94.4L83.2,94.4L83.2,94.4z M98.7,100.8L98.7,100.8
	C98.7,100.8,98.7,100.8,98.7,100.8c0,0.1,0,0.1,0,0.2c-0.1,0-0.1,0.1-0.2,0.1c0,0,0.1,0,0.1,0c0,0,0.1-0.1,0.1-0.1c0,0,0,0,0-0.1
	C98.8,100.9,98.8,100.9,98.7,100.8z M74.6,103.2L74.6,103.2L74.6,103.2L74.6,103.2L74.6,103.2z M91.7,88.2L91.7,88.2L91.7,88.2
	L91.7,88.2L91.7,88.2z M109.8,85.1L109.8,85.1L109.8,85.1L109.8,85.1L109.8,85.1z M74.4,112.1L74.4,112.1L74.4,112.1L74.4,112.1
	L74.4,112.1z M84.9,91.7L84.9,91.7L84.9,91.7L84.9,91.7L84.9,91.7z M99.9,111.9L99.9,111.9L99.9,111.9L99.9,111.9L99.9,111.9z
	 M87.7,92.1L87.7,92.1L87.7,92.1L87.7,92.1L87.7,92.1z M92.1,92.5L92.1,92.5L92.1,92.5L92.1,92.5L92.1,92.5z M98.2,115.4
	c-0.1,0-0.3,0-0.4,0c0,0,0-0.1,0-0.1c-0.1-0.1-0.2-0.2-0.3-0.2c0,0-0.1,0.1-0.1,0.1c0.1,0.1,0.2,0.1,0.4,0.2c0,0,0.1,0,0.1,0
	C97.9,115.4,98,115.4,98.2,115.4L98.2,115.4L98.2,115.4z M98,114.6c0,0.1,0,0.1-0.1,0.2C97.9,114.7,97.9,114.7,98,114.6L98,114.6
	C98,114.6,98,114.6,98,114.6z M119.7,97.9c0-0.1,0-0.1,0.1-0.2C119.8,97.8,119.8,97.8,119.7,97.9c0,0-0.1,0.1-0.1,0.1c0,0,0,0,0,0.1
	C119.7,98,119.7,98,119.7,97.9z M78.1,97.7c-0.1,0-0.1,0.1-0.2,0.1c0,0,0.1,0,0.1,0C78.1,97.8,78.1,97.7,78.1,97.7
	C78.1,97.7,78.2,97.7,78.1,97.7C78.2,97.7,78.1,97.7,78.1,97.7z M82.4,95L82.4,95L82.4,95c0,0-0.1-0.1-0.1-0.1
	C82.3,94.9,82.4,94.9,82.4,95z M119.9,90.9c0,0.1,0,0.1-0.1,0.2C119.9,91,119.9,91,119.9,90.9L119.9,90.9L119.9,90.9z M87.5,90.7
	c0,0-0.1-0.1-0.1-0.1c0,0,0,0-0.1,0C87.3,90.6,87.4,90.7,87.5,90.7c0,0,0.1,0.1,0.1,0.2C87.5,90.8,87.5,90.8,87.5,90.7z M95.6,95.2
	L95.6,95.2L95.6,95.2c0,0-0.1-0.1-0.1-0.1c0,0,0,0.1-0.1,0.1C95.5,95.2,95.6,95.2,95.6,95.2z M111.8,90.1L111.8,90.1L111.8,90.1
	c0,0,0.1,0.1,0.1,0.1c0,0,0,0,0.1,0C111.9,90.2,111.8,90.2,111.8,90.1z M96,86L96,86L96,86c0,0-0.1-0.1-0.1-0.1
	C95.9,85.9,96,86,96,86z M112,101.8c-0.1,0-0.1,0.1-0.2,0.1C111.9,101.9,111.9,101.8,112,101.8L112,101.8
	C112,101.7,112,101.8,112,101.8z M89.6,121L89.6,121L89.6,121c-0.1,0-0.2-0.1-0.2-0.1c0,0,0,0.1,0,0.1C89.4,121.1,89.5,121,89.6,121
	z M115.7,80.6c0.1,0,0.2-0.1,0.2-0.1c0,0-0.1-0.1-0.1-0.1C115.7,80.5,115.7,80.5,115.7,80.6L115.7,80.6L115.7,80.6z M92.7,118.7
	c0.1,0,0.2-0.1,0.2-0.1c0,0-0.1-0.1-0.1-0.1C92.8,118.6,92.8,118.6,92.7,118.7C92.7,118.7,92.7,118.7,92.7,118.7
	C92.7,118.7,92.7,118.7,92.7,118.7z M120.1,88.4L120.1,88.4L120.1,88.4c0,0.1,0,0.1,0,0.2c-0.1,0-0.2,0.1-0.2,0.1
	c0,0,0.1,0.1,0.1,0.1c0-0.1,0.1-0.2,0.1-0.2c0.1,0,0.2,0,0.3,0C120.3,88.5,120.2,88.4,120.1,88.4z M93.7,98.7
	c-0.1-0.4-0.3-0.4-0.4,0c-0.3-0.3-0.6-0.6-0.9-0.9l0,0l0,0c-0.2-0.1-0.4-0.2-0.6-0.4c-2.4-1.8-5.2-2.5-8.1-2.2
	c-1.1,0.1-2.2,0.4-3.1,1c-0.8,0.5-0.8,0.5-0.6,1.4l0,0l0-0.1c0.1,0.3,0.6,0.6-0.1,0.8c-0.1,0-0.1,0.3-0.1,0.4l0,0
	c-0.3-0.4-0.5-0.8-0.6-1.4c0-0.4-0.2,0-0.4,0l0-0.1c0,0,0.1,0,0.1,0c-0.1,0.2-0.2,0.3-0.3,0.5c-0.6,0.8-1.3,1.5-1.9,2.3
	c-0.9,1.4-1.5,2.9-1.7,4.6c-0.1,0.4,0,0.5,0.5,0.5c0.6,0,1.2,0.1,1.8,0.1c0.1,0,0.2,0.1,0.3,0.2c-0.1,0.1-0.2,0.2-0.3,0.3
	c-0.2,0.1-0.4,0.1-0.7,0.1c-0.4,0-0.8-0.1-1.2,0c-0.5,0.1-0.5,0.3-0.5,0.6c0.1,0.7,0.1,1.5,0.2,2.2c0.7,3.8,2.8,6.7,6,8.6
	c2.1,1.3,4.5,2,7.1,1.9c2.5-0.1,4.6-0.9,6.4-2.6c1.7-1.7,2.7-3.8,3-6.2c0.1-0.5,0-0.6-0.5-0.7c-0.3-0.1-0.6-0.1-0.9-0.2
	c0.1,0,0.2-0.1,0.2-0.2c0.1-0.1,0.1-0.2,0.1-0.2c-0.1,0-0.2,0-0.3,0c-0.2-0.1-0.4-0.2-0.8-0.4c1.2,0,1.8,0.2,2.4,0.6
	c-0.3,0-0.6-0.2-0.9,0.3c0.4-0.1,0.7-0.2,0.9-0.3c0-0.1,0.1-0.2,0.1-0.2c-0.1-2.5-0.6-5-1.9-7.2c-0.5-0.9-1.1-1.8-1.7-2.7
	c0.1,0,0.1,0,0.2-0.1c0-0.1,0-0.1,0-0.2c0,0-0.1,0.1-0.1,0.1c0,0,0,0.1-0.1,0.2c-0.1-0.1-0.3-0.3-0.4-0.4
	C93.7,99,93.7,98.8,93.7,98.7z M92.9,87.8c0,0-0.1,0.1-0.1,0.1c0,0.1,0,0.2,0.1,0.2c0,0,0.1,0,0.1,0c0-0.1,0-0.2,0-0.2
	C93,87.9,92.9,87.8,92.9,87.8L92.9,87.8L92.9,87.8z M105,92.5c-0.1,0-0.3,0.1-0.4,0.1c0,0,0.1,0.1,0.1,0.1
	C104.8,92.6,104.9,92.5,105,92.5c0,0,0.1-0.1,0.1-0.1c0,0,0,0,0-0.1C105,92.3,105,92.4,105,92.5z M118.2,87.4c-0.1,0-0.1,0-0.2,0.1
	c0,0.1-0.1,0.1-0.1,0.2c0.1,0,0.1-0.1,0.2-0.1C118.2,87.5,118.2,87.5,118.2,87.4L118.2,87.4C118.2,87.4,118.2,87.4,118.2,87.4z
	 M119.5,90.3c0.1,0,0.2,0,0.3,0c0-0.1-0.1-0.1-0.1-0.2C119.7,90.2,119.6,90.3,119.5,90.3c0,0.1,0,0.2-0.1,0.2
	C119.5,90.5,119.5,90.4,119.5,90.3z M104.4,90.7L104.4,90.7L104.4,90.7c-0.1-0.1-0.2-0.3-0.3-0.4c0.6-0.6,1.3-1,1.7-1.8
	c-0.2,0-0.3,0-0.4,0c-2.1,1.2-4.1,2.6-5.8,4.3c-0.1,0.1-0.1,0.3-0.2,0.5c0.7-0.1,1.2-0.5,1.7-0.8c0.9-0.6,1.8-1.2,2.6-1.8
	C103.9,91,104.1,90.7,104.4,90.7z M97.6,101.8L97.6,101.8c0,0.1,0.1,0.2,0.2,0.3c0.2,0.3,0.5,0.2,0.7,0.1c0.2-0.2,0-0.4-0.1-0.6
	c-0.1-0.2-0.3-0.4-0.4-0.5c-0.1-0.1-0.3-0.2-0.3-0.1c-0.1,0.1-0.2,0.3-0.2,0.4C97.4,101.5,97.5,101.7,97.6,101.8z M119.2,97.5
	L119.2,97.5L119.2,97.5c0.5-0.4,1.1-0.8,1.6-1.3c0.3-0.3,0.7-0.5,0.7-1.1c-0.7,0.2-1.1,0.5-1.6,0.9c-0.5,0.3-1,0.7-1.4,1
	c-0.4,0.4-1,0.5-1.2,1.3C118,98,118.6,97.8,119.2,97.5z M107.2,107.7c0.5-0.3,1.1-0.6,1.6-1c1.2-0.9,2.4-1.8,3.5-2.7
	c0,0,0.1-0.1,0.1-0.1c0.5-0.4,0.9-0.7,1.4-1.1c0.4-0.4,1-0.6,1.2-1.2c-0.2,0-0.2,0-0.3,0c-2.9,1.3-5.3,3.2-7.4,5.5
	c-0.1,0.1-0.2,0.3-0.2,0.4C107.1,107.6,107.1,107.6,107.2,107.7z M89.8,90.9c-0.1,0-0.1,0-0.2-0.1C89.7,90.9,89.7,90.9,89.8,90.9
	c-0.5,0.4-1.1,0.7-1.6,1.1c-0.3,0.3-0.8,0.4-0.9,1c0.6,0.3,1.1,0.1,1.6-0.2c1.9-1.1,3.8-2.2,5.7-3.4c0.2-0.1,0.4-0.4,0.6-0.6
	c0-0.1-0.1-0.1-0.1-0.2c-0.2,0.1-0.5,0.1-0.7,0.2C92.8,89.6,91.3,90.2,89.8,90.9z M102.8,86.4L102.8,86.4L102.8,86.4
	c0.1,0.1,0.3,0.3,0.3,0.2c0.3-0.1,0.6-0.3,0.9-0.5c3.2-1.9,6.4-3.8,9.6-5.7c0.2-0.1,0.4-0.2,0.6-0.4c0.1-0.1,0.1-0.2,0.2-0.3
	c-0.1-0.1-0.3-0.2-0.4-0.2c-0.4,0.1-0.9,0.2-1.3,0.4c-1.6,0.9-3.2,1.8-4.8,2.8C106.2,84,104.5,85.2,102.8,86.4z M109.8,98.7
	L109.8,98.7L109.8,98.7c-0.2,0.4-0.8,0.5-0.9,1.3c0.9-0.5,1.6-0.8,2.3-1.2c1.9-1.2,3.8-2.4,5.7-3.7c1.5-1,2.9-2.2,4.3-3.3
	c0.2-0.2,0.6-0.2,0.4-0.6c0,0-0.5,0.1-0.7,0.2c-2.2,1.4-4.5,2.8-6.6,4.2C112.8,96.6,111.3,97.6,109.8,98.7z M110.4,91.3
	c0,0.1,0.1,0.1,0.1,0.2C110.5,91.4,110.5,91.3,110.4,91.3c0.3-0.3,0.8-0.4,0.8-1c-0.3,0.1-0.6,0.2-0.8,0.3c-0.6,0.3-1.3,0.6-1.9,1
	c-2.4,1.2-4.8,2.5-7.3,3.6c-1.8,0.9-3.6,1.6-5.2,2.8c-0.1,0.1-0.3,0.2-0.5,0.4c0.1,0.1,0.2,0.2,0.3,0.2c0.6,0.2,1.2,0,1.8-0.3
	c2.4-1.2,4.8-2.4,7.2-3.6c0.4-0.2,0.8-0.3,1.4-0.6c-0.1,0.3-0.1,0.5-0.2,0.6c-0.5,1-1.1,1.9-1.9,2.7c-0.9,0.8-1.7,1.7-2.6,2.5
	c-0.1,0.1-0.2,0.3-0.2,0.4c1.2-0.7,2.2-1.5,3.3-2.3c0.1-0.1,0.1-0.2,0.2-0.3c0.8-1.2,1.5-2.4,2.3-3.5c0.4-0.6,1-1.1,1.5-1.6
	C109.1,92.2,109.8,91.8,110.4,91.3z M96.1,86.8c0,0.1,0.1,0.1,0.1,0.2c0.6-0.2,1.1-0.5,1.7-0.5c0.8,0,1.4-0.3,2-0.8
	c3.3-2.4,6.7-4.8,10-7.2c0.2-0.1,0.3-0.3,0.5-0.5c-0.5-0.2-0.8,0.1-1.1,0.3c-3.5,2-6.9,4.3-10.2,6.6c-0.7,0.5-1.4,0.9-2.1,1.3
	C96.7,86.5,96.4,86.7,96.1,86.8z M108.2,103.1c-0.2-0.1-0.4-0.2-0.5-0.1c-0.5,0.3-1.1,0.6-1.6,0.9c-2.1,1.4-4,3-5.8,4.8
	c-0.2,0.2-0.6,0.4-0.3,0.8c0.3,0.3,0.6-0.1,0.9-0.2c0.2-0.1,0.3-0.2,0.5-0.3c1.1-0.8,2.2-1.7,3.2-2.5c1-0.9,2.1-1.8,3.1-2.7
	C107.8,103.6,107.9,103.4,108.2,103.1z M108.7,88.3c0.2,0,0.3,0,0.5-0.1c3.1-1.3,6.1-3,8.9-5c0.2-0.1,0.3-0.3,0.5-0.5
	c0-0.1,0.1-0.2,0-0.3c0-0.1-0.2-0.1-0.2-0.1c-0.2,0-0.4,0.1-0.5,0.2c-1,0.5-2.1,1.1-3.1,1.7c-1.8,1.1-3.6,2.2-5.5,3.3
	C109,87.7,108.7,87.8,108.7,88.3z M117.4,88.8c-0.2,0.1-0.5,0.1-0.5,0.2c-0.1,0.7-0.8,0.9-1.3,1.3c-1.3,1-2.7,2-3.9,3.2
	c-0.1,0.1-0.2,0.3-0.5,0.7c0.4-0.2,0.6-0.2,0.8-0.3c1.6-0.8,2.9-1.8,4.2-3.1C116.8,90.2,117.2,89.6,117.4,88.8z M102.7,102.5
	c-0.1,0-0.2-0.1-0.2-0.1c-1,0.7-2.1,1.3-3.1,2c-0.1,0.1-0.2,0.2-0.3,0.4c0,0.1,0,0.3,0,0.4c0.1,0.1,0.3,0.2,0.4,0.1
	c0.2,0,0.4-0.1,0.6-0.3c1-0.5,1.8-1.3,2.4-2.2C102.7,102.8,102.7,102.6,102.7,102.5z M91.9,94.3c0.4,0.3,0.8,0.1,1.1-0.1
	c1.2-0.8,2.3-1.7,3.4-2.5c0.1-0.1,0.2-0.3,0.3-0.4c-0.9,0.5-1.6,1-2.4,1.5C93.5,93.3,92.6,93.5,91.9,94.3z M99.1,98.4
	c0.4,0.3,0.7,0.6,1.1,0.5C100.1,98.4,99.7,98.4,99.1,98.4z M117.7,99.5c0.1,0.1,0.1,0.2,0.2,0.3c0.1-0.1,0.1-0.1,0.2-0.2
	c-0.1-0.1-0.2-0.2-0.2-0.2C117.8,99.3,117.8,99.4,117.7,99.5z M123.1,90.8c0-0.1,0-0.2,0-0.2c0,0-0.1,0-0.1,0c0,0-0.1,0.1-0.1,0.2
	C123,90.7,123,90.7,123.1,90.8z M119.7,81.3c0-0.1,0-0.1-0.1-0.2c0,0-0.1,0-0.1,0.1c0,0.1,0.1,0.1,0.1,0.2
	C119.6,81.4,119.6,81.3,119.7,81.3z M122.1,88.2c0.1-0.1,0.2-0.1,0.2-0.2c0-0.1,0-0.2-0.1-0.4C122.2,87.8,122.1,88,122.1,88.2z
	 M103.9,99.8c-0.1,0.1-0.1,0.2-0.2,0.3c0,0,0.1,0.1,0.1,0.1c0.1-0.1,0.2-0.2,0.2-0.3C104.1,100,104,99.9,103.9,99.8z M97,84.6
	c0-0.1-0.1-0.1-0.1-0.2c-0.1,0-0.1,0.1-0.2,0.1c0.1,0.1,0.1,0.1,0.2,0.2C96.9,84.7,96.9,84.6,97,84.6z M97,102.8
	c-0.1-0.2-0.1-0.2-0.1-0.3c-0.1,0.1-0.1,0.2-0.2,0.3c0,0,0.1,0.1,0.1,0.1C96.8,102.9,96.9,102.9,97,102.8z M116.1,101.7
	c0.1,0.1,0.2,0.1,0.3,0.2c0-0.1,0.1-0.1,0-0.2c-0.1-0.1-0.1-0.1-0.2-0.2C116.2,101.6,116.2,101.6,116.1,101.7z M93.3,96.6
	c0-0.1,0-0.1-0.1-0.1c0,0-0.1,0-0.2,0c0,0.1,0,0.1,0.1,0.1C93.2,96.6,93.3,96.6,93.3,96.6z M120.2,81.9c0,0-0.1,0-0.1-0.1
	c0,0,0,0.1,0,0.1c0,0,0.1,0.1,0.1,0.1C120.2,82,120.2,82,120.2,81.9z M96.2,93.9c0,0-0.1,0.1-0.1,0.1c0,0,0.1,0,0.1,0
	C96.2,94.1,96.3,94,96.2,93.9C96.3,94,96.2,94,96.2,93.9z M94.2,117.8c-0.1,0-0.1,0-0.2,0.1c0,0,0,0.1,0,0.1c0.1,0,0.1,0,0.2-0.1
	C94.3,117.9,94.3,117.9,94.2,117.8z M120.1,84c0,0-0.1,0-0.1,0c0,0-0.1,0.1-0.1,0.2c0,0,0.1,0.1,0.1,0C120,84.1,120.1,84.1,120.1,84
	z M109.5,81.2c0,0-0.1-0.1-0.1-0.1c0,0,0,0.1-0.1,0.1c0,0,0.1,0.1,0.1,0C109.5,81.3,109.5,81.2,109.5,81.2z M94.2,87
	c0,0-0.1,0-0.1-0.1C94,87,94,87,94,87c0,0,0.1,0,0.1,0.1C94.1,87.1,94.2,87,94.2,87z M106.2,98.7c0,0-0.1,0-0.1-0.1c0,0,0,0.1,0,0.1
	c0,0,0.1,0.1,0.1,0.1C106.2,98.7,106.2,98.7,106.2,98.7z M79.6,117.2c0,0-0.1,0.1-0.1,0.1c0,0,0.1,0.1,0.1,0.1c0,0,0.1-0.1,0.1-0.1
	C79.7,117.3,79.6,117.3,79.6,117.2z M108.3,77.9c0,0,0-0.1,0-0.1c0,0-0.1,0-0.2,0c0,0,0,0.1,0.1,0.1
	C108.2,77.9,108.2,77.9,108.3,77.9z M118.7,84.5c0,0,0.1,0,0.1,0c0,0-0.1-0.1-0.1-0.1c-0.1,0-0.1,0-0.2,0.1
	C118.6,84.5,118.7,84.5,118.7,84.5z M122.8,94.8c0,0,0-0.1,0.1-0.1c0,0-0.1,0-0.1,0C122.8,94.7,122.8,94.8,122.8,94.8
	C122.8,94.8,122.8,94.8,122.8,94.8z M98.8,103.5C98.8,103.5,98.7,103.4,98.8,103.5c-0.1,0-0.1,0-0.2,0c0,0,0,0,0,0.1
	C98.7,103.5,98.7,103.5,98.8,103.5z M98.3,93C98.2,93,98.2,93,98.3,93c-0.1,0-0.1,0-0.1,0.1C98.2,93.1,98.2,93.1,98.3,93
	C98.2,93.1,98.2,93,98.3,93z M74.9,102.6C74.9,102.5,74.9,102.5,74.9,102.6c-0.1,0-0.1,0-0.1,0C74.8,102.6,74.8,102.6,74.9,102.6
	C74.9,102.6,74.9,102.6,74.9,102.6z M95,100C95,99.9,95,99.9,95,100c-0.1-0.1-0.2-0.1-0.2-0.1c0,0,0,0.1,0,0.1
	C94.9,100,95,100,95,100z M76.8,105.6C76.9,105.6,76.9,105.6,76.8,105.6C76.9,105.6,76.9,105.6,76.8,105.6
	C76.8,105.5,76.8,105.6,76.8,105.6C76.8,105.6,76.8,105.6,76.8,105.6z M118.5,99.6c0,0.1-0.1,0.1-0.1,0.2c0,0,0.1,0.1,0.1,0.1
	c0,0,0.1-0.1,0.1-0.1C118.6,99.7,118.6,99.6,118.5,99.6z M110.8,106.7C110.8,106.7,110.8,106.6,110.8,106.7c-0.1,0-0.1,0-0.1,0
	C110.7,106.7,110.8,106.7,110.8,106.7C110.8,106.7,110.8,106.7,110.8,106.7z M91.4,96.5C91.4,96.5,91.5,96.5,91.4,96.5
	c0.1,0,0.1-0.1,0.1-0.1C91.5,96.4,91.4,96.4,91.4,96.5C91.4,96.5,91.4,96.5,91.4,96.5z M75.3,101.8c0,0-0.1-0.1-0.1-0.1
	c0,0,0,0.1,0,0.1c0,0,0.1,0.1,0.1,0.1C75.2,101.9,75.2,101.8,75.3,101.8z M112.8,101.6C112.8,101.6,112.8,101.6,112.8,101.6
	c-0.1,0.1-0.1,0.1,0,0.1C112.8,101.7,112.8,101.7,112.8,101.6C112.8,101.6,112.8,101.6,112.8,101.6z M122.7,95.4
	C122.7,95.4,122.7,95.4,122.7,95.4c-0.1-0.1-0.1,0-0.1,0c0,0,0,0,0,0.1C122.7,95.5,122.7,95.4,122.7,95.4z M121.7,97.7
	C121.7,97.7,121.7,97.7,121.7,97.7c0-0.1-0.1-0.1-0.1-0.1c0,0,0,0,0,0.1C121.6,97.7,121.7,97.7,121.7,97.7z M110.7,96.5
	c0,0-0.1,0-0.1-0.1c0,0,0,0.1,0,0.1C110.6,96.5,110.6,96.6,110.7,96.5C110.7,96.6,110.7,96.5,110.7,96.5z M100.6,89.4
	C100.6,89.5,100.6,89.5,100.6,89.4c0,0.1,0,0.1,0.1,0.1C100.7,89.5,100.7,89.5,100.6,89.4C100.7,89.5,100.7,89.5,100.6,89.4z
	 M78,116C78,116,78,116,78,116c0,0.1,0.1,0.1,0.1,0C78.1,116,78.1,116,78,116C78.1,115.9,78.1,116,78,116z M114,90.3
	C114,90.3,114,90.4,114,90.3c0.1,0.1,0.1,0.1,0.1,0C114.1,90.3,114.1,90.3,114,90.3C114.1,90.3,114,90.3,114,90.3z M101.3,82.6
	C101.3,82.6,101.3,82.6,101.3,82.6c0-0.1,0-0.1-0.1-0.1C101.2,82.5,101.2,82.6,101.3,82.6C101.2,82.6,101.3,82.6,101.3,82.6z
	 M80.2,118.3c0,0,0.1,0.1,0.1,0.1c0,0,0-0.1,0-0.1C80.3,118.3,80.2,118.3,80.2,118.3C80.2,118.3,80.2,118.3,80.2,118.3z M110.2,88.1
	C110.2,88.1,110.2,88.1,110.2,88.1c0,0.1,0,0.1,0,0.1C110.2,88.2,110.3,88.2,110.2,88.1C110.3,88.1,110.2,88.1,110.2,88.1z
	 M94.2,88.5C94.2,88.4,94.2,88.4,94.2,88.5c-0.1,0-0.1,0-0.1,0c0,0,0,0,0,0.1C94.2,88.5,94.2,88.5,94.2,88.5z M108.2,87.6
	c0,0-0.1-0.1-0.1-0.1c0,0,0,0.1,0,0.1C108.1,87.6,108.1,87.6,108.2,87.6C108.2,87.6,108.2,87.6,108.2,87.6z M110.7,77.5
	C110.7,77.4,110.6,77.4,110.7,77.5c-0.1-0.1-0.1,0-0.2,0c0,0,0,0,0,0.1C110.6,77.5,110.6,77.5,110.7,77.5z M94.3,87.8L94.3,87.8
	L94.3,87.8L94.3,87.8z M94.1,91.7L94.1,91.7L94.1,91.7L94.1,91.7z M123.3,91.9L123.3,91.9L123.3,91.9L123.3,91.9z M116.6,100.1
	L116.6,100.1L116.6,100.1L116.6,100.1z M115.8,87.8L115.8,87.8L115.8,87.8L115.8,87.8z M99.5,87.8L99.5,87.8L99.5,87.8L99.5,87.8z
	 M97.8,87.8L97.8,87.8L97.8,87.8L97.8,87.8z M105.9,91.6L105.9,91.6L105.9,91.6L105.9,91.6z M122.1,92.9L122.1,92.9L122.1,92.9
	L122.1,92.9z M121.7,88.2L121.7,88.2L121.7,88.2L121.7,88.2z M117.3,99.5L117.3,99.5L117.3,99.5L117.3,99.5z M104,88.1L104,88.1
	L104,88.1L104,88.1z M118.5,92.1L118.5,92.1L118.5,92.1L118.5,92.1z M120.2,83L120.2,83L120.2,83L120.2,83z M118.1,85.2
	C118.1,85.3,118,85.3,118.1,85.2C118,85.3,118.1,85.3,118.1,85.2C118.1,85.3,118.1,85.3,118.1,85.2
	C118.1,85.3,118.1,85.3,118.1,85.2z M94.5,92.1L94.5,92.1L94.5,92.1L94.5,92.1z M121,87L121,87L121,87L121,87z M85.5,92.5L85.5,92.5
	L85.5,92.5L85.5,92.5z M111.7,79.4L111.7,79.4L111.7,79.4L111.7,79.4z M116.5,79.9L116.5,79.9L116.5,79.9L116.5,79.9z M93.3,87.3
	L93.3,87.3L93.3,87.3L93.3,87.3z M102.1,100.8L102.1,100.8L102.1,100.8L102.1,100.8z M117.7,101.6L117.7,101.6L117.7,101.6
	L117.7,101.6z M115.6,101.4L115.6,101.4L115.6,101.4L115.6,101.4z M95.6,86.7L95.6,86.7L95.6,86.7L95.6,86.7z M99.6,95.2L99.6,95.2
	L99.6,95.2L99.6,95.2z M99.2,90.1L99.2,90.1L99.2,90.1L99.2,90.1z M107.4,95.8L107.4,95.8L107.4,95.8L107.4,95.8z M111.1,95.8
	L111.1,95.8L111.1,95.8L111.1,95.8z M95.2,90.3L95.2,90.3L95.2,90.3L95.2,90.3z M91,94.3L91,94.3L91,94.3L91,94.3z M98.6,93.9
	L98.6,93.9L98.6,93.9L98.6,93.9z M101.1,94.9L101.1,94.9L101.1,94.9L101.1,94.9z M118.7,88.7L118.7,88.7L118.7,88.7L118.7,88.7z
	 M100.9,88.6L100.9,88.6L100.9,88.6L100.9,88.6z M93.6,88.7c0,0-0.1,0-0.1,0C93.5,88.7,93.5,88.7,93.6,88.7
	C93.5,88.7,93.6,88.7,93.6,88.7z M104.6,91.4C104.6,91.4,104.6,91.4,104.6,91.4C104.5,91.4,104.5,91.4,104.6,91.4
	C104.6,91.4,104.6,91.4,104.6,91.4C104.6,91.4,104.6,91.4,104.6,91.4z M105.1,90L105.1,90L105.1,90L105.1,90z M109.1,97.3
	L109.1,97.3L109.1,97.3L109.1,97.3z M113,89.7L113,89.7L113,89.7L113,89.7z M103,108.9L103,108.9L103,108.9L103,108.9z M106.4,105.5
	L106.4,105.5L106.4,105.5L106.4,105.5z M98.9,112.6L98.9,112.6L98.9,112.6L98.9,112.6z M94.4,118.8L94.4,118.8L94.4,118.8
	L94.4,118.8z M100.6,111.6L100.6,111.6L100.6,111.6L100.6,111.6z M98.7,110.2L98.7,110.2L98.7,110.2L98.7,110.2z M104.6,111
	L104.6,111L104.6,111L104.6,111z M84.6,119.7L84.6,119.7L84.6,119.7L84.6,119.7z M98,111.2L98,111.2L98,111.2L98,111.2z M99.3,103.2
	L99.3,103.2L99.3,103.2L99.3,103.2z M109.6,103.3L109.6,103.3L109.6,103.3L109.6,103.3z M107.4,104.9L107.4,104.9L107.4,104.9
	L107.4,104.9z M101.5,104.9L101.5,104.9L101.5,104.9L101.5,104.9z"/>
<path id="XMLID_3712_" d="M90,103.1c0.7,0.5,0.8,1.2,1,1.9c0.7,2.1,0.7,4.1-0.3,6.1c-0.8,1.5-2.1,2.2-3.7,2.4c-0.4,0-0.9,0-1.4,0
	c-0.3,0-0.6-0.1-0.8-0.3c-0.1-0.1-0.1-0.3-0.1-0.4c0-0.1,0.2-0.2,0.3-0.2c0.2,0,0.4,0,0.6,0c1,0.3,1.9,0,2.7-0.4
	c0.9-0.4,1.6-1,1.9-1.9c0.5-1.2,0.7-2.4,0.4-3.7c-0.3-1.4-0.6-2.7-1.6-3.8c-1.1-1.3-2.5-1.7-4.2-1.5c-1.2,0.2-2.2,0.6-3.1,1.5
	c-0.7,0.8-1.1,1.8-1.2,2.9c0,0.4,0,0.8,0,1.3c-0.1,1.9,0.8,3.3,2.3,4.4c0.2,0.2,0.5,0.3,0.7,0.5c0.1,0.1,0.1,0.2,0,0.3
	c0,0.1-0.2,0.1-0.2,0.1c-0.2-0.1-0.4-0.1-0.6-0.2c-1.8-1.1-2.8-2.7-2.9-4.8c-0.1-1.6,0.2-3,1.1-4.3c1.9-2.8,6.7-3.4,9.1,0
	C90,103,90,103.1,90,103.1L90,103.1L90,103.1z"/>
<path id="XMLID_3709_" d="M81.6,115.4c0.1-0.4-0.3-0.5-0.5-0.7c-0.8-0.5-1.5-1.1-2.1-1.8c-1.3-1.5-1.6-3.2-1.9-5.1
	c0-0.1,0-0.1,0.1-0.2c0.3,0.1,0.3,0.4,0.4,0.7c0.5,1.5,1,2.9,2,4.2c0.6,0.8,1.3,1.4,2.2,1.9c0.1,0.1,0.3,0.2,0.4,0.2
	c0.6-0.2,0.4,0.3,0.5,0.6c0,0-0.1,0-0.1,0.1c0,0,0,0.1,0.1,0.1l0,0.1l-0.1,0c0-0.1,0-0.1,0-0.2c1.6,1.1,3.3,1.3,5.2,1.2
	c3.1-0.2,5.7-2.3,6.3-5.3c0.1-0.6,0.2-1.2-0.4-1.7c-0.1,0-0.1-0.2-0.1-0.3c0.3,0.1,0.5,0.2,0.6,0.3l0,0c0.1,0,0.1,0,0.2,0l0,0
	c0.1,0,0.1,0,0.2,0l0,0c0.3,0.2,0.6,0.4,0.9,0.6c-0.7,0.2-0.6,0.2-0.8,0.9c-0.2,1.3-0.5,2.7-1.5,3.7c-2.2,2.4-4.9,3.3-8.1,2.4
	c-0.8-0.2-1.5-0.6-2.2-0.9c-0.4-0.2-0.7-0.3-0.9,0.2c-0.2,0.5-0.6,0.5-1,0.3l0,0c0.1-0.2,0.3-0.4,0.4-0.6l0,0c0,0.1,0.1,0.1,0.1,0.2
	c0-0.1,0.1-0.1,0.1-0.2c0,0,0,0,0,0c0.1-0.1,0.2-0.1,0.3-0.2C81.8,115.5,81.7,115.5,81.6,115.4L81.6,115.4z M82,114.9
	c0,0-0.1-0.1-0.1-0.1c0,0-0.1,0.1-0.1,0.1c0,0.1,0.1,0.1,0.1,0.1C81.9,115,82,114.9,82,114.9z"/>
<path id="XMLID_3708_" d="M86.1,110.8c-0.2-0.5,0.1-0.8,0.5-1c0.6-0.4,0.9-1.1,0.9-1.8c0-1.5-0.5-2.9-1.9-3.9
	c-0.3-0.2-0.6-0.4-0.8-0.8c0.8,0,1.3,0.3,1.8,0.8c1.1,1,1.6,2.3,1.7,3.8C88.4,109.3,87.5,110.3,86.1,110.8z"/>
<path id="XMLID_3707_" d="M91,99.7c-0.2-0.1-0.5-0.2-0.7-0.4c-1.2-0.7-2.5-1.2-4-1.4c-0.9-0.1-1.7,0.1-2.6,0.2
	c-0.5,0.1-1,0.4-1.6,0.2c0.2-0.6,0.7-0.8,1.2-1c1.8-0.5,3.6-0.3,5.3,0.5c0.8,0.3,1.5,0.9,2.2,1.4c0.1,0.1,0.2,0.3,0.3,0.4
	C91.1,99.7,91,99.7,91,99.7z"/>
<path id="XMLID_3704_" d="M94.3,109.2c0-0.1-0.1-0.2,0-0.3c0.3-2.3-0.3-4.3-1.2-6.4c-0.1-0.3-0.2-0.6-0.2-1c0.1,0.2,0.3,0.3,0.4,0.5
	c1,1.4,1.6,3,1.7,4.8c0,0.8-0.1,1.6-0.1,2.4c0,0-0.1,0-0.2,0.1l0,0c0-0.1-0.1-0.1-0.1-0.2c0,0.1,0,0.1-0.1,0.2l0,0
	C94.4,109.2,94.3,109.2,94.3,109.2L94.3,109.2z M93.7,103.4L93.7,103.4C93.6,103.3,93.7,103.3,93.7,103.4c0,0,0.1,0.1,0.1,0.1
	C93.8,103.4,93.7,103.4,93.7,103.4z"/>
<path id="XMLID_3703_" d="M84,104.9c-0.8,1.6-0.7,3,0.4,4.3c0.1,0.1,0.2,0.2,0.2,0.3c0,0,0,0.2,0,0.2c-0.1,0-0.2,0.1-0.2,0.1
	c-0.3-0.1-0.5-0.3-0.7-0.5c-1-1-1.2-2.3-0.8-3.7C83.1,105.3,83.3,105.2,84,104.9z"/>
<path id="XMLID_3702_" d="M80.9,99.3c-0.1,0.1-0.3,0.1-0.4,0.2c0,0,0,0,0,0c-0.1,0-0.1,0-0.2,0.1c0.1,0,0.1,0.1,0.2,0.1c0,0,0,0,0,0
	c-0.7,0.6-1.4,1.2-1.9,2.1c-0.4,0.8-0.6,1.7-1.3,2.5c0.2-1.6,0.8-2.8,1.8-3.9c0.2-0.2,0.3-0.3,0.5-0.5c0.5-0.3,0.5-0.7,0.2-1.2l0,0
	C80.6,98.6,80.6,98.6,80.9,99.3L80.9,99.3z"/>
<path id="XMLID_3701_" d="M80.9,117c-0.3-0.3,0-0.4,0.2-0.6l0,0c0.1,0.1,0.2,0.2,0.2,0.3c0,0.1,0,0.2,0,0.3
	C81.1,117,81,117,80.9,117L80.9,117L80.9,117z"/>
<path id="XMLID_3700_" d="M80.7,99.7c0.4,0,0.6,0.2,0.7,0.7C81.1,100.1,80.9,99.9,80.7,99.7L80.7,99.7z"/>
<path id="XMLID_3699_" d="M93.7,98.7c0,0.1,0,0.2,0,0.4c-0.1-0.1-0.2-0.2-0.3-0.3C93.5,98.7,93.6,98.7,93.7,98.7z"/>
<path id="XMLID_3698_" d="M96,109.4c0,0.1,0,0.3,0,0.4C96,109.6,96,109.5,96,109.4z"/>
<path id="XMLID_3697_" d="M81.4,115.8c0.1-0.1,0.1-0.3,0.2-0.4l0,0c0,0.1,0,0.3,0,0.4c0,0,0,0,0,0C81.6,115.8,81.5,115.8,81.4,115.8
	C81.4,115.8,81.4,115.8,81.4,115.8z"/>
<path id="XMLID_3696_" d="M80.5,99.5c0.1,0.1,0.1,0.1,0.2,0.2l0,0c-0.1,0-0.1,0-0.2,0c0,0,0,0,0,0C80.5,99.6,80.5,99.5,80.5,99.5
	L80.5,99.5z"/>
<polygon id="XMLID_3695_" points="80.8,99.3 80.9,99.3 80.9,99.3 "/>
<path id="XMLID_3694_" d="M103.8,90.5c-0.1,0.1-0.1,0.1-0.2,0.2C103.7,90.7,103.7,90.6,103.8,90.5z"/>
<path id="XMLID_3693_" d="M103.9,90.4c0,0-0.1,0.1-0.1,0.1C103.9,90.5,103.9,90.4,103.9,90.4z"/>
<path id="XMLID_3692_" d="M97.6,101.8c0-0.1,0.1-0.1,0.1-0.2c0,0,0,0.1,0,0.1C97.6,101.7,97.6,101.8,97.6,101.8L97.6,101.8z"/>
</svg>
