<?xml version="1.0" encoding="utf-8"?>
<!-- Generator: Adobe Illustrator 19.0.0, SVG Export Plug-In . SVG Version: 6.00 Build 0)  -->
<svg version="1.1" id="Layer_1" xmlns="http://www.w3.org/2000/svg" xmlns:xlink="http://www.w3.org/1999/xlink" x="0px" y="0px"
	 viewBox="0 0 67.8 61.2" style="enable-background:new 0 0 67.8 61.2;" xml:space="preserve">
<path id="XMLID_4872_" d="M35.7,54.5c-5-0.1-9.2-0.2-13.5-0.3c-3.5-0.2-7-0.4-10.5-0.8c-2.6-0.3-5.1-1.1-6.9-3.2
	c-1.6-1.8-2.3-3.8-2.6-6.1c-0.3-2.4-0.4-4.9-0.6-7.4C1.4,33,1.4,29.2,1.5,25.5c0.1-3.2,0.3-6.5,1-9.7c0.9-4.3,3.6-6.8,7.9-7.6
	c1.8-0.4,3.7-0.5,5.5-0.6c2.8-0.1,5.6-0.3,8.4-0.5C29.2,6.9,34.1,6.9,39,7c3.2,0.1,6.3,0.3,9.5,0.4c1,0,1.9,0,2.9,0.1
	c2.4,0.2,4.9,0.2,7.2,0.8c1,0.2,2,0.5,3,0.9c1.3,0.6,2.4,1.4,3.2,2.6c1.1,1.6,1.8,3.3,2,5.3c0.4,3.7,0.6,7.4,0.6,11.2
	c0,3.3,0.1,6.6-0.1,9.9c-0.1,2.6-0.3,5.3-1,7.9c-0.8,3.2-2.7,5.5-5.9,6.6c-1.9,0.7-3.9,1.1-6,1.1c-2.2,0-4.4,0.3-6.6,0.4
	c-1.6,0.1-3.3,0.1-4.9,0.1C40.2,54.3,37.6,54.4,35.7,54.5z M23.3,38.6L23.3,38.6L23.3,38.6L23.3,38.6L23.3,38.6z M3.2,16.2L3.2,16.2
	L3.2,16.2L3.2,16.2L3.2,16.2z M40.5,14.2L40.5,14.2L40.5,14.2C40.5,14.1,40.5,14.1,40.5,14.2C40.5,14.1,40.5,14.1,40.5,14.2z
	 M53.2,15.7L53.2,15.7L53.2,15.7L53.2,15.7L53.2,15.7z M49.8,23.3L49.8,23.3L49.8,23.3L49.8,23.3L49.8,23.3z M7.1,23L7.1,23L7.1,23
	L7.1,23L7.1,23z M14.2,25.3L14.2,25.3L14.2,25.3L14.2,25.3L14.2,25.3z M47.2,25.1L47.2,25.1L47.2,25.1L47.2,25.1L47.2,25.1z
	 M7.4,20.9L7.4,20.9L7.4,20.9L7.4,20.9L7.4,20.9z M54.8,53.2L54.8,53.2L54.8,53.2L54.8,53.2L54.8,53.2z M53.2,43.3L53.2,43.3
	L53.2,43.3L53.2,43.3L53.2,43.3z M53.5,44.1L53.5,44.1L53.5,44.1c0.1,0.1,0.2,0.2,0.3,0.2l0.1,0.1l-0.1-0.1
	C53.6,44.3,53.6,44.2,53.5,44.1z M26.9,41L26.9,41L26.9,41L26.9,41L26.9,41z M15.5,51.7L15.5,51.7L15.5,51.7L15.5,51.7L15.5,51.7z
	 M19.9,49.3L19.9,49.3L19.9,49.3L19.9,49.3L19.9,49.3z M15.2,12.9L15.2,12.9L15.2,12.9L15.2,12.9L15.2,12.9z M55.6,11.8L55.6,11.8
	C55.5,11.9,55.6,11.8,55.6,11.8C55.6,11.8,55.6,11.8,55.6,11.8C55.6,11.8,55.6,11.8,55.6,11.8z M24,10L24,10L24,10L24,10L24,10z
	 M54.5,9.2L54.5,9.2L54.5,9.2L54.5,9.2L54.5,9.2z M20.9,50.1L20.9,50.1L20.9,50.1c0.1,0.1,0.1,0.2,0.1,0.2c0,0,0-0.1,0-0.1
	C21,50.2,21,50.2,20.9,50.1z M64.7,37.8L64.7,37.8L64.7,37.8c-0.1,0-0.2,0-0.2-0.1C64.5,37.8,64.6,37.8,64.7,37.8z M64.4,32.4
	c0-0.1,0.1-0.2,0.1-0.2C64.5,32.2,64.4,32.3,64.4,32.4L64.4,32.4L64.4,32.4z M54,43.3c-0.1,0.1-0.1,0.1-0.1,0.2c0,0,0,0.1,0,0.1
	C53.9,43.5,54,43.4,54,43.3L54,43.3L54,43.3z M47.5,30L47.5,30L47.5,30c0.1,0.1,0.1,0.2,0.1,0.2c0,0,0-0.1,0-0.1
	C47.6,30.2,47.5,30.1,47.5,30z M51.1,46.7L51.1,46.7L51.1,46.7c-0.1,0-0.2,0-0.2-0.1C51,46.7,51.1,46.7,51.1,46.7z M50.3,47.5
	c0.1-0.1,0.1-0.1,0.1-0.2c0,0,0-0.1,0-0.1C50.4,47.3,50.4,47.4,50.3,47.5L50.3,47.5L50.3,47.5z M57.6,27.7c-0.1,0-0.2,0.1-0.3,0.1
	c0,0,0.1,0,0.1,0C57.5,27.8,57.6,27.7,57.6,27.7c0.1-0.1,0.1-0.1,0.2-0.2C57.8,27.6,57.7,27.7,57.6,27.7z M57.1,40.5
	c0-0.1,0-0.1-0.1-0.2c0,0-0.1,0-0.1,0.1C57,40.4,57.1,40.4,57.1,40.5c0,0.1,0.1,0.2,0.1,0.3c0-0.1,0.1-0.2,0.1-0.3l0.1-0.1l-0.1,0.1
	C57.3,40.5,57.2,40.5,57.1,40.5z M27.2,41.5c-0.1,0-0.2,0-0.2,0.1c-0.1,0.1-0.1,0.2-0.1,0.3c0.1,0,0.1-0.1,0.2-0.1
	C27.1,41.6,27.1,41.6,27.2,41.5c0.1,0,0.2,0,0.3,0.1c0-0.1,0-0.1,0-0.2C27.4,41.4,27.3,41.5,27.2,41.5z M62.1,49.6
	c-0.1,0-0.2,0-0.2,0.1c-0.1,0.1-0.1,0.2-0.1,0.2c0.1,0,0.1-0.1,0.2-0.1C62,49.7,62,49.6,62.1,49.6L62.1,49.6L62.1,49.6z M42.5,51.1
	c-0.1,0-0.2,0-0.2,0.1c-0.1,0.1-0.1,0.2-0.1,0.2c0.1,0,0.1-0.1,0.2-0.1C42.5,51.3,42.5,51.2,42.5,51.1L42.5,51.1
	C42.6,51.1,42.5,51.1,42.5,51.1z M5.6,21.2c0,0.1-0.1,0.3-0.1,0.4c0,0,0.1,0,0.1,0C5.6,21.5,5.6,21.3,5.6,21.2
	c0.1-0.1,0.1-0.1,0.2-0.2C5.7,21.1,5.6,21.1,5.6,21.2z M55.3,10L55.3,10L55.3,10c0-0.1,0-0.2-0.1-0.2c-0.1-0.1-0.2,0-0.3-0.1
	c0,0.1,0.1,0.2,0.1,0.2C55.1,9.9,55.2,10,55.3,10z M13.9,50.6c-0.1,0-0.2,0-0.3,0c-0.1,0.1-0.1,0.2-0.1,0.3c0.1,0,0.2,0,0.3-0.1
	C13.9,50.8,13.9,50.7,13.9,50.6c0-0.1,0-0.2,0.1-0.2C13.9,50.5,13.9,50.5,13.9,50.6z M38.6,48.8c0.1,0.1,0.1,0.2,0.2,0.3
	C38.7,49,38.7,48.9,38.6,48.8c0-0.1-0.1-0.3-0.1-0.4c-0.1,0-0.1,0.1-0.2,0.1C38.5,48.6,38.6,48.7,38.6,48.8z M16.5,26.6
	c0.1,0,0.3,0,0.4,0c0-0.1-0.1-0.1-0.1-0.2C16.7,26.5,16.6,26.6,16.5,26.6L16.5,26.6C16.4,26.7,16.5,26.6,16.5,26.6z M47.8,9.5
	c0,0.1,0.1,0.2,0.1,0.3c0,0,0-0.1,0-0.1C47.9,9.6,47.8,9.5,47.8,9.5c0-0.2,0-0.3,0-0.5c0.1,0,0.2-0.1,0.3-0.1c0,0-0.1,0-0.1,0
	c-0.1,0-0.1,0.1-0.2,0.2c-0.6-0.2-0.5,0.2-0.5,0.5l-0.1,0.1l0.1-0.1C47.4,9.5,47.6,9.5,47.8,9.5z M15.2,11.8L15.2,11.8L15.2,11.8
	c0-0.2,0.1-0.4,0.1-0.5c-0.1,0-0.2,0-0.4,0.1C15,11.5,15.1,11.6,15.2,11.8z M49.6,51.7c-0.4,0.5-0.4,0.5,0.4,0.9
	C49.8,52.2,49.7,51.9,49.6,51.7L49.6,51.7L49.6,51.7z M35,18.1c-0.1-0.3-0.3-0.5-0.4-0.9c-0.1,0.3-0.2,0.6-0.2,0.8
	c0,0.1,0.1,0.3,0.2,0.4C34.7,18.3,34.8,18.2,35,18.1L35,18.1L35,18.1z M58.2,20.9L58.2,20.9L58.2,20.9c0,0.2,0,0.3,0,0.5
	c-0.1,0-0.2,0-0.2,0c-0.1,0.1-0.2,0.2-0.2,0.3c0.1,0,0.3,0.1,0.3,0c0.1-0.1,0.1-0.2,0.2-0.3c0.2,0,0.4,0,0.6-0.1
	c0.1,0,0.2-0.2,0.3-0.3c-0.2-0.1-0.3-0.2-0.5-0.2C58.5,20.8,58.3,20.9,58.2,20.9z M38.9,37.6c0.1,0,0.1,0.1,0.2,0.1c0,0,0.1,0,0.1,0
	C39.1,37.7,39,37.6,38.9,37.6c0.1-0.1,0.3-0.2,0.5-0.4c0.3-0.3,0.2-0.5-0.2-0.6c-0.1,0-0.3-0.1-0.6-0.2
	C38.7,36.9,38.8,37.2,38.9,37.6z M45.3,30.6c-0.2-0.1-0.4-0.3-0.6-0.4c-2.5-1.5-5.1-3-7.6-4.5c-2.6-1.5-5.2-3-7.8-4.5
	c-1.6-0.9-2.2-0.4-2.2,1.4c0,5.2,0,10.3,0,15.5c0,1.1,0.1,2,1,2.8c0.7-0.4,1.4-0.8,2.1-1.2c4-2.5,8.1-4.9,12.1-7.4
	C43.3,31.7,44.3,31.2,45.3,30.6z M19.5,11.8c-0.1,0-0.2-0.1-0.3-0.1C19.2,11.8,19,12,19,12.1c0.1,0.2,0.3,0.4,0.5,0.6
	c0.1-0.1,0.2-0.3,0.2-0.3C19.7,12.2,19.6,12,19.5,11.8z M56,38.4c-0.1,0.1-0.2,0.2-0.3,0.2c0.3,0.2,0.6,0.5,0.9,0.7
	c0.1-0.1,0.1-0.1,0.2-0.2C56.5,38.9,56.2,38.7,56,38.4z M51,26.1c0.1-0.1,0.1-0.1,0.2-0.2c-0.2-0.1-0.4-0.2-0.6-0.3
	c0,0.1-0.1,0.1-0.1,0.2C50.7,25.8,50.8,26,51,26.1z M10.1,49c0.1-0.2,0.3-0.3,0.2-0.3c0-0.1-0.1-0.2-0.2-0.3c-0.1,0-0.3,0.1-0.3,0.1
	C9.9,48.7,10,48.8,10.1,49z M44,49.8c-0.3-0.2-0.4-0.2-0.5-0.3c0,0-0.1,0.1-0.1,0.2c0,0.1,0.1,0.2,0.2,0.2
	C43.7,49.9,43.8,49.8,44,49.8z M19.7,38.8c-0.2,0-0.4-0.1-0.5-0.1c-0.1,0-0.2,0.1-0.3,0.2c0.1,0.1,0.2,0.2,0.2,0.2
	C19.4,39,19.5,38.9,19.7,38.8z M60.2,34.2c0.1-0.1,0.3-0.2,0.3-0.3c0-0.1-0.1-0.2-0.1-0.3c-0.1,0.1-0.3,0.1-0.3,0.2
	C60,33.9,60.1,34,60.2,34.2z M58.8,16.1c-0.3,0-0.5-0.1-0.6-0.1c-0.1,0-0.1,0.1-0.2,0.2c0.1,0,0.2,0.1,0.3,0.1
	C58.4,16.3,58.5,16.2,58.8,16.1z M37.5,50c0.1,0,0.1-0.1,0.2-0.1c-0.1-0.1-0.1-0.1-0.2-0.2c0,0-0.1,0.1-0.2,0.2
	C37.4,49.9,37.4,50,37.5,50z M58.6,35.9c-0.1-0.1-0.2-0.1-0.3-0.1c0,0-0.1,0.2-0.1,0.2c0.1,0.1,0.2,0.1,0.2,0.2
	C58.5,36.1,58.6,36,58.6,35.9z M65.9,19.7c-0.1,0.1-0.2,0.1-0.3,0.1c0.1,0.1,0.1,0.2,0.2,0.3c0,0,0.1-0.1,0.2-0.1
	C66,19.8,66,19.8,65.9,19.7z M35.9,13.9c-0.1,0-0.1-0.1-0.2-0.1c-0.1,0-0.1,0.1-0.2,0.1c0.1,0.1,0.1,0.1,0.2,0.2
	C35.8,14.1,35.8,13.9,35.9,13.9z M37.5,36.5c-0.1,0-0.1-0.1-0.2-0.1c0,0-0.1,0.1-0.1,0.1c0,0.1,0.1,0.1,0.1,0.2
	C37.4,36.6,37.4,36.6,37.5,36.5z M20.8,52.3c0,0.1-0.1,0.1-0.1,0.2c0.1,0,0.1,0.1,0.2,0.1c0,0,0.1-0.1,0.1-0.1
	C20.9,52.4,20.8,52.3,20.8,52.3z M56.9,53c0.1,0,0.1-0.1,0.2-0.1c0-0.1,0-0.1,0-0.2c-0.1,0-0.1,0.1-0.2,0.1
	C56.8,52.9,56.9,53,56.9,53z M62.4,42.9c0,0.1-0.1,0.1-0.1,0.2c0,0,0.1,0.1,0.1,0.1C62.4,43.1,62.4,43.1,62.4,42.9
	C62.4,43,62.4,43,62.4,42.9z M13.7,43.9c-0.1,0-0.1,0.1-0.2,0.1c0.1,0,0.1,0.1,0.2,0.1c0.1,0,0.1,0,0.2-0.1
	C13.8,44,13.7,43.9,13.7,43.9z M39.7,43.4c0,0.1-0.1,0.1-0.1,0.2c0,0,0.1,0.1,0.1,0.1c0.1,0,0.1-0.1,0.2-0.1
	C39.8,43.5,39.7,43.5,39.7,43.4z M51.8,18c-0.1,0-0.1-0.1-0.2-0.1c0,0.1-0.1,0.2-0.1,0.2c0,0,0.1,0.1,0.2,0.1
	C51.7,18.1,51.8,18.1,51.8,18z M9.4,14.4c-0.1,0-0.1-0.1-0.2-0.1c0,0-0.1,0.1-0.1,0.1c0,0.1,0.1,0.1,0.1,0.2
	C9.3,14.5,9.3,14.4,9.4,14.4z M41,41.1c0-0.1,0.1-0.1,0.1-0.2c0,0-0.1-0.1-0.1-0.1c-0.1,0-0.1,0.1-0.2,0.1C40.9,41,41,41.1,41,41.1z
	 M5.4,29.3c0.1,0.1,0.1,0.1,0.2,0.2c0.1,0,0.1,0,0.2-0.1c-0.1-0.1-0.1-0.1-0.2-0.2C5.6,29.2,5.5,29.2,5.4,29.3z M13.2,26.7
	c0,0-0.1-0.1-0.1-0.1c0,0-0.1,0-0.1,0.1c0,0.1,0.1,0.1,0.1,0.2C13.1,26.7,13.2,26.7,13.2,26.7z M33.8,13.4
	C33.8,13.3,33.7,13.3,33.8,13.4c-0.1-0.1-0.2,0-0.2,0c0,0,0,0.1,0.1,0.1C33.7,13.4,33.7,13.4,33.8,13.4z M62.3,29.9
	C62.3,29.9,62.4,29.9,62.3,29.9c0.1-0.1,0-0.2,0-0.2c0,0-0.1,0-0.1,0C62.2,29.8,62.2,29.9,62.3,29.9z M16.3,32.2c0,0,0-0.1,0-0.1
	c0,0-0.1,0-0.1-0.1c0,0.1,0,0.1-0.1,0.2C16.3,32.2,16.3,32.2,16.3,32.2z M51.8,32.7c0,0,0-0.1,0-0.1c0,0-0.1,0-0.1,0
	c0,0.1,0,0.1,0,0.2C51.7,32.8,51.7,32.7,51.8,32.7z M4.6,30.7c0,0,0-0.1,0-0.1c0,0-0.1,0-0.1-0.1c0,0.1,0,0.1-0.1,0.2
	C4.5,30.7,4.6,30.7,4.6,30.7z M21.6,33.5C21.7,33.5,21.7,33.4,21.6,33.5c0.1-0.1,0-0.1,0-0.2C21.6,33.3,21.6,33.4,21.6,33.5
	C21.6,33.4,21.6,33.5,21.6,33.5z M40.2,39.3c0,0,0-0.1,0-0.1c-0.1,0-0.1,0-0.2,0c0,0,0,0.1,0.1,0.1C40.2,39.3,40.2,39.3,40.2,39.3z
	 M53.4,38.6C53.4,38.6,53.3,38.6,53.4,38.6c-0.1,0.1,0,0.2,0,0.2c0,0,0.1-0.1,0.1-0.1C53.5,38.6,53.4,38.6,53.4,38.6z M3.3,35.5
	c0,0,0.1,0.1,0.1,0.1c0,0,0.1-0.1,0.1-0.1C3.5,35.5,3.4,35.5,3.3,35.5C3.4,35.5,3.3,35.5,3.3,35.5z M59.5,33.9c0-0.1,0-0.2-0.1-0.2
	c-0.1,0-0.1,0-0.2,0.1c0,0.1,0,0.2,0.1,0.2C59.4,34,59.5,33.9,59.5,33.9z M47.8,38C47.8,38,47.8,38,47.8,38c-0.1-0.1-0.2,0-0.2,0
	c0,0,0.1,0.1,0.1,0.1C47.8,38.1,47.8,38.1,47.8,38z M58.2,37.3C58.2,37.3,58.2,37.3,58.2,37.3c0-0.1-0.1-0.1-0.2,0
	C58.1,37.3,58.1,37.4,58.2,37.3C58.1,37.4,58.2,37.4,58.2,37.3z M45.7,19.2c0,0,0-0.1,0-0.1c-0.1,0-0.1,0-0.2,0c0,0,0,0.1,0.1,0.1
	C45.6,19.2,45.7,19.2,45.7,19.2z M11.3,19.1C11.3,19.1,11.3,19.1,11.3,19.1c0,0.1,0,0.1,0.1,0.2c0,0,0-0.1,0-0.1
	C11.4,19.1,11.4,19.1,11.3,19.1z M51.9,18.9c0-0.1,0.1-0.1,0.1-0.2c0,0-0.1-0.1-0.1-0.1c-0.1,0-0.1,0.1-0.2,0.1
	C51.8,18.8,51.8,18.9,51.9,18.9z M45.1,14.1C45.1,14.1,45,14.1,45.1,14.1c-0.1,0.1,0,0.1,0,0.2c0,0,0.1,0,0.1,0
	C45.2,14.2,45.1,14.2,45.1,14.1z M17.2,12.7C17.2,12.7,17.2,12.7,17.2,12.7c-0.1,0-0.1,0-0.2,0.1C17.1,12.8,17.2,12.8,17.2,12.7
	C17.2,12.8,17.2,12.7,17.2,12.7z M25.9,20.1C25.9,20.1,25.9,20.2,25.9,20.1c0,0.1,0,0.1,0.1,0.2c0,0,0-0.1,0-0.1
	C26,20.1,25.9,20.1,25.9,20.1z M16.6,13.3c0,0.1-0.1,0.1-0.1,0.2c0,0,0.1,0.1,0.1,0.1C16.6,13.5,16.6,13.4,16.6,13.3
	C16.7,13.4,16.6,13.3,16.6,13.3z M64.8,19.6c0,0,0-0.1,0-0.1c-0.1,0-0.1,0-0.2,0.1c0,0,0,0.1,0.1,0.1C64.7,19.7,64.8,19.7,64.8,19.6
	z M57.6,19.3C57.6,19.3,57.5,19.4,57.6,19.3c-0.1,0.1,0,0.1,0,0.2C57.6,19.4,57.6,19.4,57.6,19.3C57.6,19.3,57.6,19.3,57.6,19.3z
	 M51.1,16.4C51,16.4,51,16.4,51.1,16.4c0,0.1,0,0.1,0.1,0.2c0,0,0-0.1,0-0.1C51.2,16.4,51.1,16.4,51.1,16.4z M35.4,15.4
	c0,0,0-0.1,0-0.1c0,0-0.1,0.1-0.1,0.1C35.3,15.4,35.4,15.4,35.4,15.4C35.4,15.4,35.4,15.4,35.4,15.4z M60.1,15.8c0,0,0-0.1,0-0.1
	c0,0-0.1,0-0.1,0c0,0.1,0,0.1,0,0.2C60,15.8,60.1,15.8,60.1,15.8z M31.5,15.4c-0.1,0-0.1-0.1-0.2-0.1c0,0-0.1,0.1-0.1,0.1
	c0,0.1,0.1,0.1,0.1,0.2C31.5,15.5,31.5,15.4,31.5,15.4z M16.3,18.5C16.3,18.5,16.3,18.5,16.3,18.5c-0.1-0.1-0.1-0.1-0.2-0.1
	C16.2,18.5,16.2,18.6,16.3,18.5C16.2,18.6,16.3,18.6,16.3,18.5z M58.6,16.9C58.6,16.9,58.6,16.8,58.6,16.9c-0.1-0.1-0.1-0.1-0.1-0.1
	c0,0,0,0.1,0,0.1C58.6,17,58.6,16.9,58.6,16.9z M20.7,26.2c0,0,0-0.1,0-0.1c-0.1,0-0.1,0-0.2,0c0,0,0,0.1,0.1,0.1
	C20.6,26.3,20.7,26.2,20.7,26.2z M11.6,25.4c0,0.1,0.1,0.2,0.1,0.2c0.1,0,0.1,0,0.2-0.1c0-0.1-0.1-0.2-0.1-0.2
	C11.8,25.3,11.7,25.4,11.6,25.4z M64.6,28.9c0,0,0.1,0,0.1,0c0,0,0-0.1,0-0.1C64.6,28.7,64.6,28.8,64.6,28.9
	C64.6,28.8,64.6,28.8,64.6,28.9z M18,28.4C18,28.4,18.1,28.3,18,28.4c0.1-0.1,0-0.2,0-0.2c0,0-0.1,0-0.1,0.1
	C17.9,28.3,18,28.3,18,28.4z M14.2,9.7c0,0,0-0.1,0-0.1c-0.1,0-0.1,0-0.2,0c0,0,0,0.1,0,0.1C14.1,9.7,14.1,9.7,14.2,9.7z M49.7,26.9
	c-0.1,0-0.1-0.1-0.2-0.1c0,0.1,0,0.1,0,0.2c0,0,0.1,0.1,0.1,0.1C49.7,27,49.7,26.9,49.7,26.9z M22.4,26.7
	C22.3,26.7,22.3,26.6,22.4,26.7c-0.1-0.1-0.1-0.1-0.1-0.1C22.2,26.7,22.3,26.7,22.4,26.7C22.3,26.8,22.3,26.7,22.4,26.7z M10.5,22
	C10.6,22,10.6,22,10.5,22c0.1-0.1,0.1-0.1,0.1-0.2C10.5,21.9,10.5,21.9,10.5,22C10.5,22,10.5,22,10.5,22z M41,11.7
	C41,11.7,40.9,11.7,41,11.7c-0.1,0.1,0,0.1,0,0.2C41,11.8,41.1,11.8,41,11.7C41.1,11.7,41,11.7,41,11.7z M54.2,12.7c0,0,0-0.1,0-0.1
	c0,0-0.1,0.1-0.1,0.1C54.1,12.8,54.1,12.8,54.2,12.7C54.2,12.8,54.2,12.8,54.2,12.7z M40,10.1C39.9,10.1,39.9,10.2,40,10.1
	c-0.1,0.1,0,0.1,0,0.2c0,0,0.1-0.1,0.1-0.1C40,10.1,40,10.1,40,10.1z M53.9,10.3c0,0,0-0.1,0-0.1c-0.1,0-0.1,0-0.2,0.1
	c0,0,0,0.1,0.1,0.1C53.8,10.3,53.8,10.3,53.9,10.3z M17.3,10.4C17.3,10.4,17.2,10.4,17.3,10.4c-0.1,0.1,0,0.1,0,0.2
	c0,0,0.1-0.1,0.1-0.1C17.4,10.4,17.3,10.4,17.3,10.4z M38.2,10.6c0,0-0.1,0-0.1,0c0,0.1,0,0.1,0,0.2c0,0,0.1,0,0.1,0
	C38.2,10.8,38.2,10.7,38.2,10.6z M19.2,51.5c0,0-0.1-0.1-0.1-0.1c0,0-0.1,0.1-0.1,0.1C19,51.5,19,51.5,19.2,51.5
	C19.1,51.5,19.1,51.5,19.2,51.5z M37.4,50.8c0,0-0.1,0-0.1,0c0,0.1,0,0.1,0,0.2c0,0,0.1,0,0.1-0.1C37.5,50.9,37.4,50.9,37.4,50.8z
	 M36.6,51c0,0,0-0.1,0-0.1c-0.1,0-0.1,0-0.2,0c0,0,0,0.1,0.1,0.1C36.5,51,36.6,51,36.6,51z M15.7,53.3c0,0-0.1,0-0.1,0
	c0,0,0,0.1,0,0.1C15.6,53.4,15.6,53.4,15.7,53.3C15.7,53.4,15.7,53.3,15.7,53.3z M56.2,53C56.2,53,56.2,52.9,56.2,53
	c-0.1-0.1-0.1,0-0.2,0c0,0,0.1,0.1,0.1,0.1C56.2,53.1,56.2,53,56.2,53z M52.3,45.7c0-0.1,0-0.1-0.1-0.2c0,0-0.1,0-0.1,0
	c0,0,0,0.1,0,0.1C52.2,45.7,52.2,45.7,52.3,45.7z M47.3,45.6C47.2,45.6,47.2,45.7,47.3,45.6c0,0.1,0,0.1,0.1,0.2c0,0,0-0.1,0-0.1
	C47.3,45.6,47.3,45.6,47.3,45.6z M63.3,44.6C63.3,44.6,63.3,44.6,63.3,44.6c-0.1,0.1,0,0.1,0,0.2C63.3,44.7,63.4,44.7,63.3,44.6
	C63.4,44.6,63.3,44.6,63.3,44.6z M14.9,44.8c0,0,0.1,0,0.1-0.1c0,0-0.1-0.1-0.1-0.1C14.9,44.6,14.9,44.7,14.9,44.8
	C14.9,44.7,14.9,44.7,14.9,44.8z M42.3,50.1C42.3,50,42.3,50,42.3,50.1C42.3,50,42.2,50,42.2,50c0,0,0,0.1,0,0.1
	C42.2,50.1,42.3,50.1,42.3,50.1z M52.8,48.2C52.8,48.2,52.8,48.2,52.8,48.2c-0.1,0-0.1,0-0.1,0.1C52.7,48.3,52.8,48.3,52.8,48.2
	C52.8,48.3,52.8,48.2,52.8,48.2z M11.1,47.8c-0.1,0-0.1,0.1-0.2,0.1c0,0.1,0.1,0.2,0.1,0.2c0,0,0.1,0,0.2-0.1
	C11.2,47.9,11.1,47.9,11.1,47.8z M14.9,42.6C14.9,42.5,15,42.5,14.9,42.6c0-0.1,0-0.1,0-0.1C14.9,42.5,14.9,42.5,14.9,42.6
	C14.9,42.6,14.9,42.6,14.9,42.6z M18,41.6c0-0.1,0.1-0.1,0.1-0.2c0,0-0.1,0-0.1,0C18,41.4,17.9,41.5,18,41.6
	C17.9,41.5,18,41.5,18,41.6z M36.2,14.9L36.2,14.9L36.2,14.9L36.2,14.9z M57.1,38.7L57.1,38.7L57.1,38.7L57.1,38.7z M32,14.7
	L32,14.7L32,14.7L32,14.7z M64.1,42.3C64.1,42.3,64.1,42.2,64.1,42.3c0-0.1-0.1-0.1-0.1-0.1C64,42.3,64,42.3,64.1,42.3
	C64,42.3,64.1,42.3,64.1,42.3z M57.1,42.1L57.1,42.1l0.1,0L57.1,42.1z M9.6,13.7C9.6,13.6,9.6,13.6,9.6,13.7c0-0.1-0.1-0.1-0.1-0.1
	C9.6,13.6,9.6,13.7,9.6,13.7C9.6,13.7,9.6,13.7,9.6,13.7z M26.2,13.1L26.2,13.1L26.2,13.1L26.2,13.1z M62.7,14.3
	C62.7,14.4,62.7,14.4,62.7,14.3c0,0.1,0,0.1,0,0.1C62.8,14.4,62.8,14.4,62.7,14.3C62.8,14.4,62.7,14.3,62.7,14.3z M15.4,14.4
	L15.4,14.4L15.4,14.4L15.4,14.4z M4.7,38.2L4.7,38.2L4.7,38.2L4.7,38.2z M33.2,17.6L33.2,17.6L33.2,17.6L33.2,17.6z M17.3,38.2
	L17.3,38.2L17.3,38.2L17.3,38.2z M49.2,18.6L49.2,18.6L49.2,18.6L49.2,18.6z M13.4,16.3L13.4,16.3L13.4,16.3L13.4,16.3z M49.3,16.1
	L49.3,16.1L49.3,16.1L49.3,16.1z M64.5,42.6L64.5,42.6L64.5,42.6L64.5,42.6z M19.6,16.8L19.6,16.8L19.6,16.8L19.6,16.8z M20.8,16.8
	L20.8,16.8L20.8,16.8L20.8,16.8z M5.4,40.7L5.4,40.7L5.4,40.7L5.4,40.7z M66.7,40.7L66.7,40.7L66.7,40.7L66.7,40.7z M31.7,11.2
	c0,0,0,0.1,0,0.1C31.7,11.3,31.8,11.3,31.7,11.2C31.8,11.3,31.8,11.2,31.7,11.2z M39.6,39.6L39.6,39.6L39.6,39.6L39.6,39.6z
	 M13.5,10.7L13.5,10.7L13.5,10.7L13.5,10.7z M34.4,10.5L34.4,10.5L34.4,10.5L34.4,10.5z M39.2,10.1L39.2,10.1L39.2,10.1L39.2,10.1z
	 M47.2,39.3L47.2,39.3L47.2,39.3L47.2,39.3z M16.8,12L16.8,12L16.8,12L16.8,12z M58.3,8.7L58.3,8.7L58.3,8.7L58.3,8.7z M46.1,10
	L46.1,10l0,0.1L46.1,10z M52.7,9.6L52.7,9.6L52.7,9.6L52.7,9.6z M25.4,28.4c-0.1,0-0.1,0-0.2,0C25.3,28.4,25.3,28.4,25.4,28.4
	C25.4,28.4,25.4,28.4,25.4,28.4z M11.5,28.4L11.5,28.4L11.5,28.4L11.5,28.4z M47.5,46.9L47.5,46.9L47.5,46.9L47.5,46.9z M65.2,27.8
	L65.2,27.8L65.2,27.8L65.2,27.8z M65.2,27.3C65.2,27.3,65.2,27.3,65.2,27.3c-0.1,0-0.1,0.1-0.1,0.1C65.2,27.3,65.2,27.3,65.2,27.3
	C65.3,27.3,65.2,27.3,65.2,27.3z M6.4,29.7L6.4,29.7L6.4,29.7L6.4,29.7z M17.4,29.5L17.4,29.5L17.4,29.5L17.4,29.5z M42.8,46.1
	L42.8,46.1L42.8,46.1L42.8,46.1z M41.1,48.1c0-0.1,0-0.1,0.1-0.2c0,0-0.1,0-0.1,0C41.1,48,41.1,48,41.1,48.1z M14.8,25.9L14.8,25.9
	L14.8,25.9L14.8,25.9z M12.5,25.9L12.5,25.9L12.5,25.9L12.5,25.9z M39.9,25.6L39.9,25.6L39.9,25.6L39.9,25.6z M26.1,43.2L26.1,43.2
	L26.1,43.2L26.1,43.2z M41.4,25.1L41.4,25.1L41.4,25.1L41.4,25.1z M62.9,26.5L62.9,26.5L62.9,26.5L62.9,26.5z M54.1,47.2L54.1,47.2
	L54.1,47.2L54.1,47.2z M6.1,47.6L6.1,47.6L6.1,47.6L6.1,47.6z M14.2,44.6L14.2,44.6L14.2,44.6L14.2,44.6z M45.9,43.9L45.9,43.9
	L45.9,43.9L45.9,43.9z M5.4,34.1L5.4,34.1l0,0.1L5.4,34.1z M11.4,45.4L11.4,45.4L11.4,45.4L11.4,45.4z M65.2,30.2L65.2,30.2
	L65.2,30.2L65.2,30.2z M41.3,43.4L41.3,43.4L41.3,43.4L41.3,43.4z M7.8,32C7.8,32,7.9,32,7.8,32c0.1,0,0.1,0,0.1-0.1
	C7.9,32,7.9,31.9,7.8,32C7.8,31.9,7.8,32,7.8,32z M11.7,31.8L11.7,31.8L11.7,31.8L11.7,31.8z M48.1,31.1L48.1,31.1L48.1,31.1
	L48.1,31.1z M14.6,52.7L14.6,52.7L14.6,52.7L14.6,52.7z M33.9,52.9L33.9,52.9L33.9,52.9L33.9,52.9z M44.6,52.8L44.6,52.8L44.6,52.8
	L44.6,52.8z M42.9,20.7L42.9,20.7L42.9,20.7L42.9,20.7z M27.5,20.5L27.5,20.5L27.5,20.5L27.5,20.5z M66.6,20.4L66.6,20.4L66.6,20.4
	L66.6,20.4z M40.8,20.4L40.8,20.4L40.8,20.4L40.8,20.4z M47.1,19.1L47.1,19.1L47.1,19.1L47.1,19.1z M15.2,18.7L15.2,18.7L15.2,18.7
	L15.2,18.7z M6.6,18.7L6.6,18.7L6.6,18.7L6.6,18.7z M55.6,19.3L55.6,19.3L55.6,19.3L55.6,19.3z M31.7,53.4L31.7,53.4L31.7,53.4
	L31.7,53.4z M29.9,19.3L29.9,19.3L29.9,19.3L29.9,19.3z M32.4,49.4L32.4,49.4L32.4,49.4L32.4,49.4z M8,24.1L8,24.1L8,24.1L8,24.1z
	 M26,49.8L26,49.8L26,49.8L26,49.8z M5.1,23.1L5.1,23.1L5.1,23.1L5.1,23.1z M38,24.8L38,24.8L38,24.8L38,24.8z M7.7,49.3L7.7,49.3
	L7.7,49.3L7.7,49.3z M57.2,36.5L57.2,36.5L57.2,36.5L57.2,36.5z M23.3,36.7L23.3,36.7L23.3,36.7L23.3,36.7z M60.7,43L60.7,43
	L60.7,43L60.7,43z M38.9,42.9L38.9,42.9L38.9,42.9L38.9,42.9z M59.6,21.4L59.6,21.4L59.6,21.4L59.6,21.4z M11.8,22.9L11.8,22.9
	L11.8,22.9L11.8,22.9z M53.7,50.5L53.7,50.5L53.7,50.5L53.7,50.5z M35.6,50.9L35.6,50.9L35.6,50.9L35.6,50.9z"/>
</svg>
